<svg xmlns="http://www.w3.org/2000/svg" width="670" height="359.176" viewBox="0 0 670 359.176">
  <g id="Grupo_972867" data-name="Grupo 972867" transform="translate(2119.5 11185)">
    <path id="Trazado_737616" data-name="Trazado 737616" d="M-2083-11157.287v326.182h619.429" transform="translate(0 -22.281)" fill="none" stroke="#707070" stroke-width="1"/>
    <path id="Trazado_737626" data-name="Trazado 737626" d="M4.052-4.342V0H.967V-12.8H6.073a5.948,5.948,0,0,1,2.6.541,4.074,4.074,0,0,1,1.749,1.538,4.2,4.2,0,0,1,.62,2.263A3.7,3.7,0,0,1,9.7-5.462,5.561,5.561,0,0,1,6.021-4.342Zm0-2.382H6.073A1.906,1.906,0,0,0,7.44-7.172a1.665,1.665,0,0,0,.47-1.266A2.059,2.059,0,0,0,7.427-9.87a1.712,1.712,0,0,0-1.318-.545H4.052Zm8.007,1.881a5.613,5.613,0,0,1,.554-2.536A3.96,3.96,0,0,1,14.2-9.088a4.791,4.791,0,0,1,2.435-.6A4.373,4.373,0,0,1,20-8.363a5.076,5.076,0,0,1,1.23,3.6v.105A4.925,4.925,0,0,1,20-1.129,4.384,4.384,0,0,1,16.655.176a4.434,4.434,0,0,1-3.261-1.217,4.761,4.761,0,0,1-1.327-3.3Zm2.962.185a3.538,3.538,0,0,0,.413,1.934,1.376,1.376,0,0,0,1.222.615q1.582,0,1.617-2.435v-.3q0-2.558-1.635-2.558-1.485,0-1.608,2.206Zm12.5,1.986a.684.684,0,0,0-.4-.606,6.016,6.016,0,0,0-1.5-.475A6.853,6.853,0,0,1,23.792-4.4a3.062,3.062,0,0,1-1.1-.971,2.319,2.319,0,0,1-.378-1.31A2.628,2.628,0,0,1,23.4-8.837a4.453,4.453,0,0,1,2.83-.848,4.934,4.934,0,0,1,3.023.853,2.666,2.666,0,0,1,1.143,2.241H27.422q0-1.143-1.2-1.143a1.194,1.194,0,0,0-.782.259.8.8,0,0,0-.316.646.737.737,0,0,0,.387.642,3.654,3.654,0,0,0,1.235.4,10.671,10.671,0,0,1,1.49.378A2.706,2.706,0,0,1,30.375-2.76,2.491,2.491,0,0,1,29.219-.642a5.068,5.068,0,0,1-2.993.817,5.172,5.172,0,0,1-2.18-.439,3.645,3.645,0,0,1-1.494-1.2,2.707,2.707,0,0,1-.536-1.591h2.769a1.145,1.145,0,0,0,.439.962,1.808,1.808,0,0,0,1.081.3,1.422,1.422,0,0,0,.91-.246A.787.787,0,0,0,27.519-2.672ZM34.884,0H31.913V-9.51h2.971ZM31.737-11.962A1.322,1.322,0,0,1,32.194-13a1.724,1.724,0,0,1,1.187-.4,1.724,1.724,0,0,1,1.187.4,1.322,1.322,0,0,1,.457,1.037,1.322,1.322,0,0,1-.457,1.037,1.724,1.724,0,0,1-1.187.4,1.724,1.724,0,0,1-1.187-.4A1.322,1.322,0,0,1,31.737-11.962Zm13.8,7.286a5.8,5.8,0,0,1-.967,3.595A3.238,3.238,0,0,1,41.845.176,2.81,2.81,0,0,1,39.507-.976L39.384,0H36.729V-13.5h2.962v4.755a2.711,2.711,0,0,1,2.136-.94,3.239,3.239,0,0,1,2.742,1.274,5.826,5.826,0,0,1,.967,3.586ZM42.565-4.86A3.878,3.878,0,0,0,42.2-6.816,1.229,1.229,0,0,0,41.08-7.4a1.418,1.418,0,0,0-1.389.765v3.779A1.426,1.426,0,0,0,41.1-2.1a1.258,1.258,0,0,0,1.327-1.02A7.333,7.333,0,0,0,42.565-4.86ZM49.966,0H47V-9.51h2.971ZM46.819-11.962A1.322,1.322,0,0,1,47.276-13a1.724,1.724,0,0,1,1.187-.4,1.724,1.724,0,0,1,1.187.4,1.322,1.322,0,0,1,.457,1.037,1.322,1.322,0,0,1-.457,1.037,1.724,1.724,0,0,1-1.187.4,1.724,1.724,0,0,1-1.187-.4A1.322,1.322,0,0,1,46.819-11.962ZM54.914,0H51.943V-13.5h2.971Zm4.948,0H56.892V-9.51h2.971ZM56.716-11.962A1.322,1.322,0,0,1,57.173-13a1.724,1.724,0,0,1,1.187-.4,1.724,1.724,0,0,1,1.187.4A1.322,1.322,0,0,1,60-11.962a1.322,1.322,0,0,1-.457,1.037,1.724,1.724,0,0,1-1.187.4,1.724,1.724,0,0,1-1.187-.4A1.322,1.322,0,0,1,56.716-11.962Zm4.6,7.137a5.809,5.809,0,0,1,.976-3.56,3.211,3.211,0,0,1,2.725-1.3,2.731,2.731,0,0,1,2.145,1V-13.5h2.971V0H67.465l-.149-1.02A2.8,2.8,0,0,1,65,.176a3.205,3.205,0,0,1-2.689-1.3A5.993,5.993,0,0,1,61.313-4.825Zm2.962.185q0,2.531,1.477,2.531a1.458,1.458,0,0,0,1.406-.826V-6.557A1.419,1.419,0,0,0,65.769-7.4q-1.371,0-1.485,2.215ZM77.168,0a3.344,3.344,0,0,1-.281-.853A2.754,2.754,0,0,1,74.6.176a3.374,3.374,0,0,1-2.285-.813,2.588,2.588,0,0,1-.94-2.043,2.66,2.66,0,0,1,1.143-2.338,5.821,5.821,0,0,1,3.322-.791h.914v-.5q0-1.31-1.134-1.31a.925.925,0,0,0-1.055,1.037H71.6a2.659,2.659,0,0,1,1.173-2.241,4.927,4.927,0,0,1,2.993-.861,4.323,4.323,0,0,1,2.874.888,3.086,3.086,0,0,1,1.081,2.435v4.21a4.311,4.311,0,0,0,.4,2V0ZM75.313-1.934a1.652,1.652,0,0,0,.918-.237,1.487,1.487,0,0,0,.523-.536V-4.228h-.861q-1.547,0-1.547,1.389a.848.848,0,0,0,.272.655A.986.986,0,0,0,75.313-1.934Zm5.678-2.892a5.809,5.809,0,0,1,.976-3.56,3.211,3.211,0,0,1,2.725-1.3,2.731,2.731,0,0,1,2.145,1V-13.5h2.971V0H87.144l-.149-1.02a2.8,2.8,0,0,1-2.32,1.2,3.205,3.205,0,0,1-2.689-1.3A5.993,5.993,0,0,1,80.991-4.825Zm2.962.185q0,2.531,1.477,2.531a1.458,1.458,0,0,0,1.406-.826V-6.557A1.419,1.419,0,0,0,85.447-7.4q-1.371,0-1.485,2.215Z" transform="translate(-2106 -10971) rotate(-90)" fill="#12263f"/>
    <path id="Trazado_737617" data-name="Trazado 737617" d="M-2061.906-10971s93.115-6.974,93.115,93.115" fill="none" stroke="#707070" stroke-width="1"/>
    <path id="Trazado_737623" data-name="Trazado 737623" d="M-23.854-4.931h-2.479V0h-2.224V-12.8h4.5a5.238,5.238,0,0,1,3.419.993,3.512,3.512,0,0,1,1.2,2.874,3.6,3.6,0,0,1-.62,2.149,3.942,3.942,0,0,1-1.727,1.332l2.874,5.335V0h-2.382Zm-2.479-1.784h2.285a2.541,2.541,0,0,0,1.758-.567,1.977,1.977,0,0,0,.633-1.551,2.1,2.1,0,0,0-.584-1.591A2.483,2.483,0,0,0-23.985-11h-2.347ZM-15.258,0h-2.136V-9.51h2.136Zm-2.268-11.979a1.133,1.133,0,0,1,.312-.817,1.179,1.179,0,0,1,.892-.325,1.193,1.193,0,0,1,.9.325,1.125,1.125,0,0,1,.316.817,1.1,1.1,0,0,1-.316.8,1.2,1.2,0,0,1-.9.321,1.188,1.188,0,0,1-.892-.321A1.107,1.107,0,0,1-17.525-11.979ZM-8.745.176A4.419,4.419,0,0,1-12.037-1.1,4.639,4.639,0,0,1-13.3-4.509v-.264a5.706,5.706,0,0,1,.549-2.544,4.181,4.181,0,0,1,1.542-1.745,4.078,4.078,0,0,1,2.215-.624,3.733,3.733,0,0,1,3,1.239A5.24,5.24,0,0,1-4.931-4.939v.861h-6.214a2.856,2.856,0,0,0,.787,1.863,2.362,2.362,0,0,0,1.736.686A2.892,2.892,0,0,0-6.231-2.716l1.151,1.1A3.845,3.845,0,0,1-6.6-.294,4.774,4.774,0,0,1-8.745.176ZM-9-7.972a1.8,1.8,0,0,0-1.419.615,3.189,3.189,0,0,0-.69,1.714H-7.04V-5.8a2.6,2.6,0,0,0-.571-1.622A1.785,1.785,0,0,0-9-7.972ZM2.057-2.584a.968.968,0,0,0-.47-.87,5,5,0,0,0-1.56-.527,8.02,8.02,0,0,1-1.819-.58A2.428,2.428,0,0,1-3.393-6.8,2.531,2.531,0,0,1-2.355-8.859,4.1,4.1,0,0,1,.281-9.686a4.266,4.266,0,0,1,2.755.844,2.677,2.677,0,0,1,1.05,2.188H1.951a1.316,1.316,0,0,0-.457-1.024A1.752,1.752,0,0,0,.281-8.086a1.893,1.893,0,0,0-1.147.325,1.025,1.025,0,0,0-.444.87A.866.866,0,0,0-.9-6.126a5.68,5.68,0,0,0,1.67.549,7.9,7.9,0,0,1,1.973.659A2.794,2.794,0,0,1,3.81-4a2.342,2.342,0,0,1,.347,1.3A2.478,2.478,0,0,1,3.094-.62a4.535,4.535,0,0,1-2.786.8A4.917,4.917,0,0,1-1.775-.246,3.428,3.428,0,0,1-3.2-1.406,2.746,2.746,0,0,1-3.709-3h2.074a1.5,1.5,0,0,0,.571,1.165,2.22,2.22,0,0,0,1.4.409,2.16,2.16,0,0,0,1.283-.321A.993.993,0,0,0,2.057-2.584ZM5.643-4.825A5.562,5.562,0,0,1,6.684-8.363,3.343,3.343,0,0,1,9.448-9.686a3.132,3.132,0,0,1,2.558,1.134l.1-.958h1.925V-.29a3.832,3.832,0,0,1-1.165,2.953A4.436,4.436,0,0,1,9.721,3.744a5.064,5.064,0,0,1-2.043-.435A3.631,3.631,0,0,1,6.161,2.171L7.172.888A3.053,3.053,0,0,0,9.6,2.057a2.359,2.359,0,0,0,1.679-.576,2.206,2.206,0,0,0,.615-1.692V-.853A3.144,3.144,0,0,1,9.431.176,3.335,3.335,0,0,1,6.7-1.151,5.742,5.742,0,0,1,5.643-4.825Zm2.127.185a3.829,3.829,0,0,0,.584,2.254,1.879,1.879,0,0,0,1.622.822,2.055,2.055,0,0,0,1.916-1.107V-6.855a2.026,2.026,0,0,0-1.9-1.081A1.887,1.887,0,0,0,8.354-7.1,4.287,4.287,0,0,0,7.77-4.641Zm8.051-.2a5.607,5.607,0,0,1,.554-2.518A4.044,4.044,0,0,1,17.93-9.083a4.383,4.383,0,0,1,2.3-.6,4.154,4.154,0,0,1,3.125,1.239,4.874,4.874,0,0,1,1.3,3.287l.009.5a5.658,5.658,0,0,1-.541,2.514A4,4,0,0,1,22.575-.431,4.415,4.415,0,0,1,20.25.176a4.125,4.125,0,0,1-3.221-1.34A5.133,5.133,0,0,1,15.82-4.737Zm2.136.185a3.832,3.832,0,0,0,.606,2.3,1.971,1.971,0,0,0,1.688.831,1.95,1.95,0,0,0,1.683-.844,4.232,4.232,0,0,0,.6-2.47,3.782,3.782,0,0,0-.62-2.285,1.979,1.979,0,0,0-1.683-.844,1.96,1.96,0,0,0-1.661.831A4.152,4.152,0,0,0,17.956-4.658ZM-32.757,25A3.3,3.3,0,0,1-33,24.112a3.325,3.325,0,0,1-2.5,1.063,3.355,3.355,0,0,1-2.338-.817,2.615,2.615,0,0,1-.905-2.021A2.7,2.7,0,0,1-37.613,20a5.473,5.473,0,0,1,3.23-.813h1.31v-.624a1.666,1.666,0,0,0-.413-1.182,1.638,1.638,0,0,0-1.257-.444,1.881,1.881,0,0,0-1.2.365,1.129,1.129,0,0,0-.466.927H-38.54a2.37,2.37,0,0,1,.519-1.463A3.455,3.455,0,0,1-36.611,15.7a4.955,4.955,0,0,1,1.991-.387,3.99,3.99,0,0,1,2.663.839,2.993,2.993,0,0,1,1.02,2.36V22.8a4.861,4.861,0,0,0,.36,2.048V25ZM-35.1,23.462a2.429,2.429,0,0,0,1.191-.308,2.055,2.055,0,0,0,.839-.826V20.535h-1.151a3.148,3.148,0,0,0-1.784.413,1.338,1.338,0,0,0-.6,1.169,1.248,1.248,0,0,0,.409.98A1.583,1.583,0,0,0-35.1,23.462Zm10.31.009A1.931,1.931,0,0,0-23.467,23a1.591,1.591,0,0,0,.563-1.151h2.013a3.137,3.137,0,0,1-.554,1.657,3.632,3.632,0,0,1-1.406,1.217,4.191,4.191,0,0,1-1.916.448,4.055,4.055,0,0,1-3.164-1.292A5.124,5.124,0,0,1-29.1,20.315V20.1a5.039,5.039,0,0,1,1.16-3.476,4.018,4.018,0,0,1,3.164-1.305,3.907,3.907,0,0,1,2.764.989,3.542,3.542,0,0,1,1.121,2.6H-22.9a1.956,1.956,0,0,0-.558-1.345,1.8,1.8,0,0,0-1.332-.527,1.879,1.879,0,0,0-1.6.751,3.834,3.834,0,0,0-.571,2.281V20.4a3.9,3.9,0,0,0,.558,2.307A1.878,1.878,0,0,0-24.794,23.471Zm9.7,1.705A4.419,4.419,0,0,1-18.382,23.9a4.639,4.639,0,0,1-1.261-3.406v-.264a5.706,5.706,0,0,1,.549-2.544,4.181,4.181,0,0,1,1.542-1.745,4.078,4.078,0,0,1,2.215-.624,3.733,3.733,0,0,1,3,1.239,5.24,5.24,0,0,1,1.059,3.507v.861H-17.49a2.856,2.856,0,0,0,.787,1.863,2.362,2.362,0,0,0,1.736.686,2.892,2.892,0,0,0,2.391-1.187l1.151,1.1a3.845,3.845,0,0,1-1.525,1.323A4.774,4.774,0,0,1-15.091,25.176Zm-.255-8.147a1.8,1.8,0,0,0-1.419.615,3.189,3.189,0,0,0-.69,1.714h4.069V19.2a2.6,2.6,0,0,0-.571-1.622A1.785,1.785,0,0,0-15.346,17.028Zm14.054,3.313a5.662,5.662,0,0,1-1,3.52,3.209,3.209,0,0,1-2.689,1.314,3.23,3.23,0,0,1-2.5-1.028v4.509H-9.624V15.49h1.969l.088.967A3.137,3.137,0,0,1-5.01,15.314a3.242,3.242,0,0,1,2.729,1.3,5.813,5.813,0,0,1,.989,3.6Zm-2.127-.185A3.966,3.966,0,0,0-3.986,17.9a1.843,1.843,0,0,0-1.622-.835,1.965,1.965,0,0,0-1.881,1.081v4.219a1.983,1.983,0,0,0,1.9,1.107,1.841,1.841,0,0,0,1.6-.822A4.366,4.366,0,0,0-3.419,20.157ZM3.19,13.179V15.49H4.869v1.582H3.19v5.309a1.169,1.169,0,0,0,.215.787,1,1,0,0,0,.769.242,3.29,3.29,0,0,0,.747-.088v1.652a5.26,5.26,0,0,1-1.406.2q-2.461,0-2.461-2.716V17.072H-.51V15.49H1.055V13.179ZM12.182,25a3.3,3.3,0,0,1-.246-.888,3.325,3.325,0,0,1-2.5,1.063A3.355,3.355,0,0,1,7.1,24.358,2.615,2.615,0,0,1,6.2,22.337,2.7,2.7,0,0,1,7.326,20a5.473,5.473,0,0,1,3.23-.813h1.31v-.624a1.666,1.666,0,0,0-.413-1.182A1.638,1.638,0,0,0,10.2,16.94a1.881,1.881,0,0,0-1.2.365,1.129,1.129,0,0,0-.466.927H6.4a2.37,2.37,0,0,1,.519-1.463A3.455,3.455,0,0,1,8.328,15.7a4.955,4.955,0,0,1,1.991-.387,3.99,3.99,0,0,1,2.663.839A2.993,2.993,0,0,1,14,18.514V22.8a4.861,4.861,0,0,0,.36,2.048V25ZM9.835,23.462a2.429,2.429,0,0,0,1.191-.308,2.055,2.055,0,0,0,.839-.826V20.535H10.714a3.148,3.148,0,0,0-1.784.413,1.338,1.338,0,0,0-.6,1.169,1.248,1.248,0,0,0,.409.98A1.583,1.583,0,0,0,9.835,23.462Zm14.748-3.12a5.712,5.712,0,0,1-.989,3.524,3.221,3.221,0,0,1-2.72,1.31,3.1,3.1,0,0,1-2.6-1.2L18.167,25H16.233V11.5h2.136v4.9a3.091,3.091,0,0,1,2.487-1.09,3.258,3.258,0,0,1,2.733,1.292,5.807,5.807,0,0,1,.993,3.612Zm-2.136-.185a4.037,4.037,0,0,0-.545-2.32,1.815,1.815,0,0,0-1.582-.773,1.983,1.983,0,0,0-1.951,1.213V22.2a2,2,0,0,0,1.969,1.239,1.8,1.8,0,0,0,1.547-.747,3.912,3.912,0,0,0,.563-2.259ZM28.644,25H26.508V11.5h2.136Zm6.513.176A4.419,4.419,0,0,1,31.865,23.9,4.639,4.639,0,0,1,30.6,20.491v-.264a5.706,5.706,0,0,1,.549-2.544A4.181,4.181,0,0,1,32.7,15.938a4.078,4.078,0,0,1,2.215-.624,3.733,3.733,0,0,1,3,1.239,5.24,5.24,0,0,1,1.059,3.507v.861H32.757a2.856,2.856,0,0,0,.787,1.863,2.362,2.362,0,0,0,1.736.686,2.892,2.892,0,0,0,2.391-1.187l1.151,1.1A3.845,3.845,0,0,1,37.3,24.706,4.774,4.774,0,0,1,35.156,25.176ZM34.9,17.028a1.8,1.8,0,0,0-1.419.615,3.189,3.189,0,0,0-.69,1.714h4.069V19.2a2.6,2.6,0,0,0-.571-1.622A1.785,1.785,0,0,0,34.9,17.028Z" transform="translate(-2028 -10920)" fill="#12263f"/>
    <path id="Trazado_737627" data-name="Trazado 737627" d="M-52.752-4.931H-55.23V0h-2.224V-12.8h4.5a5.238,5.238,0,0,1,3.419.993,3.512,3.512,0,0,1,1.2,2.874,3.6,3.6,0,0,1-.62,2.149,3.942,3.942,0,0,1-1.727,1.332L-47.8-.114V0h-2.382ZM-55.23-6.715h2.285a2.541,2.541,0,0,0,1.758-.567,1.977,1.977,0,0,0,.633-1.551,2.1,2.1,0,0,0-.584-1.591A2.483,2.483,0,0,0-52.884-11H-55.23ZM-44.156,0h-2.136V-9.51h2.136Zm-2.268-11.979a1.133,1.133,0,0,1,.312-.817,1.179,1.179,0,0,1,.892-.325,1.193,1.193,0,0,1,.9.325,1.125,1.125,0,0,1,.316.817,1.1,1.1,0,0,1-.316.8,1.2,1.2,0,0,1-.9.321,1.188,1.188,0,0,1-.892-.321A1.107,1.107,0,0,1-46.424-11.979ZM-37.644.176A4.419,4.419,0,0,1-40.935-1.1,4.639,4.639,0,0,1-42.2-4.509v-.264a5.706,5.706,0,0,1,.549-2.544A4.181,4.181,0,0,1-40.1-9.062a4.078,4.078,0,0,1,2.215-.624,3.733,3.733,0,0,1,3,1.239,5.24,5.24,0,0,1,1.059,3.507v.861h-6.214a2.856,2.856,0,0,0,.787,1.863,2.362,2.362,0,0,0,1.736.686A2.892,2.892,0,0,0-35.13-2.716l1.151,1.1A3.845,3.845,0,0,1-35.5-.294,4.774,4.774,0,0,1-37.644.176ZM-37.9-7.972a1.8,1.8,0,0,0-1.419.615,3.189,3.189,0,0,0-.69,1.714h4.069V-5.8a2.6,2.6,0,0,0-.571-1.622A1.785,1.785,0,0,0-37.9-7.972Zm11.057,5.388a.968.968,0,0,0-.47-.87,5,5,0,0,0-1.56-.527,8.02,8.02,0,0,1-1.819-.58,2.428,2.428,0,0,1-1.6-2.241,2.531,2.531,0,0,1,1.037-2.057,4.1,4.1,0,0,1,2.637-.826,4.266,4.266,0,0,1,2.755.844,2.677,2.677,0,0,1,1.05,2.188h-2.136A1.316,1.316,0,0,0-27.4-7.677a1.752,1.752,0,0,0-1.213-.409,1.893,1.893,0,0,0-1.147.325,1.025,1.025,0,0,0-.444.87.866.866,0,0,0,.413.765,5.68,5.68,0,0,0,1.67.549,7.9,7.9,0,0,1,1.973.659A2.794,2.794,0,0,1-25.088-4a2.342,2.342,0,0,1,.347,1.3A2.478,2.478,0,0,1-25.8-.62a4.535,4.535,0,0,1-2.786.8,4.917,4.917,0,0,1-2.083-.422A3.428,3.428,0,0,1-32.1-1.406,2.746,2.746,0,0,1-32.607-3h2.074a1.5,1.5,0,0,0,.571,1.165,2.22,2.22,0,0,0,1.4.409,2.16,2.16,0,0,0,1.283-.321A.993.993,0,0,0-26.842-2.584Zm3.586-2.241a5.562,5.562,0,0,1,1.042-3.538A3.343,3.343,0,0,1-19.45-9.686a3.132,3.132,0,0,1,2.558,1.134l.1-.958h1.925V-.29a3.832,3.832,0,0,1-1.165,2.953,4.436,4.436,0,0,1-3.142,1.081,5.064,5.064,0,0,1-2.043-.435,3.631,3.631,0,0,1-1.516-1.138L-21.727.888A3.053,3.053,0,0,0-19.3,2.057a2.359,2.359,0,0,0,1.679-.576,2.206,2.206,0,0,0,.615-1.692V-.853A3.144,3.144,0,0,1-19.468.176,3.335,3.335,0,0,1-22.2-1.151,5.742,5.742,0,0,1-23.256-4.825Zm2.127.185a3.829,3.829,0,0,0,.584,2.254,1.879,1.879,0,0,0,1.622.822,2.055,2.055,0,0,0,1.916-1.107V-6.855a2.026,2.026,0,0,0-1.9-1.081,1.887,1.887,0,0,0-1.639.835A4.287,4.287,0,0,0-21.129-4.641Zm8.051-.2a5.607,5.607,0,0,1,.554-2.518,4.044,4.044,0,0,1,1.556-1.723,4.383,4.383,0,0,1,2.3-.6A4.154,4.154,0,0,1-5.542-8.446a4.874,4.874,0,0,1,1.3,3.287l.009.5a5.658,5.658,0,0,1-.541,2.514A4,4,0,0,1-6.324-.431,4.415,4.415,0,0,1-8.648.176a4.125,4.125,0,0,1-3.221-1.34,5.133,5.133,0,0,1-1.208-3.573Zm2.136.185a3.832,3.832,0,0,0,.606,2.3,1.971,1.971,0,0,0,1.688.831,1.95,1.95,0,0,0,1.683-.844,4.232,4.232,0,0,0,.6-2.47,3.782,3.782,0,0,0-.62-2.285,1.979,1.979,0,0,0-1.683-.844,1.96,1.96,0,0,0-1.661.831A4.152,4.152,0,0,0-10.942-4.658ZM1.652-4.834a5.619,5.619,0,0,1,1.02-3.542,3.313,3.313,0,0,1,2.76-1.31A3.114,3.114,0,0,1,7.954-8.569l.123-.94h1.9V3.656H7.84V-.809A3.188,3.188,0,0,1,5.414.176,3.282,3.282,0,0,1,2.681-1.156,5.884,5.884,0,0,1,1.652-4.834Zm2.136.185a3.968,3.968,0,0,0,.576,2.29,1.835,1.835,0,0,0,1.6.831A2.023,2.023,0,0,0,7.84-2.61V-6.935A2.025,2.025,0,0,0,5.977-7.972a1.866,1.866,0,0,0-1.6.817A4.33,4.33,0,0,0,3.788-4.649ZM18.035-.932A3.312,3.312,0,0,1,15.363.176a2.952,2.952,0,0,1-2.342-.905,3.851,3.851,0,0,1-.8-2.619V-9.51h2.136v6.135q0,1.811,1.5,1.811a2.111,2.111,0,0,0,2.1-1.116V-9.51H20.1V0H18.088ZM26.464.176A4.419,4.419,0,0,1,23.172-1.1a4.639,4.639,0,0,1-1.261-3.406v-.264a5.706,5.706,0,0,1,.549-2.544A4.181,4.181,0,0,1,24-9.062a4.078,4.078,0,0,1,2.215-.624,3.733,3.733,0,0,1,3,1.239,5.24,5.24,0,0,1,1.059,3.507v.861H24.064a2.856,2.856,0,0,0,.787,1.863,2.362,2.362,0,0,0,1.736.686,2.892,2.892,0,0,0,2.391-1.187l1.151,1.1A3.845,3.845,0,0,1,28.6-.294,4.774,4.774,0,0,1,26.464.176Zm-.255-8.147a1.8,1.8,0,0,0-1.419.615,3.189,3.189,0,0,0-.69,1.714h4.069V-5.8A2.6,2.6,0,0,0,27.6-7.422,1.785,1.785,0,0,0,26.209-7.972ZM40.605.176A4.419,4.419,0,0,1,37.314-1.1a4.639,4.639,0,0,1-1.261-3.406v-.264A5.706,5.706,0,0,1,36.6-7.317a4.181,4.181,0,0,1,1.542-1.745,4.078,4.078,0,0,1,2.215-.624,3.733,3.733,0,0,1,3,1.239A5.24,5.24,0,0,1,44.42-4.939v.861H38.206a2.856,2.856,0,0,0,.787,1.863,2.362,2.362,0,0,0,1.736.686,2.892,2.892,0,0,0,2.391-1.187l1.151,1.1A3.845,3.845,0,0,1,42.746-.294,4.774,4.774,0,0,1,40.605.176Zm-.255-8.147a1.8,1.8,0,0,0-1.419.615,3.189,3.189,0,0,0-.69,1.714h4.069V-5.8a2.6,2.6,0,0,0-.571-1.622A1.785,1.785,0,0,0,40.351-7.972ZM51.407-2.584a.968.968,0,0,0-.47-.87,5,5,0,0,0-1.56-.527,8.02,8.02,0,0,1-1.819-.58,2.428,2.428,0,0,1-1.6-2.241A2.531,2.531,0,0,1,47-8.859a4.1,4.1,0,0,1,2.637-.826,4.266,4.266,0,0,1,2.755.844,2.677,2.677,0,0,1,1.05,2.188H51.3a1.316,1.316,0,0,0-.457-1.024,1.752,1.752,0,0,0-1.213-.409,1.893,1.893,0,0,0-1.147.325,1.025,1.025,0,0,0-.444.87.866.866,0,0,0,.413.765,5.68,5.68,0,0,0,1.67.549,7.9,7.9,0,0,1,1.973.659A2.794,2.794,0,0,1,53.161-4a2.342,2.342,0,0,1,.347,1.3A2.478,2.478,0,0,1,52.444-.62a4.535,4.535,0,0,1-2.786.8,4.917,4.917,0,0,1-2.083-.422,3.428,3.428,0,0,1-1.424-1.16A2.746,2.746,0,0,1,45.642-3h2.074a1.5,1.5,0,0,0,.571,1.165,2.22,2.22,0,0,0,1.4.409,2.16,2.16,0,0,0,1.283-.321A.993.993,0,0,0,51.407-2.584ZM-43.431,25h-2.215V12.2h2.215Zm4.509-9.51.062,1.1a3.419,3.419,0,0,1,2.769-1.274q2.971,0,3.023,3.4V25H-35.2V18.839A1.958,1.958,0,0,0-35.6,17.5a1.645,1.645,0,0,0-1.279-.435A2.058,2.058,0,0,0-38.8,18.232V25h-2.136V15.49ZM-25.211,25a3.3,3.3,0,0,1-.246-.888,3.325,3.325,0,0,1-2.5,1.063,3.355,3.355,0,0,1-2.338-.817,2.615,2.615,0,0,1-.905-2.021A2.7,2.7,0,0,1-30.067,20a5.473,5.473,0,0,1,3.23-.813h1.31v-.624a1.666,1.666,0,0,0-.413-1.182A1.638,1.638,0,0,0-27.2,16.94a1.881,1.881,0,0,0-1.2.365,1.129,1.129,0,0,0-.466.927h-2.136a2.37,2.37,0,0,1,.519-1.463A3.455,3.455,0,0,1-29.065,15.7a4.955,4.955,0,0,1,1.991-.387,3.99,3.99,0,0,1,2.663.839,2.993,2.993,0,0,1,1.02,2.36V22.8a4.861,4.861,0,0,0,.36,2.048V25Zm-2.347-1.538a2.429,2.429,0,0,0,1.191-.308,2.055,2.055,0,0,0,.839-.826V20.535h-1.151a3.148,3.148,0,0,0-1.784.413,1.338,1.338,0,0,0-.6,1.169,1.248,1.248,0,0,0,.409.98A1.583,1.583,0,0,0-27.558,23.462Zm10.31.009A1.931,1.931,0,0,0-15.921,23a1.591,1.591,0,0,0,.563-1.151h2.013A3.137,3.137,0,0,1-13.9,23.51a3.632,3.632,0,0,1-1.406,1.217,4.191,4.191,0,0,1-1.916.448,4.055,4.055,0,0,1-3.164-1.292,5.124,5.124,0,0,1-1.169-3.568V20.1A5.039,5.039,0,0,1-20.4,16.62a4.018,4.018,0,0,1,3.164-1.305,3.907,3.907,0,0,1,2.764.989,3.542,3.542,0,0,1,1.121,2.6h-2.013a1.956,1.956,0,0,0-.558-1.345,1.8,1.8,0,0,0-1.332-.527,1.879,1.879,0,0,0-1.6.751,3.834,3.834,0,0,0-.571,2.281V20.4a3.9,3.9,0,0,0,.558,2.307A1.878,1.878,0,0,0-17.249,23.471Zm9.7,1.705A4.419,4.419,0,0,1-10.837,23.9,4.639,4.639,0,0,1-12.1,20.491v-.264a5.706,5.706,0,0,1,.549-2.544,4.181,4.181,0,0,1,1.542-1.745,4.078,4.078,0,0,1,2.215-.624,3.733,3.733,0,0,1,3,1.239,5.24,5.24,0,0,1,1.059,3.507v.861H-9.945a2.856,2.856,0,0,0,.787,1.863,2.362,2.362,0,0,0,1.736.686,2.892,2.892,0,0,0,2.391-1.187l1.151,1.1a3.845,3.845,0,0,1-1.525,1.323A4.774,4.774,0,0,1-7.545,25.176ZM-7.8,17.028a1.8,1.8,0,0,0-1.419.615,3.189,3.189,0,0,0-.69,1.714H-5.84V19.2a2.6,2.6,0,0,0-.571-1.622A1.785,1.785,0,0,0-7.8,17.028ZM6.253,20.342a5.662,5.662,0,0,1-1,3.52,3.209,3.209,0,0,1-2.689,1.314,3.23,3.23,0,0,1-2.5-1.028v4.509H-2.079V15.49H-.11l.088.967a3.137,3.137,0,0,1,2.558-1.143,3.242,3.242,0,0,1,2.729,1.3,5.813,5.813,0,0,1,.989,3.6Zm-2.127-.185A3.966,3.966,0,0,0,3.56,17.9a1.843,1.843,0,0,0-1.622-.835A1.965,1.965,0,0,0,.057,18.145v4.219a1.983,1.983,0,0,0,1.9,1.107,1.841,1.841,0,0,0,1.6-.822A4.366,4.366,0,0,0,4.126,20.157Zm6.609-6.979V15.49h1.679v1.582H10.736v5.309a1.169,1.169,0,0,0,.215.787,1,1,0,0,0,.769.242,3.29,3.29,0,0,0,.747-.088v1.652a5.26,5.26,0,0,1-1.406.2Q8.6,25.176,8.6,22.46V17.072H7.036V15.49H8.6V13.179ZM19.727,25a3.3,3.3,0,0,1-.246-.888,3.325,3.325,0,0,1-2.5,1.063,3.355,3.355,0,0,1-2.338-.817,2.615,2.615,0,0,1-.905-2.021A2.7,2.7,0,0,1,14.871,20a5.473,5.473,0,0,1,3.23-.813h1.31v-.624A1.666,1.666,0,0,0,19,17.384a1.638,1.638,0,0,0-1.257-.444,1.881,1.881,0,0,0-1.2.365,1.129,1.129,0,0,0-.466.927H13.944a2.37,2.37,0,0,1,.519-1.463A3.455,3.455,0,0,1,15.873,15.7a4.955,4.955,0,0,1,1.991-.387,3.99,3.99,0,0,1,2.663.839,2.993,2.993,0,0,1,1.02,2.36V22.8a4.861,4.861,0,0,0,.36,2.048V25ZM17.38,23.462a2.429,2.429,0,0,0,1.191-.308,2.055,2.055,0,0,0,.839-.826V20.535H18.259a3.148,3.148,0,0,0-1.784.413,1.338,1.338,0,0,0-.6,1.169,1.248,1.248,0,0,0,.409.98A1.583,1.583,0,0,0,17.38,23.462Zm14.748-3.12a5.712,5.712,0,0,1-.989,3.524,3.221,3.221,0,0,1-2.72,1.31,3.1,3.1,0,0,1-2.6-1.2L25.712,25H23.779V11.5h2.136v4.9a3.091,3.091,0,0,1,2.487-1.09,3.258,3.258,0,0,1,2.733,1.292,5.807,5.807,0,0,1,.993,3.612Zm-2.136-.185a4.037,4.037,0,0,0-.545-2.32,1.815,1.815,0,0,0-1.582-.773,1.983,1.983,0,0,0-1.951,1.213V22.2a2,2,0,0,0,1.969,1.239,1.8,1.8,0,0,0,1.547-.747,3.912,3.912,0,0,0,.563-2.259ZM36.189,25H34.053V11.5h2.136Zm6.513.176A4.419,4.419,0,0,1,39.41,23.9a4.639,4.639,0,0,1-1.261-3.406v-.264a5.706,5.706,0,0,1,.549-2.544,4.181,4.181,0,0,1,1.542-1.745,4.078,4.078,0,0,1,2.215-.624,3.733,3.733,0,0,1,3,1.239,5.24,5.24,0,0,1,1.059,3.507v.861H40.3a2.856,2.856,0,0,0,.787,1.863,2.362,2.362,0,0,0,1.736.686,2.892,2.892,0,0,0,2.391-1.187l1.151,1.1a3.845,3.845,0,0,1-1.525,1.323A4.774,4.774,0,0,1,42.7,25.176Zm-.255-8.147a1.8,1.8,0,0,0-1.419.615,3.189,3.189,0,0,0-.69,1.714h4.069V19.2a2.6,2.6,0,0,0-.571-1.622A1.785,1.785,0,0,0,42.447,17.028ZM-57.059,45.245V50h-2.224V37.2h4.9a4.954,4.954,0,0,1,3.406,1.116,3.751,3.751,0,0,1,1.261,2.953A3.627,3.627,0,0,1-50.955,44.2a5.194,5.194,0,0,1-3.458,1.046Zm0-1.784h2.672a2.632,2.632,0,0,0,1.811-.558,2.051,2.051,0,0,0,.624-1.613,2.213,2.213,0,0,0-.633-1.657A2.439,2.439,0,0,0-54.325,39h-2.733Zm13.148,6.715A4.419,4.419,0,0,1-47.2,48.9a4.639,4.639,0,0,1-1.261-3.406v-.264a5.706,5.706,0,0,1,.549-2.544,4.181,4.181,0,0,1,1.542-1.745,4.078,4.078,0,0,1,2.215-.624,3.733,3.733,0,0,1,3,1.239A5.24,5.24,0,0,1-40.1,45.061v.861H-46.31a2.856,2.856,0,0,0,.787,1.863,2.362,2.362,0,0,0,1.736.686A2.892,2.892,0,0,0-41.4,47.284l1.151,1.1a3.845,3.845,0,0,1-1.525,1.323A4.774,4.774,0,0,1-43.91,50.176Zm-.255-8.147a1.8,1.8,0,0,0-1.419.615,3.189,3.189,0,0,0-.69,1.714h4.069V44.2a2.6,2.6,0,0,0-.571-1.622A1.785,1.785,0,0,0-44.165,42.028Zm10.705.413a5.285,5.285,0,0,0-.87-.07A1.959,1.959,0,0,0-36.308,43.5V50h-2.136V40.49H-36.4l.053,1.063a2.406,2.406,0,0,1,2.145-1.239,2,2,0,0,1,.756.123Zm.633,2.716a5.607,5.607,0,0,1,.554-2.518,4.044,4.044,0,0,1,1.556-1.723,4.383,4.383,0,0,1,2.3-.6,4.154,4.154,0,0,1,3.125,1.239,4.874,4.874,0,0,1,1.3,3.287l.009.5a5.658,5.658,0,0,1-.541,2.514,4,4,0,0,1-1.547,1.714,4.415,4.415,0,0,1-2.325.606,4.125,4.125,0,0,1-3.221-1.34,5.133,5.133,0,0,1-1.208-3.573Zm2.136.185a3.832,3.832,0,0,0,.606,2.3,1.971,1.971,0,0,0,1.688.831,1.95,1.95,0,0,0,1.683-.844,4.232,4.232,0,0,0,.6-2.47,3.782,3.782,0,0,0-.62-2.285,1.979,1.979,0,0,0-1.683-.844,1.96,1.96,0,0,0-1.661.831A4.152,4.152,0,0,0-30.691,45.342Zm21.322,0a5.662,5.662,0,0,1-1,3.52,3.209,3.209,0,0,1-2.689,1.314,3.23,3.23,0,0,1-2.5-1.028v4.509H-17.7V40.49h1.969l.088.967a3.137,3.137,0,0,1,2.558-1.143,3.242,3.242,0,0,1,2.729,1.3,5.813,5.813,0,0,1,.989,3.6Zm-2.127-.185a3.966,3.966,0,0,0-.567-2.259,1.843,1.843,0,0,0-1.622-.835,1.965,1.965,0,0,0-1.881,1.081v4.219a1.983,1.983,0,0,0,1.9,1.107,1.841,1.841,0,0,0,1.6-.822A4.366,4.366,0,0,0-11.5,45.157ZM-1.8,49.068a3.312,3.312,0,0,1-2.672,1.107,2.952,2.952,0,0,1-2.342-.905,3.851,3.851,0,0,1-.8-2.619V40.49h2.136v6.135q0,1.811,1.5,1.811a2.111,2.111,0,0,0,2.1-1.116V40.49H.264V50H-1.749Zm8.429,1.107A4.419,4.419,0,0,1,3.335,48.9a4.639,4.639,0,0,1-1.261-3.406v-.264a5.706,5.706,0,0,1,.549-2.544,4.181,4.181,0,0,1,1.542-1.745,4.078,4.078,0,0,1,2.215-.624,3.733,3.733,0,0,1,3,1.239,5.24,5.24,0,0,1,1.059,3.507v.861H4.228a2.856,2.856,0,0,0,.787,1.863,2.362,2.362,0,0,0,1.736.686,2.892,2.892,0,0,0,2.391-1.187l1.151,1.1a3.845,3.845,0,0,1-1.525,1.323A4.774,4.774,0,0,1,6.627,50.176Zm-.255-8.147a1.8,1.8,0,0,0-1.419.615,3.189,3.189,0,0,0-.69,1.714H8.332V44.2a2.6,2.6,0,0,0-.571-1.622A1.785,1.785,0,0,0,6.372,42.028ZM11.7,45.175a5.654,5.654,0,0,1,1.02-3.529,3.267,3.267,0,0,1,2.733-1.332,3.1,3.1,0,0,1,2.443,1.055V36.5H20.03V50H18.1l-.105-.984a3.148,3.148,0,0,1-2.558,1.16,3.248,3.248,0,0,1-2.7-1.345A5.861,5.861,0,0,1,11.7,45.175Zm2.136.185a3.958,3.958,0,0,0,.558,2.263,1.811,1.811,0,0,0,1.586.813,2.017,2.017,0,0,0,1.916-1.169V43.206A1.986,1.986,0,0,0,16,42.063a1.824,1.824,0,0,0-1.6.822A4.408,4.408,0,0,0,13.834,45.359Zm12.612,4.816A4.419,4.419,0,0,1,23.155,48.9a4.639,4.639,0,0,1-1.261-3.406v-.264a5.706,5.706,0,0,1,.549-2.544,4.181,4.181,0,0,1,1.542-1.745,4.078,4.078,0,0,1,2.215-.624,3.733,3.733,0,0,1,3,1.239,5.24,5.24,0,0,1,1.059,3.507v.861H24.047a2.856,2.856,0,0,0,.787,1.863,2.362,2.362,0,0,0,1.736.686,2.892,2.892,0,0,0,2.391-1.187l1.151,1.1a3.845,3.845,0,0,1-1.525,1.323A4.774,4.774,0,0,1,26.446,50.176Zm-.255-8.147a1.8,1.8,0,0,0-1.419.615,3.189,3.189,0,0,0-.69,1.714h4.069V44.2a2.6,2.6,0,0,0-.571-1.622A1.785,1.785,0,0,0,26.191,42.028ZM41.73,47.416a.968.968,0,0,0-.47-.87,5,5,0,0,0-1.56-.527,8.02,8.02,0,0,1-1.819-.58,2.428,2.428,0,0,1-1.6-2.241,2.531,2.531,0,0,1,1.037-2.057,4.1,4.1,0,0,1,2.637-.826,4.266,4.266,0,0,1,2.755.844,2.677,2.677,0,0,1,1.05,2.188H41.625a1.316,1.316,0,0,0-.457-1.024,1.752,1.752,0,0,0-1.213-.409,1.893,1.893,0,0,0-1.147.325,1.025,1.025,0,0,0-.444.87.866.866,0,0,0,.413.765,5.68,5.68,0,0,0,1.67.549,7.9,7.9,0,0,1,1.973.659A2.794,2.794,0,0,1,43.484,46a2.342,2.342,0,0,1,.347,1.3,2.478,2.478,0,0,1-1.063,2.079,4.535,4.535,0,0,1-2.786.8,4.917,4.917,0,0,1-2.083-.422,3.428,3.428,0,0,1-1.424-1.16A2.746,2.746,0,0,1,35.965,47h2.074a1.5,1.5,0,0,0,.571,1.165,2.22,2.22,0,0,0,1.4.409,2.16,2.16,0,0,0,1.283-.321A.993.993,0,0,0,41.73,47.416Zm8.147,2.76A4.419,4.419,0,0,1,46.586,48.9a4.639,4.639,0,0,1-1.261-3.406v-.264a5.706,5.706,0,0,1,.549-2.544,4.181,4.181,0,0,1,1.542-1.745,4.078,4.078,0,0,1,2.215-.624,3.733,3.733,0,0,1,3,1.239,5.24,5.24,0,0,1,1.059,3.507v.861H47.479a2.856,2.856,0,0,0,.787,1.863A2.362,2.362,0,0,0,50,48.471a2.892,2.892,0,0,0,2.391-1.187l1.151,1.1a3.845,3.845,0,0,1-1.525,1.323A4.774,4.774,0,0,1,49.878,50.176Zm-.255-8.147a1.8,1.8,0,0,0-1.419.615,3.189,3.189,0,0,0-.69,1.714h4.069V44.2a2.6,2.6,0,0,0-.571-1.622A1.785,1.785,0,0,0,49.623,42.028Zm10.705.413a5.285,5.285,0,0,0-.87-.07A1.959,1.959,0,0,0,57.48,43.5V50H55.345V40.49h2.039l.053,1.063a2.406,2.406,0,0,1,2.145-1.239,2,2,0,0,1,.756.123ZM-26.35,64h-3.99V75h-2.206V64H-36.5V62.2H-26.35Zm-.756,6.161a5.607,5.607,0,0,1,.554-2.518A4.044,4.044,0,0,1-25,65.917a4.383,4.383,0,0,1,2.3-.6,4.154,4.154,0,0,1,3.125,1.239,4.874,4.874,0,0,1,1.3,3.287l.009.5a5.658,5.658,0,0,1-.541,2.514,4,4,0,0,1-1.547,1.714,4.415,4.415,0,0,1-2.325.606,4.125,4.125,0,0,1-3.221-1.34,5.133,5.133,0,0,1-1.208-3.573Zm2.136.185a3.832,3.832,0,0,0,.606,2.3,1.971,1.971,0,0,0,1.688.831,1.95,1.95,0,0,0,1.683-.844,4.232,4.232,0,0,0,.6-2.47,3.782,3.782,0,0,0-.62-2.285,1.979,1.979,0,0,0-1.683-.844,1.96,1.96,0,0,0-1.661.831A4.152,4.152,0,0,0-24.97,70.342ZM-14.186,75h-2.136V61.5h2.136Zm6.513.176A4.419,4.419,0,0,1-10.964,73.9a4.639,4.639,0,0,1-1.261-3.406v-.264a5.706,5.706,0,0,1,.549-2.544,4.181,4.181,0,0,1,1.542-1.745,4.078,4.078,0,0,1,2.215-.624,3.733,3.733,0,0,1,3,1.239,5.24,5.24,0,0,1,1.059,3.507v.861h-6.214a2.856,2.856,0,0,0,.787,1.863,2.362,2.362,0,0,0,1.736.686,2.892,2.892,0,0,0,2.391-1.187l1.151,1.1a3.845,3.845,0,0,1-1.525,1.323A4.774,4.774,0,0,1-7.673,75.176Zm-.255-8.147a1.8,1.8,0,0,0-1.419.615,3.189,3.189,0,0,0-.69,1.714h4.069V69.2a2.6,2.6,0,0,0-.571-1.622A1.785,1.785,0,0,0-7.928,67.028Zm10.705.413a5.285,5.285,0,0,0-.87-.07A1.959,1.959,0,0,0-.07,68.5V75H-2.206V65.49H-.167l.053,1.063A2.406,2.406,0,0,1,2.03,65.314a2,2,0,0,1,.756.123ZM9.545,75a3.3,3.3,0,0,1-.246-.888,3.325,3.325,0,0,1-2.5,1.063,3.355,3.355,0,0,1-2.338-.817,2.615,2.615,0,0,1-.905-2.021A2.7,2.7,0,0,1,4.689,70a5.473,5.473,0,0,1,3.23-.813h1.31v-.624a1.666,1.666,0,0,0-.413-1.182,1.638,1.638,0,0,0-1.257-.444,1.881,1.881,0,0,0-1.2.365,1.129,1.129,0,0,0-.466.927H3.762a2.37,2.37,0,0,1,.519-1.463A3.455,3.455,0,0,1,5.691,65.7a4.955,4.955,0,0,1,1.991-.387,3.99,3.99,0,0,1,2.663.839,2.993,2.993,0,0,1,1.02,2.36V72.8a4.861,4.861,0,0,0,.36,2.048V75ZM7.2,73.462a2.429,2.429,0,0,0,1.191-.308,2.055,2.055,0,0,0,.839-.826V70.535H8.077a3.148,3.148,0,0,0-1.784.413,1.338,1.338,0,0,0-.6,1.169,1.248,1.248,0,0,0,.409.98A1.583,1.583,0,0,0,7.2,73.462Zm14.748-3.12a5.712,5.712,0,0,1-.989,3.524,3.221,3.221,0,0,1-2.72,1.31,3.1,3.1,0,0,1-2.6-1.2L15.53,75H13.6V61.5h2.136v4.9a3.091,3.091,0,0,1,2.487-1.09,3.258,3.258,0,0,1,2.733,1.292,5.807,5.807,0,0,1,.993,3.612Zm-2.136-.185a4.037,4.037,0,0,0-.545-2.32,1.815,1.815,0,0,0-1.582-.773,1.983,1.983,0,0,0-1.951,1.213V72.2A2,2,0,0,0,17.7,73.436a1.8,1.8,0,0,0,1.547-.747,3.912,3.912,0,0,0,.563-2.259ZM26.007,75H23.871V61.5h2.136Zm6.513.176A4.419,4.419,0,0,1,29.228,73.9a4.639,4.639,0,0,1-1.261-3.406v-.264a5.706,5.706,0,0,1,.549-2.544,4.181,4.181,0,0,1,1.542-1.745,4.078,4.078,0,0,1,2.215-.624,3.733,3.733,0,0,1,3,1.239,5.24,5.24,0,0,1,1.059,3.507v.861H30.12a2.856,2.856,0,0,0,.787,1.863,2.362,2.362,0,0,0,1.736.686,2.892,2.892,0,0,0,2.391-1.187l1.151,1.1a3.845,3.845,0,0,1-1.525,1.323A4.774,4.774,0,0,1,32.52,75.176Zm-.255-8.147a1.8,1.8,0,0,0-1.419.615,3.189,3.189,0,0,0-.69,1.714h4.069V69.2a2.6,2.6,0,0,0-.571-1.622A1.785,1.785,0,0,0,32.265,67.028Z" transform="translate(-2001 -11064)" fill="#12263f"/>
    <path id="Trazado_737618" data-name="Trazado 737618" d="M-1969-11179.568s13.262,226.5,274.9,232.139" transform="translate(19)" fill="none" stroke="#707070" stroke-width="1"/>
    <path id="Trazado_737629" data-name="Trazado 737629" d="M-70.69-4.931h-2.479V0h-2.224V-12.8h4.5a5.238,5.238,0,0,1,3.419.993,3.512,3.512,0,0,1,1.2,2.874,3.6,3.6,0,0,1-.62,2.149,3.942,3.942,0,0,1-1.727,1.332l2.874,5.335V0h-2.382Zm-2.479-1.784h2.285a2.541,2.541,0,0,0,1.758-.567,1.977,1.977,0,0,0,.633-1.551,2.1,2.1,0,0,0-.584-1.591A2.483,2.483,0,0,0-70.822-11h-2.347ZM-62.095,0H-64.23V-9.51h2.136Zm-2.268-11.979a1.133,1.133,0,0,1,.312-.817,1.179,1.179,0,0,1,.892-.325,1.193,1.193,0,0,1,.9.325,1.125,1.125,0,0,1,.316.817,1.1,1.1,0,0,1-.316.8,1.2,1.2,0,0,1-.9.321,1.188,1.188,0,0,1-.892-.321A1.107,1.107,0,0,1-64.362-11.979ZM-55.582.176A4.419,4.419,0,0,1-58.874-1.1a4.639,4.639,0,0,1-1.261-3.406v-.264a5.706,5.706,0,0,1,.549-2.544,4.181,4.181,0,0,1,1.542-1.745,4.078,4.078,0,0,1,2.215-.624,3.733,3.733,0,0,1,3,1.239,5.24,5.24,0,0,1,1.059,3.507v.861h-6.214a2.856,2.856,0,0,0,.787,1.863,2.362,2.362,0,0,0,1.736.686,2.892,2.892,0,0,0,2.391-1.187l1.151,1.1A3.845,3.845,0,0,1-53.442-.294,4.774,4.774,0,0,1-55.582.176Zm-.255-8.147a1.8,1.8,0,0,0-1.419.615,3.189,3.189,0,0,0-.69,1.714h4.069V-5.8a2.6,2.6,0,0,0-.571-1.622A1.785,1.785,0,0,0-55.837-7.972ZM-44.78-2.584a.968.968,0,0,0-.47-.87,5,5,0,0,0-1.56-.527,8.02,8.02,0,0,1-1.819-.58,2.428,2.428,0,0,1-1.6-2.241,2.531,2.531,0,0,1,1.037-2.057,4.1,4.1,0,0,1,2.637-.826,4.266,4.266,0,0,1,2.755.844,2.677,2.677,0,0,1,1.05,2.188h-2.136a1.316,1.316,0,0,0-.457-1.024,1.752,1.752,0,0,0-1.213-.409,1.893,1.893,0,0,0-1.147.325,1.025,1.025,0,0,0-.444.87.866.866,0,0,0,.413.765,5.68,5.68,0,0,0,1.67.549,7.9,7.9,0,0,1,1.973.659A2.794,2.794,0,0,1-43.027-4a2.342,2.342,0,0,1,.347,1.3A2.478,2.478,0,0,1-43.743-.62a4.535,4.535,0,0,1-2.786.8,4.917,4.917,0,0,1-2.083-.422,3.428,3.428,0,0,1-1.424-1.16A2.746,2.746,0,0,1-50.546-3h2.074A1.5,1.5,0,0,0-47.9-1.833a2.22,2.22,0,0,0,1.4.409,2.16,2.16,0,0,0,1.283-.321A.993.993,0,0,0-44.78-2.584Zm3.586-2.241a5.562,5.562,0,0,1,1.042-3.538,3.343,3.343,0,0,1,2.764-1.323,3.132,3.132,0,0,1,2.558,1.134l.1-.958h1.925V-.29a3.832,3.832,0,0,1-1.165,2.953,4.436,4.436,0,0,1-3.142,1.081,5.064,5.064,0,0,1-2.043-.435,3.631,3.631,0,0,1-1.516-1.138L-39.665.888a3.053,3.053,0,0,0,2.426,1.169,2.359,2.359,0,0,0,1.679-.576,2.206,2.206,0,0,0,.615-1.692V-.853A3.144,3.144,0,0,1-37.406.176a3.335,3.335,0,0,1-2.729-1.327A5.742,5.742,0,0,1-41.194-4.825Zm2.127.185a3.829,3.829,0,0,0,.584,2.254,1.879,1.879,0,0,0,1.622.822,2.055,2.055,0,0,0,1.916-1.107V-6.855a2.026,2.026,0,0,0-1.9-1.081,1.887,1.887,0,0,0-1.639.835A4.287,4.287,0,0,0-39.067-4.641Zm8.051-.2a5.607,5.607,0,0,1,.554-2.518,4.044,4.044,0,0,1,1.556-1.723,4.383,4.383,0,0,1,2.3-.6A4.154,4.154,0,0,1-23.48-8.446a4.874,4.874,0,0,1,1.3,3.287l.009.5a5.658,5.658,0,0,1-.541,2.514A4,4,0,0,1-24.262-.431a4.415,4.415,0,0,1-2.325.606,4.125,4.125,0,0,1-3.221-1.34,5.133,5.133,0,0,1-1.208-3.573Zm2.136.185a3.832,3.832,0,0,0,.606,2.3,1.971,1.971,0,0,0,1.688.831A1.95,1.95,0,0,0-24.9-2.373a4.232,4.232,0,0,0,.6-2.47,3.782,3.782,0,0,0-.62-2.285A1.979,1.979,0,0,0-26.6-7.972a1.96,1.96,0,0,0-1.661.831A4.152,4.152,0,0,0-28.881-4.658ZM-13.614,0H-15.75V-9.51h2.136Zm-2.268-11.979a1.133,1.133,0,0,1,.312-.817,1.179,1.179,0,0,1,.892-.325,1.193,1.193,0,0,1,.9.325,1.125,1.125,0,0,1,.316.817,1.1,1.1,0,0,1-.316.8,1.2,1.2,0,0,1-.9.321,1.188,1.188,0,0,1-.892-.321A1.107,1.107,0,0,1-15.882-11.979Zm6.574,2.47.062,1.1A3.419,3.419,0,0,1-6.478-9.686q2.971,0,3.023,3.4V0H-5.59V-6.161A1.958,1.958,0,0,0-5.981-7.5,1.645,1.645,0,0,0-7.26-7.937,2.058,2.058,0,0,0-9.185-6.768V0H-11.32V-9.51ZM4.4,0a3.3,3.3,0,0,1-.246-.888A3.325,3.325,0,0,1,1.661.176,3.355,3.355,0,0,1-.677-.642a2.615,2.615,0,0,1-.905-2.021A2.7,2.7,0,0,1-.453-5a5.473,5.473,0,0,1,3.23-.813h1.31v-.624a1.666,1.666,0,0,0-.413-1.182A1.638,1.638,0,0,0,2.417-8.06a1.881,1.881,0,0,0-1.2.365,1.129,1.129,0,0,0-.466.927H-1.38A2.37,2.37,0,0,1-.861-8.231,3.455,3.455,0,0,1,.549-9.3,4.955,4.955,0,0,1,2.54-9.686,3.99,3.99,0,0,1,5.2-8.846a2.993,2.993,0,0,1,1.02,2.36V-2.2a4.861,4.861,0,0,0,.36,2.048V0ZM2.057-1.538a2.429,2.429,0,0,0,1.191-.308,2.055,2.055,0,0,0,.839-.826V-4.465H2.936a3.148,3.148,0,0,0-1.784.413,1.338,1.338,0,0,0-.6,1.169,1.248,1.248,0,0,0,.409.98A1.583,1.583,0,0,0,2.057-1.538Zm10.31.009A1.931,1.931,0,0,0,13.693-2a1.591,1.591,0,0,0,.563-1.151h2.013a3.137,3.137,0,0,1-.554,1.657A3.632,3.632,0,0,1,14.309-.272a4.191,4.191,0,0,1-1.916.448A4.055,4.055,0,0,1,9.229-1.116,5.124,5.124,0,0,1,8.06-4.685V-4.9A5.039,5.039,0,0,1,9.22-8.38a4.018,4.018,0,0,1,3.164-1.305,3.907,3.907,0,0,1,2.764.989,3.542,3.542,0,0,1,1.121,2.6H14.256A1.956,1.956,0,0,0,13.7-7.444a1.8,1.8,0,0,0-1.332-.527,1.879,1.879,0,0,0-1.6.751A3.834,3.834,0,0,0,10.2-4.939V-4.6a3.9,3.9,0,0,0,.558,2.307A1.878,1.878,0,0,0,12.366-1.529Zm9.7,1.705A4.419,4.419,0,0,1,18.778-1.1a4.639,4.639,0,0,1-1.261-3.406v-.264a5.706,5.706,0,0,1,.549-2.544,4.181,4.181,0,0,1,1.542-1.745,4.078,4.078,0,0,1,2.215-.624,3.733,3.733,0,0,1,3,1.239,5.24,5.24,0,0,1,1.059,3.507v.861H19.67a2.856,2.856,0,0,0,.787,1.863,2.362,2.362,0,0,0,1.736.686,2.892,2.892,0,0,0,2.391-1.187l1.151,1.1A3.845,3.845,0,0,1,24.209-.294,4.774,4.774,0,0,1,22.069.176Zm-.255-8.147a1.8,1.8,0,0,0-1.419.615,3.189,3.189,0,0,0-.69,1.714h4.069V-5.8A2.6,2.6,0,0,0,23.2-7.422,1.785,1.785,0,0,0,21.814-7.972ZM35.868-4.658a5.662,5.662,0,0,1-1,3.52A3.209,3.209,0,0,1,32.177.176a3.23,3.23,0,0,1-2.5-1.028V3.656H27.536V-9.51H29.5l.088.967A3.137,3.137,0,0,1,32.15-9.686a3.242,3.242,0,0,1,2.729,1.3,5.813,5.813,0,0,1,.989,3.6Zm-2.127-.185A3.966,3.966,0,0,0,33.174-7.1a1.843,1.843,0,0,0-1.622-.835,1.965,1.965,0,0,0-1.881,1.081v4.219a1.983,1.983,0,0,0,1.9,1.107,1.841,1.841,0,0,0,1.6-.822A4.366,4.366,0,0,0,33.741-4.843Zm6.609-6.979V-9.51h1.679v1.582H40.351v5.309a1.169,1.169,0,0,0,.215.787,1,1,0,0,0,.769.242,3.29,3.29,0,0,0,.747-.088V-.026a5.26,5.26,0,0,1-1.406.2q-2.461,0-2.461-2.716V-7.928H36.65V-9.51h1.564v-2.312ZM49.342,0A3.3,3.3,0,0,1,49.1-.888,3.325,3.325,0,0,1,46.6.176a3.355,3.355,0,0,1-2.338-.817,2.615,2.615,0,0,1-.905-2.021A2.7,2.7,0,0,1,44.486-5a5.473,5.473,0,0,1,3.23-.813h1.31v-.624a1.666,1.666,0,0,0-.413-1.182,1.638,1.638,0,0,0-1.257-.444,1.881,1.881,0,0,0-1.2.365,1.129,1.129,0,0,0-.466.927H43.559a2.37,2.37,0,0,1,.519-1.463A3.455,3.455,0,0,1,45.488-9.3a4.955,4.955,0,0,1,1.991-.387,3.99,3.99,0,0,1,2.663.839,2.993,2.993,0,0,1,1.02,2.36V-2.2a4.861,4.861,0,0,0,.36,2.048V0ZM47-1.538a2.429,2.429,0,0,0,1.191-.308,2.055,2.055,0,0,0,.839-.826V-4.465H47.874a3.148,3.148,0,0,0-1.784.413,1.338,1.338,0,0,0-.6,1.169,1.248,1.248,0,0,0,.409.98A1.583,1.583,0,0,0,47-1.538Zm14.748-3.12a5.712,5.712,0,0,1-.989,3.524,3.221,3.221,0,0,1-2.72,1.31,3.1,3.1,0,0,1-2.6-1.2L55.327,0H53.394V-13.5h2.136v4.9a3.091,3.091,0,0,1,2.487-1.09A3.258,3.258,0,0,1,60.75-8.394a5.807,5.807,0,0,1,.993,3.612Zm-2.136-.185a4.037,4.037,0,0,0-.545-2.32,1.815,1.815,0,0,0-1.582-.773,1.983,1.983,0,0,0-1.951,1.213V-2.8A2,2,0,0,0,57.5-1.564a1.8,1.8,0,0,0,1.547-.747,3.912,3.912,0,0,0,.563-2.259ZM65.8,0H63.668V-13.5H65.8Zm6.513.176A4.419,4.419,0,0,1,69.025-1.1a4.639,4.639,0,0,1-1.261-3.406v-.264a5.706,5.706,0,0,1,.549-2.544,4.181,4.181,0,0,1,1.542-1.745,4.078,4.078,0,0,1,2.215-.624,3.733,3.733,0,0,1,3,1.239,5.24,5.24,0,0,1,1.059,3.507v.861H69.917A2.856,2.856,0,0,0,70.7-2.215a2.362,2.362,0,0,0,1.736.686A2.892,2.892,0,0,0,74.83-2.716l1.151,1.1A3.845,3.845,0,0,1,74.457-.294,4.774,4.774,0,0,1,72.316.176Zm-.255-8.147a1.8,1.8,0,0,0-1.419.615,3.189,3.189,0,0,0-.69,1.714h4.069V-5.8a2.6,2.6,0,0,0-.571-1.622A1.785,1.785,0,0,0,72.062-7.972ZM-41.062,19.287h-5.256v3.938h6.144V25h-8.367V12.2h8.306V14h-6.082v3.533h5.256ZM-31.816,25h-2.136V15.49h2.136Zm-2.268-11.979a1.133,1.133,0,0,1,.312-.817,1.179,1.179,0,0,1,.892-.325,1.193,1.193,0,0,1,.9.325,1.125,1.125,0,0,1,.316.817,1.1,1.1,0,0,1-.316.8,1.2,1.2,0,0,1-.9.321,1.188,1.188,0,0,1-.892-.321A1.107,1.107,0,0,1-34.084,13.021Zm6.574,2.47.062,1.1a3.419,3.419,0,0,1,2.769-1.274q2.971,0,3.023,3.4V25h-2.136V18.839a1.958,1.958,0,0,0-.391-1.34,1.645,1.645,0,0,0-1.279-.435,2.058,2.058,0,0,0-1.925,1.169V25h-2.136V15.49ZM-16.8,13.179V15.49h1.679v1.582H-16.8v5.309a1.169,1.169,0,0,0,.215.787,1,1,0,0,0,.769.242,3.29,3.29,0,0,0,.747-.088v1.652a5.26,5.26,0,0,1-1.406.2q-2.461,0-2.461-2.716V17.072H-20.5V15.49h1.564V13.179Zm2.646,6.979a5.607,5.607,0,0,1,.554-2.518,4.044,4.044,0,0,1,1.556-1.723,4.383,4.383,0,0,1,2.3-.6,4.154,4.154,0,0,1,3.125,1.239,4.874,4.874,0,0,1,1.3,3.287l.009.5a5.658,5.658,0,0,1-.541,2.514A4,4,0,0,1-7.4,24.569a4.415,4.415,0,0,1-2.325.606,4.125,4.125,0,0,1-3.221-1.34,5.133,5.133,0,0,1-1.208-3.573Zm2.136.185a3.832,3.832,0,0,0,.606,2.3,1.971,1.971,0,0,0,1.688.831,1.95,1.95,0,0,0,1.683-.844,4.232,4.232,0,0,0,.6-2.47,3.782,3.782,0,0,0-.62-2.285,1.979,1.979,0,0,0-1.683-.844,1.96,1.96,0,0,0-1.661.831A4.152,4.152,0,0,0-12.023,20.342ZM-1.239,25H-3.375V11.5h2.136Zm6.513.176A4.419,4.419,0,0,1,1.982,23.9,4.639,4.639,0,0,1,.721,20.491v-.264a5.706,5.706,0,0,1,.549-2.544,4.181,4.181,0,0,1,1.542-1.745,4.078,4.078,0,0,1,2.215-.624,3.733,3.733,0,0,1,3,1.239,5.24,5.24,0,0,1,1.059,3.507v.861H2.874a2.856,2.856,0,0,0,.787,1.863,2.362,2.362,0,0,0,1.736.686,2.892,2.892,0,0,0,2.391-1.187l1.151,1.1a3.845,3.845,0,0,1-1.525,1.323A4.774,4.774,0,0,1,5.273,25.176Zm-.255-8.147a1.8,1.8,0,0,0-1.419.615,3.189,3.189,0,0,0-.69,1.714H6.979V19.2a2.6,2.6,0,0,0-.571-1.622A1.785,1.785,0,0,0,5.019,17.028Zm10.705.413a5.285,5.285,0,0,0-.87-.07A1.959,1.959,0,0,0,12.876,18.5V25H10.74V15.49h2.039l.053,1.063a2.406,2.406,0,0,1,2.145-1.239,2,2,0,0,1,.756.123ZM22.491,25a3.3,3.3,0,0,1-.246-.888,3.325,3.325,0,0,1-2.5,1.063,3.355,3.355,0,0,1-2.338-.817,2.615,2.615,0,0,1-.905-2.021A2.7,2.7,0,0,1,17.635,20a5.473,5.473,0,0,1,3.23-.813h1.31v-.624a1.666,1.666,0,0,0-.413-1.182A1.638,1.638,0,0,0,20.5,16.94a1.881,1.881,0,0,0-1.2.365,1.129,1.129,0,0,0-.466.927H16.708a2.37,2.37,0,0,1,.519-1.463A3.455,3.455,0,0,1,18.637,15.7a4.955,4.955,0,0,1,1.991-.387,3.99,3.99,0,0,1,2.663.839,2.993,2.993,0,0,1,1.02,2.36V22.8a4.861,4.861,0,0,0,.36,2.048V25Zm-2.347-1.538a2.429,2.429,0,0,0,1.191-.308,2.055,2.055,0,0,0,.839-.826V20.535H21.023a3.148,3.148,0,0,0-1.784.413,1.338,1.338,0,0,0-.6,1.169,1.248,1.248,0,0,0,.409.98A1.583,1.583,0,0,0,20.145,23.462Zm14.748-3.12a5.712,5.712,0,0,1-.989,3.524,3.221,3.221,0,0,1-2.72,1.31,3.1,3.1,0,0,1-2.6-1.2L28.477,25H26.543V11.5h2.136v4.9a3.091,3.091,0,0,1,2.487-1.09A3.258,3.258,0,0,1,33.9,16.606a5.807,5.807,0,0,1,.993,3.612Zm-2.136-.185a4.037,4.037,0,0,0-.545-2.32,1.815,1.815,0,0,0-1.582-.773,1.983,1.983,0,0,0-1.951,1.213V22.2a2,2,0,0,0,1.969,1.239,1.8,1.8,0,0,0,1.547-.747,3.912,3.912,0,0,0,.563-2.259ZM38.953,25H36.817V11.5h2.136Zm6.513.176A4.419,4.419,0,0,1,42.174,23.9a4.639,4.639,0,0,1-1.261-3.406v-.264a5.706,5.706,0,0,1,.549-2.544A4.181,4.181,0,0,1,43,15.938a4.078,4.078,0,0,1,2.215-.624,3.733,3.733,0,0,1,3,1.239,5.24,5.24,0,0,1,1.059,3.507v.861H43.066a2.856,2.856,0,0,0,.787,1.863,2.362,2.362,0,0,0,1.736.686,2.892,2.892,0,0,0,2.391-1.187l1.151,1.1a3.845,3.845,0,0,1-1.525,1.323A4.774,4.774,0,0,1,45.466,25.176Zm-.255-8.147a1.8,1.8,0,0,0-1.419.615,3.189,3.189,0,0,0-.69,1.714h4.069V19.2a2.6,2.6,0,0,0-.571-1.622A1.785,1.785,0,0,0,45.211,17.028Z" transform="translate(-1839 -11110)" fill="#12263f"/>
    <path id="Trazado_737622" data-name="Trazado 737622" d="M-88.545-4.755V0h-2.224V-12.8h4.9a4.954,4.954,0,0,1,3.406,1.116,3.751,3.751,0,0,1,1.261,2.953A3.627,3.627,0,0,1-82.441-5.8,5.194,5.194,0,0,1-85.9-4.755Zm0-1.784h2.672A2.632,2.632,0,0,0-84.063-7.1a2.051,2.051,0,0,0,.624-1.613,2.213,2.213,0,0,0-.633-1.657A2.439,2.439,0,0,0-85.812-11h-2.733Zm14.054-1.02a5.285,5.285,0,0,0-.87-.07A1.959,1.959,0,0,0-77.339-6.5V0h-2.136V-9.51h2.039l.053,1.063a2.406,2.406,0,0,1,2.145-1.239,2,2,0,0,1,.756.123Zm.633,2.716a5.607,5.607,0,0,1,.554-2.518A4.044,4.044,0,0,1-71.75-9.083a4.383,4.383,0,0,1,2.3-.6,4.154,4.154,0,0,1,3.125,1.239,4.874,4.874,0,0,1,1.3,3.287l.009.5a5.658,5.658,0,0,1-.541,2.514A4,4,0,0,1-67.1-.431a4.415,4.415,0,0,1-2.325.606,4.125,4.125,0,0,1-3.221-1.34,5.133,5.133,0,0,1-1.208-3.573Zm2.136.185a3.832,3.832,0,0,0,.606,2.3,1.971,1.971,0,0,0,1.688.831,1.95,1.95,0,0,0,1.683-.844,4.232,4.232,0,0,0,.6-2.47,3.782,3.782,0,0,0-.62-2.285,1.979,1.979,0,0,0-1.683-.844,1.96,1.96,0,0,0-1.661.831A4.152,4.152,0,0,0-71.723-4.658ZM-59.3-1.529A1.931,1.931,0,0,0-57.977-2a1.591,1.591,0,0,0,.563-1.151H-55.4a3.137,3.137,0,0,1-.554,1.657A3.632,3.632,0,0,1-57.362-.272a4.191,4.191,0,0,1-1.916.448,4.055,4.055,0,0,1-3.164-1.292,5.124,5.124,0,0,1-1.169-3.568V-4.9a5.039,5.039,0,0,1,1.16-3.476,4.018,4.018,0,0,1,3.164-1.305,3.907,3.907,0,0,1,2.764.989A3.542,3.542,0,0,1-55.4-6.1h-2.013a1.956,1.956,0,0,0-.558-1.345A1.8,1.8,0,0,0-59.3-7.972a1.879,1.879,0,0,0-1.6.751,3.834,3.834,0,0,0-.571,2.281V-4.6a3.9,3.9,0,0,0,.558,2.307A1.878,1.878,0,0,0-59.3-1.529ZM-49.6.176A4.419,4.419,0,0,1-52.893-1.1a4.639,4.639,0,0,1-1.261-3.406v-.264A5.706,5.706,0,0,1-53.6-7.317a4.181,4.181,0,0,1,1.542-1.745,4.078,4.078,0,0,1,2.215-.624,3.733,3.733,0,0,1,3,1.239,5.24,5.24,0,0,1,1.059,3.507v.861H-52a2.856,2.856,0,0,0,.787,1.863,2.362,2.362,0,0,0,1.736.686,2.892,2.892,0,0,0,2.391-1.187l1.151,1.1A3.845,3.845,0,0,1-47.461-.294,4.774,4.774,0,0,1-49.6.176Zm-.255-8.147a1.8,1.8,0,0,0-1.419.615,3.189,3.189,0,0,0-.69,1.714H-47.9V-5.8a2.6,2.6,0,0,0-.571-1.622A1.785,1.785,0,0,0-49.856-7.972ZM-38.8-2.584a.968.968,0,0,0-.47-.87,5,5,0,0,0-1.56-.527,8.02,8.02,0,0,1-1.819-.58,2.428,2.428,0,0,1-1.6-2.241,2.531,2.531,0,0,1,1.037-2.057,4.1,4.1,0,0,1,2.637-.826,4.266,4.266,0,0,1,2.755.844,2.677,2.677,0,0,1,1.05,2.188H-38.9a1.316,1.316,0,0,0-.457-1.024,1.752,1.752,0,0,0-1.213-.409,1.893,1.893,0,0,0-1.147.325,1.025,1.025,0,0,0-.444.87.866.866,0,0,0,.413.765,5.68,5.68,0,0,0,1.67.549,7.9,7.9,0,0,1,1.973.659A2.794,2.794,0,0,1-37.046-4,2.342,2.342,0,0,1-36.7-2.7,2.478,2.478,0,0,1-37.762-.62a4.535,4.535,0,0,1-2.786.8,4.917,4.917,0,0,1-2.083-.422,3.428,3.428,0,0,1-1.424-1.16A2.746,2.746,0,0,1-44.565-3h2.074a1.5,1.5,0,0,0,.571,1.165,2.22,2.22,0,0,0,1.4.409,2.16,2.16,0,0,0,1.283-.321A.993.993,0,0,0-38.8-2.584Zm3.56-2.259a5.607,5.607,0,0,1,.554-2.518A4.044,4.044,0,0,1-33.13-9.083a4.383,4.383,0,0,1,2.3-.6A4.154,4.154,0,0,1-27.7-8.446a4.874,4.874,0,0,1,1.3,3.287l.009.5a5.658,5.658,0,0,1-.541,2.514A4,4,0,0,1-28.485-.431,4.415,4.415,0,0,1-30.81.176a4.125,4.125,0,0,1-3.221-1.34A5.133,5.133,0,0,1-35.24-4.737Zm2.136.185a3.832,3.832,0,0,0,.606,2.3,1.971,1.971,0,0,0,1.688.831,1.95,1.95,0,0,0,1.683-.844,4.232,4.232,0,0,0,.6-2.47,3.782,3.782,0,0,0-.62-2.285,1.979,1.979,0,0,0-1.683-.844,1.96,1.96,0,0,0-1.661.831A4.152,4.152,0,0,0-33.1-4.658Zm13.843,2.074a.968.968,0,0,0-.47-.87,5,5,0,0,0-1.56-.527,8.02,8.02,0,0,1-1.819-.58A2.428,2.428,0,0,1-24.71-6.8a2.531,2.531,0,0,1,1.037-2.057,4.1,4.1,0,0,1,2.637-.826,4.266,4.266,0,0,1,2.755.844,2.677,2.677,0,0,1,1.05,2.188h-2.136a1.316,1.316,0,0,0-.457-1.024,1.752,1.752,0,0,0-1.213-.409,1.893,1.893,0,0,0-1.147.325,1.025,1.025,0,0,0-.444.87.866.866,0,0,0,.413.765,5.68,5.68,0,0,0,1.67.549,7.9,7.9,0,0,1,1.973.659A2.794,2.794,0,0,1-17.508-4a2.342,2.342,0,0,1,.347,1.3A2.478,2.478,0,0,1-18.224-.62a4.535,4.535,0,0,1-2.786.8,4.917,4.917,0,0,1-2.083-.422,3.428,3.428,0,0,1-1.424-1.16A2.746,2.746,0,0,1-25.027-3h2.074a1.5,1.5,0,0,0,.571,1.165,2.22,2.22,0,0,0,1.4.409A2.16,2.16,0,0,0-19.7-1.745.993.993,0,0,0-19.261-2.584Zm8.042-2.241A5.654,5.654,0,0,1-10.2-8.354,3.267,3.267,0,0,1-7.466-9.686,3.1,3.1,0,0,1-5.023-8.631V-13.5h2.136V0H-4.821l-.105-.984A3.148,3.148,0,0,1-7.484.176a3.248,3.248,0,0,1-2.7-1.345A5.861,5.861,0,0,1-11.219-4.825Zm2.136.185a3.958,3.958,0,0,0,.558,2.263,1.811,1.811,0,0,0,1.586.813A2.017,2.017,0,0,0-5.023-2.733V-6.794a1.986,1.986,0,0,0-1.9-1.143,1.824,1.824,0,0,0-1.6.822A4.408,4.408,0,0,0-9.083-4.641ZM3.529.176A4.419,4.419,0,0,1,.237-1.1,4.639,4.639,0,0,1-1.024-4.509v-.264A5.706,5.706,0,0,1-.475-7.317,4.181,4.181,0,0,1,1.068-9.062a4.078,4.078,0,0,1,2.215-.624,3.733,3.733,0,0,1,3,1.239A5.24,5.24,0,0,1,7.343-4.939v.861H1.129a2.856,2.856,0,0,0,.787,1.863,2.362,2.362,0,0,0,1.736.686A2.892,2.892,0,0,0,6.042-2.716l1.151,1.1A3.845,3.845,0,0,1,5.669-.294,4.774,4.774,0,0,1,3.529.176ZM3.274-7.972a1.8,1.8,0,0,0-1.419.615,3.189,3.189,0,0,0-.69,1.714H5.234V-5.8a2.6,2.6,0,0,0-.571-1.622A1.785,1.785,0,0,0,3.274-7.972Zm15.188.413a5.285,5.285,0,0,0-.87-.07A1.959,1.959,0,0,0,15.614-6.5V0H13.478V-9.51h2.039l.053,1.063a2.406,2.406,0,0,1,2.145-1.239,2,2,0,0,1,.756.123ZM23.832.176A4.419,4.419,0,0,1,20.54-1.1a4.639,4.639,0,0,1-1.261-3.406v-.264a5.706,5.706,0,0,1,.549-2.544,4.181,4.181,0,0,1,1.542-1.745,4.078,4.078,0,0,1,2.215-.624,3.733,3.733,0,0,1,3,1.239,5.24,5.24,0,0,1,1.059,3.507v.861H21.432a2.856,2.856,0,0,0,.787,1.863,2.362,2.362,0,0,0,1.736.686,2.892,2.892,0,0,0,2.391-1.187l1.151,1.1A3.845,3.845,0,0,1,25.972-.294,4.774,4.774,0,0,1,23.832.176Zm-.255-8.147a1.8,1.8,0,0,0-1.419.615,3.189,3.189,0,0,0-.69,1.714h4.069V-5.8a2.6,2.6,0,0,0-.571-1.622A1.785,1.785,0,0,0,23.577-7.972ZM28.9-4.825a5.654,5.654,0,0,1,1.02-3.529,3.267,3.267,0,0,1,2.733-1.332A3.1,3.1,0,0,1,35.1-8.631V-13.5h2.136V0H35.3L35.2-.984A3.148,3.148,0,0,1,32.638.176a3.248,3.248,0,0,1-2.7-1.345A5.861,5.861,0,0,1,28.9-4.825Zm2.136.185A3.958,3.958,0,0,0,31.6-2.377a1.811,1.811,0,0,0,1.586.813A2.017,2.017,0,0,0,35.1-2.733V-6.794a1.986,1.986,0,0,0-1.9-1.143,1.824,1.824,0,0,0-1.6.822A4.408,4.408,0,0,0,31.039-4.641ZM45.224-.932A3.312,3.312,0,0,1,42.552.176,2.952,2.952,0,0,1,40.21-.729a3.851,3.851,0,0,1-.8-2.619V-9.51H41.55v6.135q0,1.811,1.5,1.811a2.111,2.111,0,0,0,2.1-1.116V-9.51H47.29V0H45.277Zm8.147-.6A1.931,1.931,0,0,0,54.7-2a1.591,1.591,0,0,0,.563-1.151h2.013A3.137,3.137,0,0,1,56.72-1.49,3.632,3.632,0,0,1,55.314-.272,4.191,4.191,0,0,1,53.4.176a4.055,4.055,0,0,1-3.164-1.292,5.124,5.124,0,0,1-1.169-3.568V-4.9a5.039,5.039,0,0,1,1.16-3.476,4.018,4.018,0,0,1,3.164-1.305,3.907,3.907,0,0,1,2.764.989,3.542,3.542,0,0,1,1.121,2.6H55.261A1.956,1.956,0,0,0,54.7-7.444a1.8,1.8,0,0,0-1.332-.527,1.879,1.879,0,0,0-1.6.751A3.834,3.834,0,0,0,51.2-4.939V-4.6a3.9,3.9,0,0,0,.558,2.307A1.878,1.878,0,0,0,53.372-1.529Zm9.422,0A1.931,1.931,0,0,0,64.121-2a1.591,1.591,0,0,0,.563-1.151H66.7a3.137,3.137,0,0,1-.554,1.657A3.632,3.632,0,0,1,64.736-.272,4.191,4.191,0,0,1,62.82.176a4.055,4.055,0,0,1-3.164-1.292,5.124,5.124,0,0,1-1.169-3.568V-4.9a5.039,5.039,0,0,1,1.16-3.476,4.018,4.018,0,0,1,3.164-1.305,3.907,3.907,0,0,1,2.764.989A3.542,3.542,0,0,1,66.7-6.1H64.683a1.956,1.956,0,0,0-.558-1.345,1.8,1.8,0,0,0-1.332-.527,1.879,1.879,0,0,0-1.6.751,3.834,3.834,0,0,0-.571,2.281V-4.6a3.9,3.9,0,0,0,.558,2.307A1.878,1.878,0,0,0,62.793-1.529ZM70.581,0H68.445V-9.51h2.136ZM68.313-11.979a1.133,1.133,0,0,1,.312-.817,1.179,1.179,0,0,1,.892-.325,1.193,1.193,0,0,1,.9.325,1.125,1.125,0,0,1,.316.817,1.1,1.1,0,0,1-.316.8,1.2,1.2,0,0,1-.9.321,1.188,1.188,0,0,1-.892-.321A1.107,1.107,0,0,1,68.313-11.979Zm4.192,7.137a5.607,5.607,0,0,1,.554-2.518,4.044,4.044,0,0,1,1.556-1.723,4.383,4.383,0,0,1,2.3-.6,4.154,4.154,0,0,1,3.125,1.239,4.874,4.874,0,0,1,1.3,3.287l.009.5a5.658,5.658,0,0,1-.541,2.514A4,4,0,0,1,79.26-.431a4.415,4.415,0,0,1-2.325.606,4.125,4.125,0,0,1-3.221-1.34,5.133,5.133,0,0,1-1.208-3.573Zm2.136.185a3.832,3.832,0,0,0,.606,2.3,1.971,1.971,0,0,0,1.688.831,1.95,1.95,0,0,0,1.683-.844,4.232,4.232,0,0,0,.6-2.47,3.782,3.782,0,0,0-.62-2.285,1.979,1.979,0,0,0-1.683-.844,1.96,1.96,0,0,0-1.661.831A4.152,4.152,0,0,0,74.641-4.658ZM77.506-13.5h2.435l-2.435,2.663H75.792Zm7.629,3.99.062,1.1a3.419,3.419,0,0,1,2.769-1.274q2.971,0,3.023,3.4V0H88.853V-6.161a1.958,1.958,0,0,0-.391-1.34,1.645,1.645,0,0,0-1.279-.435,2.058,2.058,0,0,0-1.925,1.169V0H83.123V-9.51ZM-38.918,20.175a5.654,5.654,0,0,1,1.02-3.529,3.267,3.267,0,0,1,2.733-1.332,3.1,3.1,0,0,1,2.443,1.055V11.5h2.136V25H-32.52l-.105-.984a3.148,3.148,0,0,1-2.558,1.16,3.248,3.248,0,0,1-2.7-1.345A5.861,5.861,0,0,1-38.918,20.175Zm2.136.185a3.958,3.958,0,0,0,.558,2.263,1.811,1.811,0,0,0,1.586.813,2.017,2.017,0,0,0,1.916-1.169V18.206a1.986,1.986,0,0,0-1.9-1.143,1.824,1.824,0,0,0-1.6.822A4.408,4.408,0,0,0-36.782,20.359Zm12.612,4.816A4.419,4.419,0,0,1-27.461,23.9a4.639,4.639,0,0,1-1.261-3.406v-.264a5.706,5.706,0,0,1,.549-2.544,4.181,4.181,0,0,1,1.542-1.745,4.078,4.078,0,0,1,2.215-.624,3.733,3.733,0,0,1,3,1.239,5.24,5.24,0,0,1,1.059,3.507v.861h-6.214a2.856,2.856,0,0,0,.787,1.863,2.362,2.362,0,0,0,1.736.686,2.892,2.892,0,0,0,2.391-1.187l1.151,1.1a3.845,3.845,0,0,1-1.525,1.323A4.774,4.774,0,0,1-24.17,25.176Zm-.255-8.147a1.8,1.8,0,0,0-1.419.615,3.189,3.189,0,0,0-.69,1.714h4.069V19.2a2.6,2.6,0,0,0-.571-1.622A1.785,1.785,0,0,0-24.425,17.028Zm8,7.972h-2.136V11.5h2.136Zm11.786-7.559a5.285,5.285,0,0,0-.87-.07A1.959,1.959,0,0,0-7.488,18.5V25H-9.624V15.49h2.039l.053,1.063a2.406,2.406,0,0,1,2.145-1.239,2,2,0,0,1,.756.123ZM-1.02,25H-3.155V15.49H-1.02ZM-3.287,13.021a1.133,1.133,0,0,1,.312-.817,1.179,1.179,0,0,1,.892-.325,1.193,1.193,0,0,1,.9.325,1.125,1.125,0,0,1,.316.817,1.1,1.1,0,0,1-.316.8,1.2,1.2,0,0,1-.9.321,1.188,1.188,0,0,1-.892-.321A1.107,1.107,0,0,1-3.287,13.021Zm8.78,12.155A4.419,4.419,0,0,1,2.2,23.9,4.639,4.639,0,0,1,.94,20.491v-.264a5.706,5.706,0,0,1,.549-2.544,4.181,4.181,0,0,1,1.542-1.745,4.078,4.078,0,0,1,2.215-.624,3.733,3.733,0,0,1,3,1.239,5.24,5.24,0,0,1,1.059,3.507v.861H3.094a2.856,2.856,0,0,0,.787,1.863,2.362,2.362,0,0,0,1.736.686,2.892,2.892,0,0,0,2.391-1.187l1.151,1.1a3.845,3.845,0,0,1-1.525,1.323A4.774,4.774,0,0,1,5.493,25.176Zm-.255-8.147a1.8,1.8,0,0,0-1.419.615,3.189,3.189,0,0,0-.69,1.714H7.2V19.2a2.6,2.6,0,0,0-.571-1.622A1.785,1.785,0,0,0,5.238,17.028Zm11.057,5.388a.968.968,0,0,0-.47-.87,5,5,0,0,0-1.56-.527,8.02,8.02,0,0,1-1.819-.58,2.428,2.428,0,0,1-1.6-2.241,2.531,2.531,0,0,1,1.037-2.057,4.1,4.1,0,0,1,2.637-.826,4.266,4.266,0,0,1,2.755.844,2.677,2.677,0,0,1,1.05,2.188H16.189a1.316,1.316,0,0,0-.457-1.024,1.752,1.752,0,0,0-1.213-.409,1.893,1.893,0,0,0-1.147.325,1.025,1.025,0,0,0-.444.87.866.866,0,0,0,.413.765,5.68,5.68,0,0,0,1.67.549,7.9,7.9,0,0,1,1.973.659A2.794,2.794,0,0,1,18.048,21a2.342,2.342,0,0,1,.347,1.3,2.478,2.478,0,0,1-1.063,2.079,4.535,4.535,0,0,1-2.786.8,4.917,4.917,0,0,1-2.083-.422,3.428,3.428,0,0,1-1.424-1.16A2.746,2.746,0,0,1,10.529,22H12.6a1.5,1.5,0,0,0,.571,1.165,2.22,2.22,0,0,0,1.4.409,2.16,2.16,0,0,0,1.283-.321A.993.993,0,0,0,16.295,22.416Zm3.586-2.241a5.562,5.562,0,0,1,1.042-3.538,3.343,3.343,0,0,1,2.764-1.323,3.132,3.132,0,0,1,2.558,1.134l.1-.958h1.925v9.22A3.832,3.832,0,0,1,27.1,27.663a4.436,4.436,0,0,1-3.142,1.081,5.064,5.064,0,0,1-2.043-.435A3.631,3.631,0,0,1,20.4,27.171l1.011-1.283a3.053,3.053,0,0,0,2.426,1.169,2.359,2.359,0,0,0,1.679-.576,2.206,2.206,0,0,0,.615-1.692v-.642a3.144,3.144,0,0,1-2.461,1.028,3.335,3.335,0,0,1-2.729-1.327A5.742,5.742,0,0,1,19.881,20.175Zm2.127.185a3.829,3.829,0,0,0,.584,2.254,1.879,1.879,0,0,0,1.622.822,2.055,2.055,0,0,0,1.916-1.107V18.145a2.026,2.026,0,0,0-1.9-1.081,1.887,1.887,0,0,0-1.639.835A4.287,4.287,0,0,0,22.008,20.359Zm8.051-.2a5.607,5.607,0,0,1,.554-2.518,4.044,4.044,0,0,1,1.556-1.723,4.383,4.383,0,0,1,2.3-.6A4.154,4.154,0,0,1,37.6,16.554a4.874,4.874,0,0,1,1.3,3.287l.009.5a5.658,5.658,0,0,1-.541,2.514,4,4,0,0,1-1.547,1.714,4.415,4.415,0,0,1-2.325.606,4.125,4.125,0,0,1-3.221-1.34,5.133,5.133,0,0,1-1.208-3.573Zm2.136.185a3.832,3.832,0,0,0,.606,2.3,1.971,1.971,0,0,0,1.688.831,1.95,1.95,0,0,0,1.683-.844,4.232,4.232,0,0,0,.6-2.47,3.782,3.782,0,0,0-.62-2.285,2.089,2.089,0,0,0-3.344-.013A4.152,4.152,0,0,0,32.194,20.342Z" transform="translate(-1609 -10907)" fill="#12263f"/>
    <path id="Trazado_737619" data-name="Trazado 737619" d="M-1774-10947.43l-40.951,40.951" fill="none" stroke="#707070" stroke-width="1"/>
    <path id="Trazado_737620" data-name="Trazado 737620" d="M-1774-10947.43l-40.951,40.951" transform="translate(31.951)" fill="none" stroke="#707070" stroke-width="1"/>
    <path id="Trazado_737624" data-name="Trazado 737624" d="M7.5,0,15,13H0Z" transform="translate(-1817.448 -10893.231) rotate(-137)" fill="#0f0e0e"/>
    <path id="Trazado_737625" data-name="Trazado 737625" d="M7.5,0,15,13H0Z" transform="translate(-1783.505 -10893.231) rotate(-137)" fill="#0f0e0e"/>
    <path id="Trazado_737621" data-name="Trazado 737621" d="M-92.479-5.713h-5.256v3.938h6.144V0h-8.367V-12.8h8.306V-11h-6.082v3.533h5.256Zm7.822,3.129a.968.968,0,0,0-.47-.87,5,5,0,0,0-1.56-.527,8.02,8.02,0,0,1-1.819-.58,2.428,2.428,0,0,1-1.6-2.241,2.531,2.531,0,0,1,1.037-2.057,4.1,4.1,0,0,1,2.637-.826,4.266,4.266,0,0,1,2.755.844,2.677,2.677,0,0,1,1.05,2.188h-2.136a1.316,1.316,0,0,0-.457-1.024,1.752,1.752,0,0,0-1.213-.409,1.893,1.893,0,0,0-1.147.325,1.025,1.025,0,0,0-.444.87.866.866,0,0,0,.413.765,5.68,5.68,0,0,0,1.67.549,7.9,7.9,0,0,1,1.973.659A2.794,2.794,0,0,1-82.9-4a2.342,2.342,0,0,1,.347,1.3A2.478,2.478,0,0,1-83.619-.62a4.535,4.535,0,0,1-2.786.8,4.917,4.917,0,0,1-2.083-.422,3.428,3.428,0,0,1-1.424-1.16A2.746,2.746,0,0,1-90.422-3h2.074a1.5,1.5,0,0,0,.571,1.165,2.22,2.22,0,0,0,1.4.409A2.16,2.16,0,0,0-85.1-1.745.993.993,0,0,0-84.656-2.584Zm7.866,1.055A1.931,1.931,0,0,0-75.463-2,1.591,1.591,0,0,0-74.9-3.146h2.013a3.137,3.137,0,0,1-.554,1.657A3.632,3.632,0,0,1-74.848-.272a4.191,4.191,0,0,1-1.916.448,4.055,4.055,0,0,1-3.164-1.292A5.124,5.124,0,0,1-81.1-4.685V-4.9a5.039,5.039,0,0,1,1.16-3.476,4.018,4.018,0,0,1,3.164-1.305,3.907,3.907,0,0,1,2.764.989,3.542,3.542,0,0,1,1.121,2.6H-74.9a1.956,1.956,0,0,0-.558-1.345,1.8,1.8,0,0,0-1.332-.527,1.879,1.879,0,0,0-1.6.751,3.834,3.834,0,0,0-.571,2.281V-4.6A3.9,3.9,0,0,0-78.4-2.29,1.878,1.878,0,0,0-76.79-1.529ZM-65.593,0a3.3,3.3,0,0,1-.246-.888,3.325,3.325,0,0,1-2.5,1.063,3.355,3.355,0,0,1-2.338-.817,2.615,2.615,0,0,1-.905-2.021A2.7,2.7,0,0,1-70.449-5a5.473,5.473,0,0,1,3.23-.813h1.31v-.624a1.666,1.666,0,0,0-.413-1.182,1.638,1.638,0,0,0-1.257-.444,1.881,1.881,0,0,0-1.2.365,1.129,1.129,0,0,0-.466.927h-2.136a2.37,2.37,0,0,1,.519-1.463A3.455,3.455,0,0,1-69.447-9.3a4.955,4.955,0,0,1,1.991-.387,3.99,3.99,0,0,1,2.663.839,2.993,2.993,0,0,1,1.02,2.36V-2.2a4.861,4.861,0,0,0,.36,2.048V0Zm-2.347-1.538a2.429,2.429,0,0,0,1.191-.308,2.055,2.055,0,0,0,.839-.826V-4.465h-1.151a3.148,3.148,0,0,0-1.784.413,1.338,1.338,0,0,0-.6,1.169,1.248,1.248,0,0,0,.409.98A1.583,1.583,0,0,0-67.939-1.538ZM-59.265,0H-61.4V-13.5h2.136Zm8.007,0A3.3,3.3,0,0,1-51.5-.888,3.325,3.325,0,0,1-54,.176a3.355,3.355,0,0,1-2.338-.817,2.615,2.615,0,0,1-.905-2.021A2.7,2.7,0,0,1-56.114-5a5.473,5.473,0,0,1,3.23-.813h1.31v-.624a1.666,1.666,0,0,0-.413-1.182,1.638,1.638,0,0,0-1.257-.444,1.881,1.881,0,0,0-1.2.365,1.129,1.129,0,0,0-.466.927h-2.136a2.37,2.37,0,0,1,.519-1.463A3.455,3.455,0,0,1-55.112-9.3a4.955,4.955,0,0,1,1.991-.387,3.99,3.99,0,0,1,2.663.839,2.993,2.993,0,0,1,1.02,2.36V-2.2a4.861,4.861,0,0,0,.36,2.048V0ZM-53.6-1.538a2.429,2.429,0,0,0,1.191-.308,2.055,2.055,0,0,0,.839-.826V-4.465h-1.151a3.148,3.148,0,0,0-1.784.413,1.338,1.338,0,0,0-.6,1.169,1.248,1.248,0,0,0,.409.98A1.583,1.583,0,0,0-53.6-1.538Zm10.485-3.287A5.654,5.654,0,0,1-42.1-8.354a3.267,3.267,0,0,1,2.733-1.332,3.1,3.1,0,0,1,2.443,1.055V-13.5h2.136V0h-1.934l-.105-.984A3.148,3.148,0,0,1-39.384.176a3.248,3.248,0,0,1-2.7-1.345A5.861,5.861,0,0,1-43.119-4.825Zm2.136.185a3.958,3.958,0,0,0,.558,2.263,1.811,1.811,0,0,0,1.586.813,2.017,2.017,0,0,0,1.916-1.169V-6.794a1.986,1.986,0,0,0-1.9-1.143,1.824,1.824,0,0,0-1.6.822A4.408,4.408,0,0,0-40.983-4.641ZM-28.371.176A4.419,4.419,0,0,1-31.663-1.1a4.639,4.639,0,0,1-1.261-3.406v-.264a5.706,5.706,0,0,1,.549-2.544,4.181,4.181,0,0,1,1.542-1.745,4.078,4.078,0,0,1,2.215-.624,3.733,3.733,0,0,1,3,1.239,5.24,5.24,0,0,1,1.059,3.507v.861h-6.214a2.856,2.856,0,0,0,.787,1.863,2.362,2.362,0,0,0,1.736.686,2.892,2.892,0,0,0,2.391-1.187l1.151,1.1A3.845,3.845,0,0,1-26.231-.294,4.774,4.774,0,0,1-28.371.176Zm-.255-8.147a1.8,1.8,0,0,0-1.419.615,3.189,3.189,0,0,0-.69,1.714h4.069V-5.8a2.6,2.6,0,0,0-.571-1.622A1.785,1.785,0,0,0-28.626-7.972Zm14.115,6.442A1.931,1.931,0,0,0-13.184-2a1.591,1.591,0,0,0,.563-1.151h2.013a3.137,3.137,0,0,1-.554,1.657A3.632,3.632,0,0,1-12.568-.272a4.191,4.191,0,0,1-1.916.448,4.055,4.055,0,0,1-3.164-1.292,5.124,5.124,0,0,1-1.169-3.568V-4.9a5.039,5.039,0,0,1,1.16-3.476,4.018,4.018,0,0,1,3.164-1.305,3.907,3.907,0,0,1,2.764.989,3.542,3.542,0,0,1,1.121,2.6h-2.013a1.956,1.956,0,0,0-.558-1.345,1.8,1.8,0,0,0-1.332-.527,1.879,1.879,0,0,0-1.6.751,3.834,3.834,0,0,0-.571,2.281V-4.6a3.9,3.9,0,0,0,.558,2.307A1.878,1.878,0,0,0-14.511-1.529ZM-9.4-4.843a5.607,5.607,0,0,1,.554-2.518A4.044,4.044,0,0,1-7.286-9.083a4.383,4.383,0,0,1,2.3-.6A4.154,4.154,0,0,1-1.859-8.446a4.874,4.874,0,0,1,1.3,3.287l.009.5a5.658,5.658,0,0,1-.541,2.514A4,4,0,0,1-2.641-.431,4.415,4.415,0,0,1-4.966.176a4.125,4.125,0,0,1-3.221-1.34A5.133,5.133,0,0,1-9.4-4.737Zm2.136.185a3.832,3.832,0,0,0,.606,2.3,1.971,1.971,0,0,0,1.688.831,1.95,1.95,0,0,0,1.683-.844,4.232,4.232,0,0,0,.6-2.47A3.782,3.782,0,0,0-3.3-7.128a1.979,1.979,0,0,0-1.683-.844,1.96,1.96,0,0,0-1.661.831A4.152,4.152,0,0,0-7.26-4.658ZM3.234-9.51l.062,1.1A3.419,3.419,0,0,1,6.064-9.686q2.971,0,3.023,3.4V0H6.952V-6.161A1.958,1.958,0,0,0,6.561-7.5a1.645,1.645,0,0,0-1.279-.435A2.058,2.058,0,0,0,3.357-6.768V0H1.222V-9.51ZM16.594-2.584a.968.968,0,0,0-.47-.87,5,5,0,0,0-1.56-.527,8.02,8.02,0,0,1-1.819-.58,2.428,2.428,0,0,1-1.6-2.241,2.531,2.531,0,0,1,1.037-2.057,4.1,4.1,0,0,1,2.637-.826,4.266,4.266,0,0,1,2.755.844,2.677,2.677,0,0,1,1.05,2.188H16.488a1.316,1.316,0,0,0-.457-1.024,1.752,1.752,0,0,0-1.213-.409,1.893,1.893,0,0,0-1.147.325,1.025,1.025,0,0,0-.444.87.866.866,0,0,0,.413.765,5.68,5.68,0,0,0,1.67.549,7.9,7.9,0,0,1,1.973.659A2.794,2.794,0,0,1,18.347-4a2.342,2.342,0,0,1,.347,1.3A2.478,2.478,0,0,1,17.631-.62a4.535,4.535,0,0,1-2.786.8,4.917,4.917,0,0,1-2.083-.422,3.428,3.428,0,0,1-1.424-1.16A2.746,2.746,0,0,1,10.828-3H12.9a1.5,1.5,0,0,0,.571,1.165,2.22,2.22,0,0,0,1.4.409,2.16,2.16,0,0,0,1.283-.321A.993.993,0,0,0,16.594-2.584ZM24.741.176A4.419,4.419,0,0,1,21.45-1.1a4.639,4.639,0,0,1-1.261-3.406v-.264a5.706,5.706,0,0,1,.549-2.544A4.181,4.181,0,0,1,22.28-9.062,4.078,4.078,0,0,1,24.5-9.686a3.733,3.733,0,0,1,3,1.239,5.24,5.24,0,0,1,1.059,3.507v.861H22.342a2.856,2.856,0,0,0,.787,1.863,2.362,2.362,0,0,0,1.736.686,2.892,2.892,0,0,0,2.391-1.187l1.151,1.1A3.845,3.845,0,0,1,26.881-.294,4.774,4.774,0,0,1,24.741.176Zm-.255-8.147a1.8,1.8,0,0,0-1.419.615,3.189,3.189,0,0,0-.69,1.714h4.069V-5.8a2.6,2.6,0,0,0-.571-1.622A1.785,1.785,0,0,0,24.486-7.972Zm9.633,6.442A1.931,1.931,0,0,0,35.446-2a1.591,1.591,0,0,0,.563-1.151h2.013a3.137,3.137,0,0,1-.554,1.657A3.632,3.632,0,0,1,36.062-.272a4.191,4.191,0,0,1-1.916.448,4.055,4.055,0,0,1-3.164-1.292,5.124,5.124,0,0,1-1.169-3.568V-4.9a5.039,5.039,0,0,1,1.16-3.476,4.018,4.018,0,0,1,3.164-1.305A3.907,3.907,0,0,1,36.9-8.7a3.542,3.542,0,0,1,1.121,2.6H36.009a1.956,1.956,0,0,0-.558-1.345,1.8,1.8,0,0,0-1.332-.527,1.879,1.879,0,0,0-1.6.751,3.834,3.834,0,0,0-.571,2.281V-4.6a3.9,3.9,0,0,0,.558,2.307A1.878,1.878,0,0,0,34.119-1.529Zm11.276.6A3.312,3.312,0,0,1,42.724.176a2.952,2.952,0,0,1-2.342-.905,3.851,3.851,0,0,1-.8-2.619V-9.51h2.136v6.135q0,1.811,1.5,1.811a2.111,2.111,0,0,0,2.1-1.116V-9.51h2.136V0H45.448ZM53.824.176A4.419,4.419,0,0,1,50.533-1.1a4.639,4.639,0,0,1-1.261-3.406v-.264a5.706,5.706,0,0,1,.549-2.544,4.181,4.181,0,0,1,1.542-1.745,4.078,4.078,0,0,1,2.215-.624,3.733,3.733,0,0,1,3,1.239,5.24,5.24,0,0,1,1.059,3.507v.861H51.425a2.856,2.856,0,0,0,.787,1.863,2.362,2.362,0,0,0,1.736.686,2.892,2.892,0,0,0,2.391-1.187l1.151,1.1A3.845,3.845,0,0,1,55.964-.294,4.774,4.774,0,0,1,53.824.176Zm-.255-8.147a1.8,1.8,0,0,0-1.419.615,3.189,3.189,0,0,0-.69,1.714h4.069V-5.8a2.6,2.6,0,0,0-.571-1.622A1.785,1.785,0,0,0,53.569-7.972ZM61.277-9.51l.062,1.1a3.419,3.419,0,0,1,2.769-1.274q2.971,0,3.023,3.4V0H65V-6.161A1.958,1.958,0,0,0,64.6-7.5a1.645,1.645,0,0,0-1.279-.435A2.058,2.058,0,0,0,61.4-6.768V0H59.265V-9.51Zm11.936,7.98A1.931,1.931,0,0,0,74.54-2,1.591,1.591,0,0,0,75.1-3.146h2.013a3.137,3.137,0,0,1-.554,1.657A3.632,3.632,0,0,1,75.155-.272a4.191,4.191,0,0,1-1.916.448,4.055,4.055,0,0,1-3.164-1.292,5.124,5.124,0,0,1-1.169-3.568V-4.9a5.039,5.039,0,0,1,1.16-3.476A4.018,4.018,0,0,1,73.23-9.686a3.907,3.907,0,0,1,2.764.989,3.542,3.542,0,0,1,1.121,2.6H75.1a1.956,1.956,0,0,0-.558-1.345,1.8,1.8,0,0,0-1.332-.527,1.879,1.879,0,0,0-1.6.751,3.834,3.834,0,0,0-.571,2.281V-4.6A3.9,3.9,0,0,0,71.6-2.29,1.878,1.878,0,0,0,73.213-1.529ZM81,0H78.864V-9.51H81ZM78.732-11.979a1.133,1.133,0,0,1,.312-.817,1.179,1.179,0,0,1,.892-.325,1.193,1.193,0,0,1,.9.325,1.125,1.125,0,0,1,.316.817,1.1,1.1,0,0,1-.316.8,1.2,1.2,0,0,1-.9.321,1.188,1.188,0,0,1-.892-.321A1.107,1.107,0,0,1,78.732-11.979ZM89.007,0a3.3,3.3,0,0,1-.246-.888,3.325,3.325,0,0,1-2.5,1.063,3.355,3.355,0,0,1-2.338-.817,2.615,2.615,0,0,1-.905-2.021A2.7,2.7,0,0,1,84.151-5a5.473,5.473,0,0,1,3.23-.813h1.31v-.624a1.666,1.666,0,0,0-.413-1.182,1.638,1.638,0,0,0-1.257-.444,1.881,1.881,0,0,0-1.2.365,1.129,1.129,0,0,0-.466.927H83.224a2.37,2.37,0,0,1,.519-1.463A3.455,3.455,0,0,1,85.153-9.3a4.955,4.955,0,0,1,1.991-.387,3.99,3.99,0,0,1,2.663.839,2.993,2.993,0,0,1,1.02,2.36V-2.2a4.861,4.861,0,0,0,.36,2.048V0ZM86.66-1.538a2.429,2.429,0,0,0,1.191-.308,2.055,2.055,0,0,0,.839-.826V-4.465H87.539a3.148,3.148,0,0,0-1.784.413,1.338,1.338,0,0,0-.6,1.169,1.248,1.248,0,0,0,.409.98A1.583,1.583,0,0,0,86.66-1.538ZM98.394-2.584a.968.968,0,0,0-.47-.87,5,5,0,0,0-1.56-.527,8.02,8.02,0,0,1-1.819-.58,2.428,2.428,0,0,1-1.6-2.241,2.531,2.531,0,0,1,1.037-2.057,4.1,4.1,0,0,1,2.637-.826,4.266,4.266,0,0,1,2.755.844,2.677,2.677,0,0,1,1.05,2.188H98.288a1.316,1.316,0,0,0-.457-1.024,1.752,1.752,0,0,0-1.213-.409,1.893,1.893,0,0,0-1.147.325,1.025,1.025,0,0,0-.444.87.866.866,0,0,0,.413.765,5.68,5.68,0,0,0,1.67.549,7.9,7.9,0,0,1,1.973.659A2.794,2.794,0,0,1,100.147-4a2.342,2.342,0,0,1,.347,1.3A2.478,2.478,0,0,1,99.431-.62a4.535,4.535,0,0,1-2.786.8,4.917,4.917,0,0,1-2.083-.422,3.428,3.428,0,0,1-1.424-1.16A2.746,2.746,0,0,1,92.628-3H94.7a1.5,1.5,0,0,0,.571,1.165,2.22,2.22,0,0,0,1.4.409,2.16,2.16,0,0,0,1.283-.321A.993.993,0,0,0,98.394-2.584Z" transform="translate(-1768 -10826)" fill="#12263f"/>
    <path id="Trazado_737630" data-name="Trazado 737630" d="M10.5,0,21,18H0Z" transform="translate(-2093 -11185)" fill="#12263f"/>
    <path id="Trazado_737628" data-name="Trazado 737628" d="M10.5,0,21,18H0Z" transform="translate(-1449.5 -10864.5) rotate(90)" fill="#12263f"/>
  </g>
</svg>
