<svg xmlns="http://www.w3.org/2000/svg" width="85" height="81.064" viewBox="0 0 85 81.064">
  <g id="diagnostico" transform="translate(0.025 -11.831)">
    <g id="Grupo_972870" data-name="Grupo 972870" transform="translate(1.307 13.159)">
      <g id="Grupo_972868" data-name="Grupo 972868" transform="translate(0 0)">
        <path id="Trazado_738324" data-name="Trazado 738324" d="M49.774,24.981l22.55,39.057a10.3,10.3,0,0,1-8.918,15.446h-45.1A10.3,10.3,0,0,1,9.389,64.038l22.55-39.057a10.3,10.3,0,0,1,17.836,0Z" transform="translate(-7.998 -19.832)" fill="#f6b84d" fill-rule="evenodd"/>
        <path id="Trazado_738325" data-name="Trazado 738325" d="M208.126,24.981l22.55,39.057a10.3,10.3,0,0,1-8.918,15.446h-2.679A10.3,10.3,0,0,0,228,64.038l-22.55-39.057a10.216,10.216,0,0,0-7.578-5.063,10.523,10.523,0,0,1,1.339-.086,10.228,10.228,0,0,1,8.918,5.149Z" transform="translate(-166.35 -19.832)" fill="#fd4755" fill-rule="evenodd"/>
        <path id="Trazado_738326" data-name="Trazado 738326" d="M72.095,54.635l22.55,39.057a4.93,4.93,0,0,1-4.269,7.394h-45.1a4.93,4.93,0,0,1-4.269-7.394l22.55-39.057a4.929,4.929,0,0,1,8.538,0Z" transform="translate(-34.968 -46.802)" fill="#ffe177" fill-rule="evenodd"/>
        <path id="Trazado_738327" data-name="Trazado 738327" d="M47.955,101.086H45.276a4.93,4.93,0,0,1-4.269-7.394l22.55-39.057a4.86,4.86,0,0,1,4.269-2.465,5.042,5.042,0,0,1,1.339.179,4.855,4.855,0,0,0-2.929,2.286L43.686,93.692a4.929,4.929,0,0,0,4.269,7.394Z" transform="translate(-34.968 -46.802)" fill="#ffd064" fill-rule="evenodd"/>
        <path id="Trazado_738328" data-name="Trazado 738328" d="M191.772,149.144a2.82,2.82,0,1,1-2.82,2.82A2.82,2.82,0,0,1,191.772,149.144Zm0-2.948a2.2,2.2,0,0,1-2.2-2.122l-.556-15.407a2.2,2.2,0,0,1,2.2-2.28h1.113a2.2,2.2,0,0,1,2.2,2.28l-.556,15.407A2.2,2.2,0,0,1,191.772,146.2Z" transform="translate(-158.914 -108.698)" fill="#bfdb77" fill-rule="evenodd"/>
        <path id="Trazado_738329" data-name="Trazado 738329" d="M202.573,149.143a2.82,2.82,0,1,1-.67,5.559,2.82,2.82,0,0,0,0-5.479A2.846,2.846,0,0,1,202.573,149.143Zm0-2.948a2.2,2.2,0,0,1-.67-.1,2.2,2.2,0,0,0,1.53-2.018l.556-15.407a2.2,2.2,0,0,0-2.086-2.278l.113,0h1.113a2.2,2.2,0,0,1,2.2,2.28l-.556,15.407a2.2,2.2,0,0,1-2.2,2.122Z" transform="translate(-169.715 -108.697)" fill="#fd4755" fill-rule="evenodd"/>
      </g>
      <g id="Grupo_972869" data-name="Grupo 972869" transform="translate(27.833 25.453)">
        <path id="Trazado_738330" data-name="Trazado 738330" d="M379.115,366.042a16.793,16.793,0,0,1-2.834,3.12l7.706,7.553,2.934-3.023Z" transform="translate(-342.979 -334.024)" fill="#a79ba7" fill-rule="evenodd"/>
        <path id="Trazado_738331" data-name="Trazado 738331" d="M389.452,365.729a1.936,1.936,0,0,1-.839,1.125l7.655,7.6.937-1.027Z" transform="translate(-353.264 -333.763)" fill="#837683" fill-rule="evenodd"/>
        <path id="Trazado_738332" data-name="Trazado 738332" d="M422.32,414.626l3.311-3.412a1.522,1.522,0,0,0-.032-2.147l-9.17-8.9a1.522,1.522,0,0,0-2.147.032l-3.311,3.412A1.523,1.523,0,0,0,411,405.76l9.17,8.9A1.523,1.523,0,0,0,422.32,414.626Z" transform="translate(-371.555 -362.13)" fill="#f6b84d" fill-rule="evenodd"/>
        <path id="Trazado_738333" data-name="Trazado 738333" d="M435.916,400.169l9.17,8.9a1.522,1.522,0,0,1,.032,2.147l-3.311,3.412a1.5,1.5,0,0,1-.411.3,1.524,1.524,0,0,0,1.768-.3l3.311-3.412a1.522,1.522,0,0,0-.032-2.147l-9.17-8.9a1.524,1.524,0,0,0-1.735-.268A1.5,1.5,0,0,1,435.916,400.169Z" transform="translate(-392.398 -362.13)" fill="#e3a76f" fill-rule="evenodd"/>
        <circle id="Elipse_6860" data-name="Elipse 6860" cx="16.698" cy="16.698" r="16.698" transform="translate(0 23.612) rotate(-45)" fill="#bfdb77"/>
        <path id="Trazado_738334" data-name="Trazado 738334" d="M313.9,214.808a16.7,16.7,0,0,1,0,33.4q-.408,0-.811-.02a16.7,16.7,0,0,0,0-33.357C313.357,214.815,313.627,214.808,313.9,214.808Z" transform="translate(-290.276 -207.895)" fill="#60b7ff" fill-rule="evenodd"/>
        <circle id="Elipse_6861" data-name="Elipse 6861" cx="11.991" cy="11.991" r="11.991" transform="matrix(0.305, -0.952, 0.952, 0.305, 8.526, 31.376)" fill="#eceff1"/>
        <path id="Trazado_738335" data-name="Trazado 738335" d="M257.73,243.17c.273,0,.543.01.811.028a11.99,11.99,0,0,0,0,23.925c-.268.018-.538.028-.811.028a11.99,11.99,0,1,1,0-23.981Z" transform="translate(-234.107 -231.549)" fill="#d1d1d6" fill-rule="evenodd"/>
      </g>
    </g>
    <path id="Trazado_738336" data-name="Trazado 738336" d="M52.766,72.751A10.527,10.527,0,1,1,63.293,62.224,10.539,10.539,0,0,1,52.766,72.751Zm0-23.711A13.184,13.184,0,1,0,65.949,62.224,13.2,13.2,0,0,0,52.766,49.04Zm29.5,37.731-3.312,3.411a.2.2,0,0,1-.269,0l-9.17-8.9a.183.183,0,0,1-.055-.133.179.179,0,0,1,.051-.135l3.31-3.411a.2.2,0,0,1,.135-.057h0a.186.186,0,0,1,.131.052l9.17,8.9a.2.2,0,0,1,.005.269ZM37.4,62.224a15.37,15.37,0,1,0,15.37-15.37A15.387,15.387,0,0,0,37.4,62.224Zm-.362-8.795a18.07,18.07,0,0,1,13.36-9.074l-13.106-22.7a3.6,3.6,0,0,0-6.239,0L8.5,60.713a3.6,3.6,0,0,0,3.119,5.4H35.163a17.994,17.994,0,0,1-.424-3.891c0-.575.028-1.142.082-1.7a4.258,4.258,0,0,1-.652.052,4.148,4.148,0,1,1,2.865-7.143Zm-2.865,4.487a1.492,1.492,0,1,1,1.493-1.49A1.493,1.493,0,0,1,34.168,57.916ZM11.619,71.483H37.3a18.072,18.072,0,0,1-1.334-2.712H11.619A6.257,6.257,0,0,1,6.2,59.385l22.55-39.057a6.257,6.257,0,0,1,10.838,0L53.374,44.209a17.9,17.9,0,0,1,3.383.435L41.935,18.973a8.967,8.967,0,0,0-15.534,0L3.85,58.029a8.97,8.97,0,0,0,7.769,13.454Zm58.306,5.3L68.84,77.9,65.657,74.81q.545-.558,1.04-1.159ZM84.113,84.6l-9.171-8.9a2.837,2.837,0,0,0-2.024-.8,2.87,2.87,0,0,0-.941.176l-3.732-3.62A18.013,18.013,0,0,0,60.6,45.992L44.236,17.644a11.625,11.625,0,0,0-20.136,0L1.551,56.7A11.626,11.626,0,0,0,11.619,74.139H39.252a18,18,0,0,0,24.41,2.435l3.431,3.33a2.861,2.861,0,0,0-.287,1.291,2.826,2.826,0,0,0,.862,2l9.17,8.9a2.85,2.85,0,0,0,4.024-.06h0l3.31-3.411a2.85,2.85,0,0,0-.06-4.024ZM35.041,48.487a.874.874,0,0,1-1.746,0l-.556-15.408a.871.871,0,0,1,.873-.9h1.112a.87.87,0,0,1,.873.9ZM34.724,29.52a3.532,3.532,0,0,1,3.528,3.655l-.558,15.408a3.529,3.529,0,0,1-7.054,0l-.556-15.408a3.53,3.53,0,0,1,3.527-3.655Z" transform="translate(0 0)" fill-rule="evenodd"/>
  </g>
</svg>
