<svg xmlns="http://www.w3.org/2000/svg" width="31.544" height="36.039" viewBox="0 0 31.544 36.039">
  <g id="flecha-hacia-abajo_1_" data-name="flecha-hacia-abajo (1)" transform="translate(-3.998 -0.01)">
    <path id="Trazado_738337" data-name="Trazado 738337" d="M35.294,32.409A4.492,4.492,0,0,1,33.978,35.6L23.849,45.745a4.506,4.506,0,0,1-6.373.006L7.327,35.623a4.506,4.506,0,1,1,6.366-6.379l6.96,6.946L27.6,29.23a4.506,4.506,0,0,1,7.7,3.179Z" transform="translate(-0.876 -12.183)" fill="#bfdb77"/>
    <path id="Trazado_738338" data-name="Trazado 738338" d="M32.991,6.427l.018,18.588A4.506,4.506,0,0,1,24,25.024L23.978,6.435a4.506,4.506,0,0,1,9.012-.009Z" transform="translate(-8.726 -0.836)" fill="#bfdb77"/>
    <path id="Trazado_738339" data-name="Trazado 738339" d="M35.542,20.288a5.6,5.6,0,0,1-1.65,3.983L23.752,34.41a5.659,5.659,0,0,1-7.966,0L5.648,24.271a5.633,5.633,0,0,1,3.983-9.616,5.929,5.929,0,0,1,4.506,2.173V5.642a5.633,5.633,0,1,1,11.266,0V16.828a5.747,5.747,0,0,1,8.489-.523,5.6,5.6,0,0,1,1.65,3.983Zm-29.289,0a3.37,3.37,0,0,0,.988,2.39L17.38,32.817a3.4,3.4,0,0,0,4.779,0L32.3,22.678a3.38,3.38,0,1,0-4.779-4.78l-2.447,2.446a1.134,1.134,0,0,1-1.923-.8V5.642a3.38,3.38,0,1,0-6.759,0V19.548a1.134,1.134,0,0,1-1.923.8c-1.224-1.076-2.958-3.622-4.836-3.436a3.4,3.4,0,0,0-3.378,3.38Z" fill="#336367"/>
  </g>
</svg>
