<svg xmlns="http://www.w3.org/2000/svg" width="21" height="21" viewBox="0 0 21 21">
  <g id="Grupo_972889" data-name="Grupo 972889" transform="translate(-594 -1648)">
    <g id="Elipse_6716" data-name="Elipse 6716" transform="translate(594 1648)" fill="#f6b84d" stroke="#0e494d" stroke-width="1">
      <circle cx="10.5" cy="10.5" r="10.5" stroke="none"/>
      <circle cx="10.5" cy="10.5" r="10" fill="none"/>
    </g>
    <path id="Trazado_738341" data-name="Trazado 738341" d="M-.594,0H-8.242V-1.3l3.789-4.133A9.436,9.436,0,0,0-3.285-6.965,2.475,2.475,0,0,0-2.937-8.2a1.87,1.87,0,0,0-.457-1.312,1.585,1.585,0,0,0-1.23-.5,1.827,1.827,0,0,0-1.43.563,2.212,2.212,0,0,0-.508,1.539h-1.9a3.721,3.721,0,0,1,.473-1.871A3.255,3.255,0,0,1-6.637-11.07a4.3,4.3,0,0,1,2.027-.461A3.848,3.848,0,0,1-2-10.7a2.888,2.888,0,0,1,.957,2.3,3.9,3.9,0,0,1-.48,1.785A10.151,10.151,0,0,1-3.094-4.492L-5.875-1.516H-.594Z" transform="translate(609 1664)" fill="#12263f"/>
  </g>
</svg>
