<svg xmlns="http://www.w3.org/2000/svg" width="105" height="105" viewBox="0 0 105 105">
  <g id="Grupo_972708" data-name="Grupo 972708" transform="translate(-600 -1480)">
    <circle id="Elipse_6818" data-name="Elipse 6818" cx="52.5" cy="52.5" r="52.5" transform="translate(600 1480)" fill="#52c194"/>
    <g id="politica" transform="translate(618 1497.996)">
      <g id="Page-1_45_" transform="translate(0 0.003)">
        <g id="_x30_46---Legal-Policy" transform="translate(0 0)">
          <g id="Grupo_972248" data-name="Grupo 972248" transform="translate(17.261 6.905)">
            <path id="Path_149_" d="M129.151,53.505h20.713a1.151,1.151,0,1,0,0-2.3H129.151a1.151,1.151,0,1,0,0,2.3Z" transform="translate(-128 -51.204)" fill="#fff" fill-rule="evenodd"/>
            <path id="Path_148_" d="M129.151,104.705h20.713a1.151,1.151,0,1,0,0-2.3H129.151a1.151,1.151,0,1,0,0,2.3Z" transform="translate(-128 -95.5)" fill="#fff" fill-rule="evenodd"/>
            <path id="Path_147_" d="M129.151,155.905h20.713a1.151,1.151,0,1,0,0-2.3H129.151a1.151,1.151,0,1,0,0,2.3Z" transform="translate(-128 -139.795)" fill="#fff" fill-rule="evenodd"/>
            <path id="Path_146_" d="M129.151,207.105h20.713a1.151,1.151,0,0,0,0-2.3H129.151a1.151,1.151,0,1,0,0,2.3Z" transform="translate(-128 -184.091)" fill="#fff" fill-rule="evenodd"/>
            <path id="Path_145_" d="M129.151,258.305H142.96a1.151,1.151,0,1,0,0-2.3H129.151a1.151,1.151,0,1,0,0,2.3Z" transform="translate(-128 -228.386)" fill="#fff" fill-rule="evenodd"/>
            <path id="Path_144_" d="M138.358,308.355a1.151,1.151,0,0,0-1.151-1.151h-8.055a1.151,1.151,0,1,0,0,2.3h8.055A1.151,1.151,0,0,0,138.358,308.355Z" transform="translate(-128.001 -272.682)" fill="#fff" fill-rule="evenodd"/>
          </g>
          <path id="Shape_175_" d="M54.356,43.709l.42-.42a2.337,2.337,0,0,0,.575.083,2.3,2.3,0,0,0,1.627-.673l3.793-3.789a2.3,2.3,0,0,0,0-3.255L51.1,26a2.3,2.3,0,0,0-3.254,0L46.03,27.82V6.907a6.911,6.911,0,0,0-6.9-6.9H6.931A6.9,6.9,0,0,0,0,6.907V31.073a2.3,2.3,0,0,0,2.3,2.3h9.206V56.389a6.931,6.931,0,0,0,6.916,6.9h9.194v3.452a2.3,2.3,0,0,0,2.3,2.3H46.03a2.3,2.3,0,0,0,2.3-2.3V63.294h2.3a6.9,6.9,0,0,0,6.89-6.615L63.1,62.258a3.47,3.47,0,1,0,4.916-4.9ZM38.32,48.679l-.02-.02-4.929-4.929,3.788-3.787h.008L46.821,49.6l-3.783,3.8Zm9.321-1.515L39.6,39.128l5.277-5.275,8.039,8.037Zm1.841-19.543,9.666,9.666-3.8,3.785-9.64-9.642a.138.138,0,0,0-.014-.02l.008-.011ZM11.507,31.073H2.3V6.907a4.619,4.619,0,0,1,1.508-3.4A4.567,4.567,0,0,1,6.891,2.3H7a2.486,2.486,0,0,1,.356.017,4.777,4.777,0,0,1,4.148,4.831V31.073Zm2.3,25.317V7.152A7.3,7.3,0,0,0,11.968,2.3H39.126a4.6,4.6,0,0,1,4.6,4.6V30.226A2.3,2.3,0,0,0,43.478,32l-5.733,5.73a2.293,2.293,0,0,0-2.214.587L31.741,42.1a2.3,2.3,0,0,0,0,3.254l2.98,2.976H25.317a2.3,2.3,0,0,0-2.3,2.3v5.512a4.784,4.784,0,0,1-4.178,4.833,3.329,3.329,0,0,1-.425.011,4.621,4.621,0,0,1-4.6-4.6ZM29.92,66.746v-4.6a1.151,1.151,0,0,1,1.151-1.151H44.879a1.151,1.151,0,0,1,1.151,1.151v4.6ZM55.236,56.389a4.6,4.6,0,0,1-4.6,4.6H48.12a3.452,3.452,0,0,0-3.241-2.3H31.07a3.452,3.452,0,0,0-3.241,2.3H23.475a7.3,7.3,0,0,0,1.841-4.845V50.636H37.023L41.4,55.018a2.307,2.307,0,0,0,3.254,0l3.788-3.787a2.251,2.251,0,0,0,.591-2.207l.413-.413,5.785,5.783v2Zm11.146,4.258a1.178,1.178,0,0,1-1.644-.009L57.2,53.1l-6.119-6.117,1.644-1.643L66.4,58.994a1.142,1.142,0,0,1-.013,1.655Z" transform="translate(0 -0.003)" fill="#fff"/>
        </g>
      </g>
    </g>
  </g>
</svg>
