<svg xmlns="http://www.w3.org/2000/svg" width="105" height="105" viewBox="0 0 105 105">
  <g id="Grupo_972709" data-name="Grupo 972709" transform="translate(-915 -1480)">
    <circle id="Elipse_6819" data-name="Elipse 6819" cx="52.5" cy="52.5" r="52.5" transform="translate(915 1480)" fill="#52c194"/>
    <g id="OUTLINE" transform="translate(878.176 1480)">
      <path id="Trazado_737002" data-name="Trazado 737002" d="M155.683,64.568c-.068,0-.135-.007-.2-.009a4.794,4.794,0,0,0,.029-.521,4.712,4.712,0,0,0-4.932-4.708c0-.073.005-.146.005-.219a4.713,4.713,0,0,0-3.38-4.522L152.9,48.9a4.716,4.716,0,1,0-6.669-6.669l-4.056,4.056V38.171h8.622a11.1,11.1,0,0,0,11.086-11.086,1.232,1.232,0,0,0-1.232-1.232h-9.854a11.027,11.027,0,0,0-6.606,2.189L149.2,23.03l-1.742-1.742-5.27,5.27a8.632,8.632,0,0,1,8.6-8.094H154.4a8.51,8.51,0,0,1-1.8,4.157l1.922,1.541a11.116,11.116,0,0,0,2.432-6.929A1.232,1.232,0,0,0,155.721,16h-4.927a11.1,11.1,0,0,0-9.854,6.017A11.1,11.1,0,0,0,131.086,16a1.232,1.232,0,0,0-1.232,1.232v3.7a11.094,11.094,0,0,0,.3,2.55,13.63,13.63,0,0,0-1.528-.087h-7.39A1.232,1.232,0,0,0,120,24.622a13.565,13.565,0,0,0,13.549,13.549h6.159v8.112l-4.056-4.056a4.716,4.716,0,0,0-6.669,6.669l5.288,5.288-4.3,4.3a8.751,8.751,0,0,0-2.58,6.228,8.853,8.853,0,0,0,.93,3.939l6.46,12.921V89.9h2.463V81.282a1.231,1.231,0,0,0-.13-.551L130.524,67.55a6.375,6.375,0,0,1-.67-2.837,6.3,6.3,0,0,1,1.858-4.487l16.257-16.257a2.252,2.252,0,1,1,3.185,3.185l-8.622,8.622-6.159,6.159,1.742,1.742,6.159-6.159a2.252,2.252,0,0,1,3.185,3.185L141.3,66.862l1.742,1.742,6.159-6.159a2.252,2.252,0,1,1,3.185,3.185l-.267.267-5.891,5.891,1.742,1.742,5.891-5.891a2.118,2.118,0,0,1,3.293,2.62l-4.941,7.906a1.231,1.231,0,0,0-.187.653V89.9h2.463V79.172l4.754-7.607a4.581,4.581,0,0,0-3.56-7Zm-4.889-36.25h8.535a8.636,8.636,0,0,1-8.535,7.39h-4.636l7.651-3.825-1.1-2.2-10.267,5.134a8.636,8.636,0,0,1,8.355-6.5ZM136.013,52.442l-5.288-5.288a2.252,2.252,0,1,1,3.185-3.185l5.288,5.288Zm.7-16.734h-3.161a11.1,11.1,0,0,1-11.018-9.854h6.091a11.1,11.1,0,0,1,10.818,8.672l-11.389-7.247-1.323,2.078Zm3-6.549a13.61,13.61,0,0,0-6.791-5.07,8.576,8.576,0,0,1-.6-3.161V18.551a8.636,8.636,0,0,1,7.39,8.534Z" transform="translate(-51.758)" fill="#fff"/>
      <path id="Trazado_737003" data-name="Trazado 737003" d="M0,0H2.463V19.24H0Z" transform="matrix(0.64, -0.768, 0.768, 0.64, 103.156, 53.909)" fill="#fff"/>
      <path id="Trazado_737004" data-name="Trazado 737004" d="M0,0H2.463V9.931H0Z" transform="translate(104.569 44.178) rotate(-60.255)" fill="#fff"/>
      <path id="Trazado_737005" data-name="Trazado 737005" d="M0,0H2.463V7.182H0Z" transform="translate(110.679 35.554) rotate(-59.046)" fill="#fff"/>
      <path id="Trazado_737006" data-name="Trazado 737006" d="M0,0H6.633V2.463H0Z" transform="translate(112.094 23.499) rotate(-21.791)" fill="#fff"/>
      <path id="Trazado_737007" data-name="Trazado 737007" d="M0,0H6.159V2.463H0Z" transform="matrix(0.8, -0.6, 0.6, 0.8, 106.918, 19.941)" fill="#fff"/>
      <path id="Trazado_737008" data-name="Trazado 737008" d="M0,0H19.24V2.463H0Z" transform="matrix(0.768, -0.64, 0.64, 0.768, 58.823, 64.313)" fill="#fff"/>
      <path id="Trazado_737009" data-name="Trazado 737009" d="M0,0H9.931V2.463H0Z" transform="translate(63.929 46.949) rotate(-29.745)" fill="#fff"/>
      <path id="Trazado_737010" data-name="Trazado 737010" d="M0,0H7.182V2.463H0Z" transform="matrix(0.857, -0.515, 0.515, 0.857, 60.223, 37.1)" fill="#fff"/>
      <path id="Trazado_737011" data-name="Trazado 737011" d="M0,0H2.463V6.633H0Z" transform="translate(59.155 23.305) rotate(-68.209)" fill="#fff"/>
      <path id="Trazado_737012" data-name="Trazado 737012" d="M0,0H2.463V7.182H0Z" transform="translate(65.135 18.296) rotate(-59.046)" fill="#fff"/>
    </g>
  </g>
</svg>
