<svg xmlns="http://www.w3.org/2000/svg" width="81" height="81" viewBox="0 0 81 81">
  <g id="Grupo_972828" data-name="Grupo 972828" transform="translate(-743 -1068)">
    <rect id="Rectángulo_343203" data-name="Rectángulo 343203" width="81" height="81" transform="translate(743 1068)" fill="none"/>
    <g id="luz-ecologica" transform="translate(725.499 1076)">
      <path id="Trazado_738071" data-name="Trazado 738071" d="M116.559,10A20.556,20.556,0,0,0,96,30.555,20.967,20.967,0,0,0,102.824,45.9a12.036,12.036,0,0,1,3.883,8.86h0v8.6a9.848,9.848,0,0,0,9.848,9.848h0a9.848,9.848,0,0,0,9.848-9.848v-8.6h.015a11.932,11.932,0,0,1,3.843-8.791,21.073,21.073,0,0,0,6.855-15.416A20.556,20.556,0,0,0,116.559,10Z" transform="translate(-57.955 -8.715)" fill="#bef7f0"/>
      <path id="Trazado_738072" data-name="Trazado 738072" d="M179.326,384.022v5.31a9.848,9.848,0,0,0,9.848,9.848h0a9.848,9.848,0,0,0,9.848-9.848v-5.31Z" transform="translate(-130.574 -334.68)" fill="#f6b84d"/>
      <g id="Grupo_972711" data-name="Grupo 972711" transform="translate(44.727 22.095)">
        <path id="Trazado_738073" data-name="Trazado 738073" d="M150.859,182.987a10.131,10.131,0,0,0,10.437,2.279A9.892,9.892,0,0,0,148.58,172.55,10.133,10.133,0,0,0,150.859,182.987Z" transform="translate(-148 -171.967)" fill="#59aa33"/>
        <path id="Trazado_738074" data-name="Trazado 738074" d="M269.3,172.548a9.892,9.892,0,0,0-12.716,12.716A9.892,9.892,0,0,0,269.3,172.548Z" transform="translate(-242.123 -171.965)" fill="#59aa33"/>
      </g>
      <path id="Trazado_738075" data-name="Trazado 738075" d="M107.843,0A21.866,21.866,0,0,0,86,21.84a22.238,22.238,0,0,0,7.238,16.293,10.778,10.778,0,0,1,3.468,7.915v8.6a11.133,11.133,0,0,0,22.266,0V46.245a1.3,1.3,0,0,0,.015-.2,10.67,10.67,0,0,1,3.427-7.845,22.319,22.319,0,0,0,7.27-16.363A21.866,21.866,0,0,0,107.843,0Zm0,63.215a8.573,8.573,0,0,1-8.564-8.563V50.624h7.282v2.594l-3.216,3.217a1.285,1.285,0,1,0,1.817,1.817l1.4-1.4V59.7a1.285,1.285,0,0,0,2.57,0V53.26l1.4,1.4a1.285,1.285,0,0,0,1.817-1.817l-2.218-2.218H116.4v4.029A8.573,8.573,0,0,1,107.84,63.215ZM95.567,23.708a8.67,8.67,0,0,1,8.509,2.158,8.266,8.266,0,0,1,2.482,5.582c-.01.294-.009.578,0,.853-.008.185-.021.364-.038.534l-4.707-4.706A1.285,1.285,0,1,0,100,29.946l4.7,4.7a8.434,8.434,0,0,1-6.961-2.438h0A8.669,8.669,0,0,1,95.567,23.708Zm13.567,7.879a8.282,8.282,0,0,1,2.477-5.721,8.67,8.67,0,0,1,8.508-2.158,8.668,8.668,0,0,1-2.168,8.5,8.409,8.409,0,0,1-6.968,2.445l4.706-4.706a1.285,1.285,0,1,0-1.817-1.817l-4.7,4.7c-.02-.207-.035-.425-.041-.653Q109.14,31.888,109.134,31.587Zm11.544,4.723a13.243,13.243,0,0,0-4.257,9.53,1.283,1.283,0,0,0-.017.208v2.006h-7.276V36.94a12.529,12.529,0,0,0,2.836.329,10.761,10.761,0,0,0,7.8-3.245,11.349,11.349,0,0,0,2.566-11.817,1.284,1.284,0,0,0-.8-.752h0a11.258,11.258,0,0,0-13.687,5.185,11.258,11.258,0,0,0-13.687-5.185h0a1.285,1.285,0,0,0-.8.752,11.349,11.349,0,0,0,2.566,11.817,10.76,10.76,0,0,0,7.8,3.245,12.529,12.529,0,0,0,2.837-.329V48.054H99.277V46.048a13.354,13.354,0,0,0-4.3-9.806,19.663,19.663,0,0,1-6.408-14.4,19.273,19.273,0,0,1,38.546,0A19.746,19.746,0,0,1,120.677,36.31Z" transform="translate(-49.24)"/>
      <path id="Trazado_738076" data-name="Trazado 738076" d="M247.3,40h-.014a1.285,1.285,0,0,0,0,2.57h.014a1.285,1.285,0,1,0,0-2.57Z" transform="translate(-188.681 -34.861)"/>
      <path id="Trazado_738077" data-name="Trazado 738077" d="M288.721,47.259a1.285,1.285,0,1,0-.878,2.415,14.222,14.222,0,0,1,7.159,5.8,1.285,1.285,0,0,0,2.178-1.364A16.8,16.8,0,0,0,288.721,47.259Z" transform="translate(-224.411 -41.119)"/>
      <path id="Trazado_738078" data-name="Trazado 738078" d="M33.934,35.221a1.281,1.281,0,0,1-.909-.376L29.878,31.7a1.285,1.285,0,0,1,1.817-1.817l3.148,3.148a1.285,1.285,0,0,1-.909,2.194Z" transform="translate(0 -25.712)"/>
      <path id="Trazado_738079" data-name="Trazado 738079" d="M439.283,35.221a1.285,1.285,0,0,1-.909-2.194l3.148-3.148A1.285,1.285,0,1,1,443.34,31.7l-3.148,3.148A1.282,1.282,0,0,1,439.283,35.221Z" transform="translate(-356.011 -25.712)"/>
      <path id="Trazado_738080" data-name="Trazado 738080" d="M30.786,355.18a1.285,1.285,0,0,1-.909-2.194l3.148-3.148a1.285,1.285,0,0,1,1.817,1.817L31.695,354.8A1.282,1.282,0,0,1,30.786,355.18Z" transform="translate(0 -304.561)"/>
      <path id="Trazado_738081" data-name="Trazado 738081" d="M442.431,355.18a1.281,1.281,0,0,1-.909-.376l-3.148-3.148a1.285,1.285,0,1,1,1.817-1.817l3.148,3.148a1.285,1.285,0,0,1-.909,2.194Z" transform="translate(-356.011 -304.561)"/>
    </g>
  </g>
</svg>
