<svg xmlns="http://www.w3.org/2000/svg" width="38" height="38" viewBox="0 0 38 38">
  <g id="Grupo_972894" data-name="Grupo 972894" transform="translate(4877 17553)">
    <g id="Elipse_5982" data-name="Elipse 5982" transform="translate(-4877 -17553)" fill="#bfdb77" stroke="#fff" stroke-width="3">
      <circle cx="19" cy="19" r="19" stroke="none"/>
      <circle cx="19" cy="19" r="17.5" fill="none"/>
    </g>
    <path id="Trazado_738349" data-name="Trazado 738349" d="M-3.076,0H-6.047V-9.457L-8.965-8.6v-2.25L-3.349-12.8h.272ZM9.668-5.229a6.11,6.11,0,0,1-1.165,4A4.024,4.024,0,0,1,5.221.176a4.046,4.046,0,0,1-3.3-1.415A6.1,6.1,0,0,1,.747-5.229V-7.567a6.11,6.11,0,0,1,1.165-4A4.034,4.034,0,0,1,5.2-12.973a4.036,4.036,0,0,1,3.3,1.415,6.116,6.116,0,0,1,1.169,4ZM6.706-7.945a4.564,4.564,0,0,0-.36-2.061A1.2,1.2,0,0,0,5.2-10.687a1.176,1.176,0,0,0-1.112.633,4.3,4.3,0,0,0-.374,1.916v3.27a4.6,4.6,0,0,0,.36,2.1,1.209,1.209,0,0,0,1.143.664,1.193,1.193,0,0,0,1.116-.646,4.39,4.39,0,0,0,.369-2.026Z" transform="translate(-4858 -17528)" fill="#12263f"/>
  </g>
</svg>
