<svg xmlns="http://www.w3.org/2000/svg" width="820" height="599.672" viewBox="0 0 820 599.672">
  <g id="Grupo_972282" data-name="Grupo 972282" transform="translate(-390 -4118.594)">
    <path id="Trazado_737037" data-name="Trazado 737037" d="M0,0H85V519H0Z" transform="translate(390 4160)" fill="#f6b84d"/>
    <path id="Trazado_737040" data-name="Trazado 737040" d="M9.945-3.789A4.025,4.025,0,0,1,8.59-.9,4.76,4.76,0,0,1,5.367.156,4.28,4.28,0,0,1,1.926-1.316,6.038,6.038,0,0,1,.672-5.359v-.7A6.819,6.819,0,0,1,1.25-8.945,4.332,4.332,0,0,1,2.9-10.863a4.629,4.629,0,0,1,2.5-.668A4.637,4.637,0,0,1,8.57-10.477,4.326,4.326,0,0,1,9.961-7.516H7.617A2.376,2.376,0,0,0,7-9.113a2.271,2.271,0,0,0-1.605-.5,1.991,1.991,0,0,0-1.754.84,4.707,4.707,0,0,0-.6,2.605V-5.3a5.038,5.038,0,0,0,.559,2.7,1.954,1.954,0,0,0,1.762.852,2.314,2.314,0,0,0,1.621-.5A2.241,2.241,0,0,0,7.6-3.789ZM10.984-4.3a5.013,5.013,0,0,1,.484-2.242A3.546,3.546,0,0,1,12.863-8.07a4.069,4.069,0,0,1,2.113-.539A3.849,3.849,0,0,1,17.77-7.562a4.2,4.2,0,0,1,1.207,2.844l.016.578A4.418,4.418,0,0,1,17.906-1.02,3.775,3.775,0,0,1,14.992.156a3.793,3.793,0,0,1-2.918-1.172A4.5,4.5,0,0,1,10.984-4.2Zm2.258.164A3.151,3.151,0,0,0,13.7-2.3a1.5,1.5,0,0,0,1.3.637,1.5,1.5,0,0,0,1.281-.629A3.448,3.448,0,0,0,16.734-4.3a3.12,3.12,0,0,0-.461-1.828,1.5,1.5,0,0,0-1.3-.648,1.475,1.475,0,0,0-1.281.645A3.506,3.506,0,0,0,13.242-4.141ZM22.5-8.453l.07.945A2.971,2.971,0,0,1,25-8.609,2.255,2.255,0,0,1,27.242-7.32a2.9,2.9,0,0,1,2.539-1.289,2.521,2.521,0,0,1,2.047.8A3.681,3.681,0,0,1,32.5-5.4V0H30.234V-5.391a1.61,1.61,0,0,0-.281-1.051,1.246,1.246,0,0,0-.992-.332,1.409,1.409,0,0,0-1.406.969L27.563,0H25.3V-5.383a1.59,1.59,0,0,0-.289-1.062,1.259,1.259,0,0,0-.984-.328,1.463,1.463,0,0,0-1.391.8V0H20.383V-8.453ZM39.3-.859A2.831,2.831,0,0,1,36.984.156,2.67,2.67,0,0,1,34.91-.625a3.335,3.335,0,0,1-.73-2.289V-8.453h2.258v5.461q0,1.32,1.2,1.32a1.631,1.631,0,0,0,1.578-.8V-8.453h2.266V0H39.359Zm5.969-7.594.07.977a2.951,2.951,0,0,1,2.43-1.133,2.453,2.453,0,0,1,2,.789,3.682,3.682,0,0,1,.672,2.359V0H48.18V-5.406a1.465,1.465,0,0,0-.312-1.043,1.4,1.4,0,0,0-1.039-.324,1.553,1.553,0,0,0-1.43.813V0H43.141V-8.453ZM54.531,0H52.266V-8.453h2.266Zm-2.4-10.641a1.112,1.112,0,0,1,.34-.836A1.277,1.277,0,0,1,53.4-11.8a1.28,1.28,0,0,1,.922.328,1.105,1.105,0,0,1,.344.836,1.108,1.108,0,0,1-.348.844,1.283,1.283,0,0,1-.918.328A1.283,1.283,0,0,1,52.48-9.8,1.108,1.108,0,0,1,52.133-10.641Zm7.773,8.977a1.481,1.481,0,0,0,1.016-.344,1.2,1.2,0,0,0,.406-.914h2.117a2.9,2.9,0,0,1-.469,1.574A3.093,3.093,0,0,1,61.715-.238a3.949,3.949,0,0,1-1.77.395A3.67,3.67,0,0,1,57.086-1,4.56,4.56,0,0,1,56.039-4.18v-.148a4.508,4.508,0,0,1,1.039-3.117A3.627,3.627,0,0,1,59.93-8.609a3.555,3.555,0,0,1,2.543.9,3.2,3.2,0,0,1,.973,2.4H61.328a1.539,1.539,0,0,0-.406-1.066,1.358,1.358,0,0,0-1.031-.41,1.361,1.361,0,0,0-1.191.574,3.324,3.324,0,0,0-.4,1.863v.234a3.366,3.366,0,0,0,.4,1.875A1.378,1.378,0,0,0,59.906-1.664ZM69.633,0a2.507,2.507,0,0,1-.227-.758,2.732,2.732,0,0,1-2.133.914,3,3,0,0,1-2.059-.719A2.312,2.312,0,0,1,64.4-2.375a2.389,2.389,0,0,1,1-2.062,4.915,4.915,0,0,1,2.879-.727h1.039v-.484a1.393,1.393,0,0,0-.3-.937,1.183,1.183,0,0,0-.949-.352,1.345,1.345,0,0,0-.895.273.929.929,0,0,0-.324.75H64.586a2.268,2.268,0,0,1,.453-1.359,3,3,0,0,1,1.281-.98,4.669,4.669,0,0,1,1.859-.355,3.689,3.689,0,0,1,2.48.785,2.747,2.747,0,0,1,.918,2.207v3.664a4.041,4.041,0,0,0,.336,1.82V0ZM67.766-1.57a1.945,1.945,0,0,0,.922-.223,1.462,1.462,0,0,0,.625-.6V-3.844h-.844q-1.7,0-1.8,1.172l-.008.133a.9.9,0,0,0,.3.7A1.153,1.153,0,0,0,67.766-1.57Zm9.063-.094a1.481,1.481,0,0,0,1.016-.344,1.2,1.2,0,0,0,.406-.914h2.117A2.9,2.9,0,0,1,79.9-1.348,3.093,3.093,0,0,1,78.637-.238a3.949,3.949,0,0,1-1.77.395A3.67,3.67,0,0,1,74.008-1,4.56,4.56,0,0,1,72.961-4.18v-.148A4.508,4.508,0,0,1,74-7.445a3.627,3.627,0,0,1,2.852-1.164,3.555,3.555,0,0,1,2.543.9,3.2,3.2,0,0,1,.973,2.4H78.25a1.539,1.539,0,0,0-.406-1.066,1.358,1.358,0,0,0-1.031-.41,1.361,1.361,0,0,0-1.191.574,3.324,3.324,0,0,0-.4,1.863v.234a3.366,3.366,0,0,0,.4,1.875A1.378,1.378,0,0,0,76.828-1.664ZM84.039,0H81.773V-8.453h2.266Zm-2.4-10.641a1.112,1.112,0,0,1,.34-.836,1.277,1.277,0,0,1,.926-.328,1.28,1.28,0,0,1,.922.328,1.105,1.105,0,0,1,.344.836,1.108,1.108,0,0,1-.348.844,1.283,1.283,0,0,1-.918.328,1.283,1.283,0,0,1-.918-.328A1.108,1.108,0,0,1,81.641-10.641ZM85.547-4.3a5.013,5.013,0,0,1,.484-2.242A3.546,3.546,0,0,1,87.426-8.07a4.069,4.069,0,0,1,2.113-.539,3.849,3.849,0,0,1,2.793,1.047,4.2,4.2,0,0,1,1.207,2.844l.016.578A4.418,4.418,0,0,1,92.469-1.02,3.775,3.775,0,0,1,89.555.156a3.793,3.793,0,0,1-2.918-1.172A4.5,4.5,0,0,1,85.547-4.2Zm2.258.164a3.151,3.151,0,0,0,.453,1.84,1.5,1.5,0,0,0,1.3.637,1.5,1.5,0,0,0,1.281-.629A3.448,3.448,0,0,0,91.3-4.3a3.12,3.12,0,0,0-.461-1.828,1.5,1.5,0,0,0-1.3-.648,1.475,1.475,0,0,0-1.281.645A3.506,3.506,0,0,0,87.8-4.141ZM89.984-12h2.461L90.281-9.578H88.445Zm7.039,3.547.07.977a2.951,2.951,0,0,1,2.43-1.133,2.453,2.453,0,0,1,2,.789,3.682,3.682,0,0,1,.672,2.359V0H99.938V-5.406a1.465,1.465,0,0,0-.312-1.043,1.4,1.4,0,0,0-1.039-.324,1.553,1.553,0,0,0-1.43.813V0H94.9V-8.453ZM111.047-3.2l1.563-5.258h2.422l-3.4,9.766-.187.445a2.577,2.577,0,0,1-2.5,1.656,3.552,3.552,0,0,1-1-.148V1.555l.344.008a1.857,1.857,0,0,0,.957-.2,1.283,1.283,0,0,0,.5-.648l.266-.7-2.961-8.477h2.43Zm17.938-.594A4.025,4.025,0,0,1,127.629-.9,4.76,4.76,0,0,1,124.406.156a4.28,4.28,0,0,1-3.441-1.473,6.038,6.038,0,0,1-1.254-4.043v-.7a6.819,6.819,0,0,1,.578-2.891,4.332,4.332,0,0,1,1.652-1.918,4.629,4.629,0,0,1,2.5-.668,4.637,4.637,0,0,1,3.172,1.055A4.326,4.326,0,0,1,129-7.516h-2.344a2.376,2.376,0,0,0-.613-1.6,2.271,2.271,0,0,0-1.605-.5,1.991,1.991,0,0,0-1.754.84,4.707,4.707,0,0,0-.6,2.605V-5.3a5.038,5.038,0,0,0,.559,2.7,1.954,1.954,0,0,0,1.762.852,2.314,2.314,0,0,0,1.621-.5,2.241,2.241,0,0,0,.613-1.535Zm1.039-.516a5.013,5.013,0,0,1,.484-2.242A3.546,3.546,0,0,1,131.9-8.07a4.069,4.069,0,0,1,2.113-.539,3.849,3.849,0,0,1,2.793,1.047,4.2,4.2,0,0,1,1.207,2.844l.016.578a4.418,4.418,0,0,1-1.086,3.121A3.775,3.775,0,0,1,134.031.156a3.793,3.793,0,0,1-2.918-1.172,4.5,4.5,0,0,1-1.09-3.187Zm2.258.164a3.151,3.151,0,0,0,.453,1.84,1.5,1.5,0,0,0,1.3.637,1.5,1.5,0,0,0,1.281-.629,3.448,3.448,0,0,0,.461-2.012,3.12,3.12,0,0,0-.461-1.828,1.5,1.5,0,0,0-1.3-.648,1.475,1.475,0,0,0-1.281.645A3.506,3.506,0,0,0,132.281-4.141ZM141.5-8.453l.07.977A2.951,2.951,0,0,1,144-8.609a2.453,2.453,0,0,1,2,.789,3.682,3.682,0,0,1,.672,2.359V0h-2.258V-5.406a1.465,1.465,0,0,0-.312-1.043,1.4,1.4,0,0,0-1.039-.324,1.553,1.553,0,0,0-1.43.813V0h-2.258V-8.453Zm11.461,6.117a.727.727,0,0,0-.41-.652,4.659,4.659,0,0,0-1.316-.426q-3.016-.633-3.016-2.562a2.323,2.323,0,0,1,.934-1.879,3.766,3.766,0,0,1,2.441-.754,4.053,4.053,0,0,1,2.574.758,2.388,2.388,0,0,1,.965,1.969h-2.258a1.092,1.092,0,0,0-.312-.8A1.322,1.322,0,0,0,151.586-7a1.351,1.351,0,0,0-.883.258.814.814,0,0,0-.312.656.7.7,0,0,0,.355.605,3.657,3.657,0,0,0,1.2.4,9.8,9.8,0,0,1,1.422.379,2.336,2.336,0,0,1,1.789,2.273,2.205,2.205,0,0,1-.992,1.871A4.28,4.28,0,0,1,151.6.156a4.47,4.47,0,0,1-1.887-.379,3.166,3.166,0,0,1-1.293-1.039,2.414,2.414,0,0,1-.469-1.426h2.141a1.179,1.179,0,0,0,.445.922,1.766,1.766,0,0,0,1.109.32,1.635,1.635,0,0,0,.98-.246A.766.766,0,0,0,152.961-2.336Zm6.352-8.2v2.078h1.445V-6.8h-1.445v4.219a1.007,1.007,0,0,0,.18.672.9.9,0,0,0,.688.2,3.6,3.6,0,0,0,.664-.055V-.047a4.648,4.648,0,0,1-1.367.2,2.156,2.156,0,0,1-2.422-2.4V-6.8H155.82V-8.453h1.234v-2.078ZM166.914,0a2.507,2.507,0,0,1-.227-.758,2.732,2.732,0,0,1-2.133.914A3,3,0,0,1,162.5-.562a2.312,2.312,0,0,1-.816-1.812,2.389,2.389,0,0,1,1-2.062,4.915,4.915,0,0,1,2.879-.727h1.039v-.484a1.393,1.393,0,0,0-.3-.937,1.183,1.183,0,0,0-.949-.352,1.345,1.345,0,0,0-.895.273.929.929,0,0,0-.324.75h-2.258a2.268,2.268,0,0,1,.453-1.359,3,3,0,0,1,1.281-.98,4.669,4.669,0,0,1,1.859-.355,3.689,3.689,0,0,1,2.48.785,2.747,2.747,0,0,1,.918,2.207v3.664a4.041,4.041,0,0,0,.336,1.82V0Zm-1.867-1.57a1.945,1.945,0,0,0,.922-.223,1.462,1.462,0,0,0,.625-.6V-3.844h-.844q-1.7,0-1.8,1.172l-.008.133a.9.9,0,0,0,.3.7A1.153,1.153,0,0,0,165.047-1.57Zm7.625-6.883.07.977a2.951,2.951,0,0,1,2.43-1.133,2.453,2.453,0,0,1,2,.789,3.682,3.682,0,0,1,.672,2.359V0h-2.258V-5.406a1.465,1.465,0,0,0-.312-1.043,1.4,1.4,0,0,0-1.039-.324,1.553,1.553,0,0,0-1.43.813V0h-2.258V-8.453Zm10.4,6.789a1.481,1.481,0,0,0,1.016-.344,1.2,1.2,0,0,0,.406-.914h2.117a2.9,2.9,0,0,1-.469,1.574,3.093,3.093,0,0,1-1.262,1.109,3.949,3.949,0,0,1-1.77.395A3.67,3.67,0,0,1,180.25-1,4.56,4.56,0,0,1,179.2-4.18v-.148a4.508,4.508,0,0,1,1.039-3.117,3.627,3.627,0,0,1,2.852-1.164,3.555,3.555,0,0,1,2.543.9,3.2,3.2,0,0,1,.973,2.4h-2.117a1.539,1.539,0,0,0-.406-1.066,1.358,1.358,0,0,0-1.031-.41,1.361,1.361,0,0,0-1.191.574,3.324,3.324,0,0,0-.4,1.863v.234a3.366,3.366,0,0,0,.4,1.875A1.378,1.378,0,0,0,183.07-1.664ZM190.281,0h-2.266V-8.453h2.266Zm-2.4-10.641a1.112,1.112,0,0,1,.34-.836,1.277,1.277,0,0,1,.926-.328,1.28,1.28,0,0,1,.922.328,1.105,1.105,0,0,1,.344.836,1.109,1.109,0,0,1-.348.844,1.283,1.283,0,0,1-.918.328,1.283,1.283,0,0,1-.918-.328A1.109,1.109,0,0,1,187.883-10.641ZM197.039,0a2.507,2.507,0,0,1-.227-.758,2.732,2.732,0,0,1-2.133.914,3,3,0,0,1-2.059-.719,2.312,2.312,0,0,1-.816-1.812,2.389,2.389,0,0,1,1-2.062,4.915,4.915,0,0,1,2.879-.727h1.039v-.484a1.393,1.393,0,0,0-.3-.937,1.183,1.183,0,0,0-.949-.352,1.345,1.345,0,0,0-.895.273.929.929,0,0,0-.324.75h-2.258a2.268,2.268,0,0,1,.453-1.359,3,3,0,0,1,1.281-.98,4.669,4.669,0,0,1,1.859-.355,3.689,3.689,0,0,1,2.48.785,2.747,2.747,0,0,1,.918,2.207v3.664a4.041,4.041,0,0,0,.336,1.82V0Zm-1.867-1.57a1.945,1.945,0,0,0,.922-.223,1.462,1.462,0,0,0,.625-.6V-3.844h-.844q-1.7,0-1.8,1.172l-.008.133a.9.9,0,0,0,.3.7A1.153,1.153,0,0,0,195.172-1.57Z" transform="translate(438 4476.5) rotate(-90)" fill="#12263f"/>
    <path id="Trazado_737034" data-name="Trazado 737034" d="M-5736.5-14996.177v-143.729H-6114v598.672h377.5v-93.523" transform="translate(6904 19259)" fill="none" stroke="#707070" stroke-width="1"/>
    <path id="Trazado_737038" data-name="Trazado 737038" d="M0,0H505V72H0Z" transform="translate(548 4160)" fill="#d3ede5"/>
    <path id="Trazado_737041" data-name="Trazado 737041" d="M7.859-4.93h-4.5v3.047H8.641V0H1.016V-11.375H8.625v1.9H3.359v2.711h4.5Zm6.586,2.594a.727.727,0,0,0-.41-.652,4.659,4.659,0,0,0-1.316-.426Q9.7-4.047,9.7-5.977a2.323,2.323,0,0,1,.934-1.879,3.766,3.766,0,0,1,2.441-.754,4.053,4.053,0,0,1,2.574.758,2.388,2.388,0,0,1,.965,1.969H14.359a1.092,1.092,0,0,0-.312-.8A1.322,1.322,0,0,0,13.07-7a1.351,1.351,0,0,0-.883.258.814.814,0,0,0-.312.656.7.7,0,0,0,.355.605,3.657,3.657,0,0,0,1.2.4,9.8,9.8,0,0,1,1.422.379A2.336,2.336,0,0,1,16.641-2.43a2.2,2.2,0,0,1-.992,1.871,4.28,4.28,0,0,1-2.562.715A4.47,4.47,0,0,1,11.2-.223,3.166,3.166,0,0,1,9.906-1.262a2.414,2.414,0,0,1-.469-1.426h2.141a1.179,1.179,0,0,0,.445.922,1.766,1.766,0,0,0,1.109.32,1.635,1.635,0,0,0,.98-.246A.766.766,0,0,0,14.445-2.336Zm6.352-8.2v2.078h1.445V-6.8H20.8v4.219a1.007,1.007,0,0,0,.18.672.9.9,0,0,0,.688.2,3.6,3.6,0,0,0,.664-.055V-.047a4.648,4.648,0,0,1-1.367.2,2.156,2.156,0,0,1-2.422-2.4V-6.8H17.3V-8.453h1.234v-2.078ZM28.4,0a2.507,2.507,0,0,1-.227-.758,2.732,2.732,0,0,1-2.133.914A3,3,0,0,1,23.98-.562a2.312,2.312,0,0,1-.816-1.812,2.389,2.389,0,0,1,1-2.062,4.915,4.915,0,0,1,2.879-.727h1.039v-.484a1.393,1.393,0,0,0-.3-.937,1.183,1.183,0,0,0-.949-.352,1.345,1.345,0,0,0-.895.273.929.929,0,0,0-.324.75H23.352A2.268,2.268,0,0,1,23.8-7.273a3,3,0,0,1,1.281-.98,4.669,4.669,0,0,1,1.859-.355,3.689,3.689,0,0,1,2.48.785,2.747,2.747,0,0,1,.918,2.207v3.664a4.041,4.041,0,0,0,.336,1.82V0ZM26.531-1.57a1.945,1.945,0,0,0,.922-.223,1.462,1.462,0,0,0,.625-.6V-3.844h-.844q-1.7,0-1.8,1.172l-.008.133a.9.9,0,0,0,.3.7A1.153,1.153,0,0,0,26.531-1.57ZM39.7-4.148A5.119,5.119,0,0,1,38.828-.98,2.872,2.872,0,0,1,36.406.156,2.639,2.639,0,0,1,34.211-.9l-.1.9H32.078V-12h2.258v4.3a2.571,2.571,0,0,1,2.055-.914,2.9,2.9,0,0,1,2.426,1.137,5.126,5.126,0,0,1,.879,3.2Zm-2.258-.164a3.363,3.363,0,0,0-.406-1.871,1.374,1.374,0,0,0-1.211-.59,1.489,1.489,0,0,0-1.484.883v3.336a1.509,1.509,0,0,0,1.5.891,1.394,1.394,0,0,0,1.438-1.078A5.562,5.562,0,0,0,37.438-4.312ZM43.469,0H41.2V-12h2.266Zm5.75.156A4.15,4.15,0,0,1,46.191-.984a4.054,4.054,0,0,1-1.168-3.039v-.219a5.106,5.106,0,0,1,.492-2.277A3.612,3.612,0,0,1,46.91-8.066a3.914,3.914,0,0,1,2.059-.543A3.508,3.508,0,0,1,51.7-7.516a4.444,4.444,0,0,1,1,3.1v.922H47.313a2.1,2.1,0,0,0,.66,1.328,2,2,0,0,0,1.395.5,2.437,2.437,0,0,0,2.039-.945l1.109,1.242A3.389,3.389,0,0,1,51.141-.246,4.511,4.511,0,0,1,49.219.156Zm-.258-6.937a1.414,1.414,0,0,0-1.09.453,2.341,2.341,0,0,0-.535,1.3h3.141v-.18a1.669,1.669,0,0,0-.406-1.16A1.459,1.459,0,0,0,48.961-6.781Zm8.531,5.117a1.481,1.481,0,0,0,1.016-.344,1.2,1.2,0,0,0,.406-.914h2.117a2.9,2.9,0,0,1-.469,1.574A3.093,3.093,0,0,1,59.3-.238a3.949,3.949,0,0,1-1.77.395A3.67,3.67,0,0,1,54.672-1,4.56,4.56,0,0,1,53.625-4.18v-.148a4.508,4.508,0,0,1,1.039-3.117,3.627,3.627,0,0,1,2.852-1.164,3.555,3.555,0,0,1,2.543.9,3.2,3.2,0,0,1,.973,2.4H58.914a1.539,1.539,0,0,0-.406-1.066,1.358,1.358,0,0,0-1.031-.41,1.361,1.361,0,0,0-1.191.574,3.324,3.324,0,0,0-.4,1.863v.234a3.366,3.366,0,0,0,.4,1.875A1.378,1.378,0,0,0,57.492-1.664ZM66.211.156A4.15,4.15,0,0,1,63.184-.984a4.054,4.054,0,0,1-1.168-3.039v-.219a5.106,5.106,0,0,1,.492-2.277A3.612,3.612,0,0,1,63.9-8.066a3.914,3.914,0,0,1,2.059-.543,3.508,3.508,0,0,1,2.73,1.094,4.444,4.444,0,0,1,1,3.1v.922H64.3a2.1,2.1,0,0,0,.66,1.328,2,2,0,0,0,1.395.5A2.437,2.437,0,0,0,68.4-2.609l1.109,1.242A3.389,3.389,0,0,1,68.133-.246,4.511,4.511,0,0,1,66.211.156Zm-.258-6.937a1.414,1.414,0,0,0-1.09.453,2.341,2.341,0,0,0-.535,1.3h3.141v-.18a1.669,1.669,0,0,0-.406-1.16A1.459,1.459,0,0,0,65.953-6.781Zm9.766.445a6.134,6.134,0,0,0-.812-.062,1.654,1.654,0,0,0-1.68.867V0H70.969V-8.453H73.1l.063,1.008a2.092,2.092,0,0,1,1.883-1.164,2.366,2.366,0,0,1,.7.1ZM84.68.156A4.15,4.15,0,0,1,81.652-.984a4.054,4.054,0,0,1-1.168-3.039v-.219a5.106,5.106,0,0,1,.492-2.277,3.612,3.612,0,0,1,1.395-1.547,3.914,3.914,0,0,1,2.059-.543,3.508,3.508,0,0,1,2.73,1.094,4.444,4.444,0,0,1,1,3.1v.922H82.773a2.1,2.1,0,0,0,.66,1.328,2,2,0,0,0,1.395.5,2.437,2.437,0,0,0,2.039-.945l1.109,1.242A3.389,3.389,0,0,1,86.6-.246,4.511,4.511,0,0,1,84.68.156Zm-.258-6.937a1.414,1.414,0,0,0-1.09.453,2.341,2.341,0,0,0-.535,1.3h3.141v-.18a1.669,1.669,0,0,0-.406-1.16A1.459,1.459,0,0,0,84.422-6.781ZM91.82,0H89.555V-12H91.82Zm14.922-3.789A4.025,4.025,0,0,1,105.387-.9,4.76,4.76,0,0,1,102.164.156a4.28,4.28,0,0,1-3.441-1.473,6.038,6.038,0,0,1-1.254-4.043v-.7a6.819,6.819,0,0,1,.578-2.891A4.332,4.332,0,0,1,99.7-10.863a4.629,4.629,0,0,1,2.5-.668,4.637,4.637,0,0,1,3.172,1.055,4.326,4.326,0,0,1,1.391,2.961h-2.344a2.376,2.376,0,0,0-.613-1.6,2.271,2.271,0,0,0-1.605-.5,1.991,1.991,0,0,0-1.754.84,4.707,4.707,0,0,0-.6,2.605V-5.3a5.038,5.038,0,0,0,.559,2.7,1.954,1.954,0,0,0,1.762.852,2.314,2.314,0,0,0,1.621-.5,2.241,2.241,0,0,0,.613-1.535Zm1.039-.516a5.013,5.013,0,0,1,.484-2.242A3.546,3.546,0,0,1,109.66-8.07a4.069,4.069,0,0,1,2.113-.539,3.849,3.849,0,0,1,2.793,1.047,4.2,4.2,0,0,1,1.207,2.844l.016.578A4.418,4.418,0,0,1,114.7-1.02,3.775,3.775,0,0,1,111.789.156a3.793,3.793,0,0,1-2.918-1.172,4.5,4.5,0,0,1-1.09-3.187Zm2.258.164a3.151,3.151,0,0,0,.453,1.84,1.5,1.5,0,0,0,1.3.637,1.5,1.5,0,0,0,1.281-.629,3.448,3.448,0,0,0,.461-2.012,3.12,3.12,0,0,0-.461-1.828,1.5,1.5,0,0,0-1.3-.648,1.475,1.475,0,0,0-1.281.645A3.506,3.506,0,0,0,110.039-4.141Zm9.219-4.312.07.977a2.951,2.951,0,0,1,2.43-1.133,2.453,2.453,0,0,1,2,.789,3.682,3.682,0,0,1,.672,2.359V0h-2.258V-5.406a1.465,1.465,0,0,0-.312-1.043,1.4,1.4,0,0,0-1.039-.324,1.553,1.553,0,0,0-1.43.813V0h-2.258V-8.453Zm9.586-2.078v2.078h1.445V-6.8h-1.445v4.219a1.007,1.007,0,0,0,.18.672.9.9,0,0,0,.688.2,3.6,3.6,0,0,0,.664-.055V-.047a4.648,4.648,0,0,1-1.367.2,2.156,2.156,0,0,1-2.422-2.4V-6.8h-1.234V-8.453h1.234v-2.078ZM135.438.156A4.15,4.15,0,0,1,132.41-.984a4.054,4.054,0,0,1-1.168-3.039v-.219a5.106,5.106,0,0,1,.492-2.277,3.612,3.612,0,0,1,1.395-1.547,3.914,3.914,0,0,1,2.059-.543,3.508,3.508,0,0,1,2.73,1.094,4.444,4.444,0,0,1,1,3.1v.922h-5.383a2.1,2.1,0,0,0,.66,1.328,2,2,0,0,0,1.395.5,2.437,2.437,0,0,0,2.039-.945l1.109,1.242a3.389,3.389,0,0,1-1.375,1.121A4.511,4.511,0,0,1,135.438.156Zm-.258-6.937a1.414,1.414,0,0,0-1.09.453,2.341,2.341,0,0,0-.535,1.3H136.7v-.18a1.669,1.669,0,0,0-.406-1.16A1.459,1.459,0,0,0,135.18-6.781Zm8.234.852,1.422-2.523h2.414l-2.406,4.141L147.352,0H144.93l-1.508-2.656L141.922,0h-2.43L142-4.312l-2.4-4.141h2.422Zm7.625-4.6v2.078h1.445V-6.8h-1.445v4.219a1.007,1.007,0,0,0,.18.672.9.9,0,0,0,.688.2,3.6,3.6,0,0,0,.664-.055V-.047a4.648,4.648,0,0,1-1.367.2,2.156,2.156,0,0,1-2.422-2.4V-6.8h-1.234V-8.453h1.234v-2.078ZM153.156-4.3a5.013,5.013,0,0,1,.484-2.242,3.546,3.546,0,0,1,1.395-1.523,4.069,4.069,0,0,1,2.113-.539,3.849,3.849,0,0,1,2.793,1.047,4.2,4.2,0,0,1,1.207,2.844l.016.578a4.418,4.418,0,0,1-1.086,3.121A3.775,3.775,0,0,1,157.164.156a3.793,3.793,0,0,1-2.918-1.172,4.5,4.5,0,0,1-1.09-3.187Zm2.258.164a3.151,3.151,0,0,0,.453,1.84,1.5,1.5,0,0,0,1.3.637,1.5,1.5,0,0,0,1.281-.629,3.448,3.448,0,0,0,.461-2.012,3.12,3.12,0,0,0-.461-1.828,1.5,1.5,0,0,0-1.3-.648,1.475,1.475,0,0,0-1.281.645A3.506,3.506,0,0,0,155.414-4.141Z" transform="translate(720 4202)" fill="#12263f"/>
    <path id="Trazado_737039" data-name="Trazado 737039" d="M0,0H505V72H0Z" transform="translate(548 4271)" fill="#d3ede5"/>
    <path id="Trazado_737042" data-name="Trazado 737042" d="M3.508,0H1.164V-11.375H3.508ZM5.18-4.289a5.094,5.094,0,0,1,.887-3.148A2.877,2.877,0,0,1,8.492-8.609a2.589,2.589,0,0,1,2.039.922V-12H12.8V0H10.758l-.109-.9A2.657,2.657,0,0,1,8.477.156,2.869,2.869,0,0,1,6.082-1.02,5.258,5.258,0,0,1,5.18-4.289Zm2.258.164A3.328,3.328,0,0,0,7.852-2.3a1.349,1.349,0,0,0,1.2.633,1.511,1.511,0,0,0,1.477-.883V-5.891A1.489,1.489,0,0,0,9.07-6.773Q7.437-6.773,7.438-4.125Zm11,4.281A4.15,4.15,0,0,1,15.41-.984a4.054,4.054,0,0,1-1.168-3.039v-.219a5.106,5.106,0,0,1,.492-2.277,3.612,3.612,0,0,1,1.395-1.547,3.914,3.914,0,0,1,2.059-.543,3.508,3.508,0,0,1,2.73,1.094,4.444,4.444,0,0,1,1,3.1v.922H16.531a2.1,2.1,0,0,0,.66,1.328,2,2,0,0,0,1.395.5,2.437,2.437,0,0,0,2.039-.945l1.109,1.242A3.389,3.389,0,0,1,20.359-.246,4.511,4.511,0,0,1,18.438.156ZM18.18-6.781a1.414,1.414,0,0,0-1.09.453,2.341,2.341,0,0,0-.535,1.3H19.7v-.18a1.669,1.669,0,0,0-.406-1.16A1.459,1.459,0,0,0,18.18-6.781Zm7.094-1.672.07.977a2.951,2.951,0,0,1,2.43-1.133,2.453,2.453,0,0,1,2,.789,3.682,3.682,0,0,1,.672,2.359V0H28.188V-5.406a1.465,1.465,0,0,0-.312-1.043,1.4,1.4,0,0,0-1.039-.324,1.553,1.553,0,0,0-1.43.813V0H23.148V-8.453Zm9.586-2.078v2.078H36.3V-6.8H34.859v4.219a1.007,1.007,0,0,0,.18.672.9.9,0,0,0,.688.2,3.6,3.6,0,0,0,.664-.055V-.047a4.648,4.648,0,0,1-1.367.2,2.156,2.156,0,0,1-2.422-2.4V-6.8H31.367V-8.453H32.6v-2.078ZM39.945,0H37.68V-8.453h2.266Zm-2.4-10.641a1.112,1.112,0,0,1,.34-.836,1.277,1.277,0,0,1,.926-.328,1.28,1.28,0,0,1,.922.328,1.105,1.105,0,0,1,.344.836,1.108,1.108,0,0,1-.348.844,1.283,1.283,0,0,1-.918.328,1.283,1.283,0,0,1-.918-.328A1.108,1.108,0,0,1,37.547-10.641ZM42.352,0V-6.8H41.094V-8.453h1.258v-.391a3.17,3.17,0,0,1,.98-2.457,3.945,3.945,0,0,1,2.723-.863,9.031,9.031,0,0,1,2.563.461l-.328,1.867a10,10,0,0,0-1.187-.293A5.835,5.835,0,0,0,46.2-10.2q-1.578,0-1.578,1.4v.344h1.664V-6.8H44.617V0Zm7.32,0H47.406V-8.453h2.266Zm5.383-1.664a1.481,1.481,0,0,0,1.016-.344,1.2,1.2,0,0,0,.406-.914h2.117a2.9,2.9,0,0,1-.469,1.574A3.093,3.093,0,0,1,56.863-.238a3.949,3.949,0,0,1-1.77.395A3.67,3.67,0,0,1,52.234-1,4.56,4.56,0,0,1,51.188-4.18v-.148a4.508,4.508,0,0,1,1.039-3.117,3.627,3.627,0,0,1,2.852-1.164,3.555,3.555,0,0,1,2.543.9,3.2,3.2,0,0,1,.973,2.4H56.477a1.539,1.539,0,0,0-.406-1.066,1.358,1.358,0,0,0-1.031-.41,1.361,1.361,0,0,0-1.191.574,3.324,3.324,0,0,0-.4,1.863v.234a3.366,3.366,0,0,0,.4,1.875A1.378,1.378,0,0,0,55.055-1.664ZM64.781,0a2.507,2.507,0,0,1-.227-.758,2.732,2.732,0,0,1-2.133.914,3,3,0,0,1-2.059-.719,2.312,2.312,0,0,1-.816-1.812,2.389,2.389,0,0,1,1-2.062,4.915,4.915,0,0,1,2.879-.727h1.039v-.484a1.393,1.393,0,0,0-.3-.937,1.183,1.183,0,0,0-.949-.352,1.345,1.345,0,0,0-.895.273.929.929,0,0,0-.324.75H59.734a2.268,2.268,0,0,1,.453-1.359,3,3,0,0,1,1.281-.98,4.669,4.669,0,0,1,1.859-.355,3.689,3.689,0,0,1,2.48.785,2.747,2.747,0,0,1,.918,2.207v3.664a4.041,4.041,0,0,0,.336,1.82V0ZM62.914-1.57a1.945,1.945,0,0,0,.922-.223,1.462,1.462,0,0,0,.625-.6V-3.844h-.844q-1.7,0-1.8,1.172l-.008.133a.9.9,0,0,0,.3.7A1.153,1.153,0,0,0,62.914-1.57Zm10.3-4.766A6.134,6.134,0,0,0,72.4-6.4a1.654,1.654,0,0,0-1.68.867V0H68.461V-8.453h2.133l.063,1.008a2.092,2.092,0,0,1,1.883-1.164,2.366,2.366,0,0,1,.7.1ZM80.664,0H78.4V-12h2.266Zm1.508-4.3a5.013,5.013,0,0,1,.484-2.242A3.546,3.546,0,0,1,84.051-8.07a4.069,4.069,0,0,1,2.113-.539,3.849,3.849,0,0,1,2.793,1.047,4.2,4.2,0,0,1,1.207,2.844l.016.578A4.418,4.418,0,0,1,89.094-1.02,3.775,3.775,0,0,1,86.18.156a3.793,3.793,0,0,1-2.918-1.172A4.5,4.5,0,0,1,82.172-4.2Zm2.258.164a3.151,3.151,0,0,0,.453,1.84,1.5,1.5,0,0,0,1.3.637,1.5,1.5,0,0,0,1.281-.629A3.448,3.448,0,0,0,87.922-4.3a3.12,3.12,0,0,0-.461-1.828,1.5,1.5,0,0,0-1.3-.648,1.475,1.475,0,0,0-1.281.645A3.506,3.506,0,0,0,84.43-4.141Zm11.719,1.8a.727.727,0,0,0-.41-.652,4.659,4.659,0,0,0-1.316-.426q-3.016-.633-3.016-2.562a2.323,2.323,0,0,1,.934-1.879,3.766,3.766,0,0,1,2.441-.754,4.053,4.053,0,0,1,2.574.758,2.388,2.388,0,0,1,.965,1.969H96.063a1.092,1.092,0,0,0-.312-.8A1.322,1.322,0,0,0,94.773-7a1.351,1.351,0,0,0-.883.258.814.814,0,0,0-.312.656.7.7,0,0,0,.355.605,3.657,3.657,0,0,0,1.2.4,9.8,9.8,0,0,1,1.422.379A2.336,2.336,0,0,1,98.344-2.43a2.2,2.2,0,0,1-.992,1.871,4.28,4.28,0,0,1-2.562.715A4.47,4.47,0,0,1,92.9-.223a3.166,3.166,0,0,1-1.293-1.039,2.414,2.414,0,0,1-.469-1.426h2.141a1.179,1.179,0,0,0,.445.922,1.766,1.766,0,0,0,1.109.32,1.635,1.635,0,0,0,.98-.246A.766.766,0,0,0,96.148-2.336Zm12.383-4a6.134,6.134,0,0,0-.812-.062,1.654,1.654,0,0,0-1.68.867V0h-2.258V-8.453h2.133l.063,1.008a2.092,2.092,0,0,1,1.883-1.164,2.366,2.366,0,0,1,.7.1ZM112,0h-2.266V-8.453H112Zm-2.4-10.641a1.112,1.112,0,0,1,.34-.836,1.277,1.277,0,0,1,.926-.328,1.28,1.28,0,0,1,.922.328,1.105,1.105,0,0,1,.344.836,1.108,1.108,0,0,1-.348.844,1.283,1.283,0,0,1-.918.328,1.283,1.283,0,0,1-.918-.328A1.108,1.108,0,0,1,109.6-10.641ZM117.75.156a4.15,4.15,0,0,1-3.027-1.141,4.054,4.054,0,0,1-1.168-3.039v-.219a5.106,5.106,0,0,1,.492-2.277,3.612,3.612,0,0,1,1.395-1.547,3.914,3.914,0,0,1,2.059-.543,3.508,3.508,0,0,1,2.73,1.094,4.444,4.444,0,0,1,1,3.1v.922h-5.383a2.1,2.1,0,0,0,.66,1.328,2,2,0,0,0,1.395.5,2.437,2.437,0,0,0,2.039-.945l1.109,1.242a3.389,3.389,0,0,1-1.375,1.121A4.511,4.511,0,0,1,117.75.156Zm-.258-6.937a1.414,1.414,0,0,0-1.09.453,2.341,2.341,0,0,0-.535,1.3h3.141v-.18a1.669,1.669,0,0,0-.406-1.16A1.459,1.459,0,0,0,117.492-6.781Zm9.594,4.445a.727.727,0,0,0-.41-.652,4.659,4.659,0,0,0-1.316-.426q-3.016-.633-3.016-2.562a2.323,2.323,0,0,1,.934-1.879,3.766,3.766,0,0,1,2.441-.754,4.053,4.053,0,0,1,2.574.758,2.388,2.388,0,0,1,.965,1.969H127a1.092,1.092,0,0,0-.312-.8A1.322,1.322,0,0,0,125.711-7a1.351,1.351,0,0,0-.883.258.814.814,0,0,0-.312.656.7.7,0,0,0,.355.605,3.657,3.657,0,0,0,1.2.4,9.8,9.8,0,0,1,1.422.379,2.336,2.336,0,0,1,1.789,2.273,2.205,2.205,0,0,1-.992,1.871,4.28,4.28,0,0,1-2.562.715,4.47,4.47,0,0,1-1.887-.379,3.166,3.166,0,0,1-1.293-1.039,2.414,2.414,0,0,1-.469-1.426h2.141a1.179,1.179,0,0,0,.445.922,1.766,1.766,0,0,0,1.109.32,1.635,1.635,0,0,0,.98-.246A.766.766,0,0,0,127.086-2.336Zm3.32-1.953a4.954,4.954,0,0,1,.926-3.133,3,3,0,0,1,2.5-1.187,2.631,2.631,0,0,1,2.164.953l.094-.8h2.047V-.281a3.613,3.613,0,0,1-.5,1.93,3.236,3.236,0,0,1-1.418,1.25,4.985,4.985,0,0,1-2.141.43,4.635,4.635,0,0,1-1.812-.371A3.217,3.217,0,0,1,130.922,2l1-1.375a2.645,2.645,0,0,0,2.047.945,1.936,1.936,0,0,0,1.4-.48,1.8,1.8,0,0,0,.5-1.363V-.727a2.612,2.612,0,0,1-2.055.883,2.992,2.992,0,0,1-2.465-1.191,4.953,4.953,0,0,1-.941-3.16Zm2.258.164a3.076,3.076,0,0,0,.461,1.8,1.467,1.467,0,0,0,1.266.652,1.568,1.568,0,0,0,1.477-.773V-6a1.565,1.565,0,0,0-1.461-.773,1.476,1.476,0,0,0-1.277.664A3.467,3.467,0,0,0,132.664-4.125Zm6.852-.18A5.013,5.013,0,0,1,140-6.547a3.546,3.546,0,0,1,1.395-1.523,4.069,4.069,0,0,1,2.113-.539A3.849,3.849,0,0,1,146.3-7.562a4.2,4.2,0,0,1,1.207,2.844l.016.578a4.418,4.418,0,0,1-1.086,3.121A3.775,3.775,0,0,1,143.523.156a3.793,3.793,0,0,1-2.918-1.172,4.5,4.5,0,0,1-1.09-3.187Zm2.258.164a3.151,3.151,0,0,0,.453,1.84,1.5,1.5,0,0,0,1.3.637,1.5,1.5,0,0,0,1.281-.629,3.448,3.448,0,0,0,.461-2.012,3.12,3.12,0,0,0-.461-1.828,1.5,1.5,0,0,0-1.3-.648,1.475,1.475,0,0,0-1.281.645A3.506,3.506,0,0,0,141.773-4.141Zm11.719,1.8a.727.727,0,0,0-.41-.652,4.659,4.659,0,0,0-1.316-.426q-3.016-.633-3.016-2.562a2.323,2.323,0,0,1,.934-1.879,3.766,3.766,0,0,1,2.441-.754,4.053,4.053,0,0,1,2.574.758,2.388,2.388,0,0,1,.965,1.969h-2.258a1.092,1.092,0,0,0-.312-.8A1.322,1.322,0,0,0,152.117-7a1.351,1.351,0,0,0-.883.258.814.814,0,0,0-.312.656.7.7,0,0,0,.355.605,3.657,3.657,0,0,0,1.2.4A9.8,9.8,0,0,1,153.9-4.7a2.336,2.336,0,0,1,1.789,2.273A2.205,2.205,0,0,1,154.7-.559a4.28,4.28,0,0,1-2.562.715,4.47,4.47,0,0,1-1.887-.379,3.166,3.166,0,0,1-1.293-1.039,2.414,2.414,0,0,1-.469-1.426h2.141a1.179,1.179,0,0,0,.445.922,1.766,1.766,0,0,0,1.109.32,1.635,1.635,0,0,0,.98-.246A.766.766,0,0,0,153.492-2.336Z" transform="translate(723 4313)" fill="#12263f"/>
    <path id="Trazado_737043" data-name="Trazado 737043" d="M0,0H505V72H0Z" transform="translate(548 4382)" fill="#d3ede5"/>
    <path id="Trazado_737046" data-name="Trazado 737046" d="M7.438-2.344H3.328L2.547,0H.055L4.289-11.375H6.461L10.719,0H8.227Zm-3.477-1.9H6.8L5.375-8.5Zm9.375-4.211.07.977a2.951,2.951,0,0,1,2.43-1.133,2.453,2.453,0,0,1,2,.789,3.682,3.682,0,0,1,.672,2.359V0H16.25V-5.406a1.465,1.465,0,0,0-.312-1.043A1.4,1.4,0,0,0,14.9-6.773a1.553,1.553,0,0,0-1.43.813V0H11.211V-8.453ZM25.117,0a2.507,2.507,0,0,1-.227-.758,2.732,2.732,0,0,1-2.133.914A3,3,0,0,1,20.7-.562a2.312,2.312,0,0,1-.816-1.812,2.389,2.389,0,0,1,1-2.062,4.915,4.915,0,0,1,2.879-.727H24.8v-.484a1.393,1.393,0,0,0-.3-.937,1.183,1.183,0,0,0-.949-.352,1.345,1.345,0,0,0-.895.273.929.929,0,0,0-.324.75H20.07a2.268,2.268,0,0,1,.453-1.359,3,3,0,0,1,1.281-.98,4.669,4.669,0,0,1,1.859-.355,3.689,3.689,0,0,1,2.48.785,2.747,2.747,0,0,1,.918,2.207v3.664A4.041,4.041,0,0,0,27.4-.133V0ZM23.25-1.57a1.945,1.945,0,0,0,.922-.223,1.462,1.462,0,0,0,.625-.6V-3.844h-.844q-1.7,0-1.8,1.172l-.008.133a.9.9,0,0,0,.3.7A1.153,1.153,0,0,0,23.25-1.57ZM31.18,0H28.914V-12H31.18Zm4.242,0H33.156V-8.453h2.266Zm-2.4-10.641a1.112,1.112,0,0,1,.34-.836,1.277,1.277,0,0,1,.926-.328,1.28,1.28,0,0,1,.922.328,1.105,1.105,0,0,1,.344.836,1.108,1.108,0,0,1-.348.844,1.283,1.283,0,0,1-.918.328,1.283,1.283,0,0,1-.918-.328A1.108,1.108,0,0,1,33.023-10.641Zm6.852,8.82h4.133V0H36.992V-1.375l3.977-5.25H37.109V-8.453h6.773v1.336ZM50.32,0a2.507,2.507,0,0,1-.227-.758,2.732,2.732,0,0,1-2.133.914A3,3,0,0,1,45.9-.562a2.312,2.312,0,0,1-.816-1.812,2.389,2.389,0,0,1,1-2.062,4.915,4.915,0,0,1,2.879-.727H50v-.484a1.393,1.393,0,0,0-.3-.937,1.183,1.183,0,0,0-.949-.352,1.345,1.345,0,0,0-.895.273.929.929,0,0,0-.324.75H45.273a2.268,2.268,0,0,1,.453-1.359,3,3,0,0,1,1.281-.98,4.669,4.669,0,0,1,1.859-.355,3.689,3.689,0,0,1,2.48.785,2.747,2.747,0,0,1,.918,2.207v3.664A4.041,4.041,0,0,0,52.6-.133V0ZM48.453-1.57a1.945,1.945,0,0,0,.922-.223,1.462,1.462,0,0,0,.625-.6V-3.844h-.844q-1.7,0-1.8,1.172l-.008.133a.9.9,0,0,0,.3.7A1.153,1.153,0,0,0,48.453-1.57Zm10.3-4.766a6.134,6.134,0,0,0-.812-.062,1.654,1.654,0,0,0-1.68.867V0H54V-8.453h2.133L56.2-7.445a2.092,2.092,0,0,1,1.883-1.164,2.366,2.366,0,0,1,.7.1ZM66.2,0H63.938V-12H66.2Zm1.508-4.3A5.013,5.013,0,0,1,68.2-6.547,3.546,3.546,0,0,1,69.59-8.07,4.069,4.069,0,0,1,71.7-8.609,3.849,3.849,0,0,1,74.5-7.562,4.2,4.2,0,0,1,75.7-4.719l.016.578A4.418,4.418,0,0,1,74.633-1.02,3.775,3.775,0,0,1,71.719.156,3.793,3.793,0,0,1,68.8-1.016,4.5,4.5,0,0,1,67.711-4.2Zm2.258.164a3.151,3.151,0,0,0,.453,1.84,1.5,1.5,0,0,0,1.3.637A1.5,1.5,0,0,0,73-2.293,3.448,3.448,0,0,0,73.461-4.3,3.12,3.12,0,0,0,73-6.133a1.5,1.5,0,0,0-1.3-.648,1.475,1.475,0,0,0-1.281.645A3.506,3.506,0,0,0,69.969-4.141Zm11.719,1.8a.727.727,0,0,0-.41-.652,4.659,4.659,0,0,0-1.316-.426q-3.016-.633-3.016-2.562a2.323,2.323,0,0,1,.934-1.879,3.766,3.766,0,0,1,2.441-.754,4.053,4.053,0,0,1,2.574.758,2.388,2.388,0,0,1,.965,1.969H81.6a1.092,1.092,0,0,0-.312-.8A1.322,1.322,0,0,0,80.313-7a1.351,1.351,0,0,0-.883.258.814.814,0,0,0-.312.656.7.7,0,0,0,.355.605,3.657,3.657,0,0,0,1.2.4,9.8,9.8,0,0,1,1.422.379A2.336,2.336,0,0,1,83.883-2.43a2.2,2.2,0,0,1-.992,1.871,4.28,4.28,0,0,1-2.562.715,4.47,4.47,0,0,1-1.887-.379,3.166,3.166,0,0,1-1.293-1.039,2.414,2.414,0,0,1-.469-1.426H78.82a1.179,1.179,0,0,0,.445.922,1.766,1.766,0,0,0,1.109.32,1.635,1.635,0,0,0,.98-.246A.766.766,0,0,0,81.688-2.336Zm12.383-4a6.134,6.134,0,0,0-.812-.062,1.654,1.654,0,0,0-1.68.867V0H89.32V-8.453h2.133l.063,1.008A2.092,2.092,0,0,1,93.4-8.609a2.366,2.366,0,0,1,.7.1ZM97.539,0H95.273V-8.453h2.266Zm-2.4-10.641a1.112,1.112,0,0,1,.34-.836,1.277,1.277,0,0,1,.926-.328,1.28,1.28,0,0,1,.922.328,1.105,1.105,0,0,1,.344.836,1.108,1.108,0,0,1-.348.844,1.283,1.283,0,0,1-.918.328,1.283,1.283,0,0,1-.918-.328A1.108,1.108,0,0,1,95.141-10.641Zm8.148,10.8a4.15,4.15,0,0,1-3.027-1.141,4.054,4.054,0,0,1-1.168-3.039v-.219a5.106,5.106,0,0,1,.492-2.277,3.612,3.612,0,0,1,1.395-1.547,3.914,3.914,0,0,1,2.059-.543,3.508,3.508,0,0,1,2.73,1.094,4.444,4.444,0,0,1,1,3.1v.922h-5.383a2.1,2.1,0,0,0,.66,1.328,2,2,0,0,0,1.395.5,2.437,2.437,0,0,0,2.039-.945l1.109,1.242a3.389,3.389,0,0,1-1.375,1.121A4.511,4.511,0,0,1,103.289.156Zm-.258-6.937a1.414,1.414,0,0,0-1.09.453,2.341,2.341,0,0,0-.535,1.3h3.141v-.18a1.669,1.669,0,0,0-.406-1.16A1.459,1.459,0,0,0,103.031-6.781Zm9.594,4.445a.727.727,0,0,0-.41-.652,4.659,4.659,0,0,0-1.316-.426q-3.016-.633-3.016-2.562a2.323,2.323,0,0,1,.934-1.879,3.766,3.766,0,0,1,2.441-.754,4.053,4.053,0,0,1,2.574.758,2.388,2.388,0,0,1,.965,1.969h-2.258a1.092,1.092,0,0,0-.312-.8A1.322,1.322,0,0,0,111.25-7a1.351,1.351,0,0,0-.883.258.814.814,0,0,0-.312.656.7.7,0,0,0,.355.605,3.657,3.657,0,0,0,1.2.4,9.8,9.8,0,0,1,1.422.379A2.336,2.336,0,0,1,114.82-2.43a2.2,2.2,0,0,1-.992,1.871,4.28,4.28,0,0,1-2.562.715,4.47,4.47,0,0,1-1.887-.379,3.166,3.166,0,0,1-1.293-1.039,2.414,2.414,0,0,1-.469-1.426h2.141a1.179,1.179,0,0,0,.445.922,1.766,1.766,0,0,0,1.109.32,1.635,1.635,0,0,0,.98-.246A.766.766,0,0,0,112.625-2.336Zm3.32-1.953a4.954,4.954,0,0,1,.926-3.133,3,3,0,0,1,2.5-1.187,2.631,2.631,0,0,1,2.164.953l.094-.8h2.047V-.281a3.613,3.613,0,0,1-.5,1.93A3.236,3.236,0,0,1,121.75,2.9a4.985,4.985,0,0,1-2.141.43,4.635,4.635,0,0,1-1.812-.371A3.217,3.217,0,0,1,116.461,2l1-1.375a2.645,2.645,0,0,0,2.047.945,1.936,1.936,0,0,0,1.4-.48,1.8,1.8,0,0,0,.5-1.363V-.727a2.612,2.612,0,0,1-2.055.883,2.992,2.992,0,0,1-2.465-1.191,4.953,4.953,0,0,1-.941-3.16Zm2.258.164a3.076,3.076,0,0,0,.461,1.8,1.467,1.467,0,0,0,1.266.652,1.568,1.568,0,0,0,1.477-.773V-6a1.565,1.565,0,0,0-1.461-.773,1.476,1.476,0,0,0-1.277.664A3.467,3.467,0,0,0,118.2-4.125Zm6.852-.18a5.013,5.013,0,0,1,.484-2.242,3.546,3.546,0,0,1,1.395-1.523,4.069,4.069,0,0,1,2.113-.539,3.849,3.849,0,0,1,2.793,1.047,4.2,4.2,0,0,1,1.207,2.844l.016.578a4.418,4.418,0,0,1-1.086,3.121A3.775,3.775,0,0,1,129.063.156a3.793,3.793,0,0,1-2.918-1.172,4.5,4.5,0,0,1-1.09-3.187Zm2.258.164a3.151,3.151,0,0,0,.453,1.84,1.5,1.5,0,0,0,1.3.637,1.5,1.5,0,0,0,1.281-.629A3.448,3.448,0,0,0,130.8-4.3a3.12,3.12,0,0,0-.461-1.828,1.5,1.5,0,0,0-1.3-.648,1.475,1.475,0,0,0-1.281.645A3.506,3.506,0,0,0,127.313-4.141Zm11.719,1.8a.727.727,0,0,0-.41-.652,4.659,4.659,0,0,0-1.316-.426q-3.016-.633-3.016-2.562a2.323,2.323,0,0,1,.934-1.879,3.766,3.766,0,0,1,2.441-.754,4.053,4.053,0,0,1,2.574.758,2.388,2.388,0,0,1,.965,1.969h-2.258a1.092,1.092,0,0,0-.312-.8A1.322,1.322,0,0,0,137.656-7a1.351,1.351,0,0,0-.883.258.814.814,0,0,0-.312.656.7.7,0,0,0,.355.605,3.657,3.657,0,0,0,1.2.4,9.8,9.8,0,0,1,1.422.379,2.336,2.336,0,0,1,1.789,2.273,2.205,2.205,0,0,1-.992,1.871,4.28,4.28,0,0,1-2.562.715,4.47,4.47,0,0,1-1.887-.379,3.166,3.166,0,0,1-1.293-1.039,2.414,2.414,0,0,1-.469-1.426h2.141a1.179,1.179,0,0,0,.445.922,1.766,1.766,0,0,0,1.109.32,1.635,1.635,0,0,0,.98-.246A.766.766,0,0,0,139.031-2.336Z" transform="translate(730 4424)" fill="#12263f"/>
    <path id="Trazado_737048" data-name="Trazado 737048" d="M0,0H505V72H0Z" transform="translate(548 4493)" fill="#d3ede5"/>
    <path id="Trazado_737049" data-name="Trazado 737049" d="M7.859-4.93h-4.5v3.047H8.641V0H1.016V-11.375H8.625v1.9H3.359v2.711h4.5Zm4.969,2.172,1.57-5.7h2.359L13.906,0H11.75L8.9-8.453h2.359ZM22.531,0A2.507,2.507,0,0,1,22.3-.758a2.732,2.732,0,0,1-2.133.914,3,3,0,0,1-2.059-.719A2.312,2.312,0,0,1,17.3-2.375a2.389,2.389,0,0,1,1-2.062,4.915,4.915,0,0,1,2.879-.727h1.039v-.484a1.393,1.393,0,0,0-.3-.937,1.183,1.183,0,0,0-.949-.352,1.345,1.345,0,0,0-.895.273.929.929,0,0,0-.324.75H17.484a2.268,2.268,0,0,1,.453-1.359,3,3,0,0,1,1.281-.98,4.669,4.669,0,0,1,1.859-.355,3.689,3.689,0,0,1,2.48.785,2.747,2.747,0,0,1,.918,2.207v3.664a4.041,4.041,0,0,0,.336,1.82V0ZM20.664-1.57a1.945,1.945,0,0,0,.922-.223,1.462,1.462,0,0,0,.625-.6V-3.844h-.844q-1.7,0-1.8,1.172l-.008.133a.9.9,0,0,0,.3.7A1.153,1.153,0,0,0,20.664-1.57ZM28.594,0H26.328V-12h2.266Zm6.922-.859A2.831,2.831,0,0,1,33.2.156a2.67,2.67,0,0,1-2.074-.781,3.335,3.335,0,0,1-.73-2.289V-8.453h2.258v5.461q0,1.32,1.2,1.32a1.631,1.631,0,0,0,1.578-.8V-8.453H37.7V0H35.578ZM44.3,0a2.507,2.507,0,0,1-.227-.758,2.732,2.732,0,0,1-2.133.914,3,3,0,0,1-2.059-.719,2.312,2.312,0,0,1-.816-1.812,2.389,2.389,0,0,1,1-2.062,4.915,4.915,0,0,1,2.879-.727h1.039v-.484a1.393,1.393,0,0,0-.3-.937,1.183,1.183,0,0,0-.949-.352,1.345,1.345,0,0,0-.895.273.929.929,0,0,0-.324.75H39.258a2.268,2.268,0,0,1,.453-1.359,3,3,0,0,1,1.281-.98,4.669,4.669,0,0,1,1.859-.355,3.689,3.689,0,0,1,2.48.785,2.747,2.747,0,0,1,.918,2.207v3.664a4.041,4.041,0,0,0,.336,1.82V0ZM42.438-1.57a1.945,1.945,0,0,0,.922-.223,1.462,1.462,0,0,0,.625-.6V-3.844h-.844q-1.7,0-1.8,1.172l-.008.133a.9.9,0,0,0,.3.7A1.153,1.153,0,0,0,42.438-1.57Zm10.3-4.766a6.134,6.134,0,0,0-.812-.062,1.654,1.654,0,0,0-1.68.867V0H47.984V-8.453h2.133l.063,1.008a2.092,2.092,0,0,1,1.883-1.164,2.366,2.366,0,0,1,.7.1ZM60.188,0H57.922V-12h2.266ZM61.7-4.3a5.013,5.013,0,0,1,.484-2.242A3.546,3.546,0,0,1,63.574-8.07a4.069,4.069,0,0,1,2.113-.539A3.849,3.849,0,0,1,68.48-7.562a4.2,4.2,0,0,1,1.207,2.844l.016.578A4.418,4.418,0,0,1,68.617-1.02,3.775,3.775,0,0,1,65.7.156a3.793,3.793,0,0,1-2.918-1.172A4.5,4.5,0,0,1,61.7-4.2Zm2.258.164a3.151,3.151,0,0,0,.453,1.84,1.5,1.5,0,0,0,1.3.637,1.5,1.5,0,0,0,1.281-.629A3.448,3.448,0,0,0,67.445-4.3a3.12,3.12,0,0,0-.461-1.828,1.5,1.5,0,0,0-1.3-.648,1.475,1.475,0,0,0-1.281.645A3.506,3.506,0,0,0,63.953-4.141Zm11.719,1.8a.727.727,0,0,0-.41-.652,4.659,4.659,0,0,0-1.316-.426Q70.93-4.047,70.93-5.977a2.323,2.323,0,0,1,.934-1.879A3.766,3.766,0,0,1,74.3-8.609a4.053,4.053,0,0,1,2.574.758,2.388,2.388,0,0,1,.965,1.969H75.586a1.092,1.092,0,0,0-.312-.8A1.322,1.322,0,0,0,74.3-7a1.351,1.351,0,0,0-.883.258.814.814,0,0,0-.312.656.7.7,0,0,0,.355.605,3.657,3.657,0,0,0,1.2.4,9.8,9.8,0,0,1,1.422.379A2.336,2.336,0,0,1,77.867-2.43a2.2,2.2,0,0,1-.992,1.871,4.28,4.28,0,0,1-2.562.715,4.47,4.47,0,0,1-1.887-.379,3.166,3.166,0,0,1-1.293-1.039,2.414,2.414,0,0,1-.469-1.426H72.8a1.179,1.179,0,0,0,.445.922,1.766,1.766,0,0,0,1.109.32,1.635,1.635,0,0,0,.98-.246A.766.766,0,0,0,75.672-2.336Zm12.383-4a6.134,6.134,0,0,0-.812-.062,1.654,1.654,0,0,0-1.68.867V0H83.3V-8.453h2.133L85.5-7.445a2.092,2.092,0,0,1,1.883-1.164,2.366,2.366,0,0,1,.7.1ZM91.523,0H89.258V-8.453h2.266Zm-2.4-10.641a1.112,1.112,0,0,1,.34-.836,1.277,1.277,0,0,1,.926-.328,1.28,1.28,0,0,1,.922.328,1.105,1.105,0,0,1,.344.836,1.108,1.108,0,0,1-.348.844,1.283,1.283,0,0,1-.918.328,1.283,1.283,0,0,1-.918-.328A1.108,1.108,0,0,1,89.125-10.641ZM97.273.156A4.15,4.15,0,0,1,94.246-.984a4.054,4.054,0,0,1-1.168-3.039v-.219A5.106,5.106,0,0,1,93.57-6.52a3.612,3.612,0,0,1,1.395-1.547,3.914,3.914,0,0,1,2.059-.543,3.508,3.508,0,0,1,2.73,1.094,4.444,4.444,0,0,1,1,3.1v.922H95.367a2.1,2.1,0,0,0,.66,1.328,2,2,0,0,0,1.395.5,2.437,2.437,0,0,0,2.039-.945l1.109,1.242A3.389,3.389,0,0,1,99.2-.246,4.511,4.511,0,0,1,97.273.156Zm-.258-6.937a1.414,1.414,0,0,0-1.09.453,2.341,2.341,0,0,0-.535,1.3h3.141v-.18a1.669,1.669,0,0,0-.406-1.16A1.459,1.459,0,0,0,97.016-6.781Zm9.594,4.445a.727.727,0,0,0-.41-.652,4.659,4.659,0,0,0-1.316-.426q-3.016-.633-3.016-2.562a2.323,2.323,0,0,1,.934-1.879,3.766,3.766,0,0,1,2.441-.754,4.053,4.053,0,0,1,2.574.758,2.388,2.388,0,0,1,.965,1.969h-2.258a1.092,1.092,0,0,0-.312-.8A1.322,1.322,0,0,0,105.234-7a1.351,1.351,0,0,0-.883.258.814.814,0,0,0-.312.656.7.7,0,0,0,.355.605,3.657,3.657,0,0,0,1.2.4,9.8,9.8,0,0,1,1.422.379A2.336,2.336,0,0,1,108.8-2.43a2.2,2.2,0,0,1-.992,1.871,4.28,4.28,0,0,1-2.562.715,4.47,4.47,0,0,1-1.887-.379,3.166,3.166,0,0,1-1.293-1.039,2.414,2.414,0,0,1-.469-1.426h2.141a1.179,1.179,0,0,0,.445.922,1.766,1.766,0,0,0,1.109.32,1.635,1.635,0,0,0,.98-.246A.766.766,0,0,0,106.609-2.336Zm3.32-1.953a4.954,4.954,0,0,1,.926-3.133,3,3,0,0,1,2.5-1.187,2.631,2.631,0,0,1,2.164.953l.094-.8h2.047V-.281a3.613,3.613,0,0,1-.5,1.93,3.236,3.236,0,0,1-1.418,1.25,4.985,4.985,0,0,1-2.141.43,4.635,4.635,0,0,1-1.812-.371A3.217,3.217,0,0,1,110.445,2l1-1.375a2.645,2.645,0,0,0,2.047.945,1.936,1.936,0,0,0,1.4-.48,1.8,1.8,0,0,0,.5-1.363V-.727a2.612,2.612,0,0,1-2.055.883,2.992,2.992,0,0,1-2.465-1.191,4.953,4.953,0,0,1-.941-3.16Zm2.258.164a3.076,3.076,0,0,0,.461,1.8,1.467,1.467,0,0,0,1.266.652,1.568,1.568,0,0,0,1.477-.773V-6a1.565,1.565,0,0,0-1.461-.773,1.476,1.476,0,0,0-1.277.664A3.467,3.467,0,0,0,112.188-4.125Zm6.852-.18a5.013,5.013,0,0,1,.484-2.242,3.546,3.546,0,0,1,1.395-1.523,4.069,4.069,0,0,1,2.113-.539,3.849,3.849,0,0,1,2.793,1.047,4.2,4.2,0,0,1,1.207,2.844l.016.578a4.418,4.418,0,0,1-1.086,3.121A3.775,3.775,0,0,1,123.047.156a3.793,3.793,0,0,1-2.918-1.172,4.5,4.5,0,0,1-1.09-3.187Zm2.258.164a3.151,3.151,0,0,0,.453,1.84,1.5,1.5,0,0,0,1.3.637,1.5,1.5,0,0,0,1.281-.629,3.448,3.448,0,0,0,.461-2.012,3.12,3.12,0,0,0-.461-1.828,1.5,1.5,0,0,0-1.3-.648,1.475,1.475,0,0,0-1.281.645A3.506,3.506,0,0,0,121.3-4.141Zm11.719,1.8a.727.727,0,0,0-.41-.652,4.659,4.659,0,0,0-1.316-.426q-3.016-.633-3.016-2.562a2.323,2.323,0,0,1,.934-1.879,3.766,3.766,0,0,1,2.441-.754,4.053,4.053,0,0,1,2.574.758,2.388,2.388,0,0,1,.965,1.969H132.93a1.092,1.092,0,0,0-.312-.8A1.322,1.322,0,0,0,131.641-7a1.351,1.351,0,0,0-.883.258.814.814,0,0,0-.312.656.7.7,0,0,0,.355.605,3.657,3.657,0,0,0,1.2.4,9.8,9.8,0,0,1,1.422.379,2.336,2.336,0,0,1,1.789,2.273,2.205,2.205,0,0,1-.992,1.871,4.28,4.28,0,0,1-2.562.715,4.47,4.47,0,0,1-1.887-.379,3.166,3.166,0,0,1-1.293-1.039,2.414,2.414,0,0,1-.469-1.426h2.141a1.179,1.179,0,0,0,.445.922,1.766,1.766,0,0,0,1.109.32,1.635,1.635,0,0,0,.98-.246A.766.766,0,0,0,133.016-2.336Z" transform="translate(733 4538)" fill="#12263f"/>
    <path id="Trazado_737051" data-name="Trazado 737051" d="M0,0H505V72H0Z" transform="translate(548 4607)" fill="#d3ede5"/>
    <path id="Trazado_737052" data-name="Trazado 737052" d="M9.578-9.477H6.094V0H3.75V-9.477H.313v-1.9H9.578Zm5.43,3.141A6.134,6.134,0,0,0,14.2-6.4a1.654,1.654,0,0,0-1.68.867V0H10.258V-8.453h2.133l.063,1.008a2.092,2.092,0,0,1,1.883-1.164,2.366,2.366,0,0,1,.7.1ZM20.758,0a2.507,2.507,0,0,1-.227-.758A2.732,2.732,0,0,1,18.4.156,3,3,0,0,1,16.34-.562a2.312,2.312,0,0,1-.816-1.812,2.389,2.389,0,0,1,1-2.062A4.915,4.915,0,0,1,19.4-5.164h1.039v-.484a1.393,1.393,0,0,0-.3-.937,1.183,1.183,0,0,0-.949-.352,1.345,1.345,0,0,0-.895.273.929.929,0,0,0-.324.75H15.711a2.268,2.268,0,0,1,.453-1.359,3,3,0,0,1,1.281-.98A4.669,4.669,0,0,1,19.3-8.609a3.689,3.689,0,0,1,2.48.785A2.747,2.747,0,0,1,22.7-5.617v3.664a4.041,4.041,0,0,0,.336,1.82V0ZM18.891-1.57a1.945,1.945,0,0,0,.922-.223,1.462,1.462,0,0,0,.625-.6V-3.844h-.844q-1.7,0-1.8,1.172l-.008.133a.9.9,0,0,0,.3.7A1.153,1.153,0,0,0,18.891-1.57Zm8.25-8.961v2.078h1.445V-6.8H27.141v4.219a1.007,1.007,0,0,0,.18.672.9.9,0,0,0,.688.2,3.6,3.6,0,0,0,.664-.055V-.047a4.648,4.648,0,0,1-1.367.2,2.156,2.156,0,0,1-2.422-2.4V-6.8H23.648V-8.453h1.234v-2.078ZM34.742,0a2.507,2.507,0,0,1-.227-.758,2.732,2.732,0,0,1-2.133.914,3,3,0,0,1-2.059-.719,2.312,2.312,0,0,1-.816-1.812,2.389,2.389,0,0,1,1-2.062,4.915,4.915,0,0,1,2.879-.727h1.039v-.484a1.393,1.393,0,0,0-.3-.937,1.183,1.183,0,0,0-.949-.352,1.345,1.345,0,0,0-.895.273.929.929,0,0,0-.324.75H29.7a2.268,2.268,0,0,1,.453-1.359,3,3,0,0,1,1.281-.98,4.669,4.669,0,0,1,1.859-.355,3.689,3.689,0,0,1,2.48.785,2.747,2.747,0,0,1,.918,2.207v3.664a4.041,4.041,0,0,0,.336,1.82V0ZM32.875-1.57a1.945,1.945,0,0,0,.922-.223,1.462,1.462,0,0,0,.625-.6V-3.844h-.844q-1.7,0-1.8,1.172l-.008.133a.9.9,0,0,0,.3.7A1.153,1.153,0,0,0,32.875-1.57Zm10.3-4.766a6.134,6.134,0,0,0-.812-.062,1.654,1.654,0,0,0-1.68.867V0H38.422V-8.453h2.133l.063,1.008A2.092,2.092,0,0,1,42.5-8.609a2.366,2.366,0,0,1,.7.1ZM50.625,0H48.359V-12h2.266Zm1.508-4.3a5.013,5.013,0,0,1,.484-2.242A3.546,3.546,0,0,1,54.012-8.07a4.069,4.069,0,0,1,2.113-.539,3.849,3.849,0,0,1,2.793,1.047,4.2,4.2,0,0,1,1.207,2.844l.016.578A4.418,4.418,0,0,1,59.055-1.02,3.775,3.775,0,0,1,56.141.156a3.793,3.793,0,0,1-2.918-1.172A4.5,4.5,0,0,1,52.133-4.2Zm2.258.164a3.151,3.151,0,0,0,.453,1.84,1.5,1.5,0,0,0,1.3.637,1.5,1.5,0,0,0,1.281-.629A3.448,3.448,0,0,0,57.883-4.3a3.12,3.12,0,0,0-.461-1.828,1.5,1.5,0,0,0-1.3-.648,1.475,1.475,0,0,0-1.281.645A3.506,3.506,0,0,0,54.391-4.141Zm11.719,1.8a.727.727,0,0,0-.41-.652,4.659,4.659,0,0,0-1.316-.426q-3.016-.633-3.016-2.562A2.323,2.323,0,0,1,62.3-7.855a3.766,3.766,0,0,1,2.441-.754,4.053,4.053,0,0,1,2.574.758,2.388,2.388,0,0,1,.965,1.969H66.023a1.092,1.092,0,0,0-.312-.8A1.322,1.322,0,0,0,64.734-7a1.351,1.351,0,0,0-.883.258.814.814,0,0,0-.312.656.7.7,0,0,0,.355.605,3.657,3.657,0,0,0,1.2.4,9.8,9.8,0,0,1,1.422.379A2.336,2.336,0,0,1,68.3-2.43a2.2,2.2,0,0,1-.992,1.871A4.28,4.28,0,0,1,64.75.156a4.47,4.47,0,0,1-1.887-.379A3.166,3.166,0,0,1,61.57-1.262,2.414,2.414,0,0,1,61.1-2.687h2.141a1.179,1.179,0,0,0,.445.922,1.766,1.766,0,0,0,1.109.32,1.635,1.635,0,0,0,.98-.246A.766.766,0,0,0,66.109-2.336Zm12.383-4A6.134,6.134,0,0,0,77.68-6.4,1.654,1.654,0,0,0,76-5.531V0H73.742V-8.453h2.133l.063,1.008A2.092,2.092,0,0,1,77.82-8.609a2.366,2.366,0,0,1,.7.1ZM81.961,0H79.7V-8.453h2.266Zm-2.4-10.641a1.112,1.112,0,0,1,.34-.836,1.277,1.277,0,0,1,.926-.328,1.28,1.28,0,0,1,.922.328,1.105,1.105,0,0,1,.344.836,1.108,1.108,0,0,1-.348.844,1.283,1.283,0,0,1-.918.328A1.283,1.283,0,0,1,79.91-9.8,1.108,1.108,0,0,1,79.563-10.641ZM87.711.156A4.15,4.15,0,0,1,84.684-.984a4.054,4.054,0,0,1-1.168-3.039v-.219a5.106,5.106,0,0,1,.492-2.277A3.612,3.612,0,0,1,85.4-8.066a3.914,3.914,0,0,1,2.059-.543,3.508,3.508,0,0,1,2.73,1.094,4.444,4.444,0,0,1,1,3.1v.922H85.8a2.1,2.1,0,0,0,.66,1.328,2,2,0,0,0,1.395.5A2.437,2.437,0,0,0,89.9-2.609l1.109,1.242A3.389,3.389,0,0,1,89.633-.246,4.511,4.511,0,0,1,87.711.156Zm-.258-6.937a1.414,1.414,0,0,0-1.09.453,2.341,2.341,0,0,0-.535,1.3h3.141v-.18a1.669,1.669,0,0,0-.406-1.16A1.459,1.459,0,0,0,87.453-6.781Zm9.594,4.445a.727.727,0,0,0-.41-.652,4.659,4.659,0,0,0-1.316-.426Q92.3-4.047,92.3-5.977a2.323,2.323,0,0,1,.934-1.879,3.766,3.766,0,0,1,2.441-.754,4.053,4.053,0,0,1,2.574.758,2.388,2.388,0,0,1,.965,1.969H96.961a1.092,1.092,0,0,0-.312-.8A1.322,1.322,0,0,0,95.672-7a1.351,1.351,0,0,0-.883.258.814.814,0,0,0-.312.656.7.7,0,0,0,.355.605,3.657,3.657,0,0,0,1.2.4,9.8,9.8,0,0,1,1.422.379A2.336,2.336,0,0,1,99.242-2.43,2.2,2.2,0,0,1,98.25-.559a4.28,4.28,0,0,1-2.562.715A4.47,4.47,0,0,1,93.8-.223a3.166,3.166,0,0,1-1.293-1.039,2.414,2.414,0,0,1-.469-1.426H94.18a1.179,1.179,0,0,0,.445.922,1.766,1.766,0,0,0,1.109.32,1.635,1.635,0,0,0,.98-.246A.766.766,0,0,0,97.047-2.336Zm3.32-1.953a4.954,4.954,0,0,1,.926-3.133,3,3,0,0,1,2.5-1.187,2.631,2.631,0,0,1,2.164.953l.094-.8h2.047V-.281a3.613,3.613,0,0,1-.5,1.93,3.236,3.236,0,0,1-1.418,1.25,4.985,4.985,0,0,1-2.141.43,4.635,4.635,0,0,1-1.812-.371A3.217,3.217,0,0,1,100.883,2l1-1.375a2.645,2.645,0,0,0,2.047.945,1.936,1.936,0,0,0,1.4-.48,1.8,1.8,0,0,0,.5-1.363V-.727a2.612,2.612,0,0,1-2.055.883,2.992,2.992,0,0,1-2.465-1.191,4.953,4.953,0,0,1-.941-3.16Zm2.258.164a3.076,3.076,0,0,0,.461,1.8,1.467,1.467,0,0,0,1.266.652,1.568,1.568,0,0,0,1.477-.773V-6a1.565,1.565,0,0,0-1.461-.773,1.476,1.476,0,0,0-1.277.664A3.467,3.467,0,0,0,102.625-4.125Zm6.852-.18a5.013,5.013,0,0,1,.484-2.242,3.546,3.546,0,0,1,1.395-1.523,4.069,4.069,0,0,1,2.113-.539,3.849,3.849,0,0,1,2.793,1.047,4.2,4.2,0,0,1,1.207,2.844l.016.578A4.418,4.418,0,0,1,116.4-1.02,3.775,3.775,0,0,1,113.484.156a3.793,3.793,0,0,1-2.918-1.172,4.5,4.5,0,0,1-1.09-3.187Zm2.258.164a3.151,3.151,0,0,0,.453,1.84,1.5,1.5,0,0,0,1.3.637,1.5,1.5,0,0,0,1.281-.629,3.448,3.448,0,0,0,.461-2.012,3.12,3.12,0,0,0-.461-1.828,1.5,1.5,0,0,0-1.3-.648,1.475,1.475,0,0,0-1.281.645A3.506,3.506,0,0,0,111.734-4.141Zm11.719,1.8a.727.727,0,0,0-.41-.652,4.659,4.659,0,0,0-1.316-.426q-3.016-.633-3.016-2.562a2.323,2.323,0,0,1,.934-1.879,3.766,3.766,0,0,1,2.441-.754,4.053,4.053,0,0,1,2.574.758,2.388,2.388,0,0,1,.965,1.969h-2.258a1.092,1.092,0,0,0-.312-.8A1.322,1.322,0,0,0,122.078-7a1.351,1.351,0,0,0-.883.258.814.814,0,0,0-.312.656.7.7,0,0,0,.355.605,3.657,3.657,0,0,0,1.2.4,9.8,9.8,0,0,1,1.422.379,2.336,2.336,0,0,1,1.789,2.273,2.2,2.2,0,0,1-.992,1.871,4.28,4.28,0,0,1-2.562.715,4.47,4.47,0,0,1-1.887-.379,3.166,3.166,0,0,1-1.293-1.039,2.414,2.414,0,0,1-.469-1.426h2.141a1.179,1.179,0,0,0,.445.922,1.766,1.766,0,0,0,1.109.32,1.635,1.635,0,0,0,.98-.246A.766.766,0,0,0,123.453-2.336Z" transform="translate(738 4652)" fill="#12263f"/>
    <path id="Trazado_737053" data-name="Trazado 737053" d="M0,0H85V526H0Z" transform="translate(1125 4153)" fill="#52c194"/>
    <path id="Trazado_737054" data-name="Trazado 737054" d="M4.078-11.375,7-3.125l2.906-8.25h3.078V0H10.633V-3.109l.234-5.367L7.8,0H6.188L3.125-8.469l.234,5.359V0H1.016V-11.375ZM14.531-4.3a5.013,5.013,0,0,1,.484-2.242A3.546,3.546,0,0,1,16.41-8.07a4.069,4.069,0,0,1,2.113-.539,3.849,3.849,0,0,1,2.793,1.047,4.2,4.2,0,0,1,1.207,2.844l.016.578A4.418,4.418,0,0,1,21.453-1.02,3.775,3.775,0,0,1,18.539.156a3.793,3.793,0,0,1-2.918-1.172A4.5,4.5,0,0,1,14.531-4.2Zm2.258.164a3.151,3.151,0,0,0,.453,1.84,1.5,1.5,0,0,0,1.3.637,1.5,1.5,0,0,0,1.281-.629A3.448,3.448,0,0,0,20.281-4.3a3.12,3.12,0,0,0-.461-1.828,1.5,1.5,0,0,0-1.3-.648,1.475,1.475,0,0,0-1.281.645A3.506,3.506,0,0,0,16.789-4.141Zm9.219-4.312.07.977a2.951,2.951,0,0,1,2.43-1.133,2.453,2.453,0,0,1,2,.789,3.682,3.682,0,0,1,.672,2.359V0H28.922V-5.406a1.465,1.465,0,0,0-.312-1.043,1.4,1.4,0,0,0-1.039-.324,1.553,1.553,0,0,0-1.43.813V0H23.883V-8.453ZM35.273,0H33.008V-8.453h2.266Zm-2.4-10.641a1.112,1.112,0,0,1,.34-.836,1.277,1.277,0,0,1,.926-.328,1.28,1.28,0,0,1,.922.328,1.105,1.105,0,0,1,.344.836,1.108,1.108,0,0,1-.348.844,1.283,1.283,0,0,1-.918.328,1.283,1.283,0,0,1-.918-.328A1.108,1.108,0,0,1,32.875-10.641Zm6.961.109v2.078h1.445V-6.8H39.836v4.219a1.007,1.007,0,0,0,.18.672.9.9,0,0,0,.688.2,3.6,3.6,0,0,0,.664-.055V-.047A4.648,4.648,0,0,1,40,.156a2.156,2.156,0,0,1-2.422-2.4V-6.8H36.344V-8.453h1.234v-2.078ZM41.953-4.3a5.013,5.013,0,0,1,.484-2.242A3.546,3.546,0,0,1,43.832-8.07a4.069,4.069,0,0,1,2.113-.539,3.849,3.849,0,0,1,2.793,1.047,4.2,4.2,0,0,1,1.207,2.844l.016.578A4.418,4.418,0,0,1,48.875-1.02,3.775,3.775,0,0,1,45.961.156a3.793,3.793,0,0,1-2.918-1.172A4.5,4.5,0,0,1,41.953-4.2Zm2.258.164a3.151,3.151,0,0,0,.453,1.84,1.5,1.5,0,0,0,1.3.637,1.5,1.5,0,0,0,1.281-.629A3.448,3.448,0,0,0,47.7-4.3a3.12,3.12,0,0,0-.461-1.828,1.5,1.5,0,0,0-1.3-.648,1.475,1.475,0,0,0-1.281.645A3.506,3.506,0,0,0,44.211-4.141ZM56.1-6.336a6.134,6.134,0,0,0-.812-.062,1.654,1.654,0,0,0-1.68.867V0H51.352V-8.453h2.133l.063,1.008A2.092,2.092,0,0,1,55.43-8.609a2.366,2.366,0,0,1,.7.1ZM60.93.156A4.15,4.15,0,0,1,57.9-.984a4.054,4.054,0,0,1-1.168-3.039v-.219a5.106,5.106,0,0,1,.492-2.277,3.612,3.612,0,0,1,1.395-1.547,3.914,3.914,0,0,1,2.059-.543,3.508,3.508,0,0,1,2.73,1.094,4.444,4.444,0,0,1,1,3.1v.922H59.023a2.1,2.1,0,0,0,.66,1.328,2,2,0,0,0,1.395.5,2.437,2.437,0,0,0,2.039-.945l1.109,1.242A3.389,3.389,0,0,1,62.852-.246,4.511,4.511,0,0,1,60.93.156Zm-.258-6.937a1.414,1.414,0,0,0-1.09.453,2.341,2.341,0,0,0-.535,1.3h3.141v-.18a1.669,1.669,0,0,0-.406-1.16A1.459,1.459,0,0,0,60.672-6.781ZM65.336-4.3a5.013,5.013,0,0,1,.484-2.242A3.546,3.546,0,0,1,67.215-8.07a4.069,4.069,0,0,1,2.113-.539,3.849,3.849,0,0,1,2.793,1.047,4.2,4.2,0,0,1,1.207,2.844l.016.578A4.418,4.418,0,0,1,72.258-1.02,3.775,3.775,0,0,1,69.344.156a3.793,3.793,0,0,1-2.918-1.172A4.5,4.5,0,0,1,65.336-4.2Zm2.258.164a3.151,3.151,0,0,0,.453,1.84,1.5,1.5,0,0,0,1.3.637,1.5,1.5,0,0,0,1.281-.629A3.448,3.448,0,0,0,71.086-4.3a3.12,3.12,0,0,0-.461-1.828,1.5,1.5,0,0,0-1.3-.648,1.475,1.475,0,0,0-1.281.645A3.506,3.506,0,0,0,67.594-4.141ZM81.875-3.2l1.563-5.258h2.422l-3.4,9.766-.187.445a2.577,2.577,0,0,1-2.5,1.656,3.552,3.552,0,0,1-1-.148V1.555l.344.008a1.857,1.857,0,0,0,.957-.2,1.283,1.283,0,0,0,.5-.648l.266-.7L77.875-8.453H80.3ZM95.484-6.336a6.134,6.134,0,0,0-.812-.062,1.654,1.654,0,0,0-1.68.867V0H90.734V-8.453h2.133l.063,1.008a2.092,2.092,0,0,1,1.883-1.164,2.366,2.366,0,0,1,.7.1ZM100.313.156A4.15,4.15,0,0,1,97.285-.984a4.054,4.054,0,0,1-1.168-3.039v-.219a5.106,5.106,0,0,1,.492-2.277A3.612,3.612,0,0,1,98-8.066a3.914,3.914,0,0,1,2.059-.543,3.508,3.508,0,0,1,2.73,1.094,4.444,4.444,0,0,1,1,3.1v.922H98.406a2.1,2.1,0,0,0,.66,1.328,2,2,0,0,0,1.395.5,2.437,2.437,0,0,0,2.039-.945l1.109,1.242a3.389,3.389,0,0,1-1.375,1.121A4.511,4.511,0,0,1,100.313.156Zm-.258-6.937a1.414,1.414,0,0,0-1.09.453,2.341,2.341,0,0,0-.535,1.3h3.141v-.18a1.669,1.669,0,0,0-.406-1.16A1.459,1.459,0,0,0,100.055-6.781Zm8.078,4.023,1.57-5.7h2.359L109.211,0h-2.156L104.2-8.453h2.359ZM115.438,0h-2.266V-8.453h2.266Zm-2.4-10.641a1.112,1.112,0,0,1,.34-.836,1.277,1.277,0,0,1,.926-.328,1.28,1.28,0,0,1,.922.328,1.105,1.105,0,0,1,.344.836,1.108,1.108,0,0,1-.348.844,1.283,1.283,0,0,1-.918.328,1.283,1.283,0,0,1-.918-.328A1.108,1.108,0,0,1,113.039-10.641Zm8.836,8.3a.727.727,0,0,0-.41-.652,4.659,4.659,0,0,0-1.316-.426q-3.016-.633-3.016-2.562a2.323,2.323,0,0,1,.934-1.879,3.766,3.766,0,0,1,2.441-.754,4.053,4.053,0,0,1,2.574.758,2.388,2.388,0,0,1,.965,1.969h-2.258a1.092,1.092,0,0,0-.312-.8A1.322,1.322,0,0,0,120.5-7a1.351,1.351,0,0,0-.883.258.814.814,0,0,0-.312.656.7.7,0,0,0,.355.605,3.657,3.657,0,0,0,1.2.4,9.8,9.8,0,0,1,1.422.379A2.336,2.336,0,0,1,124.07-2.43a2.2,2.2,0,0,1-.992,1.871,4.28,4.28,0,0,1-2.562.715,4.47,4.47,0,0,1-1.887-.379,3.166,3.166,0,0,1-1.293-1.039,2.414,2.414,0,0,1-.469-1.426h2.141a1.179,1.179,0,0,0,.445.922,1.766,1.766,0,0,0,1.109.32,1.635,1.635,0,0,0,.98-.246A.766.766,0,0,0,121.875-2.336ZM127.906,0h-2.266V-8.453h2.266Zm-2.4-10.641a1.112,1.112,0,0,1,.34-.836,1.277,1.277,0,0,1,.926-.328,1.28,1.28,0,0,1,.922.328,1.105,1.105,0,0,1,.344.836,1.108,1.108,0,0,1-.348.844,1.283,1.283,0,0,1-.918.328,1.283,1.283,0,0,1-.918-.328A1.108,1.108,0,0,1,125.508-10.641ZM129.414-4.3a5.013,5.013,0,0,1,.484-2.242,3.546,3.546,0,0,1,1.395-1.523,4.069,4.069,0,0,1,2.113-.539A3.849,3.849,0,0,1,136.2-7.562a4.2,4.2,0,0,1,1.207,2.844l.016.578a4.418,4.418,0,0,1-1.086,3.121A3.775,3.775,0,0,1,133.422.156,3.793,3.793,0,0,1,130.5-1.016a4.5,4.5,0,0,1-1.09-3.187Zm2.258.164a3.151,3.151,0,0,0,.453,1.84,1.5,1.5,0,0,0,1.3.637,1.5,1.5,0,0,0,1.281-.629,3.448,3.448,0,0,0,.461-2.012,3.12,3.12,0,0,0-.461-1.828,1.5,1.5,0,0,0-1.3-.648,1.475,1.475,0,0,0-1.281.645A3.506,3.506,0,0,0,131.672-4.141ZM133.852-12h2.461l-2.164,2.422h-1.836Zm7.039,3.547.07.977a2.951,2.951,0,0,1,2.43-1.133,2.453,2.453,0,0,1,2,.789,3.682,3.682,0,0,1,.672,2.359V0H143.8V-5.406a1.465,1.465,0,0,0-.312-1.043,1.4,1.4,0,0,0-1.039-.324,1.553,1.553,0,0,0-1.43.813V0h-2.258V-8.453Z" transform="translate(1173 4469.5) rotate(-90)" fill="#12263f"/>
    <g id="Grupo_972262" data-name="Grupo 972262">
      <path id="Trazado_737035" data-name="Trazado 737035" d="M-6419.264-15063h49.117" transform="translate(6904 19259)" fill="none" stroke="#707070" stroke-width="1"/>
      <path id="Polgono_44" data-name="Polgono 44" d="M6.5,0,13,11H0Z" transform="translate(539 4190) rotate(90)"/>
      <path id="Polgono_45" data-name="Polgono 45" d="M6.5,0,13,11H0Z" transform="translate(482 4203) rotate(-90)"/>
    </g>
    <g id="Grupo_972263" data-name="Grupo 972263" transform="translate(0 111)">
      <path id="Trazado_737035-2" data-name="Trazado 737035" d="M-6419.264-15063h49.117" transform="translate(6904 19259)" fill="none" stroke="#707070" stroke-width="1"/>
      <path id="Polgono_44-2" data-name="Polgono 44" d="M6.5,0,13,11H0Z" transform="translate(539 4190) rotate(90)"/>
      <path id="Polgono_45-2" data-name="Polgono 45" d="M6.5,0,13,11H0Z" transform="translate(482 4203) rotate(-90)"/>
    </g>
    <g id="Grupo_972264" data-name="Grupo 972264" transform="translate(0 222)">
      <path id="Trazado_737035-3" data-name="Trazado 737035" d="M-6419.264-15063h49.117" transform="translate(6904 19259)" fill="none" stroke="#707070" stroke-width="1"/>
      <path id="Polgono_44-3" data-name="Polgono 44" d="M6.5,0,13,11H0Z" transform="translate(539 4190) rotate(90)"/>
      <path id="Polgono_45-3" data-name="Polgono 45" d="M6.5,0,13,11H0Z" transform="translate(482 4203) rotate(-90)"/>
    </g>
    <g id="Grupo_972265" data-name="Grupo 972265" transform="translate(0 330)">
      <path id="Trazado_737035-4" data-name="Trazado 737035" d="M-6419.264-15063h49.117" transform="translate(6904 19259)" fill="none" stroke="#707070" stroke-width="1"/>
      <path id="Polgono_44-4" data-name="Polgono 44" d="M6.5,0,13,11H0Z" transform="translate(539 4190) rotate(90)"/>
      <path id="Polgono_45-4" data-name="Polgono 45" d="M6.5,0,13,11H0Z" transform="translate(482 4203) rotate(-90)"/>
    </g>
    <g id="Grupo_972266" data-name="Grupo 972266" transform="translate(0 447)">
      <path id="Trazado_737035-5" data-name="Trazado 737035" d="M-6419.264-15063h49.117" transform="translate(6904 19259)" fill="none" stroke="#707070" stroke-width="1"/>
      <path id="Polgono_44-5" data-name="Polgono 44" d="M6.5,0,13,11H0Z" transform="translate(539 4190) rotate(90)"/>
      <path id="Polgono_45-5" data-name="Polgono 45" d="M6.5,0,13,11H0Z" transform="translate(482 4203) rotate(-90)"/>
    </g>
    <g id="Grupo_972267" data-name="Grupo 972267" transform="translate(576)">
      <path id="Trazado_737035-6" data-name="Trazado 737035" d="M-6419.264-15063h49.117" transform="translate(6904 19259)" fill="none" stroke="#707070" stroke-width="1"/>
      <path id="Polgono_44-6" data-name="Polgono 44" d="M6.5,0,13,11H0Z" transform="translate(539 4190) rotate(90)"/>
      <path id="Polgono_45-6" data-name="Polgono 45" d="M6.5,0,13,11H0Z" transform="translate(482 4203) rotate(-90)"/>
    </g>
    <g id="Grupo_972268" data-name="Grupo 972268" transform="translate(576 111)">
      <path id="Trazado_737035-7" data-name="Trazado 737035" d="M-6419.264-15063h49.117" transform="translate(6904 19259)" fill="none" stroke="#707070" stroke-width="1"/>
      <path id="Polgono_44-7" data-name="Polgono 44" d="M6.5,0,13,11H0Z" transform="translate(539 4190) rotate(90)"/>
      <path id="Polgono_45-7" data-name="Polgono 45" d="M6.5,0,13,11H0Z" transform="translate(482 4203) rotate(-90)"/>
    </g>
    <g id="Grupo_972269" data-name="Grupo 972269" transform="translate(576 222)">
      <path id="Trazado_737035-8" data-name="Trazado 737035" d="M-6419.264-15063h49.117" transform="translate(6904 19259)" fill="none" stroke="#707070" stroke-width="1"/>
      <path id="Polgono_44-8" data-name="Polgono 44" d="M6.5,0,13,11H0Z" transform="translate(539 4190) rotate(90)"/>
      <path id="Polgono_45-8" data-name="Polgono 45" d="M6.5,0,13,11H0Z" transform="translate(482 4203) rotate(-90)"/>
    </g>
    <g id="Grupo_972270" data-name="Grupo 972270" transform="translate(576 330)">
      <path id="Trazado_737035-9" data-name="Trazado 737035" d="M-6419.264-15063h49.117" transform="translate(6904 19259)" fill="none" stroke="#707070" stroke-width="1"/>
      <path id="Polgono_44-9" data-name="Polgono 44" d="M6.5,0,13,11H0Z" transform="translate(539 4190) rotate(90)"/>
      <path id="Polgono_45-9" data-name="Polgono 45" d="M6.5,0,13,11H0Z" transform="translate(482 4203) rotate(-90)"/>
    </g>
    <g id="Grupo_972271" data-name="Grupo 972271" transform="translate(576 447)">
      <path id="Trazado_737035-10" data-name="Trazado 737035" d="M-6419.264-15063h49.117" transform="translate(6904 19259)" fill="none" stroke="#707070" stroke-width="1"/>
      <path id="Polgono_44-10" data-name="Polgono 44" d="M6.5,0,13,11H0Z" transform="translate(539 4190) rotate(90)"/>
      <path id="Polgono_45-10" data-name="Polgono 45" d="M6.5,0,13,11H0Z" transform="translate(482 4203) rotate(-90)"/>
    </g>
    <path id="Trazado_737044" data-name="Trazado 737044" d="M6.5,0,13,11H0Z" transform="translate(812 4257) rotate(180)"/>
    <path id="Trazado_737045" data-name="Trazado 737045" d="M6.5,0,13,11H0Z" transform="translate(812 4368) rotate(180)"/>
    <path id="Trazado_737047" data-name="Trazado 737047" d="M6.5,0,13,11H0Z" transform="translate(812 4479) rotate(180)"/>
    <path id="Trazado_737050" data-name="Trazado 737050" d="M6.5,0,13,11H0Z" transform="translate(812 4590) rotate(180)"/>
  </g>
</svg>
