<svg xmlns="http://www.w3.org/2000/svg" width="81" height="81" viewBox="0 0 81 81">
  <g id="Grupo_972831" data-name="Grupo 972831" transform="translate(5235 18635)">
    <g id="bolsa-reciclada" transform="translate(-5279.374 -18627)">
      <g id="Grupo_972713" data-name="Grupo 972713" transform="translate(61.373 13.216)">
        <path id="Trazado_738082" data-name="Trazado 738082" d="M367.834,104.3v48.1a2.549,2.549,0,0,1-2.549,2.549h7.393a2.549,2.549,0,0,0,2.549-2.549V104.3Z" transform="translate(-327.649 -104.303)" fill="#ffcb9d"/>
        <path id="Trazado_738083" data-name="Trazado 738083" d="M408.178,104.3v48.1a2.549,2.549,0,0,1-2.549,2.549h2.281a2.549,2.549,0,0,0,2.549-2.549V104.3Z" transform="translate(-362.881 -104.303)" fill="#ffba7e"/>
        <path id="Trazado_738084" data-name="Trazado 738084" d="M105.893,154.948H70.806a2.549,2.549,0,0,1-2.549-2.549V104.3h40.185v48.1a2.549,2.549,0,0,1-2.549,2.549Z" transform="translate(-68.257 -104.303)" fill="#ffe9c8"/>
        <path id="Trazado_738085" data-name="Trazado 738085" d="M349.834,104.3v48.1a2.549,2.549,0,0,1-2.549,2.549h2.281a2.549,2.549,0,0,0,2.549-2.549V104.3Z" transform="translate(-311.93 -104.303)" fill="#ffdca7"/>
        <path id="Trazado_738086" data-name="Trazado 738086" d="M276.983,304.927l-5.668-9.609-4.622,2.724,4.057,6.877Z" transform="translate(-241.548 -271.115)" fill="#71aa52"/>
        <path id="Trazado_738087" data-name="Trazado 738087" d="M289.427,355.356l6.234.008-1.346-2.283-6.234-.009Z" transform="translate(-260.227 -321.552)" fill="#68994b"/>
        <path id="Trazado_738088" data-name="Trazado 738088" d="M129.906,376.308l11.157,0v-5.365l-7.984,0Z" transform="translate(-122.095 -337.154)" fill="#71aa52"/>
        <path id="Trazado_738089" data-name="Trazado 738089" d="M135.36,370.959h-2.281l-3.173,5.367h2.281Z" transform="translate(-122.095 -337.171)" fill="#68994b"/>
        <path id="Trazado_738090" data-name="Trazado 738090" d="M163.64,205.506l-5.54,9.684,4.656,2.666,3.965-6.93Z" transform="translate(-146.716 -192.683)" fill="#71aa52"/>
        <g id="Grupo_972712" data-name="Grupo 972712" transform="translate(4.75 12.823)">
          <path id="Trazado_738091" data-name="Trazado 738091" d="M245.188,361.564l0-1.376-3.624,4.052,3.613,4.066,0-1.376,6.793.009,3.067-5.361Z" transform="translate(-224.356 -340.588)" fill="#aee295"/>
          <path id="Trazado_738092" data-name="Trazado 738092" d="M113.823,315.51l1.184.7-1.65-5.179-5.337,1.048,1.185.7-3.458,5.847,3.061,5.364Z" transform="translate(-105.747 -297.66)" fill="#aee295"/>
          <path id="Trazado_738093" data-name="Trazado 738093" d="M206.689,214.072l-1.2.68,5.315,1.141,1.743-5.152-1.2.68L208,205.515l-6.176-.009Z" transform="translate(-189.647 -205.506)" fill="#aee295"/>
        </g>
        <path id="Trazado_738094" data-name="Trazado 738094" d="M192.791,207.528l3.081,5.42,1.144-2-3.079-5.417h0Z" transform="translate(-177.011 -192.704)" fill="#68994b"/>
      </g>
      <g id="Grupo_972714" data-name="Grupo 972714" transform="translate(60.374)">
        <path id="Trazado_738095" data-name="Trazado 738095" d="M109,12.226h-8.871V9.81A9.8,9.8,0,0,0,85.887,1.061,9.8,9.8,0,0,0,71.648,9.81v2.416H61.326a.952.952,0,0,0-.952.952v6.436a.952.952,0,1,0,1.9,0V14.131h9.37V18.14a1.829,1.829,0,1,0,1.9,0V14.131H89.363V18.14a1.829,1.829,0,1,0,1.9,0V14.131h9.37V50.505a.952.952,0,1,0,1.9,0V14.131h5.5v5.484a.952.952,0,1,0,1.9,0V13.179a.952.952,0,0,0-.952-.952ZM73.553,9.81A7.9,7.9,0,0,1,83.988,2.322,9.791,9.791,0,0,0,80.506,9.81v2.416H73.553V9.81Zm8.858,2.416V9.81a7.9,7.9,0,0,1,3.477-6.545A7.9,7.9,0,0,1,89.364,9.81v2.416Zm5.376-9.9A7.9,7.9,0,0,1,98.221,9.81v2.416H91.268V9.81a9.79,9.79,0,0,0-3.482-7.488Z" transform="translate(-60.374 0)"/>
        <path id="Trazado_738096" data-name="Trazado 738096" d="M109,177.347a.952.952,0,0,0-.952.952v37.946a1.6,1.6,0,0,1-1.6,1.6h-4.29a3.483,3.483,0,0,0,.389-1.6v-7.056a.952.952,0,0,0-1.9,0v7.056a1.6,1.6,0,0,1-1.6,1.6H63.88a1.6,1.6,0,0,1-1.6-1.6V178.3a.952.952,0,0,0-1.9,0v37.946a3.51,3.51,0,0,0,3.506,3.506h42.563a3.51,3.51,0,0,0,3.506-3.506V178.3a.952.952,0,0,0-.952-.952Z" transform="translate(-60.374 -154.875)"/>
        <path id="Trazado_738097" data-name="Trazado 738097" d="M249.424,298.4a.96.96,0,0,0-.128-.423l-5.68-9.628a.953.953,0,0,0-1.3-.337l-4.631,2.729a.949.949,0,0,0-.337,1.3l3.216,5.452h-1v-.427a.962.962,0,0,0-1.662-.636l-3.631,4.06a.952.952,0,0,0,0,1.267l3.62,4.074a.967.967,0,0,0,1.664-.631v-.427l5.854.008h0a.952.952,0,0,0,.827-.479l3.073-5.372A.984.984,0,0,0,249.424,298.4Zm-6.964-8.264,4.348,7.37-4.034-.006-3.3-5.6Zm2.392,12.743-6.253-.009h0a.952.952,0,0,0-.606.218l-1.74-1.958,1.745-1.951a.948.948,0,0,0,.607.22l8.233.011Z" transform="translate(-212.019 -251.403)"/>
        <path id="Trazado_738098" data-name="Trazado 738098" d="M98.064,312.656l3.067,5.375a.974.974,0,0,0,.827.48l11.178,0a.952.952,0,0,0,.952-.952V312.18a.986.986,0,0,0-.952-.952l-6.33,0,.511-.864.367.217a.97.97,0,0,0,1.392-1.109l-1.653-5.19a.952.952,0,0,0-1.091-.645l-5.348,1.05a.97.97,0,0,0-.3,1.754l.367.217-2.98,5.039A.952.952,0,0,0,98.064,312.656Zm7.617.478,6.5,0V316.6l-8.557,0Zm-2.506-6.324a.949.949,0,0,0,.121-.634l2.571-.5.794,2.494a.952.952,0,0,0-.5.412l-4.19,7.087-1.981-3.471Z" transform="translate(-93.179 -265.15)"/>
        <path id="Trazado_738099" data-name="Trazado 738099" d="M168.252,203.355a.952.952,0,0,0-1.077-.094l-.371.211-2.893-5.09a.952.952,0,0,0-.826-.482l-6.188-.009a.975.975,0,0,0-.828.479l-5.55,9.7a.952.952,0,0,0,.353,1.3l4.665,2.672a.989.989,0,0,0,1.3-.354l3.143-5.494.5.872-.371.211a.97.97,0,0,0,.271,1.759l5.325,1.143a1,1,0,0,0,1.1-.626l1.746-5.163A.952.952,0,0,0,168.252,203.355Zm-12.6,6.565-3.012-1.725,4.249-7.427,1.993,3.507Zm9.614-1.777-2.559-.549a.948.948,0,0,0-.11-.637l-4.068-7.158,4,.006,3.09,5.437a.949.949,0,0,0,.49.42Z" transform="translate(-138.986 -172.817)"/>
      </g>
    </g>
    <rect id="Rectángulo_343204" data-name="Rectángulo 343204" width="81" height="81" transform="translate(-5235 -18635)" fill="none"/>
  </g>
</svg>
