<svg xmlns="http://www.w3.org/2000/svg" width="81" height="81" viewBox="0 0 81 81">
  <g id="Grupo_972829" data-name="Grupo 972829" transform="translate(5235 18126)">
    <g id="Layer_63" transform="translate(-5238.966 -18119)">
      <g id="Grupo_972827" data-name="Grupo 972827" transform="translate(14.967)">
        <g id="Grupo_972717" data-name="Grupo 972717" transform="translate(14.557 18.514)">
          <g id="Grupo_972716" data-name="Grupo 972716">
            <circle id="Elipse_6826" data-name="Elipse 6826" cx="15.324" cy="15.324" r="15.324" fill="#70d6f9"/>
          </g>
        </g>
        <g id="Grupo_972719" data-name="Grupo 972719" transform="translate(26.231 0.661)">
          <g id="Grupo_972718" data-name="Grupo 972718">
            <circle id="Elipse_6827" data-name="Elipse 6827" cx="3.651" cy="3.651" r="3.651" fill="#feb872"/>
          </g>
        </g>
        <g id="Grupo_972721" data-name="Grupo 972721" transform="translate(23.587 8.718)">
          <g id="Grupo_972720" data-name="Grupo 972720">
            <path id="Trazado_738113" data-name="Trazado 738113" d="M113.595,32.976h-6.219a3.194,3.194,0,0,0-3.185,3.185v2.194a1.168,1.168,0,0,0,1.168,1.168h10.253a1.168,1.168,0,0,0,1.168-1.168V36.161A3.2,3.2,0,0,0,113.595,32.976Z" transform="translate(-104.191 -32.976)" fill="#fc657e"/>
          </g>
        </g>
        <g id="Grupo_972723" data-name="Grupo 972723" transform="translate(26.231 59.714)">
          <g id="Grupo_972722" data-name="Grupo 972722">
            <circle id="Elipse_6828" data-name="Elipse 6828" cx="3.651" cy="3.651" r="3.651" fill="#a57453"/>
          </g>
        </g>
        <g id="Grupo_972725" data-name="Grupo 972725" transform="translate(23.587 52.412)">
          <g id="Grupo_972724" data-name="Grupo 972724">
            <path id="Trazado_738114" data-name="Trazado 738114" d="M115.611,198.262H105.358a1.168,1.168,0,0,0-1.168,1.168v2.194a3.194,3.194,0,0,0,3.185,3.185h6.219a3.194,3.194,0,0,0,3.185-3.185V199.43A1.167,1.167,0,0,0,115.611,198.262Z" transform="translate(-104.19 -198.262)" fill="#f5c84c"/>
          </g>
        </g>
        <g id="Grupo_972727" data-name="Grupo 972727" transform="translate(0.66 15.423)">
          <g id="Grupo_972726" data-name="Grupo 972726">
            <path id="Trazado_738115" data-name="Trazado 738115" d="M22.938,58.832a3.651,3.651,0,1,0,1.336,4.987A3.651,3.651,0,0,0,22.938,58.832Z" transform="translate(-17.462 -58.343)" fill="#f9d0b4"/>
          </g>
        </g>
        <g id="Grupo_972729" data-name="Grupo 972729" transform="translate(6.148 16.995)">
          <g id="Grupo_972728" data-name="Grupo 972728">
            <path id="Trazado_738116" data-name="Trazado 738116" d="M48.005,65.808l-1.9-1.1a3.194,3.194,0,0,0-4.35,1.166l-3.109,5.386a3.194,3.194,0,0,0,1.166,4.35l1.9,1.1a1.167,1.167,0,0,0,1.595-.427l5.127-8.88A1.167,1.167,0,0,0,48.005,65.808Z" transform="translate(-38.221 -64.287)" fill="#5290db"/>
          </g>
        </g>
        <g id="Grupo_972731" data-name="Grupo 972731" transform="translate(51.801 44.95)">
          <g id="Grupo_972730" data-name="Grupo 972730">
            <path id="Trazado_738117" data-name="Trazado 738117" d="M216.392,170.523a3.651,3.651,0,1,0,1.336,4.987A3.651,3.651,0,0,0,216.392,170.523Z" transform="translate(-210.916 -170.034)" fill="#d68649"/>
          </g>
        </g>
        <g id="Grupo_972733" data-name="Grupo 972733" transform="translate(43.247 38.101)">
          <g id="Grupo_972732" data-name="Grupo 972732">
            <path id="Trazado_738118" data-name="Trazado 738118" d="M187.338,145.381l-1.9-1.1a1.167,1.167,0,0,0-1.595.427l-5.127,8.88a1.167,1.167,0,0,0,.427,1.595l1.9,1.1a3.194,3.194,0,0,0,4.35-1.166l3.11-5.386A3.194,3.194,0,0,0,187.338,145.381Z" transform="translate(-178.559 -144.127)" fill="#fca265"/>
          </g>
        </g>
        <g id="Grupo_972735" data-name="Grupo 972735" transform="translate(0.66 44.95)">
          <g id="Grupo_972734" data-name="Grupo 972734">
            <path id="Trazado_738119" data-name="Trazado 738119" d="M24.275,171.859a3.651,3.651,0,1,0-1.336,4.987A3.651,3.651,0,0,0,24.275,171.859Z" transform="translate(-17.462 -170.033)" fill="#fce4be"/>
          </g>
        </g>
        <g id="Grupo_972737" data-name="Grupo 972737" transform="translate(6.148 38.101)">
          <g id="Grupo_972736" data-name="Grupo 972736">
            <path id="Trazado_738120" data-name="Trazado 738120" d="M48.433,153.591l-5.127-8.88a1.167,1.167,0,0,0-1.595-.427l-1.9,1.1a3.194,3.194,0,0,0-1.166,4.35l3.11,5.386a3.194,3.194,0,0,0,4.35,1.166l1.9-1.1A1.168,1.168,0,0,0,48.433,153.591Z" transform="translate(-38.221 -144.127)" fill="#70d6f9"/>
          </g>
        </g>
        <g id="Grupo_972739" data-name="Grupo 972739" transform="translate(51.801 15.423)">
          <g id="Grupo_972738" data-name="Grupo 972738">
            <path id="Trazado_738121" data-name="Trazado 738121" d="M217.728,60.169a3.651,3.651,0,1,0-1.336,4.987A3.651,3.651,0,0,0,217.728,60.169Z" transform="translate(-210.915 -58.343)" fill="#818182"/>
          </g>
        </g>
        <g id="Grupo_972741" data-name="Grupo 972741" transform="translate(43.247 16.995)">
          <g id="Grupo_972740" data-name="Grupo 972740">
            <path id="Trazado_738122" data-name="Trazado 738122" d="M188.5,71.263l-3.11-5.386a3.194,3.194,0,0,0-4.35-1.166l-1.9,1.1a1.168,1.168,0,0,0-.427,1.595l5.127,8.88a1.167,1.167,0,0,0,1.595.427l1.9-1.1A3.194,3.194,0,0,0,188.5,71.263Z" transform="translate(-178.559 -64.287)" fill="#87d147"/>
          </g>
        </g>
        <g id="Grupo_972744" data-name="Grupo 972744" transform="translate(13.896 17.853)">
          <g id="Grupo_972743" data-name="Grupo 972743">
            <g id="Grupo_972742" data-name="Grupo 972742">
              <path id="Trazado_738123" data-name="Trazado 738123" d="M83.517,67.532A15.985,15.985,0,1,0,99.5,83.517,16,16,0,0,0,83.517,67.532Zm0,30.649A14.664,14.664,0,1,1,98.181,83.517,14.68,14.68,0,0,1,83.517,98.181Z" transform="translate(-67.532 -67.532)"/>
            </g>
          </g>
        </g>
        <g id="Grupo_972746" data-name="Grupo 972746" transform="translate(20.832 18.356)">
          <g id="Grupo_972745" data-name="Grupo 972745">
            <path id="Trazado_738124" data-name="Trazado 738124" d="M95.09,84.917c0-6.042,1.737-11.676,4.426-14.353a.661.661,0,0,0-.933-.937c-2.97,2.957-4.815,8.816-4.815,15.29,0,6.433,1.828,12.275,4.771,15.245a.661.661,0,0,0,.939-.931C96.771,96.5,95.09,91.015,95.09,84.917Z" transform="translate(-93.768 -69.435)"/>
          </g>
        </g>
        <g id="Grupo_972748" data-name="Grupo 972748" transform="translate(32.989 18.356)">
          <g id="Grupo_972747" data-name="Grupo 972747">
            <path id="Trazado_738125" data-name="Trazado 738125" d="M140.88,69.627a.661.661,0,0,0-.932.937c2.689,2.677,4.426,8.311,4.426,14.353,0,6.025-1.73,11.652-4.409,14.335a.661.661,0,0,0,.936.933c2.958-2.963,4.795-8.814,4.795-15.269,0-6.474-1.846-12.332-4.816-15.29Z" transform="translate(-139.753 -69.435)"/>
          </g>
        </g>
        <g id="Grupo_972750" data-name="Grupo 972750" transform="translate(14.409 36.935)">
          <g id="Grupo_972749" data-name="Grupo 972749">
            <path id="Trazado_738126" data-name="Trazado 738126" d="M100.2,139.952a.662.662,0,0,0-.935,0c-2.732,2.707-8.217,4.388-14.315,4.388-6.042,0-11.676-1.737-14.353-4.426a.661.661,0,0,0-.937.932c2.957,2.97,8.816,4.816,15.29,4.816,6.433,0,12.275-1.828,15.245-4.771A.661.661,0,0,0,100.2,139.952Z" transform="translate(-69.472 -139.715)"/>
          </g>
        </g>
        <g id="Grupo_972752" data-name="Grupo 972752" transform="translate(14.409 24.779)">
          <g id="Grupo_972751" data-name="Grupo 972751">
            <path id="Trazado_738127" data-name="Trazado 738127" d="M100.223,98.526c-2.963-2.958-8.814-4.795-15.269-4.795-6.474,0-12.332,1.845-15.29,4.815a.661.661,0,1,0,.936.933c2.677-2.689,8.311-4.426,14.353-4.426,6.025,0,11.652,1.73,14.335,4.408a.661.661,0,0,0,.934-.936Z" transform="translate(-69.472 -93.731)"/>
          </g>
        </g>
        <g id="Grupo_972754" data-name="Grupo 972754" transform="translate(29.221 18.12)">
          <g id="Grupo_972753" data-name="Grupo 972753">
            <path id="Trazado_738128" data-name="Trazado 738128" d="M126.161,68.543a.661.661,0,0,0-.661.661V99.318a.661.661,0,1,0,1.322,0V69.2A.661.661,0,0,0,126.161,68.543Z" transform="translate(-125.5 -68.543)"/>
          </g>
        </g>
        <g id="Grupo_972756" data-name="Grupo 972756" transform="translate(14.163 33.177)">
          <g id="Grupo_972755" data-name="Grupo 972755">
            <path id="Trazado_738129" data-name="Trazado 738129" d="M99.318,125.5H69.2a.661.661,0,1,0,0,1.322H99.318a.661.661,0,1,0,0-1.322Z" transform="translate(-68.543 -125.5)"/>
          </g>
        </g>
        <g id="Grupo_972759" data-name="Grupo 972759" transform="translate(25.57)">
          <g id="Grupo_972758" data-name="Grupo 972758">
            <g id="Grupo_972757" data-name="Grupo 972757">
              <path id="Trazado_738130" data-name="Trazado 738130" d="M116,0a4.312,4.312,0,1,0,4.312,4.312A4.317,4.317,0,0,0,116,0Zm0,7.3a2.99,2.99,0,1,1,2.99-2.99A2.993,2.993,0,0,1,116,7.3Z" transform="translate(-111.69)"/>
            </g>
          </g>
        </g>
        <g id="Grupo_972762" data-name="Grupo 972762" transform="translate(22.926 8.057)">
          <g id="Grupo_972761" data-name="Grupo 972761">
            <g id="Grupo_972760" data-name="Grupo 972760">
              <path id="Trazado_738131" data-name="Trazado 738131" d="M111.756,30.477h-6.219a3.85,3.85,0,0,0-3.846,3.846v2.194a1.831,1.831,0,0,0,1.829,1.829h10.253a1.831,1.831,0,0,0,1.829-1.829V34.323A3.85,3.85,0,0,0,111.756,30.477Zm2.524,6.039a.507.507,0,0,1-.507.507H103.519a.507.507,0,0,1-.507-.507V34.322a2.527,2.527,0,0,1,2.524-2.524h6.219a2.526,2.526,0,0,1,2.524,2.524v2.194Z" transform="translate(-101.691 -30.477)"/>
            </g>
          </g>
        </g>
        <g id="Grupo_972764" data-name="Grupo 972764" transform="translate(32.724 11.626)">
          <g id="Grupo_972763" data-name="Grupo 972763">
            <path id="Trazado_738132" data-name="Trazado 738132" d="M139.412,43.977a.661.661,0,0,0-.661.661v2.676a.661.661,0,1,0,1.322,0V44.638A.661.661,0,0,0,139.412,43.977Z" transform="translate(-138.751 -43.977)"/>
          </g>
        </g>
        <g id="Grupo_972766" data-name="Grupo 972766" transform="translate(25.718 11.626)">
          <g id="Grupo_972765" data-name="Grupo 972765">
            <path id="Trazado_738133" data-name="Trazado 738133" d="M112.91,43.977a.661.661,0,0,0-.661.661v2.676a.661.661,0,1,0,1.322,0V44.638A.661.661,0,0,0,112.91,43.977Z" transform="translate(-112.249 -43.977)"/>
          </g>
        </g>
        <g id="Grupo_972769" data-name="Grupo 972769" transform="translate(25.57 59.053)">
          <g id="Grupo_972768" data-name="Grupo 972768">
            <g id="Grupo_972767" data-name="Grupo 972767">
              <path id="Trazado_738134" data-name="Trazado 738134" d="M116,223.381a4.312,4.312,0,1,0,4.312,4.311A4.317,4.317,0,0,0,116,223.381Zm0,7.3a2.99,2.99,0,1,1,2.99-2.99A2.993,2.993,0,0,1,116,230.682Z" transform="translate(-111.69 -223.381)"/>
            </g>
          </g>
        </g>
        <g id="Grupo_972772" data-name="Grupo 972772" transform="translate(22.926 51.752)">
          <g id="Grupo_972771" data-name="Grupo 972771">
            <g id="Grupo_972770" data-name="Grupo 972770">
              <path id="Trazado_738135" data-name="Trazado 738135" d="M113.772,195.762H103.519a1.831,1.831,0,0,0-1.829,1.829v2.194a3.85,3.85,0,0,0,3.846,3.846h6.219a3.85,3.85,0,0,0,3.846-3.846v-2.194A1.83,1.83,0,0,0,113.772,195.762Zm.507,4.022a2.526,2.526,0,0,1-2.524,2.524h-6.219a2.527,2.527,0,0,1-2.524-2.524v-2.194a.507.507,0,0,1,.507-.507h10.253a.507.507,0,0,1,.507.507v2.194Z" transform="translate(-101.69 -195.762)"/>
            </g>
          </g>
        </g>
        <g id="Grupo_972774" data-name="Grupo 972774" transform="translate(32.724 52.052)">
          <g id="Grupo_972773" data-name="Grupo 972773">
            <path id="Trazado_738136" data-name="Trazado 738136" d="M139.412,196.9a.661.661,0,0,0-.661.661v2.676a.661.661,0,0,0,1.322,0v-2.676A.661.661,0,0,0,139.412,196.9Z" transform="translate(-138.751 -196.9)"/>
          </g>
        </g>
        <g id="Grupo_972776" data-name="Grupo 972776" transform="translate(25.718 52.052)">
          <g id="Grupo_972775" data-name="Grupo 972775">
            <path id="Trazado_738137" data-name="Trazado 738137" d="M112.91,196.9a.661.661,0,0,0-.661.661v2.676a.661.661,0,0,0,1.322,0v-2.676A.661.661,0,0,0,112.91,196.9Z" transform="translate(-112.249 -196.9)"/>
          </g>
        </g>
        <g id="Grupo_972779" data-name="Grupo 972779" transform="translate(0 14.761)">
          <g id="Grupo_972778" data-name="Grupo 972778">
            <g id="Grupo_972777" data-name="Grupo 972777">
              <path id="Trazado_738138" data-name="Trazado 738138" d="M21.434,56.417a4.312,4.312,0,1,0-2.163,8.047,4.341,4.341,0,0,0,1.123-.149,4.312,4.312,0,0,0,1.04-7.9Zm.433,5.229A2.99,2.99,0,1,1,18.5,57.264a3.006,3.006,0,0,1,.779-.1,2.991,2.991,0,0,1,2.585,4.486Z" transform="translate(-14.967 -55.838)"/>
            </g>
          </g>
        </g>
        <g id="Grupo_972782" data-name="Grupo 972782" transform="translate(5.486 16.332)">
          <g id="Grupo_972781" data-name="Grupo 972781">
            <g id="Grupo_972780" data-name="Grupo 972780">
              <path id="Trazado_738139" data-name="Trazado 738139" d="M47.345,64.5a1.816,1.816,0,0,0-.852-1.11l-1.9-1.1A3.849,3.849,0,0,0,39.34,63.7l-3.109,5.386a3.855,3.855,0,0,0,1.408,5.253l1.9,1.1a1.829,1.829,0,0,0,2.5-.669l5.127-8.88A1.817,1.817,0,0,0,47.345,64.5Zm-1.327.726-5.127,8.88a.507.507,0,0,1-.692.186l-1.9-1.1a2.533,2.533,0,0,1-.924-3.448l3.11-5.386a2.526,2.526,0,0,1,3.448-.924l1.9,1.1A.507.507,0,0,1,46.018,65.229Z" transform="translate(-35.717 -61.78)"/>
            </g>
          </g>
        </g>
        <g id="Grupo_972784" data-name="Grupo 972784" transform="translate(12.308 19.367)">
          <g id="Grupo_972783" data-name="Grupo 972783">
            <path id="Trazado_738140" data-name="Trazado 738140" d="M64.833,74.688,62.515,73.35a.661.661,0,0,0-.661,1.145l2.318,1.338a.661.661,0,0,0,.661-1.145Z" transform="translate(-61.524 -73.261)"/>
          </g>
        </g>
        <g id="Grupo_972786" data-name="Grupo 972786" transform="translate(8.805 25.435)">
          <g id="Grupo_972785" data-name="Grupo 972785">
            <path id="Trazado_738141" data-name="Trazado 738141" d="M51.582,97.639,49.264,96.3a.661.661,0,0,0-.661,1.145l2.318,1.338a.661.661,0,1,0,.661-1.145Z" transform="translate(-48.273 -96.212)"/>
          </g>
        </g>
        <g id="Grupo_972789" data-name="Grupo 972789" transform="translate(51.142 44.291)">
          <g id="Grupo_972788" data-name="Grupo 972788">
            <g id="Grupo_972787" data-name="Grupo 972787">
              <path id="Trazado_738142" data-name="Trazado 738142" d="M214.888,168.116a4.312,4.312,0,1,0,1.578,5.889A4.317,4.317,0,0,0,214.888,168.116Zm.433,5.229a2.989,2.989,0,1,1-1.094-4.084A2.972,2.972,0,0,1,215.321,173.345Z" transform="translate(-208.422 -167.539)"/>
            </g>
          </g>
        </g>
        <g id="Grupo_972792" data-name="Grupo 972792" transform="translate(42.586 37.441)">
          <g id="Grupo_972791" data-name="Grupo 972791">
            <g id="Grupo_972790" data-name="Grupo 972790">
              <path id="Trazado_738143" data-name="Trazado 738143" d="M185.827,142.971l-1.9-1.1a1.831,1.831,0,0,0-2.5.669l-5.127,8.88a1.828,1.828,0,0,0,.669,2.5l1.9,1.1a3.849,3.849,0,0,0,5.253-1.408l3.11-5.386A3.85,3.85,0,0,0,185.827,142.971Zm.263,4.592-3.11,5.386a2.528,2.528,0,0,1-3.448.924l-1.9-1.1a.507.507,0,0,1-.185-.692l5.127-8.88a.5.5,0,0,1,.308-.236.511.511,0,0,1,.132-.017.5.5,0,0,1,.252.068l1.9,1.1a2.533,2.533,0,0,1,.924,3.448Z" transform="translate(-176.057 -141.63)"/>
            </g>
          </g>
        </g>
        <g id="Grupo_972794" data-name="Grupo 972794" transform="translate(47.319 39.581)">
          <g id="Grupo_972793" data-name="Grupo 972793">
            <path id="Trazado_738144" data-name="Trazado 738144" d="M197.269,151.151l-2.318-1.338a.661.661,0,1,0-.661,1.145l2.318,1.338a.661.661,0,0,0,.661-1.145Z" transform="translate(-193.96 -149.724)"/>
          </g>
        </g>
        <g id="Grupo_972796" data-name="Grupo 972796" transform="translate(43.816 45.648)">
          <g id="Grupo_972795" data-name="Grupo 972795">
            <path id="Trazado_738145" data-name="Trazado 738145" d="M184.018,174.1l-2.318-1.338a.661.661,0,0,0-.661,1.145l2.318,1.338a.661.661,0,0,0,.661-1.145Z" transform="translate(-180.709 -172.675)"/>
          </g>
        </g>
        <g id="Grupo_972799" data-name="Grupo 972799" transform="translate(0 44.288)">
          <g id="Grupo_972798" data-name="Grupo 972798">
            <g id="Grupo_972797" data-name="Grupo 972797">
              <path id="Trazado_738146" data-name="Trazado 738146" d="M23.011,169.686a4.312,4.312,0,1,0-4.85,6.321,4.341,4.341,0,0,0,1.123.149,4.315,4.315,0,0,0,3.727-6.469Zm-.846,2.93a2.989,2.989,0,1,1-2.893-3.765,3.007,3.007,0,0,1,.779.1,2.99,2.99,0,0,1,2.114,3.662Z" transform="translate(-14.967 -167.528)"/>
            </g>
          </g>
        </g>
        <g id="Grupo_972802" data-name="Grupo 972802" transform="translate(5.485 37.441)">
          <g id="Grupo_972801" data-name="Grupo 972801">
            <g id="Grupo_972800" data-name="Grupo 972800">
              <path id="Trazado_738147" data-name="Trazado 738147" d="M47.162,151.423l-5.127-8.88a1.83,1.83,0,0,0-2.5-.669l-1.9,1.1a3.855,3.855,0,0,0-1.408,5.253l3.11,5.386a3.848,3.848,0,0,0,5.253,1.408l1.9-1.1a1.828,1.828,0,0,0,.669-2.5Zm-1.33,1.353-1.9,1.1a2.527,2.527,0,0,1-3.448-.924l-3.11-5.386a2.533,2.533,0,0,1,.924-3.448l1.9-1.1a.5.5,0,0,1,.253-.068.513.513,0,0,1,.132.017.5.5,0,0,1,.308.236l5.127,8.88a.508.508,0,0,1-.186.692Z" transform="translate(-35.716 -141.629)"/>
            </g>
          </g>
        </g>
        <g id="Grupo_972804" data-name="Grupo 972804" transform="translate(8.805 39.581)">
          <g id="Grupo_972803" data-name="Grupo 972803">
            <path id="Trazado_738148" data-name="Trazado 738148" d="M51.824,150.055a.661.661,0,0,0-.9-.242L48.6,151.151a.661.661,0,1,0,.661,1.145l2.318-1.338A.661.661,0,0,0,51.824,150.055Z" transform="translate(-48.273 -149.725)"/>
          </g>
        </g>
        <g id="Grupo_972806" data-name="Grupo 972806" transform="translate(12.308 45.648)">
          <g id="Grupo_972805" data-name="Grupo 972805">
            <path id="Trazado_738149" data-name="Trazado 738149" d="M65.075,173.006a.661.661,0,0,0-.9-.242L61.854,174.1a.661.661,0,1,0,.661,1.145l2.318-1.338A.661.661,0,0,0,65.075,173.006Z" transform="translate(-61.524 -172.675)"/>
          </g>
        </g>
        <g id="Grupo_972809" data-name="Grupo 972809" transform="translate(51.142 14.761)">
          <g id="Grupo_972808" data-name="Grupo 972808">
            <g id="Grupo_972807" data-name="Grupo 972807">
              <path id="Trazado_738150" data-name="Trazado 738150" d="M216.466,58a4.31,4.31,0,1,0-1.578,5.889A4.285,4.285,0,0,0,216.466,58Zm-2.239,4.745a2.99,2.99,0,1,1,1.094-4.084,2.994,2.994,0,0,1-1.094,4.084Z" transform="translate(-208.422 -55.838)"/>
            </g>
          </g>
        </g>
        <g id="Grupo_972812" data-name="Grupo 972812" transform="translate(42.586 16.332)">
          <g id="Grupo_972811" data-name="Grupo 972811">
            <g id="Grupo_972810" data-name="Grupo 972810">
              <path id="Trazado_738151" data-name="Trazado 738151" d="M187.235,69.089l-3.11-5.386a3.85,3.85,0,0,0-5.253-1.408l-1.9,1.1a1.828,1.828,0,0,0-.669,2.5l5.127,8.88a1.829,1.829,0,0,0,2.5.669l1.9-1.1A3.85,3.85,0,0,0,187.235,69.089Zm-.9,2.575a2.505,2.505,0,0,1-1.172,1.534l-1.9,1.1a.507.507,0,0,1-.692-.186l-5.127-8.88a.507.507,0,0,1,.185-.692l1.9-1.1a2.526,2.526,0,0,1,3.448.924l3.11,5.386A2.506,2.506,0,0,1,186.338,71.664Z" transform="translate(-176.057 -61.781)"/>
            </g>
          </g>
        </g>
        <g id="Grupo_972814" data-name="Grupo 972814" transform="translate(43.816 19.368)">
          <g id="Grupo_972813" data-name="Grupo 972813">
            <path id="Trazado_738152" data-name="Trazado 738152" d="M184.26,73.594a.661.661,0,0,0-.9-.242l-2.318,1.338a.661.661,0,1,0,.661,1.145l2.318-1.338A.661.661,0,0,0,184.26,73.594Z" transform="translate(-180.709 -73.263)"/>
          </g>
        </g>
        <g id="Grupo_972816" data-name="Grupo 972816" transform="translate(47.319 25.435)">
          <g id="Grupo_972815" data-name="Grupo 972815">
            <path id="Trazado_738153" data-name="Trazado 738153" d="M197.511,96.544a.661.661,0,0,0-.9-.242l-2.318,1.338a.661.661,0,1,0,.661,1.145l2.318-1.338A.661.661,0,0,0,197.511,96.544Z" transform="translate(-193.96 -96.214)"/>
          </g>
        </g>
        <g id="Grupo_972818" data-name="Grupo 972818" transform="translate(47.362 53.936)">
          <g id="Grupo_972817" data-name="Grupo 972817">
            <path id="Trazado_738154" data-name="Trazado 738154" d="M197.5,205.657a2.061,2.061,0,0,1-1.639-1.613c0-.026-.079-.026-.079,0a2.061,2.061,0,0,1-1.639,1.613c-.026,0-.026.053,0,.079a2.061,2.061,0,0,1,1.639,1.613c0,.026.079.026.079,0a2.061,2.061,0,0,1,1.639-1.613C197.529,205.71,197.529,205.657,197.5,205.657Z" transform="translate(-194.125 -204.025)" fill="#87d147"/>
          </g>
        </g>
        <g id="Grupo_972820" data-name="Grupo 972820" transform="translate(38.26)">
          <g id="Grupo_972819" data-name="Grupo 972819">
            <path id="Trazado_738155" data-name="Trazado 738155" d="M163.477,1.454h-.634V.846A.835.835,0,0,0,162,0a.847.847,0,0,0-.846.82v.634h-.608a.835.835,0,0,0-.846.846.819.819,0,0,0,.846.846h.608v.608A.835.835,0,0,0,162,4.6a.847.847,0,0,0,.846-.82V3.146h.608A.835.835,0,0,0,164.3,2.3.847.847,0,0,0,163.477,1.454Z" transform="translate(-159.695)" fill="#fc657e"/>
          </g>
        </g>
        <g id="Grupo_972822" data-name="Grupo 972822" transform="translate(20.602 65.878)">
          <g id="Grupo_972821" data-name="Grupo 972821">
            <path id="Trazado_738156" data-name="Trazado 738156" d="M93.8,249.2a.9.9,0,1,0,.9.9A.9.9,0,0,0,93.8,249.2Z" transform="translate(-92.9 -249.2)" fill="#70d6f9"/>
          </g>
        </g>
        <g id="Grupo_972824" data-name="Grupo 972824" transform="translate(44.395 7.138)">
          <g id="Grupo_972823" data-name="Grupo 972823">
            <path id="Trazado_738157" data-name="Trazado 738157" d="M183.8,27a.9.9,0,1,0,.9.9A.9.9,0,0,0,183.8,27Z" transform="translate(-182.9 -27)" fill="#f5c84c"/>
          </g>
        </g>
        <g id="Grupo_972826" data-name="Grupo 972826" transform="translate(13.637 58.252)">
          <g id="Grupo_972825" data-name="Grupo 972825">
            <path id="Trazado_738158" data-name="Trazado 738158" d="M71.4,222.69a2.934,2.934,0,0,1-2.353-2.3c0-.053-.106-.053-.106,0a2.934,2.934,0,0,1-2.353,2.3c-.053,0-.053.079,0,.106a2.934,2.934,0,0,1,2.353,2.3c0,.053.106.053.106,0a2.934,2.934,0,0,1,2.353-2.3C71.454,222.769,71.454,222.69,71.4,222.69Z" transform="translate(-66.55 -220.35)" fill="#f5c84c"/>
          </g>
        </g>
      </g>
    </g>
    <rect id="Rectángulo_343206" data-name="Rectángulo 343206" width="81" height="81" transform="translate(-5235 -18126)" fill="none"/>
  </g>
</svg>
