<svg xmlns="http://www.w3.org/2000/svg" width="38" height="38" viewBox="0 0 38 38">
  <g id="Grupo_972886" data-name="Grupo 972886" transform="translate(-798.375 -1706.5)">
    <g id="Elipse_5974" data-name="Elipse 5974" transform="translate(798.375 1706.5)" fill="#bfdb77" stroke="#fff" stroke-width="3">
      <circle cx="19" cy="19" r="19" stroke="none"/>
      <circle cx="19" cy="19" r="17.5" fill="none"/>
    </g>
    <path id="Trazado_738341" data-name="Trazado 738341" d="M4.5,0H-4.43V-1.934L-.316-6.258A4.909,4.909,0,0,0,1.2-9.009a1.913,1.913,0,0,0-.36-1.257A1.287,1.287,0,0,0-.2-10.7a1.3,1.3,0,0,0-1.1.576,2.366,2.366,0,0,0-.422,1.437H-4.693A4.2,4.2,0,0,1-4.1-10.859a4.129,4.129,0,0,1,1.635-1.56,4.856,4.856,0,0,1,2.338-.562,4.777,4.777,0,0,1,3.195.958A3.42,3.42,0,0,1,4.184-9.272,4,4,0,0,1,3.9-7.8a6.456,6.456,0,0,1-.875,1.5,22.029,22.029,0,0,1-1.912,2.1L-.536-2.285H4.5Z" transform="translate(817.375 1731.5)" fill="#12263f"/>
  </g>
</svg>
