<svg xmlns="http://www.w3.org/2000/svg" width="80" height="80" viewBox="0 0 80 80">
  <g id="Grupo_972629" data-name="Grupo 972629" transform="translate(-2362.25 14325)">
    <g id="Elipse_6752" data-name="Elipse 6752" transform="translate(2362.25 -14325)" fill="#bfdb77" stroke="#fff" stroke-width="3">
      <circle cx="40" cy="40" r="40" stroke="none"/>
      <circle cx="40" cy="40" r="38.5" fill="none"/>
    </g>
    <g id="planificacion" transform="translate(2379.59 -14314.234)">
      <g id="Grupo_972606" data-name="Grupo 972606" transform="translate(0.809 22.287)">
        <path id="Trazado_737692" data-name="Trazado 737692" d="M9.172,177.513l-.028,25.1a3.216,3.216,0,0,0,3.212,3.2H49.777a3.22,3.22,0,0,0,3.214-3.2l-.028-25.1H9.172Z" transform="translate(-9.144 -177.513)" fill="#e8eaea" fill-rule="evenodd"/>
      </g>
      <g id="Grupo_972607" data-name="Grupo 972607" transform="translate(0.809 19.496)">
        <path id="Trazado_737693" data-name="Trazado 737693" d="M9.144,149.184v24.685a3.218,3.218,0,0,1,3.212-3.207h2.128a.472.472,0,0,0,.472-.471V146.448a.472.472,0,0,0-.472-.471H12.356A3.218,3.218,0,0,0,9.144,149.184Z" transform="translate(-9.144 -145.977)" fill="#ade194" fill-rule="evenodd"/>
      </g>
      <g id="Grupo_972608" data-name="Grupo 972608" transform="translate(38.843 19.496)">
        <path id="Trazado_737694" data-name="Trazado 737694" d="M438.821,148.768v21.423a.474.474,0,0,0,.472.471h2.128a3.22,3.22,0,0,1,3.214,3.207V149.184a3.22,3.22,0,0,0-3.214-3.207h-2.128a.474.474,0,0,0-.472.471Z" transform="translate(-438.821 -145.977)" fill="#ade194" fill-rule="evenodd"/>
      </g>
      <g id="Grupo_972609" data-name="Grupo 972609" transform="translate(38.843 19.496)">
        <path id="Trazado_737695" data-name="Trazado 737695" d="M438.821,170.192a.474.474,0,0,0,.472.471h2.128a3.22,3.22,0,0,1,3.214,3.207V149.184a3.22,3.22,0,0,0-3.214-3.207h-.133a3.2,3.2,0,0,1,1.1,2.408v19.866c0,.328.06.468-.226.4a3.252,3.252,0,0,0-.738-.085h-2.6Z" transform="translate(-438.821 -145.977)" fill="#80d261" fill-rule="evenodd"/>
      </g>
      <g id="Grupo_972610" data-name="Grupo 972610" transform="translate(0.809 19.496)">
        <path id="Trazado_737696" data-name="Trazado 737696" d="M14.955,170.192a.472.472,0,0,1-.472.471H12.356a3.218,3.218,0,0,0-3.212,3.207v-3.56c0-.543.951-1.367,2.278-1.645,1.192-.253.933.158.933-1.339V145.977h2.128a.472.472,0,0,1,.472.471v23.744Z" transform="translate(-9.144 -145.977)" fill="#80d261" fill-rule="evenodd"/>
      </g>
      <g id="Grupo_972611" data-name="Grupo 972611" transform="translate(25.088 22.287)">
        <path id="Trazado_737697" data-name="Trazado 737697" d="M297.18,177.513H284.135a25.247,25.247,0,0,1,1.6,3.385h6.732a.425.425,0,0,1,.424.423V200.8a.425.425,0,0,1-.424.423h-6.72a25.1,25.1,0,0,1-2.323,4.592H299.78a3.22,3.22,0,0,0,3.214-3.2v-.008a3.22,3.22,0,0,0-3.214-3.2h-2.128a.474.474,0,0,1-.472-.471V177.513Z" transform="translate(-283.425 -177.513)" fill="#d4d6d8" fill-rule="evenodd"/>
      </g>
      <g id="Grupo_972612" data-name="Grupo 972612" transform="translate(10.786 25.672)">
        <path id="Trazado_737698" data-name="Trazado 737698" d="M122.274,215.753H145.2a.425.425,0,0,1,.424.423v19.483a.425.425,0,0,1-.424.423H122.274a.425.425,0,0,1-.424-.423V216.176A.425.425,0,0,1,122.274,215.753Z" transform="translate(-121.85 -215.753)" fill="#c1eaf4" fill-rule="evenodd"/>
      </g>
      <g id="Grupo_972613" data-name="Grupo 972613" transform="translate(10.786 37.321)">
        <path id="Trazado_737699" data-name="Trazado 737699" d="M121.85,347.356v8.257a.425.425,0,0,0,.424.423h14.583v-7.463a.371.371,0,0,0-.369-.368H132.26a.371.371,0,0,0-.369.368v2.509a.371.371,0,0,1-.369.371h-4.356a.371.371,0,0,1-.369-.371v-3.195a.533.533,0,0,0-.532-.531Z" transform="translate(-121.85 -347.356)" fill="#ade194" fill-rule="evenodd"/>
      </g>
      <g id="Grupo_972614" data-name="Grupo 972614" transform="translate(10.786 25.672)">
        <path id="Trazado_737700" data-name="Trazado 737700" d="M121.85,216.175v6.014a6.444,6.444,0,0,0,6.451-6.437h-6.027A.425.425,0,0,0,121.85,216.175Z" transform="translate(-121.85 -215.752)" fill="#ade194" fill-rule="evenodd"/>
      </g>
      <g id="Grupo_972615" data-name="Grupo 972615" transform="translate(23.969 25.672)">
        <path id="Trazado_737701" data-name="Trazado 737701" d="M270.783,215.753v5.613a.447.447,0,0,0,.447.446h10.139v-5.636a.425.425,0,0,0-.424-.423Z" transform="translate(-270.783 -215.753)" fill="#ade194" fill-rule="evenodd"/>
      </g>
      <g id="Grupo_972616" data-name="Grupo 972616" transform="translate(27.399 25.672)">
        <path id="Trazado_737702" data-name="Trazado 737702" d="M316.688,221.812v-5.636a.425.425,0,0,0-.424-.423h-6.732a27.471,27.471,0,0,1,1.573,6.059Z" transform="translate(-309.532 -215.753)" fill="#80d261" fill-rule="evenodd"/>
      </g>
      <g id="Grupo_972617" data-name="Grupo 972617" transform="translate(27.411 31.731)">
        <path id="Trazado_737703" data-name="Trazado 737703" d="M316.818,284.2h-5.583a29.245,29.245,0,0,1,.291,4.121,28.238,28.238,0,0,1-1.852,10.149h6.72a.425.425,0,0,0,.424-.423Z" transform="translate(-309.674 -284.199)" fill="#99cfe0" fill-rule="evenodd"/>
      </g>
      <g id="Grupo_972618" data-name="Grupo 972618" transform="translate(30.485 34.68)">
        <path id="Trazado_737704" data-name="Trazado 737704" d="M344.4,321.58a4.067,4.067,0,0,0,4.07,4.063v-8.127A4.067,4.067,0,0,0,344.4,321.58Z" transform="translate(-344.399 -317.517)" fill="#fe9737" fill-rule="evenodd"/>
      </g>
      <g id="Grupo_972619" data-name="Grupo 972619" transform="translate(0.664 7.877)">
        <path id="Trazado_737705" data-name="Trazado 737705" d="M7.942,22.306H51.049a.444.444,0,0,0,.444-.441V15.154a.444.444,0,0,0-.444-.441H7.942a.442.442,0,0,0-.442.441v6.712a.442.442,0,0,0,.442.441Z" transform="translate(-7.5 -14.713)" fill="#6bd9e7" fill-rule="evenodd"/>
      </g>
      <g id="Grupo_972620" data-name="Grupo 972620" transform="translate(41.272 7.877)">
        <path id="Trazado_737706" data-name="Trazado 737706" d="M469.646,21.866V15.154a.444.444,0,0,0-.444-.441h-2.941a.442.442,0,0,1,.442.441v6.712a.442.442,0,0,1-.442.441H469.2A.444.444,0,0,0,469.646,21.866Z" transform="translate(-466.261 -14.713)" fill="#00c7dd" fill-rule="evenodd"/>
      </g>
      <g id="Grupo_972621" data-name="Grupo 972621" transform="translate(0 7.213)">
        <path id="Trazado_737707" data-name="Trazado 737707" d="M44.213,7.213H1.105A1.106,1.106,0,0,0,0,8.318V15.03a1.106,1.106,0,0,0,1.105,1.1H21.254a.664.664,0,0,0,0-1.328H1.328V8.541H5.551l0,2.246a.664.664,0,0,0,.664.661h0a.664.664,0,0,0,.661-.667l0-2.24h5.249l-.015,2.268a.664.664,0,0,0,.664.661h0a.664.664,0,0,0,.661-.667l.015-2.262H18.7l-.01,2.266a.664.664,0,0,0,.664.661h0a.664.664,0,0,0,.661-.667l.01-2.26H25.28l0,2.252a.664.664,0,0,0,.664.661h0a.664.664,0,0,0,.661-.667l0-2.247h5.251l-.015,2.283a.664.664,0,0,0,.664.661h0a.664.664,0,0,0,.661-.667l.015-2.277h5.249l.01,2.268a.664.664,0,0,0,.664.661h0a.664.664,0,0,0,.661-.667l-.01-2.262h4.23v6.266H24.471a.664.664,0,0,0,0,1.328H44.213a1.108,1.108,0,0,0,1.108-1.1V8.318a1.108,1.108,0,0,0-1.108-1.1Z" transform="translate(0 -7.213)"/>
        <path id="Trazado_737708" data-name="Trazado 737708" d="M42.942,138.477H40.814a1.136,1.136,0,0,0-1.136,1.135v1.657H8.784v-1.657a1.136,1.136,0,0,0-1.136-1.135H5.521a3.878,3.878,0,0,0-3.876,3.871v24.685A3.876,3.876,0,0,0,5.521,170.9H42.942a3.878,3.878,0,0,0,3.878-3.868V142.348A3.879,3.879,0,0,0,42.942,138.477ZM2.973,142.348A2.548,2.548,0,0,1,5.521,139.8H7.456v23.357H5.521a3.862,3.862,0,0,0-2.548.956Zm39.969,27.226H5.521a2.542,2.542,0,1,1,0-5.084H7.648a1.136,1.136,0,0,0,1.136-1.135V142.6H39.679v20.759a1.136,1.136,0,0,0,1.136,1.135h2.128a2.542,2.542,0,1,1,0,5.084Zm2.55-5.455a3.866,3.866,0,0,0-2.55-.957H41.006V139.8h1.936a2.55,2.55,0,0,1,2.55,2.543Z" transform="translate(-1.499 -126.858)"/>
        <path id="Trazado_737709" data-name="Trazado 737709" d="M138.359,208.252H115.438a1.089,1.089,0,0,0-1.088,1.087v19.483a1.089,1.089,0,0,0,1.09,1.087l5.264-.015a.664.664,0,0,0,0-1.328h0l-5.022.014v-7.351h3.62v3.061a1.035,1.035,0,0,0,1.033,1.034h4.356a1.035,1.035,0,0,0,1.033-1.034v-2.213h3.638v6.5l-5.391.006a.664.664,0,0,0,0,1.328h0l5.968-.006a.673.673,0,0,0,.086.006.68.68,0,0,0,.087-.006l8.318-.009a1.013,1.013,0,0,0,1.02-1.072V209.339A1.089,1.089,0,0,0,138.359,208.252Zm-.24,17.069a3.4,3.4,0,0,1,0-6.668Zm0-11.01h-9.258V209.58h9.258Zm-22.441-4.731h5.085a5.792,5.792,0,0,1-5.085,5.071Zm15.007,18.994v-6.792a1.033,1.033,0,0,0-1.033-1.032h-4.228a1.033,1.033,0,0,0-1.033,1.032V224h-3.766v-2.9a1.2,1.2,0,0,0-1.2-1.195h-3.752v-3.917a7.119,7.119,0,0,0,6.419-6.4h5.437v4.949a1.111,1.111,0,0,0,1.11,1.11h9.476v1.669a4.725,4.725,0,0,0,0,9.359v1.9Z" transform="translate(-104.228 -190.457)"/>
      </g>
    </g>
  </g>
</svg>
