<svg xmlns="http://www.w3.org/2000/svg" width="80" height="80" viewBox="0 0 80 80">
  <g id="Grupo_972665" data-name="Grupo 972665" transform="translate(-2362 13760)">
    <g id="Elipse_6758" data-name="Elipse 6758" transform="translate(2362 -13760)" fill="#bfdb77" stroke="#fff" stroke-width="3">
      <circle cx="40" cy="40" r="40" stroke="none"/>
      <circle cx="40" cy="40" r="38.5" fill="none"/>
    </g>
    <g id="cronograma" transform="translate(2376.973 -13746.002)">
      <g id="Grupo_972635" data-name="Grupo 972635" transform="translate(0.777 0.754)">
        <g id="Grupo_972631" data-name="Grupo 972631" transform="translate(0 19.324)">
          <path id="Trazado_737795" data-name="Trazado 737795" d="M405.371,201.1a20.235,20.235,0,0,1,0,12.84q-4.957.137-9.913.217a36.275,36.275,0,0,0,0-13.275Q400.415,200.958,405.371,201.1Z" transform="translate(-356.463 -200.764)" fill="#95d6a4"/>
          <path id="Trazado_737796" data-name="Trazado 737796" d="M76.9,202.768c.817,4.425,2.012,3.316,1.2,7.741-1.492.024-4.178,2.671-5.67,2.688q-9.785.108-19.569-.005c-4.635-.054-5.871-3.543-10.506-3.672-1.394-4.28-1.394-.854,0-5.134,4.635-.128,5.871-4.527,10.506-4.581q9.785-.113,19.569-.005C73.92,199.816,75.411,202.743,76.9,202.768Z" transform="translate(-37.908 -199.747)" fill="#9dc6fb"/>
          <path id="Trazado_737797" data-name="Trazado 737797" d="M350.937,213.669c1.259-2.243,2.465-4.478,3.489-6.7-1.024-2.22-2.23-4.455-3.489-6.7q3.325.037,6.649.1a54.653,54.653,0,0,1,3.78,6.6,54.653,54.653,0,0,1-3.78,6.6" transform="translate(-316.417 -200.219)" fill="#dd636e"/>
          <path id="Trazado_737798" data-name="Trazado 737798" d="M25.076,207.014a56.787,56.787,0,0,0-2.634,6.693q-6.953-.081-13.905-.273a20.235,20.235,0,0,1,0-12.841q6.953-.192,13.905-.273A56.773,56.773,0,0,0,25.076,207.014Z" transform="translate(-7.491 -200.263)" fill="#f6e266"/>
        </g>
        <g id="Grupo_972632" data-name="Grupo 972632" transform="translate(2.768)">
          <path id="Trazado_737799" data-name="Trazado 737799" d="M47.726,18.66a82.784,82.784,0,0,1-10.638,0,2.016,2.016,0,0,1-1.877-1.819,37.663,37.663,0,0,1,0-7.362,2.016,2.016,0,0,1,1.877-1.819,82.783,82.783,0,0,1,10.638,0A2.016,2.016,0,0,1,49.6,9.48a37.647,37.647,0,0,1,0,7.362A2.016,2.016,0,0,1,47.726,18.66Z" transform="translate(-35.031 -7.49)" fill="#f6e266"/>
        </g>
        <g id="Grupo_972633" data-name="Grupo 972633" transform="translate(32.835 3.814)">
          <path id="Trazado_737800" data-name="Trazado 737800" d="M343.329,53.493a59.7,59.7,0,0,1-7.67,0,1.454,1.454,0,0,1-1.354-1.311,27.161,27.161,0,0,1,0-5.309,1.454,1.454,0,0,1,1.354-1.311,59.7,59.7,0,0,1,7.67,0,1.454,1.454,0,0,1,1.354,1.311,27.151,27.151,0,0,1,0,5.309A1.454,1.454,0,0,1,343.329,53.493Z" transform="translate(-334.175 -45.439)" fill="#dd636e"/>
        </g>
        <g id="Grupo_972634" data-name="Grupo 972634" transform="translate(13.984 37.167)">
          <path id="Trazado_737801" data-name="Trazado 737801" d="M160.934,389.865a93.306,93.306,0,0,1-11.993,0,2.273,2.273,0,0,1-2.116-2.05,42.463,42.463,0,0,1,0-8.3,2.273,2.273,0,0,1,2.116-2.05,93.306,93.306,0,0,1,11.993,0,2.273,2.273,0,0,1,2.116,2.05,42.446,42.446,0,0,1,0,8.3A2.273,2.273,0,0,1,160.934,389.865Z" transform="translate(-146.621 -377.271)" fill="#9dc6fb"/>
        </g>
      </g>
      <g id="Grupo_972636" data-name="Grupo 972636" transform="translate(0.027 0.002)">
        <path id="Trazado_737802" data-name="Trazado 737802" d="M50.4,20.176a.754.754,0,0,0-.7-.52l-1.428-.038h-.019a.754.754,0,0,0-.019,1.507l.886.023a19.519,19.519,0,0,1,0,11.363q-2.886.078-5.781.136a51.283,51.283,0,0,0,3.063-5.5.754.754,0,0,0,0-.641,51.284,51.284,0,0,0-3.064-5.5q.946.019,1.891.04h.017a.754.754,0,0,0,.017-1.508q-2.788-.063-5.585-.107V13.494q1.569-.019,3.13-.118a2.2,2.2,0,0,0,2.055-1.99,28.014,28.014,0,0,0,0-5.456,2.2,2.2,0,0,0-2.055-1.99,60.691,60.691,0,0,0-7.767,0,2.2,2.2,0,0,0-2.055,1.99,28.028,28.028,0,0,0,0,5.455,2.2,2.2,0,0,0,2.055,1.99q1.558.1,3.129.118v5.921c-8.814-.125-17.678-.117-26.5.026v-6.6c1.542-.014,3.082-.067,4.613-.166a2.761,2.761,0,0,0,2.579-2.5,38.568,38.568,0,0,0,0-7.509,2.761,2.761,0,0,0-2.579-2.5,83.926,83.926,0,0,0-10.734,0,2.761,2.761,0,0,0-2.579,2.5,38.568,38.568,0,0,0,0,7.509,2.761,2.761,0,0,0,2.579,2.5q2.3.148,4.614.166v6.623q-4.192.075-8.366.19a.754.754,0,0,0-.7.52,21.06,21.06,0,0,0,0,13.307.754.754,0,0,0,.7.52c1.84.051,3.652.095,5.387.132h.016a.754.754,0,0,0,.016-1.507c-1.562-.033-3.187-.073-4.839-.117a19.517,19.517,0,0,1,0-11.362q6.379-.172,12.8-.249a57.84,57.84,0,0,0,2.354,5.931,57.858,57.858,0,0,0-2.355,5.932q-2.48-.03-4.952-.075h-.014a.754.754,0,0,0-.013,1.508q6.039.109,12.123.132v2.846c-1.768.014-3.535.077-5.291.191a3.018,3.018,0,0,0-2.818,2.729,43.414,43.414,0,0,0,0,8.447,3.017,3.017,0,0,0,2.818,2.729c2.006.129,4.025.194,6.045.194s4.04-.065,6.045-.194a3.018,3.018,0,0,0,2.818-2.729,43.415,43.415,0,0,0,0-8.447,3.018,3.018,0,0,0-2.818-2.729c-1.756-.113-3.523-.176-5.291-.191V34.329c.63,0,1.26,0,1.891,0,8,0,16.025-.11,23.984-.33a.754.754,0,0,0,.7-.52,21.062,21.062,0,0,0,0-13.307ZM34.493,11.238a26.531,26.531,0,0,1,0-5.162.7.7,0,0,1,.652-.632c1.256-.081,2.522-.121,3.787-.121s2.53.04,3.787.121a.7.7,0,0,1,.652.632,26.517,26.517,0,0,1,0,5.162.7.7,0,0,1-.652.632,59.212,59.212,0,0,1-7.574,0A.7.7,0,0,1,34.493,11.238ZM4.476,10.033a37.089,37.089,0,0,1,0-7.215,1.259,1.259,0,0,1,1.175-1.14c1.748-.112,3.51-.169,5.27-.169s3.522.056,5.27.169a1.259,1.259,0,0,1,1.175,1.14,37.089,37.089,0,0,1,0,7.215,1.259,1.259,0,0,1-1.175,1.14,82.39,82.39,0,0,1-10.541,0A1.259,1.259,0,0,1,4.476,10.033ZM30.441,40.238a41.9,41.9,0,0,1,0,8.153,1.516,1.516,0,0,1-1.415,1.372,93.041,93.041,0,0,1-11.9,0,1.516,1.516,0,0,1-1.415-1.372,41.9,41.9,0,0,1,0-8.153,1.516,1.516,0,0,1,1.415-1.372c1.974-.127,3.961-.19,5.948-.19s3.975.064,5.948.19A1.516,1.516,0,0,1,30.441,40.238ZM44.892,26.829a53.931,53.931,0,0,1-3.358,5.852q-2.47.045-4.944.076c.953-1.724,1.978-3.653,2.882-5.612a.754.754,0,0,0,0-.632c-.9-1.959-1.929-3.888-2.882-5.612q2.475.031,4.944.076a53.936,53.936,0,0,1,3.358,5.852ZM16.763,32.779a59.827,59.827,0,0,1,2.285-5.636.754.754,0,0,0,0-.627,59.8,59.8,0,0,1-2.285-5.635q9.043-.093,18.09,0c1,1.791,2.119,3.852,3.1,5.948-.983,2.1-2.1,4.157-3.1,5.948C28.818,32.841,22.776,32.841,16.763,32.779Z" transform="translate(-0.027 -0.002)"/>
        <path id="Trazado_737803" data-name="Trazado 737803" d="M61.392,43.327h8.1a.754.754,0,1,0,0-1.508h-8.1a.754.754,0,1,0,0,1.508Z" transform="translate(-54.546 -37.616)"/>
        <path id="Trazado_737804" data-name="Trazado 737804" d="M66.879,71.754A.754.754,0,0,0,66.125,71H61.392a.754.754,0,0,0,0,1.508h4.734A.754.754,0,0,0,66.879,71.754Z" transform="translate(-54.546 -63.864)"/>
        <path id="Trazado_737805" data-name="Trazado 737805" d="M356.8,65.537h4.734a.754.754,0,1,0,0-1.508H356.8a.754.754,0,1,0,0,1.508Z" transform="translate(-320.262 -57.594)"/>
        <path id="Trazado_737806" data-name="Trazado 737806" d="M360.321,93.964a.754.754,0,0,0-.754-.754H356.8a.754.754,0,1,0,0,1.508h2.767A.754.754,0,0,0,360.321,93.964Z" transform="translate(-320.262 -83.842)"/>
        <path id="Trazado_737807" data-name="Trazado 737807" d="M190.433,433.38h-8.1a.754.754,0,1,0,0,1.508h8.1a.754.754,0,1,0,0-1.508Z" transform="translate(-163.334 -389.821)"/>
        <path id="Trazado_737808" data-name="Trazado 737808" d="M181.581,403.95a.754.754,0,0,0,.754.754h8.1a.754.754,0,0,0,0-1.508h-8.1A.754.754,0,0,0,181.581,403.95Z" transform="translate(-163.333 -362.671)"/>
        <path id="Trazado_737809" data-name="Trazado 737809" d="M187.068,463.565h-4.733a.754.754,0,1,0,0,1.508h4.733a.754.754,0,1,0,0-1.508Z" transform="translate(-163.333 -416.972)"/>
      </g>
    </g>
  </g>
</svg>
