<svg xmlns="http://www.w3.org/2000/svg" width="120" height="120" viewBox="0 0 120 120">
  <g id="Grupo_972862" data-name="Grupo 972862" transform="translate(-3632 14691)">
    <rect id="Rectángulo_343218" data-name="Rectángulo 343218" width="120" height="120" rx="10" transform="translate(3632 -14691)" fill="#edf2f7"/>
    <g id="Layer_1" data-name="Layer 1" transform="translate(3650.742 -14675.212)">
      <path id="Trazado_738275" data-name="Trazado 738275" d="M316.8,313.515l-3.19,3.19-8.489-8.489,3.19-3.19Z" transform="translate(-253.206 -253.053)" fill="#bfbfbf"/>
      <path id="Trazado_738276" data-name="Trazado 738276" d="M315.234,323.428l-1.621,1.621-8.489-8.489,1.621-1.621Z" transform="translate(-253.208 -261.397)" fill="#8c8c8c"/>
      <path id="Trazado_738277" data-name="Trazado 738277" d="M67.865,39.674a28.29,28.29,0,1,1-28.29-28.29A28.29,28.29,0,0,1,67.865,39.674Z" transform="translate(-5.88 -5.892)" fill="#52c194"/>
      <path id="Trazado_738278" data-name="Trazado 738278" d="M41.254,67.913c-.556.032-1.115.051-1.679.051a28.29,28.29,0,0,1,0-56.58c.564,0,1.124.019,1.679.051a28.289,28.289,0,0,0,0,56.478Z" transform="translate(-5.88 -5.892)" fill="#4da6ff"/>
      <path id="Trazado_738279" data-name="Trazado 738279" d="M93.766,71.574A22.291,22.291,0,1,1,71.475,49.283,22.291,22.291,0,0,1,93.766,71.574Z" transform="translate(-37.78 -37.792)" fill="#f5f5f5"/>
      <path id="Trazado_738280" data-name="Trazado 738280" d="M73.256,93.794q-.881.069-1.781.071a22.291,22.291,0,1,1,0-44.582q.9,0,1.781.071a22.291,22.291,0,0,0,0,44.44Z" transform="translate(-37.78 -37.792)" fill="#e6e6e6"/>
      <path id="Trazado_738281" data-name="Trazado 738281" d="M364.271,370.731,348.91,355.37a1.013,1.013,0,0,1,0-1.432l.3-.3,4.518-4.518.3-.3a1.013,1.013,0,0,1,1.432,0l15.361,15.361c5.127,5.127-1.432,11.685-6.558,6.558Z" transform="translate(-289.813 -289.659)" fill="#393939"/>
      <path id="Trazado_738282" data-name="Trazado 738282" d="M371.345,390.26c-1.649,1.6-4.536,1.923-7.073-.614L348.91,374.285a1.013,1.013,0,0,1,0-1.432l.3-.3,1.562-1.561a1.013,1.013,0,0,0,0,1.432l15.361,15.361A8.451,8.451,0,0,0,371.345,390.26Z" transform="translate(-289.813 -308.573)" fill="#343434"/>
      <path id="Trazado_738283" data-name="Trazado 738283" d="M46.81,167.207l19.739,33.207a4.694,4.694,0,0,1-4.035,7.091H23.037A4.694,4.694,0,0,1,19,200.413l19.738-33.207a4.694,4.694,0,0,1,8.07,0Z" transform="translate(-11.822 -135.117)" fill="#ffdf40"/>
      <path id="Trazado_738284" data-name="Trazado 738284" d="M25.112,207.488H23.037A4.694,4.694,0,0,1,19,200.4L38.741,167.19a4.692,4.692,0,0,1,5.893-1.915,4.631,4.631,0,0,0-2.6,2.074L22.3,200.555a4.7,4.7,0,0,0,2.814,6.933Z" transform="translate(-11.822 -135.1)" fill="#ffbe40"/>
      <path id="Trazado_738285" data-name="Trazado 738285" d="M157.511,236.517a2.341,2.341,0,1,1-2.341-2.341,2.341,2.341,0,0,1,2.341,2.341Zm.954-26.732a3.3,3.3,0,1,0-6.591,0c0,.115.955,18.547.955,18.547a2.341,2.341,0,1,0,4.681,0S158.466,209.9,158.466,209.785Z" transform="translate(-124.216 -170.115)" fill="#ff5959"/>
      <path id="Trazado_738286" data-name="Trazado 738286" d="M152.829,228.332s-.954-18.431-.954-18.547a3.3,3.3,0,0,1,3.3-3.3v24.183A2.341,2.341,0,0,1,152.829,228.332Zm2.341,5.845a2.341,2.341,0,1,0,0,4.682Z" transform="translate(-124.216 -170.115)" fill="#e63a57"/>
      <path id="Trazado_738287" data-name="Trazado 738287" d="M81.8,73.731,66.441,58.369a2.121,2.121,0,0,0-3,0l-.185.185-6.52-6.521a29.4,29.4,0,1,0-44.225,2.129L6.23,64.73A5.8,5.8,0,0,0,11.218,73.5H50.7a5.8,5.8,0,0,0,4.987-8.766l-4.395-7.393q.354-.265.7-.539L58.5,63.311l-.185.185a2.121,2.121,0,0,0,0,3L73.678,81.856a6.825,6.825,0,0,0,4.67,2.183h.118a5.477,5.477,0,0,0,3.9-1.619c2.019-2.019,2.473-5.653-.565-8.691Zm-27.99-4.263A3.546,3.546,0,0,1,50.7,71.28H11.218a3.586,3.586,0,0,1-3.082-5.418L27.874,32.656a3.585,3.585,0,0,1,6.164,0L53.777,65.862A3.546,3.546,0,0,1,53.812,69.467ZM35.944,31.523a5.8,5.8,0,0,0-9.974,0L16.889,46.8A21.268,21.268,0,1,1,47.1,50.286Zm12.3,20.684a23.486,23.486,0,1,0-32.554-3.374l-2,3.348a27.183,27.183,0,1,1,36.458,3.237Zm5.432,3.14q.844-.783,1.621-1.624l6.4,6.4-1.623,1.623ZM80.8,80.855a3.267,3.267,0,0,1-2.409.969,4.668,4.668,0,0,1-3.148-1.535L59.95,65,64.942,60,80.236,75.3a4.674,4.674,0,0,1,1.535,3.148,3.283,3.283,0,0,1-.97,2.409Zm-49.844-17.9A3.449,3.449,0,1,0,34.406,66.4,3.449,3.449,0,0,0,30.957,62.954Zm0,4.681A1.233,1.233,0,1,1,32.189,66.4a1.233,1.233,0,0,1-1.233,1.233Zm-4.4-27.965c0,.039,0,.145.955,18.578a3.449,3.449,0,1,0,6.9,0c.955-18.433.955-18.539.955-18.578a4.4,4.4,0,0,0-8.807,0Zm6.59-.019c-.026.589-.632,12.318-.953,18.509,0,.019,0,.038,0,.057a1.233,1.233,0,1,1-2.465,0c0-.019,0-.038,0-.057-.32-6.19-.927-17.918-.953-18.508a2.187,2.187,0,1,1,4.374,0Z"/>
    </g>
  </g>
</svg>
