<svg xmlns="http://www.w3.org/2000/svg" width="120" height="120" viewBox="0 0 120 120">
  <g id="Grupo_972861" data-name="Grupo 972861" transform="translate(-3632 14276)">
    <rect id="Rectángulo_343219" data-name="Rectángulo 343219" width="120" height="120" rx="10" transform="translate(3632 -14276)" fill="#edf2f7"/>
    <g id="ambiental" transform="translate(3643.297 -14263.855)">
      <g id="Grupo_972853" data-name="Grupo 972853" transform="translate(10.294 8.641)">
        <g id="Grupo_972850" data-name="Grupo 972850" transform="translate(2.481 2.486)">
          <circle id="Elipse_6859" data-name="Elipse 6859" cx="25.403" cy="25.403" r="25.403" transform="translate(0 35.919) rotate(-45)" fill="#f6b84d"/>
          <path id="Trazado_738288" data-name="Trazado 738288" d="M250.473,92.909a25.4,25.4,0,1,1,0,50.805c-.355,0-.707-.009-1.058-.024a25.4,25.4,0,0,0,0-50.758C249.766,92.918,250.119,92.909,250.473,92.909Z" transform="translate(-214.545 -82.392)" fill="#60b7ff" fill-rule="evenodd"/>
        </g>
        <g id="Grupo_972851" data-name="Grupo 972851" transform="translate(0 0)">
          <path id="Trazado_738289" data-name="Trazado 738289" d="M92.449,18.732A31.646,31.646,0,0,0,65.972,33.018l-4.843-4.843a38.409,38.409,0,1,1,55.55,52.035l2.1,2.1a.775.775,0,0,1-.456,1.317l-9.6,1.142a.775.775,0,0,1-.861-.861l1.142-9.6a.774.774,0,0,1,1.317-.456l1.563,1.563A31.676,31.676,0,0,0,92.449,18.732Z" transform="translate(-54.039 -12.002)" fill="#bfdb77" fill-rule="evenodd"/>
          <path id="Trazado_738290" data-name="Trazado 738290" d="M111.306,44.974A31.646,31.646,0,0,0,84.829,59.259L83.6,58.027a33.384,33.384,0,1,1,48.364,44.849l-1.216-1.216a31.676,31.676,0,0,0-19.439-56.686Zm16.622,66,1.1-9.256a.774.774,0,0,1,1.317-.456l-1.164-1.164a.774.774,0,0,0-1.317.456l-1.142,9.6a.775.775,0,0,0,.861.861Z" transform="translate(-72.896 -38.243)" fill="#52c194" fill-rule="evenodd"/>
          <path id="Trazado_738291" data-name="Trazado 738291" d="M55.421,103.155A31.646,31.646,0,0,0,81.9,88.869l4.843,4.843a38.409,38.409,0,1,1-55.55-52.035l-2.1-2.1a.775.775,0,0,1,.456-1.317l9.6-1.142a.775.775,0,0,1,.861.861l-1.142,9.6a.774.774,0,0,1-1.317.456l-1.563-1.563a31.675,31.675,0,0,0,19.439,56.686Z" transform="translate(-17.014 -33.074)" fill="#52c194" fill-rule="evenodd"/>
          <path id="Trazado_738292" data-name="Trazado 738292" d="M81.671,103.155a31.646,31.646,0,0,0,26.477-14.285L109.38,90.1A33.384,33.384,0,1,1,61.016,45.253l1.216,1.216a31.676,31.676,0,0,0,19.439,56.686Zm-16.622-66-1.1,9.256a.774.774,0,0,1-1.317.456L63.8,48.032a.774.774,0,0,0,1.317-.456l1.142-9.6a.775.775,0,0,0-.861-.861Z" transform="translate(-43.263 -33.074)" fill="#336367" fill-rule="evenodd"/>
          <path id="Trazado_738293" data-name="Trazado 738293" d="M372.62,332.185a38.49,38.49,0,0,1-11.9,16.749l2.1,2.1a.775.775,0,0,1-.456,1.317l-9.6,1.142a.775.775,0,0,1-.861-.861l1.142-9.6a.774.774,0,0,1,1.317-.456l1.563,1.563a31.8,31.8,0,0,0,9.431-11.958Z" transform="translate(-298.078 -280.727)" fill="#bfdb77" fill-rule="evenodd"/>
          <path id="Trazado_738294" data-name="Trazado 738294" d="M367.219,332.185a33.491,33.491,0,0,1-10.078,13.174l-1.216-1.216a31.8,31.8,0,0,0,9.431-11.958Zm-14.111,21.271-.344.041a.775.775,0,0,1-.861-.861l1.142-9.6a.774.774,0,0,1,1.317-.456l1.164,1.164a.774.774,0,0,0-1.317.456Z" transform="translate(-298.077 -280.727)" fill="#fd4755" fill-rule="evenodd"/>
        </g>
        <g id="Grupo_972852" data-name="Grupo 972852" transform="translate(10.302 44.283)">
          <path id="Trazado_738295" data-name="Trazado 738295" d="M107.549,306.3c-16.3,4.109-17.348-12.7-26.234-16.256a.319.319,0,0,1,.041-.606C87.721,287.875,107.549,284.388,107.549,306.3Z" transform="translate(-81.115 -288.13)" fill="#c2ed56" fill-rule="evenodd"/>
          <path id="Trazado_738296" data-name="Trazado 738296" d="M105.6,316.264c-13.477,1.432-14.933-13.473-23.24-16.8C96.6,300.333,92.822,315.473,105.6,316.264Z" transform="translate(-82.163 -297.548)" fill="#b7e546" fill-rule="evenodd"/>
          <path id="Trazado_738297" data-name="Trazado 738297" d="M256.765,310.608c16.811-.25,13.471-16.755,21.133-22.492a.319.319,0,0,0-.2-.574C271.149,287.677,251.094,289.441,256.765,310.608Z" transform="translate(-227.698 -287.542)" fill="#c2ed56" fill-rule="evenodd"/>
          <path id="Trazado_738298" data-name="Trazado 738298" d="M280.847,313.359c13.388-2.1,10.937-16.879,18.1-22.242C285.425,295.64,292.989,309.287,280.847,313.359Z" transform="translate(-248.747 -290.542)" fill="#b7e546" fill-rule="evenodd"/>
        </g>
      </g>
      <path id="Trazado_738299" data-name="Trazado 738299" d="M72.119,76.493a1.283,1.283,0,0,0-.091,1.9L73.39,79.76l-7.913.942.938-7.915.817.818a1.283,1.283,0,0,0,1.694.107,32.963,32.963,0,0,0-34.82-55.58l.454-3.8a2.013,2.013,0,0,0-.106-.926,36.707,36.707,0,0,1,14.252-2.837A37.121,37.121,0,0,1,72.119,76.493ZM27.45,63.746c-2.194-3.049-4.267-5.927-7.164-7.086a1.641,1.641,0,0,1-.87-.852A30.444,30.444,0,0,0,48.7,78.078c.053,0,.1,0,.144,0a22,22,0,0,0-1.778-3.751,26.893,26.893,0,0,1-4.425-.643c-.113,0-.234.007-.348.007a13.728,13.728,0,0,1-7.61-2.175C31.625,69.555,29.5,66.6,27.45,63.746ZM24.621,48.976h7.943a31,31,0,0,0,.356,3.56,32.93,32.93,0,0,0-7.807.192A25,25,0,0,1,24.621,48.976ZM30.649,31.72A23.979,23.979,0,0,0,24.62,46.406h7.943a30.879,30.879,0,0,1,3.162-12.439A28.52,28.52,0,0,1,30.649,31.72Zm6.324-.025a31.335,31.335,0,0,1,6.362-7.519,24.107,24.107,0,0,0-10.817,5.646A27.3,27.3,0,0,0,36.974,31.695Zm23.458,0a27.315,27.315,0,0,0,4.456-1.872A24.111,24.111,0,0,0,54.07,24.176,31.168,31.168,0,0,1,60.432,31.7Zm4.418,14.71h7.935a24.057,24.057,0,0,0-6.022-14.685,28.767,28.767,0,0,1-5.083,2.245,30.885,30.885,0,0,1,3.17,12.439Zm7.3,6.934a24.67,24.67,0,0,0,.635-4.364H64.842a30.945,30.945,0,0,1-.4,3.837,43.883,43.883,0,0,1,6.158-.557A1.606,1.606,0,0,1,72.149,53.34ZM66.771,63.663A24.1,24.1,0,0,0,71.65,55.1c-.023.017-.038.036-.061.051-2.428,1.821-3.684,5.016-4.978,8.425C66.665,63.6,66.718,63.632,66.771,63.663Zm-7.5.053a1.274,1.274,0,0,1,0,1.815,38.154,38.154,0,0,0-7.413,9.693c7.966-.966,10.053-6.48,12.255-12.292,1.067-2.831,2.171-5.737,4.017-7.984-4.978.392-11.854,1.822-15.545,6.472a12.545,12.545,0,0,0-2.595,6.917v2.949q.023.238.045.48c.288-.016.575-.036.862-.061a45.451,45.451,0,0,1,6.559-7.991A1.283,1.283,0,0,1,59.267,63.716ZM47.42,48.976H35.135a29.34,29.34,0,0,0,.461,4,16.348,16.348,0,0,1,6.521,2.994,14.33,14.33,0,0,1,3.215,3.543c.688-.051,1.392-.086,2.088-.106V48.976Zm0-13.02A42.243,42.243,0,0,1,38.207,34.7a28.238,28.238,0,0,0-3.071,11.709H47.42Zm0-11.694a28.419,28.419,0,0,0-7.9,8.147,39.521,39.521,0,0,0,7.9,1.027Zm2.564,9.174a39.4,39.4,0,0,0,7.9-1.027,28.426,28.426,0,0,0-7.9-8.147Zm0,12.97H62.277A28.251,28.251,0,0,0,59.2,34.7a42.253,42.253,0,0,1-9.214,1.258ZM47.42,64.271V61.979c-.265.008-.522.018-.787.03A19.809,19.809,0,0,1,47.42,64.271Zm3.465-4.828c2.8-3.277,6.869-5.089,10.848-6.074a29.4,29.4,0,0,0,.537-4.394H49.985V59.407c.3.01.605.021.9.036Zm-10.356-1.45c-4.766-3.736-11.922-3.349-16.937-2.421,2.36,1.691,4.176,4.216,5.946,6.676,3.631,5.049,7.073,9.841,15.039,8.7a38.552,38.552,0,0,0-9.69-7.442,1.285,1.285,0,0,1,1.286-2.225,42.745,42.745,0,0,1,9.411,6.993C45.038,63.65,43.343,60.2,40.529,57.993ZM65.364,69.736a2.045,2.045,0,0,1,2.126.49l.741.746A30.391,30.391,0,0,0,33.736,21.237l-.318,2.7a2.062,2.062,0,0,1-3.5,1.212l-.741-.746a30.4,30.4,0,0,0-9.88,30.959,1.391,1.391,0,0,1-.008-.307,1.6,1.6,0,0,1,1.2-1.444c.635-.157,1.331-.314,2.088-.462a26.687,26.687,0,1,1,52.809-5.46A26.7,26.7,0,0,1,64.1,69.484a17.8,17.8,0,0,1-2.564,3.73A14.718,14.718,0,0,1,51.46,77.849c.008.032.023.064.03.1A30.3,30.3,0,0,0,63.669,74.14l.318-2.7a2.04,2.04,0,0,1,1.377-1.707ZM62.951,81.974a2.067,2.067,0,0,1-.106-.939l.454-3.79a32.944,32.944,0,0,1-11.09,3.214,36.173,36.173,0,0,1,.726,4.114,36.463,36.463,0,0,0,10.016-2.6ZM11.579,47.686A37.162,37.162,0,0,0,48.7,84.809c.567,0,1.12-.016,1.679-.04a34.339,34.339,0,0,0-.756-4.136c-.3.008-.613.013-.923.013a32.959,32.959,0,0,1-20.228-58.98,1.291,1.291,0,0,1,1.7.106l.817.819.946-7.916-7.92.943,1.362,1.361a1.3,1.3,0,0,1,.378.974,1.284,1.284,0,0,1-.477.93,37,37,0,0,0-13.7,28.8Zm76.819,0A39.7,39.7,0,0,0,30.9,12.21l-8.223.98a2.056,2.056,0,0,0-1.218,3.5l1.112,1.116A39.694,39.694,0,0,0,48.7,87.38c.741,0,1.483-.023,2.216-.061a1.267,1.267,0,0,0,.915.394c.038,0,.076,0,.113-.005a1.277,1.277,0,0,0,.946-.548,39.092,39.092,0,0,0,13.616-3.994l8.23-.98a2.062,2.062,0,0,0,1.211-3.5l-1.12-1.116A39.552,39.552,0,0,0,88.4,47.69Z" fill-rule="evenodd"/>
    </g>
  </g>
</svg>
