<svg xmlns="http://www.w3.org/2000/svg" width="80" height="80" viewBox="0 0 80 80">
  <g id="Grupo_972664" data-name="Grupo 972664" transform="translate(-2693 13760)">
    <g id="Elipse_6759" data-name="Elipse 6759" transform="translate(2693 -13760)" fill="#bfdb77" stroke="#fff" stroke-width="3">
      <circle cx="40" cy="40" r="40" stroke="none"/>
      <circle cx="40" cy="40" r="38.5" fill="none"/>
    </g>
    <g id="presupuesto" transform="translate(2708 -13745)">
      <g id="Grupo_972646" data-name="Grupo 972646" transform="translate(1.765 1.765)">
        <g id="Grupo_972637" data-name="Grupo 972637" transform="translate(31.358 8.413)">
          <path id="Trazado_737810" data-name="Trazado 737810" d="M47.13,16.671a2.295,2.295,0,0,1-4.1-1A2.01,2.01,0,0,1,43,15.294a2.294,2.294,0,1,1,4.13,1.377Z" transform="translate(-43 -13)" fill="#fcd770"/>
        </g>
        <g id="Grupo_972638" data-name="Grupo 972638" transform="translate(22.18 9.943)">
          <path id="Trazado_737811" data-name="Trazado 737811" d="M35.558,16.92a2.011,2.011,0,0,1,.031.375,2.294,2.294,0,0,1-4.589,0A2.308,2.308,0,0,1,33.294,15,2.3,2.3,0,0,1,35.558,16.92Z" transform="translate(-31 -15)" fill="#fcd770"/>
        </g>
        <g id="Grupo_972639" data-name="Grupo 972639" transform="translate(0 0)">
          <path id="Trazado_737812" data-name="Trazado 737812" d="M17.3,9.648A7.648,7.648,0,1,1,9.648,2,7.6,7.6,0,0,1,17.3,9.648Z" transform="translate(-2 -2)" fill="#fcd770"/>
        </g>
        <g id="Grupo_972640" data-name="Grupo 972640" transform="translate(39.771 26.004)">
          <path id="Trazado_737813" data-name="Trazado 737813" d="M54,36h6.119V55.885H54Z" transform="translate(-54 -36)" fill="#ff826e"/>
        </g>
        <g id="Grupo_972641" data-name="Grupo 972641" transform="translate(30.593 19.121)">
          <path id="Trazado_737814" data-name="Trazado 737814" d="M42,27h6.119V53.769H42Z" transform="translate(-42 -27)" fill="#ff826e"/>
        </g>
        <g id="Grupo_972642" data-name="Grupo 972642" transform="translate(21.415 22.945)">
          <path id="Trazado_737815" data-name="Trazado 737815" d="M30,32h6.119V54.945H30Z" transform="translate(-30 -32)" fill="#ff826e"/>
        </g>
        <g id="Grupo_972643" data-name="Grupo 972643" transform="translate(10.708 18.356)">
          <path id="Trazado_737816" data-name="Trazado 737816" d="M23.648,26V53.534H17.53V52.371a6.88,6.88,0,0,0,1.683-9.851L16,38.237l2.424-2.424a2.16,2.16,0,0,0-.918-3.6l.023-.092V26Z" transform="translate(-16 -26)" fill="#ff826e"/>
        </g>
        <g id="Grupo_972644" data-name="Grupo 972644" transform="translate(3.059 22.945)">
          <path id="Trazado_737817" data-name="Trazado 737817" d="M12.057,33.53h2.486a2.008,2.008,0,0,1,.612.092,2.16,2.16,0,0,1,.918,3.6l-2.424,2.424H7.53L6.076,34.562A1.879,1.879,0,0,1,6,34.011,2.011,2.011,0,0,1,8.011,32h2.1a2.009,2.009,0,0,1,1.95,1.53Z" transform="translate(-6 -32)" fill="#a0d468"/>
        </g>
        <g id="Grupo_972645" data-name="Grupo 972645" transform="translate(0 30.593)">
          <path id="Trazado_737818" data-name="Trazado 737818" d="M6.589,42h6.119l3.212,4.283A6.886,6.886,0,0,1,10.413,57.3H8.883A6.883,6.883,0,0,1,3.377,46.283Z" transform="translate(-2 -42)" fill="#b4dd7f"/>
        </g>
      </g>
      <g id="Grupo_972647" data-name="Grupo 972647" transform="translate(1 1)">
        <path id="Trazado_737819" data-name="Trazado 737819" d="M10.53,14.067v1.641h1.53V14.067a2.175,2.175,0,0,0,.323-4.024L10.891,9.3a.653.653,0,0,1,.291-1.237h.223a.654.654,0,0,1,.654.653v.112h1.53V8.712a2.179,2.179,0,0,0-1.53-2.072V5H10.53V6.641a2.175,2.175,0,0,0-.323,4.024l1.491.746a.653.653,0,0,1-.291,1.237h-.223A.654.654,0,0,1,10.53,12v-.876H9V12A2.179,2.179,0,0,0,10.53,14.067Z" transform="translate(-2.881 -1.941)"/>
        <path id="Trazado_737820" data-name="Trazado 737820" d="M12.059,46.641V45H10.53v1.641a2.175,2.175,0,0,0-.323,4.024l1.491.746a.653.653,0,0,1-.291,1.237h-.223A.655.655,0,0,1,10.53,52v-.876H9V52a2.177,2.177,0,0,0,1.53,2.072v1.641h1.53V54.067a2.175,2.175,0,0,0,.323-4.024L10.891,49.3a.653.653,0,0,1,.291-1.237h.223a.655.655,0,0,1,.654.653v.112h1.53v-.112A2.179,2.179,0,0,0,12.059,46.641Z" transform="translate(-2.881 -11.348)"/>
        <path id="Trazado_737821" data-name="Trazado 737821" d="M9.413,17.826a8.42,8.42,0,0,0,7.872-5.473l5.9,1.608c0,.014,0,.027,0,.041a3.051,3.051,0,0,0,6.091.27l3.355-.559a3.059,3.059,0,0,0,2.791,1.819,3.027,3.027,0,0,0,1.9-.68l8.45,6.337-2.826.471.251,1.509,5.343-.891-.89-5.343-1.509.252.451,2.707-8.343-6.257a3.029,3.029,0,0,0,.233-1.164,3.051,3.051,0,0,0-6.091-.27l-3.355.559a3.042,3.042,0,0,0-5.433-.273L17.69,10.878a8.409,8.409,0,1,0-8.277,6.948Zm26-6.883a1.53,1.53,0,1,1-1.53,1.53A1.531,1.531,0,0,1,35.417,10.943Zm-9.178,1.53A1.53,1.53,0,1,1,24.709,14,1.531,1.531,0,0,1,26.239,12.472ZM9.413,2.53A6.883,6.883,0,1,1,2.53,9.413,6.891,6.891,0,0,1,9.413,2.53Z" transform="translate(-1 -1)"/>
        <path id="Trazado_737822" data-name="Trazado 737822" d="M13.237,31.119H11.4a2.771,2.771,0,0,0-2.468-1.53H6.837a2.777,2.777,0,0,0-2.671,3.54l1.348,4.718L2.53,41.826A7.648,7.648,0,0,0,8.648,54.063h1.53a7.594,7.594,0,0,0,3.059-.643v.643h7.648V25H13.237Zm-6.4,0H8.93a1.249,1.249,0,0,1,1.248,1.248v1.811h1.53v-1.53h1.661a1.4,1.4,0,0,1,.989,2.387l-2.2,2.2H6.931L5.637,32.709a1.231,1.231,0,0,1-.048-.342,1.249,1.249,0,0,1,1.248-1.248ZM8.648,52.534a6.119,6.119,0,0,1-4.895-9.79l2.983-3.976H12.09l2.983,3.976a6.119,6.119,0,0,1-4.895,9.79Zm10.708-26v26H14.767v-.015A7.631,7.631,0,0,0,16.3,41.826l-2.815-3.752,1.957-1.957a2.912,2.912,0,0,0-.672-4.626V26.53Z" transform="translate(-1 -6.644)"/>
        <path id="Trazado_737823" data-name="Trazado 737823" d="M29,55.474h7.648V31H29ZM30.53,32.53h4.589V53.945H30.53Z" transform="translate(-7.585 -8.055)"/>
        <path id="Trazado_737824" data-name="Trazado 737824" d="M41,54.3h7.648V26H41ZM42.53,27.53h4.589V52.769H42.53Z" transform="translate(-10.407 -6.879)"/>
        <path id="Trazado_737825" data-name="Trazado 737825" d="M53,56.415h7.648V35H53ZM54.53,36.53h4.589V54.885H54.53Z" transform="translate(-13.229 -8.996)"/>
      </g>
    </g>
  </g>
</svg>
