<svg xmlns="http://www.w3.org/2000/svg" width="77" height="77" viewBox="0 0 77 77">
  <g id="Grupo_972840" data-name="Grupo 972840" transform="translate(-643 -2485)">
    <circle id="Elipse_6835" data-name="Elipse 6835" cx="38.5" cy="38.5" r="38.5" transform="translate(643 2485)" fill="#e2eacb"/>
    <g id="documento-legal" transform="translate(658.857 2499.889)">
      <g id="Grupo_972837" data-name="Grupo 972837" transform="translate(0.676 0.72)">
        <path id="Trazado_738226" data-name="Trazado 738226" d="M386.9,346.831l7.18,5.707a2.675,2.675,0,1,1-3.749,3.758l-5.885-7.5Z" transform="translate(-350.475 -316.254)" fill="#c7865b"/>
        <path id="Trazado_738227" data-name="Trazado 738227" d="M389.041,348.533l-2.689,2.688-1.9-2.424,2.454-1.963Z" transform="translate(-350.478 -316.256)" fill="#bf7d51"/>
        <path id="Trazado_738228" data-name="Trazado 738228" d="M7.5,11.146a3.624,3.624,0,0,1,3.646-3.6H27.108a2.751,2.751,0,0,1,1.936.794L39.415,18.609a2.687,2.687,0,0,1,.8,1.909v22.49l-.9.345.9.383V47.11a3.626,3.626,0,0,1-3.675,3.6L20.649,50.6h-9.5A3.624,3.624,0,0,1,7.5,47Z" transform="translate(-7.5 -7.543)" fill="#e1ebf0"/>
        <path id="Trazado_738229" data-name="Trazado 738229" d="M9.3,11.147V47a3.624,3.624,0,0,0,3.645,3.6h-1.8A3.624,3.624,0,0,1,7.5,47V11.147a3.624,3.624,0,0,1,3.645-3.6h1.8a3.624,3.624,0,0,0-3.645,3.6Z" transform="translate(-7.5 -7.544)" fill="#d2e4e7"/>
        <path id="Trazado_738230" data-name="Trazado 738230" d="M169.6,485.4c-.1.008-.2.012-.306.011L153.4,485.3h1.8Z" transform="translate(-140.251 -442.247)" fill="#b4d2d7"/>
        <path id="Trazado_738231" data-name="Trazado 738231" d="M249.387,21.867h-9.262a2.454,2.454,0,0,1-2.465-2.441V10.254a2.7,2.7,0,0,1,.8.549l10.371,10.273A2.678,2.678,0,0,1,249.387,21.867Z" transform="translate(-216.917 -10.01)" fill="#d2e4e7"/>
        <g id="Grupo_972833" data-name="Grupo 972833" transform="translate(5.476 11.253)">
          <path id="Trazado_738232" data-name="Trazado 738232" d="M79.309,133.756H68.937a.676.676,0,1,1,0-1.352H79.309a.676.676,0,0,1,0,1.352Z" transform="translate(-68.261 -132.404)" fill="#b4d2d7"/>
        </g>
        <g id="Grupo_972834" data-name="Grupo 972834" transform="translate(5.476 27.475)">
          <path id="Trazado_738233" data-name="Trazado 738233" d="M80.211,313.756H68.937a.676.676,0,0,1,0-1.352H80.211a.676.676,0,0,1,0,1.352Z" transform="translate(-68.261 -312.404)" fill="#b4d2d7"/>
        </g>
        <g id="Grupo_972835" data-name="Grupo 972835" transform="translate(5.294 22.068)">
          <path id="Trazado_738234" data-name="Trazado 738234" d="M82.772,253.756H66.914a.676.676,0,1,1,0-1.352H82.772a.676.676,0,1,1,0,1.352Z" transform="translate(-66.238 -252.404)" fill="#b4d2d7"/>
        </g>
        <g id="Grupo_972836" data-name="Grupo 972836" transform="translate(5.294 32.882)">
          <path id="Trazado_738235" data-name="Trazado 738235" d="M80.068,373.756H66.914a.676.676,0,0,1,0-1.352H80.068a.676.676,0,0,1,0,1.352Z" transform="translate(-66.238 -372.404)" fill="#b4d2d7"/>
        </g>
        <path id="Trazado_738236" data-name="Trazado 738236" d="M306.647,259.506l-6.9,6.9-3.917-3.015-2.858-3.758,6.921-6.918,4.437,3.554Z" transform="translate(-267.243 -230.619)" fill="#f5de46"/>
        <path id="Trazado_738237" data-name="Trazado 738237" d="M0,0H1.912V9.579H0Z" transform="translate(25.722 29.013) rotate(-45)" fill="#f3d332"/>
        <path id="Trazado_738238" data-name="Trazado 738238" d="M270.93,334.4h0a1.578,1.578,0,0,1-2.186.244l-6.9-6.9a1.573,1.573,0,0,1,.243-2.185h0a1.576,1.576,0,0,1,2.185-.244l.066.066,6.775,6.773.064.064A1.573,1.573,0,0,1,270.93,334.4Z" transform="translate(-238.608 -296.367)" fill="#c7865b"/>
        <path id="Trazado_738239" data-name="Trazado 738239" d="M271.442,334.3a2.012,2.012,0,0,1-.512.84h0a1.578,1.578,0,0,1-2.186.244l-6.9-6.9a1.573,1.573,0,0,1,.243-2.185h0a2.019,2.019,0,0,1,.84-.511,1.322,1.322,0,0,0,.268,1.345l6.9,6.9A1.328,1.328,0,0,0,271.442,334.3Z" transform="translate(-238.608 -297.103)" fill="#bf7d51"/>
        <path id="Trazado_738240" data-name="Trazado 738240" d="M374.57,230.5h0a1.564,1.564,0,0,1-2.18.243l-.053-.053-6.756-6.792-.076-.077a1.586,1.586,0,0,1,.243-2.192h0a1.563,1.563,0,0,1,2.179-.244l6.885,6.922A1.584,1.584,0,0,1,374.57,230.5Z" transform="translate(-332.933 -201.801)" fill="#c7865b"/>
        <path id="Trazado_738241" data-name="Trazado 738241" d="M375.08,230.38a2.027,2.027,0,0,1-.509.837h0a1.564,1.564,0,0,1-2.18.243l-.053-.053-6.756-6.792-.076-.077a1.586,1.586,0,0,1,.243-2.192h0a2.014,2.014,0,0,1,.843-.515,1.336,1.336,0,0,0,.265,1.355l.076.077,6.756,6.792.053.053A1.313,1.313,0,0,0,375.08,230.38Z" transform="translate(-332.933 -202.522)" fill="#bf7d51"/>
        <path id="Trazado_738242" data-name="Trazado 738242" d="M153.154,441.78v-1.622a1.8,1.8,0,0,1,1.8-1.8h8.322a1.8,1.8,0,0,1,1.8,1.8v1.622Z" transform="translate(-140.027 -399.529)" fill="#c7865b"/>
        <path id="Trazado_738243" data-name="Trazado 738243" d="M165.069,439.967h-9.892a.181.181,0,0,1-.176-.223,1.8,1.8,0,0,1,1.755-1.39h-1.8a1.8,1.8,0,0,0-1.792,1.613h0v0s0,.007,0,.01c-.006.058-.009.117-.009.177v1.622h11.928v-1.622A1.876,1.876,0,0,0,165.069,439.967Z" transform="translate(-140.025 -399.528)" fill="#bf7d51"/>
        <path id="Trazado_738244" data-name="Trazado 738244" d="M147.95,474.247H133.257a.451.451,0,0,1-.451-.451v-.739a1.8,1.8,0,0,1,1.8-1.8H146.6a1.8,1.8,0,0,1,1.8,1.8v.739A.451.451,0,0,1,147.95,474.247Z" transform="translate(-121.513 -429.464)" fill="#c7865b"/>
        <path id="Trazado_738245" data-name="Trazado 738245" d="M136.415,468.524a1.8,1.8,0,0,0-1.8,1.8v.739a.45.45,0,0,0,.451.451h-1.8a.45.45,0,0,1-.451-.451v-.739a1.8,1.8,0,0,1,1.8-1.8h.031l.826-.27Z" transform="translate(-121.517 -426.734)" fill="#bf7d51"/>
      </g>
      <g id="Grupo_972838" data-name="Grupo 972838" transform="translate(0 0.044)">
        <path id="Trazado_738246" data-name="Trazado 738246" d="M68.937,133.756H79.31a.676.676,0,0,0,0-1.352H68.937a.676.676,0,1,0,0,1.352Z" transform="translate(-62.109 -120.475)"/>
        <path id="Trazado_738247" data-name="Trazado 738247" d="M68.937,312.4a.676.676,0,0,0,0,1.352H80.211a.676.676,0,0,0,0-1.352Z" transform="translate(-62.109 -284.253)"/>
        <path id="Trazado_738248" data-name="Trazado 738248" d="M218.59,193.756a.676.676,0,0,0,0-1.352h-7.414a.676.676,0,0,0,0,1.352Z" transform="translate(-191.529 -175.068)"/>
        <path id="Trazado_738249" data-name="Trazado 738249" d="M66.914,193.756h9.847a.676.676,0,0,0,0-1.352H66.914a.676.676,0,1,0,0,1.352Z" transform="translate(-60.268 -175.068)"/>
        <path id="Trazado_738250" data-name="Trazado 738250" d="M66.914,253.756H82.772a.676.676,0,1,0,0-1.352H66.914a.676.676,0,1,0,0,1.352Z" transform="translate(-60.268 -229.661)"/>
        <path id="Trazado_738251" data-name="Trazado 738251" d="M66.914,373.756H80.068a.676.676,0,0,0,0-1.352H66.914a.676.676,0,0,0,0,1.352Z" transform="translate(-60.268 -338.846)"/>
        <path id="Trazado_738252" data-name="Trazado 738252" d="M46.136,38.849a3.255,3.255,0,0,0-1.442-2.38l-5.876-4.645,1.336-1.335a1.96,1.96,0,0,0,.848.19h0a2.567,2.567,0,0,0,1.79-.785l0,0a2.255,2.255,0,0,0,.24-3.141l-6.885-6.921a2.084,2.084,0,0,0-2.446-.265V13.695a3.341,3.341,0,0,0-1-2.389L22.335,1.033A3.4,3.4,0,0,0,19.923.044H4.321A4.305,4.305,0,0,0,0,4.323V6.829a.676.676,0,1,0,1.352,0V4.323A2.952,2.952,0,0,1,4.321,1.4l16.061.054v8.686a3.132,3.132,0,0,0,3.141,3.117H32.3l.051,7.891a2.149,2.149,0,0,0,.083,1.6l-6.1,6.1a2.379,2.379,0,0,0-2.655.581,2.248,2.248,0,0,0-.248,3.146l6.9,6.9a2.01,2.01,0,0,0,2.019.432,3.047,3.047,0,0,1-.862,2.436,2.956,2.956,0,0,1-2.132.866l-1.384-.01a2.489,2.489,0,0,0-1.57-1.282v-.572a2.481,2.481,0,0,0-2.478-2.478H15.6a2.481,2.481,0,0,0-2.478,2.478v.572A2.488,2.488,0,0,0,11.611,43.1H4.321a2.952,2.952,0,0,1-2.97-2.927V9.981A.676.676,0,1,0,0,9.981V40.174a4.305,4.305,0,0,0,4.321,4.279h6.971v.6a1.128,1.128,0,0,0,1.127,1.127H15.5a.676.676,0,0,0,0-1.352H12.645v-.514a1.128,1.128,0,0,1,1.127-1.127h11.99a1.128,1.128,0,0,1,1.127,1.127v.514H18.655a.676.676,0,0,0,0,1.352h8.458a1.128,1.128,0,0,0,1.127-1.127v-.5l1.143.008a4.315,4.315,0,0,0,3.062-1.258,4.228,4.228,0,0,0,1.261-3.02V38.973a2.3,2.3,0,0,0,.357-2.4l1.3-1.3L40,41.174c1.662,2.02,3.354,1.817,5.014.317a3.442,3.442,0,0,0,1.125-2.642ZM15.605,40.222h8.322a1.128,1.128,0,0,1,1.127,1.127v.487H14.479v-.487A1.128,1.128,0,0,1,15.605,40.222Zm18.367-19.2c.353-.325.823-.555,1.221-.244L42.078,27.7c.263.265.149.844-.243,1.239-.364.342-.9.581-1.276.189l-2.55-2.564a.676.676,0,1,0-.958.953l2.076,2.087c-1.789,1.787-4.159,4.157-5.948,5.945L27.36,29.733l5.964-5.961,1.484,1.492a.676.676,0,1,0,.958-.953L33.8,22.338c-.359-.283-.254-.877.169-1.315ZM21.734,10.136v-7.8L31.387,11.9H23.523a1.779,1.779,0,0,1-1.789-1.765ZM31.29,38.522l-6.9-6.9c-.31-.4-.083-.87.24-1.225.429-.421,1.022-.532,1.3-.182l6.838,6.837c.311.4.082.875-.244,1.229C32.128,38.67,31.553,38.784,31.29,38.522Zm12.763,2.014a1.765,1.765,0,0,1-2.989-.192l-4.74-6.027,1.532-1.532,6.006,4.748a1.778,1.778,0,0,1,.191,3Z" transform="translate(0 -0.044)"/>
      </g>
    </g>
  </g>
</svg>
