<svg xmlns="http://www.w3.org/2000/svg" xmlns:xlink="http://www.w3.org/1999/xlink" width="77" height="77" viewBox="0 0 77 77">
  <defs>
    <clipPath id="clip-path">
      <path id="path438" d="M0-682.665H49.283v49.283H0Z" transform="translate(0 682.665)"/>
    </clipPath>
  </defs>
  <g id="Grupo_972844" data-name="Grupo 972844" transform="translate(-1117 -2221)">
    <circle id="Elipse_6834" data-name="Elipse 6834" cx="38.5" cy="38.5" r="38.5" transform="translate(1117 2221)" fill="#e2eacb"/>
    <g id="g432" transform="translate(1130.858 2917.523)">
      <g id="g434" transform="translate(0 -682.665)">
        <g id="g436" clip-path="url(#clip-path)">
          <g id="g442" transform="translate(25.132 0.722)">
            <path id="path444" d="M-273.934-1.047l-8.388,5.786a.519.519,0,0,1-.809-.354L-283.71.329a.439.439,0,0,0-.779-.211l-3.463,4.366a.519.519,0,0,1-.888-.127l-1.178-2.9a.439.439,0,0,0-.8-.024l-4.429,9.283,10.165,10.165,9.283-4.429a.439.439,0,0,0-.024-.8l-2.9-1.178a.519.519,0,0,1-.127-.888l4.366-3.463a.439.439,0,0,0-.211-.779l-4.056-.579a.519.519,0,0,1-.354-.809l5.786-8.388a.439.439,0,0,0-.611-.611" transform="translate(295.249 1.128)" fill="#f5e277"/>
          </g>
          <g id="g446" transform="translate(33.372 16.564)">
            <path id="path448" d="M-143.736-11.985l-2.3-.933-8.886,4.239,1.925,1.925,9.283-4.429a.439.439,0,0,0-.024-.8" transform="translate(154.92 12.917)" fill="#f0bc63"/>
          </g>
          <g id="g450" transform="translate(2.144 15.417)">
            <path id="path452" d="M-419.336-265.982a16.614,16.614,0,0,0,.517-4.124,16.564,16.564,0,0,0-.683-4.725l-5.968-4.336-.165-4.336a16.5,16.5,0,0,0-9.757-3.175,16.572,16.572,0,0,0-16.572,16.572,16.528,16.528,0,0,0,1.156,6.093l2.845,1.445-1.357,1.445a16.559,16.559,0,0,0,13.928,7.588,16.5,16.5,0,0,0,10.531-3.776l.089-3.812Z" transform="translate(451.964 286.678)" fill="#52c194"/>
          </g>
          <g id="g454" transform="translate(11.323 18.592)">
            <path id="path456" d="M-299.225-111.452h-21.837a1.445,1.445,0,0,1-1.446-1.445,1.446,1.446,0,0,1,1.446-1.446h6.465a1.445,1.445,0,0,0,1.446-1.445,1.446,1.446,0,0,0-1.446-1.446h-2.367a1.445,1.445,0,0,1-1.446-1.445,1.446,1.446,0,0,1,1.446-1.446h11.606a16.6,16.6,0,0,1,6.133,8.672" transform="translate(322.507 120.124)" fill="#60d9a7"/>
          </g>
          <g id="g458" transform="translate(17.995 36.113)">
            <path id="path460" d="M-215.627,0a16.579,16.579,0,0,1-5.525,8.672h-9.807A1.445,1.445,0,0,1-232.4,7.227a1.446,1.446,0,0,1,1.446-1.446h6.465a1.445,1.445,0,0,0,1.446-1.445,1.446,1.446,0,0,0-1.446-1.446h-2.367a1.445,1.445,0,0,1-1.446-1.445A1.446,1.446,0,0,1-226.861,0Z" transform="translate(232.405)" fill="#60d9a7"/>
          </g>
          <g id="g462" transform="translate(2.144 15.418)">
            <path id="path464" d="M-14.857-291.282l2.845,1.445-1.357,1.445A16.559,16.559,0,0,0,.559-280.8q.358,0,.715-.015c.246-.009.493-.026.738-.048a16.565,16.565,0,0,1-12.494-7.525,16.491,16.491,0,0,1-1.488-2.891,16.525,16.525,0,0,1-1.156-6.093A16.573,16.573,0,0,1,2-313.884c-.118-.01-.237-.019-.358-.027a16.691,16.691,0,0,0-6.016.709,16.59,16.59,0,0,0-3.665,1.654,16.563,16.563,0,0,0-7.979,14.173A16.548,16.548,0,0,0-15.121-292q.124.361.264.715" transform="translate(16.013 313.947)" fill="#4677d4"/>
          </g>
          <g id="g466" transform="translate(3.3 38.082)">
            <path id="path468" d="M-117.809-18.581a1.445,1.445,0,0,1-1.446,1.445h-6.233a16.493,16.493,0,0,1-1.488-2.891h7.721a1.446,1.446,0,0,1,1.446,1.446" transform="translate(126.976 20.027)" fill="#60d9a7"/>
          </g>
          <g id="g470" transform="translate(3.3 38.082)">
            <path id="path472" d="M-19.12-37.151h2.888a16.49,16.49,0,0,1-1.488-2.891h-2.888q.075.191.155.379a16.485,16.485,0,0,0,1.332,2.512" transform="translate(20.608 40.041)" fill="#00b661"/>
          </g>
          <g id="g474" transform="translate(23.027 10.458)">
            <path id="path476" d="M-157.7-27.058a7.188,7.188,0,0,1,0,10.165,7.188,7.188,0,0,1-10.165,0,7.188,7.188,0,0,1,0-10.165,7.188,7.188,0,0,1,10.165,0" transform="translate(169.973 29.163)" fill="#ff889e"/>
          </g>
          <g id="g478" transform="translate(23.027 11.693)">
            <path id="path480" d="M-51.8-117.089a7.189,7.189,0,0,1-.87-9.111,7.216,7.216,0,0,0-1.055.87,7.188,7.188,0,0,0,0,10.165,7.188,7.188,0,0,0,10.165,0,7.216,7.216,0,0,0,.87-1.055,7.189,7.189,0,0,1-9.111-.87" transform="translate(55.83 126.2)" fill="#f9496e"/>
          </g>
          <g id="g482" transform="translate(11.168 31.001)">
            <path id="path484" d="M0,0V1.366" transform="translate(0)" fill="none" stroke="#000" stroke-linecap="round" stroke-linejoin="round" stroke-miterlimit="10" stroke-width="1.2"/>
          </g>
          <g id="g486" transform="translate(26.265 31.001)">
            <path id="path488" d="M0,0V1.366" transform="translate(0)" fill="none" stroke="#000" stroke-linecap="round" stroke-linejoin="round" stroke-miterlimit="10" stroke-width="1.2"/>
          </g>
          <g id="g490" transform="translate(16.854 32.272)">
            <path id="path492" d="M0-10.593a2.468,2.468,0,0,1,1.863-.824,2.467,2.467,0,0,1,1.863.824" transform="translate(0 11.417)" fill="none" stroke="#000" stroke-linecap="round" stroke-linejoin="round" stroke-miterlimit="10" stroke-width="1.2"/>
          </g>
          <g id="g494" transform="translate(25.132 0.722)">
            <path id="path496" d="M-142.338-166.468a7.19,7.19,0,0,1-.91,9.054l9.283-4.429a.439.439,0,0,0-.024-.8l-2.9-1.178a.519.519,0,0,1-.127-.888l4.366-3.463a.439.439,0,0,0-.211-.779l-4.056-.58a.519.519,0,0,1-.354-.809l5.786-8.388a.439.439,0,0,0-.611-.611l-8.388,5.786a.519.519,0,0,1-.809-.354l-.579-4.056a.439.439,0,0,0-.779-.211l-3.463,4.366a.519.519,0,0,1-.888-.127l-1.178-2.9a.439.439,0,0,0-.8-.024l-4.429,9.283a7.19,7.19,0,0,1,9.043-.918" transform="translate(153.413 179.421)" fill="none" stroke="#000" stroke-linecap="round" stroke-linejoin="round" stroke-miterlimit="10" stroke-width="1.2"/>
          </g>
          <g id="g498" transform="translate(23.027 10.458)">
            <path id="path500" d="M-143.274-15.264a7.19,7.19,0,0,0-9.043.918,7.188,7.188,0,0,0,0,10.165,7.188,7.188,0,0,0,10.165,0,7.19,7.19,0,0,0,.91-9.054" transform="translate(154.423 16.451)" fill="none" stroke="#000" stroke-linecap="round" stroke-linejoin="round" stroke-miterlimit="10" stroke-width="1.2"/>
          </g>
          <g id="g502" transform="translate(11.323 18.592)">
            <path id="path504" d="M-177.467-53.167a7.154,7.154,0,0,1-2.042-4.137h-6.223a1.446,1.446,0,0,0-1.446,1.446,1.445,1.445,0,0,0,1.446,1.445h2.367a1.446,1.446,0,0,1,1.446,1.446,1.445,1.445,0,0,1-1.446,1.445h-6.465a1.446,1.446,0,0,0-1.446,1.446,1.445,1.445,0,0,0,1.446,1.445h21.837a16.468,16.468,0,0,0-1.294-3.131A7.19,7.19,0,0,1-177.467-53.167Z" transform="translate(191.276 57.304)" fill="none" stroke="#000" stroke-linecap="round" stroke-linejoin="round" stroke-miterlimit="10" stroke-width="1.2"/>
          </g>
          <g id="g506" transform="translate(3.3 38.082)">
            <path id="path508" d="M-117.809-18.581a1.445,1.445,0,0,1-1.446,1.445h-6.233a16.493,16.493,0,0,1-1.488-2.891h7.721A1.446,1.446,0,0,1-117.809-18.581Z" transform="translate(126.976 20.027)" fill="none" stroke="#000" stroke-linecap="round" stroke-linejoin="round" stroke-miterlimit="10" stroke-width="1.2"/>
          </g>
          <g id="g510" transform="translate(2.144 15.417)">
            <path id="path512" d="M-122.686-405.909a16.5,16.5,0,0,0,7.026,1.56,16.5,16.5,0,0,0,10.531-3.776h-9.807a1.445,1.445,0,0,1-1.446-1.445,1.446,1.446,0,0,1,1.446-1.446h6.465a1.445,1.445,0,0,0,1.446-1.445,1.446,1.446,0,0,0-1.446-1.446h-2.366a1.445,1.445,0,0,1-1.446-1.445,1.446,1.446,0,0,1,1.446-1.446H-99.6a16.614,16.614,0,0,0,.517-4.124,16.563,16.563,0,0,0-.683-4.725h-21.837a1.445,1.445,0,0,1-1.446-1.445,1.446,1.446,0,0,1,1.446-1.446h6.465a1.445,1.445,0,0,0,1.446-1.445,1.445,1.445,0,0,0-1.446-1.446h-2.366a1.445,1.445,0,0,1-1.446-1.445,1.446,1.446,0,0,1,1.446-1.446h6.223l0-.033a7.23,7.23,0,0,1,.124-2.524,16.588,16.588,0,0,0-4.494-.617,16.572,16.572,0,0,0-16.572,16.572,16.525,16.525,0,0,0,1.156,6.093h7.721a1.446,1.446,0,0,1,1.446,1.446,1.445,1.445,0,0,1-1.446,1.445h-6.233a16.664,16.664,0,0,0,4.416,4.586" transform="translate(132.232 437.492)" fill="none" stroke="#000" stroke-linecap="round" stroke-linejoin="round" stroke-miterlimit="10" stroke-width="1.2"/>
          </g>
          <g id="g514" transform="translate(17.995 36.113)">
            <path id="path516" d="M-215.627,0a16.579,16.579,0,0,1-5.525,8.672h-9.807A1.445,1.445,0,0,1-232.4,7.227a1.446,1.446,0,0,1,1.446-1.446h6.465a1.445,1.445,0,0,0,1.446-1.445,1.446,1.446,0,0,0-1.446-1.446h-2.367a1.445,1.445,0,0,1-1.446-1.445A1.446,1.446,0,0,1-226.861,0Z" transform="translate(232.405)" fill="none" stroke="#000" stroke-linecap="round" stroke-linejoin="round" stroke-miterlimit="10" stroke-width="1.2"/>
          </g>
        </g>
      </g>
    </g>
  </g>
</svg>
