<svg xmlns="http://www.w3.org/2000/svg" width="80" height="80" viewBox="0 0 80 80">
  <g id="Grupo_972663" data-name="Grupo 972663" transform="translate(-3031 14041)">
    <g id="Elipse_6757" data-name="Elipse 6757" transform="translate(3031 -14041)" fill="#bfdb77" stroke="#fff" stroke-width="3">
      <circle cx="40" cy="40" r="40" stroke="none"/>
      <circle cx="40" cy="40" r="38.5" fill="none"/>
    </g>
    <g id="conexion" transform="translate(3047 -14025)">
      <path id="Trazado_737769" data-name="Trazado 737769" d="M157.542,34.771A10.771,10.771,0,1,1,146.771,24,10.771,10.771,0,0,1,157.542,34.771Zm0,0" transform="translate(-122.921 -21.692)" fill="#e6e9ed"/>
      <path id="Trazado_737770" data-name="Trazado 737770" d="M285.542,258.771A10.771,10.771,0,1,1,274.771,248,10.771,10.771,0,0,1,285.542,258.771Zm0,0" transform="translate(-238.612 -224.15)" fill="#e6e9ed"/>
      <path id="Trazado_737771" data-name="Trazado 737771" d="M29.542,258.771A10.771,10.771,0,1,1,18.771,248,10.771,10.771,0,0,1,29.542,258.771Zm0,0" transform="translate(-7.231 -224.15)" fill="#e6e9ed"/>
      <g id="Grupo_972630" data-name="Grupo 972630" transform="translate(0.769 0.769)">
        <path id="Trazado_737772" data-name="Trazado 737772" d="M73.539,8a1.543,1.543,0,0,1,1.539,1.539,1.169,1.169,0,0,1-.023.231,1.5,1.5,0,0,1-.946,1.193,1.422,1.422,0,0,1-.569.115,1.519,1.519,0,0,1-.9-.292A1.538,1.538,0,0,1,73.539,8Zm0,0" transform="translate(-65.845 -8)" fill="#fcd770"/>
        <path id="Trazado_737773" data-name="Trazado 737773" d="M10.439,96.292a1.544,1.544,0,0,1,.639,1.246,1.511,1.511,0,0,1-.062.423,1.54,1.54,0,0,1-1.085,1.062,1.309,1.309,0,0,1-.392.054,1.539,1.539,0,1,1,0-3.077A1.519,1.519,0,0,1,10.439,96.292Zm0,0" transform="translate(-8 -87.537)" fill="#fcd770"/>
        <path id="Trazado_737774" data-name="Trazado 737774" d="M50.885,248.792a1.536,1.536,0,0,1-2.654,1.547,1.5,1.5,0,0,1-.231-.8,1.542,1.542,0,0,1,1.146-1.485,1.309,1.309,0,0,1,.392-.054,1.464,1.464,0,0,1,.792.223A1.514,1.514,0,0,1,50.885,248.792Zm0,0" transform="translate(-44.153 -224.92)" fill="#fcd770"/>
        <path id="Trazado_737775" data-name="Trazado 737775" d="M121.577,128a1.537,1.537,0,0,1,.208,3.054,1.269,1.269,0,0,1-.246.023A1.547,1.547,0,0,1,120,129.539a1.543,1.543,0,0,1,.969-1.423,1.422,1.422,0,0,1,.57-.115Zm0,0" transform="translate(-109.229 -116.46)" fill="#fcd770"/>
        <path id="Trazado_737776" data-name="Trazado 737776" d="M178.885,24.792a1.536,1.536,0,0,1-2.654,1.547,1.5,1.5,0,0,1-.231-.8,1.168,1.168,0,0,1,.023-.231A1.534,1.534,0,0,1,177.539,24,1.556,1.556,0,0,1,178.885,24.792Zm0,0" transform="translate(-159.844 -22.461)" fill="#fcd770"/>
        <path id="Trazado_737777" data-name="Trazado 737777" d="M314.454,42.777a1.518,1.518,0,0,1-.915.3A1.543,1.543,0,0,1,312,41.539a1.519,1.519,0,0,1,.3-.915,1.541,1.541,0,0,1,2.754.646,1.523,1.523,0,0,1,.023.269,1.547,1.547,0,0,1-.123.6A1.62,1.62,0,0,1,314.454,42.777Zm0,0" transform="translate(-282.765 -36.923)" fill="#fcd770"/>
        <path id="Trazado_737778" data-name="Trazado 737778" d="M456.038,9.877A1.644,1.644,0,0,1,456,9.539a1.539,1.539,0,1,1,1.539,1.539h-.031A1.546,1.546,0,0,1,456.038,9.877Zm0,0" transform="translate(-412.917 -8)" fill="#fcd770"/>
        <path id="Trazado_737779" data-name="Trazado 737779" d="M457.393,96.008a.9.9,0,0,1,.146-.008,1.539,1.539,0,1,1-1.216,2.477,1.494,1.494,0,0,1-.323-.939,1.543,1.543,0,0,1,1.393-1.531Zm0,0" transform="translate(-412.917 -87.537)" fill="#fcd770"/>
        <path id="Trazado_737780" data-name="Trazado 737780" d="M386.746,152.592a1.521,1.521,0,0,1,.331.946A1.539,1.539,0,1,1,385.539,152,1.515,1.515,0,0,1,386.746,152.592Zm0,0" transform="translate(-347.841 -138.152)" fill="#fcd770"/>
        <path id="Trazado_737781" data-name="Trazado 737781" d="M434.531,258.716A1.54,1.54,0,0,1,432,257.539a1.486,1.486,0,0,1,.192-.739,1.552,1.552,0,0,1,1.346-.8,1.539,1.539,0,0,1,.992,2.716Zm0,0" transform="translate(-391.225 -232.15)" fill="#fcd770"/>
        <path id="Trazado_737782" data-name="Trazado 737782" d="M363.077,457.539a1.539,1.539,0,1,1-3.077,0,.642.642,0,0,1,.007-.123,1.536,1.536,0,0,1,3.062,0A.637.637,0,0,1,363.077,457.539Zm0,0" transform="translate(-326.149 -412.917)" fill="#fcd770"/>
        <path id="Trazado_737783" data-name="Trazado 737783" d="M233.054,456.085a1.46,1.46,0,0,1,.485-.085,1.562,1.562,0,1,1-.485.085Zm0,0" transform="translate(-210.458 -412.917)" fill="#fcd770"/>
        <path id="Trazado_737784" data-name="Trazado 737784" d="M210.031,384.085a1.538,1.538,0,0,1,1.046,1.454A1.554,1.554,0,0,1,210.023,387a1.677,1.677,0,0,1-.485.077,1.587,1.587,0,0,1-.608-.123,1.54,1.54,0,0,1,.608-2.954A1.509,1.509,0,0,1,210.031,384.085Zm0,0" transform="translate(-188.766 -347.841)" fill="#fcd770"/>
      </g>
      <path id="Trazado_737785" data-name="Trazado 737785" d="M317.848,379.277V382.7a10.73,10.73,0,0,1-5.393,2.408,1.536,1.536,0,0,0-3.062,0A10.73,10.73,0,0,1,304,382.7v-3.424a2.306,2.306,0,0,1,1.677-2.216L309.385,376l1.539,1.539L312.463,376l3.708,1.062A2.306,2.306,0,0,1,317.848,379.277Zm0,0" transform="translate(-274.765 -339.841)" fill="#b4dd7f"/>
      <path id="Trazado_737786" data-name="Trazado 737786" d="M363.077,355.68v1.954l-1.539,1.539L360,357.634V355.68a3.057,3.057,0,0,0,3.077,0Zm0,0" transform="translate(-325.38 -321.475)" fill="#f0d0b4"/>
      <path id="Trazado_737787" data-name="Trazado 737787" d="M348.616,287.278A3.077,3.077,0,0,1,344,284.616v-1.539a3.077,3.077,0,1,1,6.155,0v1.539A3.062,3.062,0,0,1,348.616,287.278Zm0,0" transform="translate(-310.918 -253.073)" fill="#f0d0b4"/>
      <path id="Trazado_737788" data-name="Trazado 737788" d="M61.848,379.277v3.416A10.724,10.724,0,0,1,48,382.7v-3.424a2.306,2.306,0,0,1,1.677-2.216L53.385,376l1.539,1.539L56.463,376l3.708,1.062A2.306,2.306,0,0,1,61.848,379.277Zm0,0" transform="translate(-43.384 -339.841)" fill="#69d6f4"/>
      <path id="Trazado_737789" data-name="Trazado 737789" d="M107.077,355.68v1.954l-1.539,1.539L104,357.634V355.68a3.057,3.057,0,0,0,3.077,0Zm0,0" transform="translate(-93.999 -321.475)" fill="#f0d0b4"/>
      <path id="Trazado_737790" data-name="Trazado 737790" d="M92.616,287.278A3.077,3.077,0,0,1,88,284.616v-1.539a3.077,3.077,0,1,1,6.155,0v1.539A3.062,3.062,0,0,1,92.616,287.278Zm0,0" transform="translate(-79.537 -253.073)" fill="#f0d0b4"/>
      <path id="Trazado_737791" data-name="Trazado 737791" d="M189.848,155.277V158.7a10.749,10.749,0,0,1-13.848.008v-3.432a2.306,2.306,0,0,1,1.677-2.216L181.385,152l1.539,1.539L184.463,152l3.708,1.062A2.306,2.306,0,0,1,189.848,155.277Zm0,0" transform="translate(-159.074 -137.383)" fill="#ff826e"/>
      <path id="Trazado_737792" data-name="Trazado 737792" d="M235.077,131.68v1.954l-1.539,1.539L232,133.634V131.68a3.057,3.057,0,0,0,3.077,0Zm0,0" transform="translate(-209.689 -119.016)" fill="#f0d0b4"/>
      <path id="Trazado_737793" data-name="Trazado 737793" d="M217.539,63.278A3.062,3.062,0,0,1,216,60.616V59.077a3.077,3.077,0,1,1,6.155,0v1.539a3.073,3.073,0,0,1-4.616,2.662Zm0,0" transform="translate(-195.228 -50.615)" fill="#f0d0b4"/>
      <path id="Trazado_737794" data-name="Trazado 737794" d="M45.391,13.079a2.3,2.3,0,0,0,.638-4.515l.086-4.075a2.3,2.3,0,1,0-3-2.45L33.526,4.224a2.29,2.29,0,0,0-3.293-.736,11.385,11.385,0,0,0-10.168-1.3,2.289,2.289,0,0,0-3.623.567l-5.715-.879A2.306,2.306,0,1,0,6.562,3.613L2.96,8.568a2.261,2.261,0,0,0-.652-.106,2.3,2.3,0,0,0-.194,4.6L4.857,23.482a2.255,2.255,0,0,0-.925,2.5A11.525,11.525,0,1,0,21.305,40.751c.065.007.127.018.193.019l.937,2.81a2.3,2.3,0,1,0,3.58,2.58h7.977a2.3,2.3,0,0,0,4.408-.243,11.49,11.49,0,0,0,6.664-18.6,2.281,2.281,0,0,0,.325-1.162,2.311,2.311,0,0,0-2.308-2.308c-.071,0-.139.015-.208.021l-2.8-6.065a2.3,2.3,0,0,0,.7-1.65,2.269,2.269,0,0,0-.127-.722l3.5-2.724A2.287,2.287,0,0,0,45.391,13.079ZM44.576,4.46l-.088,4.188a2.3,2.3,0,0,0-.835.622L34.289,5.628,43.446,3.54A2.31,2.31,0,0,0,44.576,4.46Zm.815,7.08a.769.769,0,1,1,.769-.769A.77.77,0,0,1,45.391,11.54Zm0-10a.769.769,0,1,1-.769.769A.77.77,0,0,1,45.391,1.539ZM31.543,4.616a.769.769,0,1,1-.769.769A.77.77,0,0,1,31.543,4.616Zm-2.2.122a2.285,2.285,0,0,0-.1.647,2.311,2.311,0,0,0,2.308,2.308,2.285,2.285,0,0,0,.647-.1,9.941,9.941,0,0,1-.647,11.871V17.9a3.092,3.092,0,0,0-2.232-2.96l-3.154-.9v-.979A3.831,3.831,0,0,0,27.7,10V8.463a3.847,3.847,0,1,0-7.693,0V10a3.829,3.829,0,0,0,1.539,3.057v.979l-3.154.9a3.091,3.091,0,0,0-2.232,2.96v1.54a9.923,9.923,0,0,1-1.912-3.608,2.3,2.3,0,0,0-.279-4.111,10.029,10.029,0,0,1,3.151-6.006,2.3,2.3,0,0,0,3.656-1.866,2.313,2.313,0,0,0-.027-.267,9.881,9.881,0,0,1,8.593,1.159ZM23.85,12.309A2.311,2.311,0,0,1,21.542,10V8.463a2.308,2.308,0,0,1,4.616,0V10A2.311,2.311,0,0,1,23.85,12.309Zm0,1.539a3.85,3.85,0,0,0,.769-.078V14.3l-.769.769L23.08,14.3V13.77A3.85,3.85,0,0,0,23.85,13.848Zm-1.763,1.633,1.763,1.763,1.763-1.763,3.276.936A1.545,1.545,0,0,1,30,17.9v3.049a9.925,9.925,0,0,1-12.309-.009V17.9a1.546,1.546,0,0,1,1.116-1.48ZM6.155,24.619a.769.769,0,1,1-.769.769A.77.77,0,0,1,6.155,24.619Zm.194-1.52L3.606,12.677a2.328,2.328,0,0,0,.577-.571l6.6,1.887a2.286,2.286,0,0,0,.52,1.314l-4.691,7.82A2.563,2.563,0,0,0,6.349,23.1ZM8.463,4.616c.032,0,.06-.008.091-.009l3.007,7.516a2.351,2.351,0,0,0-.357.389L4.6,10.625a2.29,2.29,0,0,0-.393-1.16l3.6-4.955A2.251,2.251,0,0,0,8.463,4.616ZM10.485,3.4l5.715.879c.01.054.027.105.042.159A11.572,11.572,0,0,0,12.607,10.6L9.981,4.033A2.294,2.294,0,0,0,10.485,3.4Zm2.594,9.681a.769.769,0,1,1-.769.769A.77.77,0,0,1,13.079,13.079Zm5.385-10a.769.769,0,1,1-.769.769A.77.77,0,0,1,18.464,3.077Zm-10-1.539a.769.769,0,1,1-.769.769A.77.77,0,0,1,8.463,1.539ZM1.539,10.771a.769.769,0,1,1,.769.769A.77.77,0,0,1,1.539,10.771ZM5.385,42.488V39.439A1.546,1.546,0,0,1,6.5,37.959l3.276-.936,1.763,1.763L13.3,37.023l3.276.936a1.545,1.545,0,0,1,1.116,1.48V42.5a9.956,9.956,0,0,1-12.309-.008Zm6.155-8.637a2.311,2.311,0,0,1-2.308-2.308V30a2.308,2.308,0,0,1,4.616,0v1.539A2.311,2.311,0,0,1,11.54,33.851Zm0,1.539a3.85,3.85,0,0,0,.769-.078v.529l-.769.769-.769-.769v-.529A3.85,3.85,0,0,0,11.54,35.39ZM19.234,41V39.438A3.092,3.092,0,0,0,17,36.478l-3.154-.9V34.6a3.831,3.831,0,0,0,1.539-3.057V30a3.847,3.847,0,0,0-7.693,0v1.539A3.829,3.829,0,0,0,9.232,34.6v.979l-3.154.9a3.091,3.091,0,0,0-2.232,2.96V41a9.953,9.953,0,0,1,.961-13.747,2.3,2.3,0,0,0,3.655-1.866,2.221,2.221,0,0,0-.026-.262,9.9,9.9,0,0,1,3.1-.507,10.013,10.013,0,0,1,10,10,9.814,9.814,0,0,1-.142,1.553,2.3,2.3,0,0,0-1.493,3.919A10.014,10.014,0,0,1,19.234,41Zm2.308-3.3a.769.769,0,1,1-.769.769A.77.77,0,0,1,21.542,37.7Zm2.308,8.463a.769.769,0,1,1,.769-.769A.77.77,0,0,1,23.85,46.161ZM36.159,33.851a2.311,2.311,0,0,1-2.308-2.308V30a2.308,2.308,0,0,1,4.616,0v1.539A2.311,2.311,0,0,1,36.159,33.851Zm0,1.539a3.85,3.85,0,0,0,.769-.078v.529l-.769.769-.769-.769v-.529A3.85,3.85,0,0,0,36.159,35.39ZM34.4,37.023l1.763,1.763,1.763-1.763,3.276.936a1.545,1.545,0,0,1,1.116,1.48v3.034a9.914,9.914,0,0,1-4.087,1.912,2.293,2.293,0,0,0-4.136,0A9.914,9.914,0,0,1,30,42.473V39.439a1.546,1.546,0,0,1,1.116-1.48Zm1.763,9.137a.769.769,0,1,1,.769-.769A.77.77,0,0,1,36.159,46.161Zm7.693-5.192V39.438a3.092,3.092,0,0,0-2.232-2.96l-3.154-.9V34.6a3.831,3.831,0,0,0,1.539-3.057V30a3.847,3.847,0,0,0-7.693,0v1.539A3.829,3.829,0,0,0,33.851,34.6v.979l-3.154.9a3.091,3.091,0,0,0-2.232,2.96V40.97A9.975,9.975,0,0,1,40.813,25.783a2.27,2.27,0,0,0,2.27,2.683,2.276,2.276,0,0,0,.808-.154,9.9,9.9,0,0,1-.039,12.657Zm0-14.811a.769.769,0,1,1-.769-.769A.77.77,0,0,1,43.853,26.158Zm-2.45-1.8A11.523,11.523,0,0,0,30.447,44.622H26.016a2.3,2.3,0,0,0-2.123-1.534l-.937-2.81a2.287,2.287,0,0,0-.07-3.679A11.5,11.5,0,0,0,8.121,23.608l4.5-7.5c.036.008.076.005.112.012A11.533,11.533,0,0,0,35.39,13.079a11.4,11.4,0,0,0-1.725-6.043L43.09,10.7c0,.023-.007.045-.007.069a2.269,2.269,0,0,0,.127.722l-3.5,2.724a2.287,2.287,0,0,0-1.241-.369,2.308,2.308,0,0,0,0,4.616c.071,0,.139-.015.208-.021Zm-2.936-7.428a.769.769,0,1,1,.769-.769A.77.77,0,0,1,38.467,16.926Zm0,0" transform="translate(0)"/>
    </g>
  </g>
</svg>
