<svg xmlns="http://www.w3.org/2000/svg" width="80" height="80" viewBox="0 0 80 80">
  <g id="Grupo_972667" data-name="Grupo 972667" transform="translate(-2693 14325)">
    <g id="Elipse_6753" data-name="Elipse 6753" transform="translate(2693 -14325)" fill="#bfdb77" stroke="#fff" stroke-width="3">
      <circle cx="40" cy="40" r="40" stroke="none"/>
      <circle cx="40" cy="40" r="38.5" fill="none"/>
    </g>
    <g id="cuidado" transform="translate(2670.969 -14310.459)">
      <g id="Grupo_972625" data-name="Grupo 972625" transform="translate(42.9 0.696)">
        <path id="Trazado_737710" data-name="Trazado 737710" d="M198.631,35.024H200.3V33.351a4.02,4.02,0,0,0-4.02-4.02h-1.3a.371.371,0,0,0-.371.371V31A4.02,4.02,0,0,0,198.631,35.024Z" transform="translate(-181.173 -27.306)" fill="#b3e59f"/>
        <g id="Grupo_972622" data-name="Grupo 972622" transform="translate(19.131)">
          <path id="Trazado_737711" data-name="Trazado 737711" d="M257.667,13.193h-1.673V11.52a4.02,4.02,0,0,1,4.02-4.02h1.3a.371.371,0,0,1,.371.371v1.3A4.019,4.019,0,0,1,257.667,13.193Z" transform="translate(-255.994 -7.5)" fill="#b3e59f"/>
        </g>
        <g id="Grupo_972623" data-name="Grupo 972623" transform="translate(0 31.207)">
          <path id="Trazado_737712" data-name="Trazado 737712" d="M391.417,347.506l-4.957,1.074-.749-3.458,4.957-1.074a1.769,1.769,0,0,1,.749,3.458Z" transform="translate(-354.551 -344.007)" fill="#edbb87"/>
          <path id="Trazado_737713" data-name="Trazado 737713" d="M51.1,347.506l4.957,1.074.749-3.458-4.957-1.074a1.769,1.769,0,0,0-.749,3.458Z" transform="translate(-49.71 -344.007)" fill="#edbb87"/>
        </g>
        <g id="Grupo_972624" data-name="Grupo 972624" transform="translate(2.06 10.257)">
          <circle id="Elipse_6761" data-name="Elipse 6761" cx="17.07" cy="17.07" r="17.07" fill="#9dc6fb"/>
          <path id="Trazado_737714" data-name="Trazado 737714" d="M174.331,130.618a17.074,17.074,0,0,1-15.18,30.427,17.072,17.072,0,1,0,15.18-30.427Z" transform="translate(-151.062 -129.457)" fill="#80b4fb"/>
          <path id="Trazado_737715" data-name="Trazado 737715" d="M237.7,132.271a17.07,17.07,0,0,0-20.41-13.793c.341,1.371.688,2.981,1,4.881.512,3.107.726,5.742,2.207,6.219,1.442.464,2.614-1.592,4.614-1.2,1.678.326,1.913,1.979,3.41,3.21C230.555,133.253,234.376,133.707,237.7,132.271Z" transform="translate(-203.812 -118.097)" fill="#b3e59f"/>
          <path id="Trazado_737716" data-name="Trazado 737716" d="M330.942,144.388a10.53,10.53,0,0,0,2.552-.733,17.1,17.1,0,0,0-10.618-13.011A17.059,17.059,0,0,1,330.942,144.388Z" transform="translate(-299.603 -129.48)" fill="#95d6a4"/>
          <path id="Trazado_737717" data-name="Trazado 737717" d="M79.016,197.923a8.426,8.426,0,0,0-3.794-4.409,17.056,17.056,0,0,0,1.378,21.8,8.281,8.281,0,0,0,3.821-5.77c.1-1.367-.5-1.5-1.022-4.215C78.619,201.26,79.666,200.021,79.016,197.923Z" transform="translate(-71.928 -186.52)" fill="#b3e59f"/>
          <path id="Trazado_737718" data-name="Trazado 737718" d="M193.558,355.93a17.079,17.079,0,0,0,18.488-4.655,25.072,25.072,0,0,0-3.835-4.151c-1.349-1.231-4.564-4.164-6.547-3.214-1.551.743-.793,3.116-2.143,6.19A12.445,12.445,0,0,1,193.558,355.93Z" transform="translate(-182.278 -322.798)" fill="#b3e59f"/>
          <path id="Trazado_737719" data-name="Trazado 737719" d="M212.047,402.018a17.827,17.827,0,0,0-1.969-2.365,17.132,17.132,0,0,1-15.613,6.509c-.314.185-.619.354-.906.511A17.193,17.193,0,0,0,212.047,402.018Z" transform="translate(-182.279 -373.542)" fill="#95d6a4"/>
        </g>
        <path id="Trazado_737720" data-name="Trazado 737720" d="M372.948,366.031a1.623,1.623,0,0,1,2.3,0L378,368.785a1.623,1.623,0,0,1-2.3,2.3l-2.754-2.754A1.623,1.623,0,0,1,372.948,366.031Z" transform="translate(-342.54 -332.35)" fill="#f1d0a4"/>
        <path id="Trazado_737721" data-name="Trazado 737721" d="M378.272,374.906a1.623,1.623,0,0,1-2.3,0l-2.754-2.754a1.616,1.616,0,0,1-.348-.518,1.622,1.622,0,0,0,.08,2.207l2.754,2.754a1.623,1.623,0,0,0,2.643-1.777C378.326,374.848,378.3,374.878,378.272,374.906Z" transform="translate(-342.547 -337.865)" fill="#edbb87"/>
        <path id="Trazado_737722" data-name="Trazado 737722" d="M337.593,380.173a1.623,1.623,0,0,1,2.3,0l4.722,4.722a1.623,1.623,0,0,1-2.3,2.3l-4.722-4.722A1.623,1.623,0,0,1,337.593,380.173Z" transform="translate(-310.464 -345.18)" fill="#f1d0a4"/>
        <path id="Trazado_737723" data-name="Trazado 737723" d="M344.705,392.406a1.623,1.623,0,0,1-2.3,0l-4.722-4.722a1.622,1.622,0,0,1-.28-.376,1.623,1.623,0,0,0,.19,2.065l4.722,4.721a1.623,1.623,0,0,0,2.575-1.919A1.63,1.63,0,0,1,344.705,392.406Z" transform="translate(-310.47 -352.085)" fill="#edbb87"/>
        <path id="Trazado_737724" data-name="Trazado 737724" d="M312.844,404.922a1.623,1.623,0,0,1,2.3,0l4.722,4.722a1.623,1.623,0,0,1-2.3,2.3l-4.722-4.721A1.623,1.623,0,0,1,312.844,404.922Z" transform="translate(-288.01 -367.634)" fill="#f1d0a4"/>
        <path id="Trazado_737725" data-name="Trazado 737725" d="M319.87,417.867a1.623,1.623,0,0,1-2.3,0l-4.721-4.721a1.619,1.619,0,0,1-.237-.3,1.622,1.622,0,0,0,.237,1.992l4.721,4.722a1.622,1.622,0,0,0,2.532-1.992A1.617,1.617,0,0,1,319.87,417.867Z" transform="translate(-288.019 -375.251)" fill="#edbb87"/>
        <path id="Trazado_737726" data-name="Trazado 737726" d="M298.7,440.277a1.623,1.623,0,0,1,2.3,0l2.754,2.754a1.623,1.623,0,1,1-2.3,2.3l-2.754-2.754A1.623,1.623,0,0,1,298.7,440.277Z" transform="translate(-275.179 -399.71)" fill="#f1d0a4"/>
        <path id="Trazado_737727" data-name="Trazado 737727" d="M304.037,449.049a1.623,1.623,0,0,1-2.3,0l-2.754-2.754a1.616,1.616,0,0,1-.349-.521,1.622,1.622,0,0,0,.071,2.217l2.754,2.754a1.623,1.623,0,0,0,2.644-1.775C304.085,449,304.062,449.024,304.037,449.049Z" transform="translate(-275.187 -405.129)" fill="#edbb87"/>
        <path id="Trazado_737728" data-name="Trazado 737728" d="M80.341,366.031a1.623,1.623,0,0,0-2.3,0l-2.754,2.754a1.623,1.623,0,0,0,2.3,2.3l2.754-2.754A1.623,1.623,0,0,0,80.341,366.031Z" transform="translate(-72.488 -332.35)" fill="#f1d0a4"/>
        <path id="Trazado_737729" data-name="Trazado 737729" d="M80.447,371.815a1.626,1.626,0,0,1-.235.3l-2.754,2.754a1.623,1.623,0,0,1-2.3,0c-.034-.034-.065-.069-.1-.105a1.622,1.622,0,0,0,2.53,1.995L80.352,374A1.622,1.622,0,0,0,80.447,371.815Z" transform="translate(-72.499 -338.029)" fill="#edbb87"/>
        <path id="Trazado_737730" data-name="Trazado 737730" d="M96.452,380.173a1.623,1.623,0,0,0-2.3,0l-4.722,4.722a1.623,1.623,0,0,0,2.3,2.3l4.722-4.722A1.623,1.623,0,0,0,96.452,380.173Z" transform="translate(-85.32 -345.18)" fill="#f1d0a4"/>
        <path id="Trazado_737731" data-name="Trazado 737731" d="M96.458,387.509l-4.722,4.721A1.618,1.618,0,0,1,89.253,392a1.622,1.622,0,0,0,2.484,2.067l4.722-4.722a1.623,1.623,0,0,0,.188-2.067A1.644,1.644,0,0,1,96.458,387.509Z" transform="translate(-85.326 -352.06)" fill="#edbb87"/>
        <path id="Trazado_737732" data-name="Trazado 737732" d="M121.2,404.922a1.623,1.623,0,0,0-2.3,0l-4.722,4.722a1.623,1.623,0,0,0,2.3,2.3l4.722-4.721A1.623,1.623,0,0,0,121.2,404.922Z" transform="translate(-107.772 -367.634)" fill="#f1d0a4"/>
        <path id="Trazado_737733" data-name="Trazado 737733" d="M121.238,409.876a1.617,1.617,0,0,1-.249.325l-4.722,4.722a1.623,1.623,0,0,1-2.3,0l-.025-.028a1.622,1.622,0,0,0,2.545,1.971l4.722-4.722A1.622,1.622,0,0,0,121.238,409.876Z" transform="translate(-107.785 -372.56)" fill="#edbb87"/>
        <path id="Trazado_737734" data-name="Trazado 737734" d="M154.587,440.277a1.623,1.623,0,0,0-2.3,0l-2.754,2.754a1.623,1.623,0,1,0,2.3,2.3l2.754-2.754A1.623,1.623,0,0,0,154.587,440.277Z" transform="translate(-139.849 -399.71)" fill="#f1d0a4"/>
        <path id="Trazado_737735" data-name="Trazado 737735" d="M154.6,447.221l-2.754,2.754a1.612,1.612,0,0,1-2.459-.195,1.622,1.622,0,0,0,2.459,2.1l2.754-2.754a1.622,1.622,0,0,0,.164-2.1A1.606,1.606,0,0,1,154.6,447.221Z" transform="translate(-139.86 -406.265)" fill="#edbb87"/>
      </g>
      <path id="Trazado_737736" data-name="Trazado 737736" d="M79.508,31.21A17.762,17.762,0,0,0,62.726,10.272V7.084H63.7a4.721,4.721,0,0,0,4.715-4.715v-1.3A1.068,1.068,0,0,0,67.352,0h-1.3a4.723,4.723,0,0,0-4.569,3.551,4.7,4.7,0,0,0-3.47-1.527h-1.3a1.068,1.068,0,0,0-1.067,1.066v1.3a4.721,4.721,0,0,0,4.715,4.715h.977v1.164A17.714,17.714,0,0,0,44.553,31.21a2.465,2.465,0,0,0-.406,4.871l1.334.289a2.385,2.385,0,0,0-.269,3.548,2.3,2.3,0,0,0,.9.557,2.319,2.319,0,0,0,2.03,3.4,2.317,2.317,0,0,0,3.4,2.028,2.366,2.366,0,0,0,2.2,1.578,2.312,2.312,0,0,0,1.639-.678l1.713-1.712a17.862,17.862,0,0,0,9.884,0L68.685,46.8a2.319,2.319,0,0,0,3.837-.9,2.317,2.317,0,0,0,3.4-2.028,2.3,2.3,0,0,0,1.618-.679,2.351,2.351,0,0,0,.412-2.721,2.308,2.308,0,0,0,.9-.558,2.406,2.406,0,0,0-.269-3.548l1.334-.289a2.465,2.465,0,0,0-.407-4.871ZM62.726,4.715A3.328,3.328,0,0,1,66.05,1.391h.977v.977a3.328,3.328,0,0,1-3.158,3.32L64.879,4.8a.7.7,0,0,0-.922-1.042l-1.23,1.089Zm-2.6.811a.7.7,0,0,0-.984.984l1.208,1.208a3.328,3.328,0,0,1-3.318-3.324V3.416h.977a3.328,3.328,0,0,1,3.324,3.318Zm-15.685,29.2a1.073,1.073,0,0,1,.429-2.1,17.731,17.731,0,0,0,.817,2.372ZM46.2,38.934a.936.936,0,0,1,0-1.312l2.754-2.754a.927.927,0,0,1,1.312,1.311l-2.754,2.754A.936.936,0,0,1,46.2,38.934Zm1.312,3.279a.928.928,0,0,1,0-1.312l4.722-4.722a.933.933,0,0,1,1.311,0h0a.935.935,0,0,1,0,1.312l-4.722,4.722A.936.936,0,0,1,47.507,42.213Zm3.607,2.3A.927.927,0,0,1,49.8,43.2l4.721-4.721a.927.927,0,0,1,1.312,1.312Zm6.033-1.443L54.393,45.82a.927.927,0,0,1-1.312-1.311l2.754-2.754a.927.927,0,0,1,1.312,1.311Zm.984-2.3a2.307,2.307,0,0,0-.9-.558,2.317,2.317,0,0,0-2.028-3.4,2.32,2.32,0,0,0-3.4-2.03,2.3,2.3,0,0,0-.557-.9h0a2.319,2.319,0,0,0-3.279,0l-.867.867A16.368,16.368,0,0,1,48.441,18.9a7.451,7.451,0,0,1,2.942,3.665,6.023,6.023,0,0,1,.133,2.466,16.286,16.286,0,0,0,.232,4.868,14.544,14.544,0,0,0,.614,2.3.7.7,0,0,0,1.309-.47,13.215,13.215,0,0,1-.557-2.087,14.869,14.869,0,0,1-.211-4.5,7.278,7.278,0,0,0-.191-2.987,8.716,8.716,0,0,0-3.444-4.374,16.412,16.412,0,0,1,8.659-5.606c.4,1.687.729,3.5,1,5.27.445,2.853.8,5.107,2.5,5.657A3.129,3.129,0,0,0,64,22.518a3.081,3.081,0,0,1,2.134-.605c1.207.234,2,2.157,3.1,3.064A8.945,8.945,0,0,0,75.6,26.643a.7.7,0,1,0-.115-1.386A7.648,7.648,0,0,1,70.115,23.9c-1.382-1.136-1.68-2.959-3.719-3.355a4.328,4.328,0,0,0-3.083.76c-.651.368-1.069.587-1.45.464-.891-.287-1.214-2.356-1.555-4.547-.279-1.793-.615-3.637-1.018-5.345A16.379,16.379,0,0,1,76.962,34.752l-.867-.867a2.319,2.319,0,0,0-3.279,0h0a2.3,2.3,0,0,0-.557.9,2.316,2.316,0,0,0-1.164-.265c-1.565-1.419-4.764-4.179-7.049-3.084-1.2.576-1.385,1.768-1.6,3.149a12.694,12.694,0,0,1-.882,3.389,9.81,9.81,0,0,1-2.878,3.7,2.294,2.294,0,0,0-.557-.9Zm7.8,0a2.321,2.321,0,0,0-.092,3.181,16.5,16.5,0,0,1-7.616,0,2.308,2.308,0,0,0,.3-.427,11.616,11.616,0,0,0,4.316-4.992,14.05,14.05,0,0,0,.983-3.737c.192-1.248.307-1.859.823-2.106,1.278-.612,3.626,1.209,5,2.4a2.306,2.306,0,0,0-.788,1.72,2.317,2.317,0,0,0-2.028,3.4A2.31,2.31,0,0,0,65.931,40.77ZM70.98,45.82a.928.928,0,0,1-1.311,0l-2.754-2.754a.928.928,0,0,1,0-1.312h0a.933.933,0,0,1,1.312,0l2.755,2.755A.937.937,0,0,1,70.98,45.82Zm3.279-1.312a.928.928,0,0,1-1.312,0l-4.721-4.722a.927.927,0,0,1,1.312-1.312L74.259,43.2A.928.928,0,0,1,74.259,44.508Zm2.3-2.3a.936.936,0,0,1-1.312,0l-4.722-4.722a.934.934,0,0,1,0-1.311h0a.933.933,0,0,1,1.311,0c1.484,1.5,3.3,3.3,4.722,4.722A.928.928,0,0,1,76.554,42.213Zm1.311-3.279a.928.928,0,0,1-1.311,0L73.8,36.18a.928.928,0,0,1,0-1.311h0a.935.935,0,0,1,1.312,0c.541.541,2.181,2.186,2.754,2.754A.937.937,0,0,1,77.866,38.934Zm1.754-4.213-1.246.27a17.736,17.736,0,0,0,.817-2.372,1.073,1.073,0,0,1,.429,2.1Z"/>
    </g>
  </g>
</svg>
