<svg xmlns="http://www.w3.org/2000/svg" width="77" height="77" viewBox="0 0 77 77">
  <g id="Grupo_972839" data-name="Grupo 972839" transform="translate(-880 -2485)">
    <circle id="Elipse_6836" data-name="Elipse 6836" cx="38.5" cy="38.5" r="38.5" transform="translate(880 2485)" fill="#e2eacb"/>
    <g id="economico" transform="translate(882 2484)">
      <path id="Trazado_738253" data-name="Trazado 738253" d="M81.733,40.857a16.867,16.867,0,0,1-33.733,0q0-.741.063-1.467a16.867,16.867,0,0,1,33.67,1.467Z" transform="translate(-29.067 -7.258)" fill="#9ce6ed"/>
      <path id="Trazado_738254" data-name="Trazado 738254" d="M241.6,82.923a16.855,16.855,0,0,1-8.014,14.359l-3.72-4.092V87.323h-2.933L224,82.923l2.933-2.2H230.6l2.2-2.933-1.467-3.667,4.588-3.822A16.827,16.827,0,0,1,241.6,82.923Z" transform="translate(-188.933 -49.323)" fill="#02c26a"/>
      <rect id="Rectángulo_343212" data-name="Rectángulo 343212" width="6" height="8" transform="translate(42 50.999)" fill="#4367e0"/>
      <rect id="Rectángulo_343213" data-name="Rectángulo 343213" width="5" height="14" transform="translate(48 44.999)" fill="#bfdb77"/>
      <rect id="Rectángulo_343214" data-name="Rectángulo 343214" width="6" height="21" transform="translate(53 37.999)" fill="#52c194"/>
      <path id="Trazado_738255" data-name="Trazado 738255" d="M110.6,25.369l-5.221,5.221v4.4l-4.4,2.933-2.933-2.933H94.383V32.057L90.99,30.022A16.881,16.881,0,0,1,110.6,25.369Z" transform="translate(-68.116 -7.258)" fill="#02c26a"/>
      <path id="Trazado_738256" data-name="Trazado 738256" d="M62.667,198.6l-2.933,2.2v8.738A16.874,16.874,0,0,1,48,193.467q0-.741.063-1.467H52.4l2.2,2.933h5.867Z" transform="translate(-29.067 -159.867)" fill="#02c26a"/>
      <path id="Trazado_738257" data-name="Trazado 738257" d="M31.333,257.467c0-.81-1.642-1.467-3.667-1.467S24,256.657,24,257.467V275.8c0,.81,1.642,1.467,3.667,1.467s3.667-.657,3.667-1.467Z" transform="translate(-7.267 -218)" fill="#ffc431"/>
      <ellipse id="Elipse_6855" data-name="Elipse 6855" cx="3.5" cy="1.5" rx="3.5" ry="1.5" transform="translate(17 37.999)" fill="#ffd873"/>
      <path id="Trazado_738258" data-name="Trazado 738258" d="M111.333,337.467c0-.81-1.642-1.467-3.667-1.467s-3.667.657-3.667,1.467v11c0,.81,1.642,1.467,3.667,1.467s3.667-.657,3.667-1.467Z" transform="translate(-79.933 -290.667)" fill="#ffc431"/>
      <ellipse id="Elipse_6856" data-name="Elipse 6856" cx="3.5" cy="1.5" rx="3.5" ry="1.5" transform="translate(24 44.999)" fill="#ffd873"/>
      <path id="Trazado_738259" data-name="Trazado 738259" d="M191.333,377.467c0-.81-1.642-1.467-3.667-1.467s-3.667.657-3.667,1.467V384.8c0,.81,1.642,1.467,3.667,1.467s3.667-.657,3.667-1.467Z" transform="translate(-152.6 -327)" fill="#ffc431"/>
      <ellipse id="Elipse_6857" data-name="Elipse 6857" cx="4" cy="1.5" rx="4" ry="1.5" transform="translate(31 48.999)" fill="#ffd873"/>
      <path id="Trazado_738260" data-name="Trazado 738260" d="M59.267,248H53.4a.733.733,0,0,0-.733.733v6.6H47.533a.733.733,0,0,0-.733.733V261.2H41.667a.733.733,0,0,0-.733.733v6.6H39.467V261.2c0-.412-.2-1.184-1.535-1.718a8.755,8.755,0,0,0-5.73,0l-.068.028v-1.977c0-.412-.2-1.184-1.535-1.718a8.755,8.755,0,0,0-5.73,0l-.068.028V250.2c0-.412-.2-1.184-1.535-1.718A7.957,7.957,0,0,0,20.4,248a7.957,7.957,0,0,0-2.865.482C16.2,249.016,16,249.788,16,250.2v18.333c0,.412.2,1.184,1.535,1.718a7.958,7.958,0,0,0,2.865.482,7.958,7.958,0,0,0,2.865-.482,3.532,3.532,0,0,0,.8-.435,3.532,3.532,0,0,0,.8.435,8.755,8.755,0,0,0,5.73,0,3.532,3.532,0,0,0,.8-.435,3.532,3.532,0,0,0,.8.435,8.755,8.755,0,0,0,5.73,0,3.991,3.991,0,0,0,.521-.251H59.267a.733.733,0,0,0,.733-.733V248.733A.733.733,0,0,0,59.267,248Zm-41.8,14.89.068.028a7.958,7.958,0,0,0,2.865.482,7.958,7.958,0,0,0,2.865-.482l.068-.028v1.949c-.127.227-1.142.761-2.933.761s-2.806-.534-2.933-.761Zm0-3.667.068.028a7.958,7.958,0,0,0,2.865.482,7.958,7.958,0,0,0,2.865-.482l.068-.028v1.949c-.127.227-1.142.761-2.933.761s-2.806-.534-2.933-.761Zm0-3.667.068.028a7.957,7.957,0,0,0,2.865.482,7.957,7.957,0,0,0,2.865-.482l.068-.028v1.949c-.127.227-1.142.761-2.933.761s-2.806-.534-2.933-.761Zm0-3.667.068.028a7.957,7.957,0,0,0,2.865.482,7.957,7.957,0,0,0,2.865-.482l.068-.028v1.949c-.127.227-1.142.761-2.933.761s-2.806-.534-2.933-.761Zm10.267,10.044c-1.791,0-2.806-.534-2.933-.761v-1.949l.068.028a8.755,8.755,0,0,0,5.73,0l.068-.028v1.949C30.539,261.4,29.525,261.933,27.733,261.933Zm-2.933.956.068.028a8.755,8.755,0,0,0,5.73,0l.068-.028v1.949c-.127.227-1.142.761-2.933.761s-2.806-.534-2.933-.761Zm7.333,0,.068.028a8.755,8.755,0,0,0,5.73,0L38,262.89v1.949c-.127.227-1.142.761-2.933.761s-2.806-.534-2.933-.761Zm2.933-2.423a4.459,4.459,0,0,1,2.914.734,4.486,4.486,0,0,1-2.914.732,4.486,4.486,0,0,1-2.914-.732A4.459,4.459,0,0,1,35.067,260.467ZM27.733,256.8a4.459,4.459,0,0,1,2.914.734,4.486,4.486,0,0,1-2.914.732,4.478,4.478,0,0,1-2.915-.733A4.478,4.478,0,0,1,27.733,256.8ZM20.4,249.467a4.459,4.459,0,0,1,2.914.734,4.486,4.486,0,0,1-2.914.732,4.486,4.486,0,0,1-2.914-.732A4.459,4.459,0,0,1,20.4,249.467Zm0,19.8c-1.788,0-2.8-.532-2.933-.76v-1.95l.068.028a7.957,7.957,0,0,0,2.865.482,7.957,7.957,0,0,0,2.865-.482l.068-.028v1.95C23.2,268.734,22.188,269.267,20.4,269.267Zm7.333,0c-1.791,0-2.806-.534-2.933-.761v-1.949l.068.028a8.755,8.755,0,0,0,5.73,0l.068-.028v1.95C30.536,268.734,29.521,269.267,27.733,269.267Zm7.333,0c-1.788,0-2.8-.532-2.933-.76v-1.95l.068.028a8.755,8.755,0,0,0,5.73,0l.068-.028v1.95C37.87,268.734,36.855,269.267,35.067,269.267Zm7.333-6.6h4.4v5.867H42.4Zm5.867-5.867h4.4v11.733h-4.4Zm5.867,11.733V249.467h4.4v19.067Z" transform="translate(0 -210.733)"/>
      <rect id="Rectángulo_343215" data-name="Rectángulo 343215" width="2" height="2" transform="translate(35 44.999)"/>
      <path id="Trazado_738261" data-name="Trazado 738261" d="M256,176.133V177.6h3.667a.733.733,0,0,0,.519-.215L275.067,162.5v1.163h1.467v-2.933A.733.733,0,0,0,275.8,160h-2.933v1.467h1.163l-14.667,14.667Z" transform="translate(-218 -130.8)"/>
      <path id="Trazado_738262" data-name="Trazado 738262" d="M69.528,20.658A17.6,17.6,0,0,0,40,33.6a17.826,17.826,0,0,0,.148,2.294l1.454-.189a16.356,16.356,0,0,1-.136-2.105c0-.246.006-.49.017-.733h3.283l1.98,2.64a.733.733,0,0,0,.587.293h5.451l1.646,2.743-2.4,1.8a.733.733,0,0,0-.293.587v2.2H53.2V41.3l2.64-1.98a.733.733,0,0,0,.189-.964l-2.2-3.667a.733.733,0,0,0-.629-.356H47.7l-1.98-2.64a.733.733,0,0,0-.587-.293H41.617a16.057,16.057,0,0,1,3.233-7.674l2.483,1.49v2.518a.733.733,0,0,0,.733.733H51.43l2.719,2.719a.733.733,0,0,0,.925.092l4.4-2.933a.733.733,0,0,0,.327-.61v-4.1l4.648-4.648a16.1,16.1,0,0,1,3.2,1.986l-3.914,3.262a.733.733,0,0,0-.211.836l1.314,3.284L63.1,30.667H59.8a.734.734,0,0,0-.44.147l-2.933,2.2a.733.733,0,0,0-.17.993l2.933,4.4a.733.733,0,0,0,.61.327H62v4.4h1.467V38a.733.733,0,0,0-.733-.733H60.192l-2.331-3.5,2.183-1.637h3.422a.733.733,0,0,0,.587-.293l2.2-2.933a.733.733,0,0,0,.094-.712l-1.269-3.172,3.684-3.07A16.074,16.074,0,0,1,73.673,32.2l1.461-.126A17.542,17.542,0,0,0,69.528,20.658Zm-10.98,2.156a.733.733,0,0,0-.215.519v4.008L54.76,29.723l-2.508-2.508A.733.733,0,0,0,51.733,27H48.8V24.8a.733.733,0,0,0-.356-.629l-2.629-1.577a16.126,16.126,0,0,1,17.161-4.208Z" transform="translate(-21.8 0)"/>
    </g>
  </g>
</svg>
