<svg xmlns="http://www.w3.org/2000/svg" width="80" height="80" viewBox="0 0 80 80">
  <g id="Grupo_972662" data-name="Grupo 972662" transform="translate(-3031 13760)">
    <g id="Elipse_6760" data-name="Elipse 6760" transform="translate(3031 -13760)" fill="#bfdb77" stroke="#fff" stroke-width="3">
      <circle cx="40" cy="40" r="40" stroke="none"/>
      <circle cx="40" cy="40" r="38.5" fill="none"/>
    </g>
    <g id="notas" transform="translate(3048 -13743)">
      <g id="Grupo_972660" data-name="Grupo 972660" transform="translate(1.699 1.699)">
        <g id="Grupo_972648" data-name="Grupo 972648" transform="translate(5.593 0)">
          <path id="Trazado_737826" data-name="Trazado 737826" d="M36.848,24.639,35.17,31.358V4.8H10V3.4A1.4,1.4,0,0,1,11.4,2h25.17a1.4,1.4,0,0,1,1.4,1.4v16.78Z" transform="translate(-10 -2)" fill="#f0d0b4"/>
        </g>
        <g id="Grupo_972649" data-name="Grupo 972649" transform="translate(2.874 39.154)">
          <path id="Trazado_737827" data-name="Trazado 737827" d="M34,60.1v.7H8.83a1.407,1.407,0,0,1-1.119-.559l-1.4-1.867A1.468,1.468,0,0,1,6.11,58H33.532Z" transform="translate(-6.11 -58)" fill="#f0d0b4"/>
        </g>
        <g id="Grupo_972650" data-name="Grupo 972650" transform="translate(2.797 2.797)">
          <path id="Trazado_737828" data-name="Trazado 737828" d="M8.8,6H7.4A1.4,1.4,0,0,0,6,7.4v34.49a1.5,1.5,0,0,0,.077.468H33.5l-.86-3.873a1.535,1.535,0,0,1,.007-.643l.042-.154,1.279-5.118V6Z" transform="translate(-6 -6)" fill="#e6e9ed"/>
        </g>
        <g id="Grupo_972651" data-name="Grupo 972651" transform="translate(0 8.39)">
          <path id="Trazado_737829" data-name="Trazado 737829" d="M7.593,14.7v1.4a.7.7,0,0,1-.7.7H2.7a.7.7,0,0,1-.7-.7V14.7a.7.7,0,0,1,.7-.7h4.2A.7.7,0,0,1,7.593,14.7Z" transform="translate(-2 -14)" fill="#ef7385"/>
        </g>
        <g id="Grupo_972652" data-name="Grupo 972652" transform="translate(0 13.984)">
          <path id="Trazado_737830" data-name="Trazado 737830" d="M7.593,22.7v1.4a.7.7,0,0,1-.7.7H2.7a.7.7,0,0,1-.7-.7V22.7a.7.7,0,0,1,.7-.7h4.2A.7.7,0,0,1,7.593,22.7Z" transform="translate(-2 -22)" fill="#ef7385"/>
        </g>
        <g id="Grupo_972653" data-name="Grupo 972653" transform="translate(0 19.577)">
          <path id="Trazado_737831" data-name="Trazado 737831" d="M7.593,30.7v1.4a.7.7,0,0,1-.7.7H2.7a.7.7,0,0,1-.7-.7V30.7a.7.7,0,0,1,.7-.7h4.2A.7.7,0,0,1,7.593,30.7Z" transform="translate(-2 -30)" fill="#ef7385"/>
        </g>
        <g id="Grupo_972654" data-name="Grupo 972654" transform="translate(0 25.17)">
          <path id="Trazado_737832" data-name="Trazado 737832" d="M7.593,38.7v1.4a.7.7,0,0,1-.7.7H2.7a.7.7,0,0,1-.7-.7V38.7a.7.7,0,0,1,.7-.7h4.2A.7.7,0,0,1,7.593,38.7Z" transform="translate(-2 -38)" fill="#ef7385"/>
        </g>
        <g id="Grupo_972655" data-name="Grupo 972655" transform="translate(0 30.764)">
          <path id="Trazado_737833" data-name="Trazado 737833" d="M7.593,46.7v1.4a.7.7,0,0,1-.7.7H2.7a.7.7,0,0,1-.7-.7V46.7a.7.7,0,0,1,.7-.7h4.2A.7.7,0,0,1,7.593,46.7Z" transform="translate(-2 -46)" fill="#ef7385"/>
        </g>
        <g id="Grupo_972656" data-name="Grupo 972656" transform="translate(18.179 6.992)">
          <path id="Trazado_737834" data-name="Trazado 737834" d="M28,12h8.39v8.39H28Z" transform="translate(-28 -12)" fill="#69d6f4"/>
        </g>
        <g id="Grupo_972657" data-name="Grupo 972657" transform="translate(8.39 26.569)">
          <path id="Trazado_737835" data-name="Trazado 737835" d="M14,40h8.39v8.39H14Z" transform="translate(-14 -40)" fill="#fcd770"/>
        </g>
        <g id="Grupo_972658" data-name="Grupo 972658" transform="translate(29.484 8.998)">
          <path id="Trazado_737836" data-name="Trazado 737836" d="M56.035,16.254a3.454,3.454,0,0,0-2.762-1.384,3.507,3.507,0,0,0-1.1.182l-.021.007a3.464,3.464,0,0,0-2.272,2.454L44.17,40.355l6.209,1.692a.8.8,0,0,0,.063-.182l6.1-23.031a3.177,3.177,0,0,0,.1-.769A3.013,3.013,0,0,0,56.035,16.254Z" transform="translate(-44.17 -14.87)" fill="#fcd770"/>
        </g>
        <g id="Grupo_972659" data-name="Grupo 972659" transform="translate(29.405 34.483)">
          <path id="Trazado_737837" data-name="Trazado 737837" d="M44.136,51.32l6.209,1.692a1.4,1.4,0,0,1-.3.447l-4.629,4.629-.468-2.1-.86-3.873a1.535,1.535,0,0,1,.007-.643Z" transform="translate(-44.056 -51.32)" fill="#aab2bd"/>
        </g>
      </g>
      <g id="Grupo_972661" data-name="Grupo 972661" transform="translate(1 1)">
        <path id="Trazado_737838" data-name="Trazado 737838" d="M36.788,11H27v9.788h9.788Zm-1.4,8.39H28.4V12.4H35.39Z" transform="translate(-8.821 -4.008)"/>
        <path id="Trazado_737839" data-name="Trazado 737839" d="M13,11h2.8v1.4H13Z" transform="translate(-4.61 -4.008)"/>
        <path id="Trazado_737840" data-name="Trazado 737840" d="M19,11h4.2v1.4H19Z" transform="translate(-6.415 -4.008)"/>
        <path id="Trazado_737841" data-name="Trazado 737841" d="M13,15h8.39v1.4H13Z" transform="translate(-4.61 -5.212)"/>
        <path id="Trazado_737842" data-name="Trazado 737842" d="M13,19h8.39v1.4H13Z" transform="translate(-4.61 -6.415)"/>
        <path id="Trazado_737843" data-name="Trazado 737843" d="M13,23h8.39v1.4H13Z" transform="translate(-4.61 -7.618)"/>
        <path id="Trazado_737844" data-name="Trazado 737844" d="M13,27H32.577v1.4H13Z" transform="translate(-4.61 -8.821)"/>
        <path id="Trazado_737845" data-name="Trazado 737845" d="M13,31H32.577v1.4H13Z" transform="translate(-4.61 -10.025)"/>
        <path id="Trazado_737846" data-name="Trazado 737846" d="M13,35H32.577v1.4H13Z" transform="translate(-4.61 -11.228)"/>
        <path id="Trazado_737847" data-name="Trazado 737847" d="M22.788,39H13v9.788h9.788Zm-1.4,8.39H14.4V40.4H21.39Z" transform="translate(-4.61 -12.431)"/>
        <path id="Trazado_737848" data-name="Trazado 737848" d="M29,43h8.39v1.4H29Z" transform="translate(-9.423 -13.635)"/>
        <path id="Trazado_737849" data-name="Trazado 737849" d="M29,47h8.39v1.4H29Z" transform="translate(-9.423 -14.838)"/>
        <path id="Trazado_737850" data-name="Trazado 737850" d="M43.606,11.662a4.181,4.181,0,0,0-7.39,1.511L35.959,14.2V3.1a2.1,2.1,0,0,0-2.1-2.1H8.691a2.1,2.1,0,0,0-2.1,2.1v.7h-.7a2.1,2.1,0,0,0-2.1,2.1v3.5H2.4a1.4,1.4,0,0,0-1.4,1.4v1.4a1.4,1.4,0,0,0,1.4,1.4H3.8v1.4H2.4a1.4,1.4,0,0,0-1.4,1.4v1.4a1.4,1.4,0,0,0,1.4,1.4H3.8v1.4H2.4a1.4,1.4,0,0,0-1.4,1.4v1.4a1.4,1.4,0,0,0,1.4,1.4H3.8v1.4H2.4a1.4,1.4,0,0,0-1.4,1.4v1.4a1.4,1.4,0,0,0,1.4,1.4H3.8v1.4H2.4a1.4,1.4,0,0,0-1.4,1.4v1.4a1.4,1.4,0,0,0,1.4,1.4H3.8v4.428a2.106,2.106,0,0,0,.42,1.259l1.4,1.865a2.107,2.107,0,0,0,1.678.839H33.162V43.24l4.423-4.423h0a2.089,2.089,0,0,0,.543-.945l6.1-23.027a3.719,3.719,0,0,0-.619-3.182ZM7.992,3.1a.7.7,0,0,1,.7-.7h25.17a.7.7,0,0,1,.7.7V19.792l-1.4,5.593V3.8H7.992Zm23.887,34,4.282,1.168-3.292,3.292ZM2.4,10.788h4.2v1.4H2.4Zm0,5.593h4.2v1.4H2.4Zm0,5.593h4.2v1.4H2.4Zm0,5.593h4.2v1.4H2.4Zm0,5.593h4.2v1.4H2.4Zm4.2,2.8a1.4,1.4,0,0,0,1.4-1.4v-1.4a1.4,1.4,0,0,0-1.4-1.4H5.2v-1.4h1.4a1.4,1.4,0,0,0,1.4-1.4v-1.4a1.4,1.4,0,0,0-1.4-1.4H5.2v-1.4h1.4a1.4,1.4,0,0,0,1.4-1.4v-1.4a1.4,1.4,0,0,0-1.4-1.4H5.2v-1.4h1.4a1.4,1.4,0,0,0,1.4-1.4v-1.4a1.4,1.4,0,0,0-1.4-1.4H5.2v-1.4h1.4a1.4,1.4,0,0,0,1.4-1.4v-1.4a1.4,1.4,0,0,0-1.4-1.4H5.2v-3.5a.7.7,0,0,1,.7-.7H31.764V30.977l-1.3,5.191a2.125,2.125,0,0,0-.013.963l.672,3.022H5.2v-4.2Zm.14,6.712-.839-1.119H31.436l.31,1.4H7.293A.7.7,0,0,1,6.733,42.671Zm30.175-5.652-4.881-1.331L34.649,25.2l5.025,1.37Zm5.965-22.534L40.031,25.222l-5.043-1.376,2.583-10.334A2.812,2.812,0,0,1,40.285,11.4a2.751,2.751,0,0,1,2.2,1.1,2.321,2.321,0,0,1,.387,1.984Z" transform="translate(-1 -1)"/>
      </g>
    </g>
  </g>
</svg>
