<svg xmlns="http://www.w3.org/2000/svg" width="38" height="38" viewBox="0 0 38 38">
  <g id="Grupo_972896" data-name="Grupo 972896" transform="translate(4884 17258)">
    <g id="Elipse_5984" data-name="Elipse 5984" transform="translate(-4884 -17258)" fill="#bfdb77" stroke="#fff" stroke-width="3">
      <circle cx="19" cy="19" r="19" stroke="none"/>
      <circle cx="19" cy="19" r="17.5" fill="none"/>
    </g>
    <path id="Trazado_738351" data-name="Trazado 738351" d="M-3.076,0H-6.047V-9.457L-8.965-8.6v-2.25L-3.349-12.8h.272ZM9.712,0H.782V-1.934L4.9-6.258A4.909,4.909,0,0,0,6.416-9.009a1.913,1.913,0,0,0-.36-1.257A1.287,1.287,0,0,0,5.01-10.7a1.3,1.3,0,0,0-1.1.576,2.366,2.366,0,0,0-.422,1.437H.519a4.2,4.2,0,0,1,.589-2.175,4.129,4.129,0,0,1,1.635-1.56,4.856,4.856,0,0,1,2.338-.562,4.777,4.777,0,0,1,3.195.958A3.42,3.42,0,0,1,9.4-9.272,4,4,0,0,1,9.114-7.8,6.456,6.456,0,0,1,8.24-6.3a22.029,22.029,0,0,1-1.912,2.1L4.676-2.285H9.712Z" transform="translate(-4865 -17233)" fill="#12263f"/>
  </g>
</svg>
