<svg xmlns="http://www.w3.org/2000/svg" width="80" height="80" viewBox="0 0 80 80">
  <g id="Grupo_972666" data-name="Grupo 972666" transform="translate(-2362.25 14041)">
    <g id="Elipse_6755" data-name="Elipse 6755" transform="translate(2362.25 -14041)" fill="#bfdb77" stroke="#fff" stroke-width="3">
      <circle cx="40" cy="40" r="40" stroke="none"/>
      <circle cx="40" cy="40" r="38.5" fill="none"/>
    </g>
    <g id="mantenimiento" transform="translate(2363.59 -14025.279)">
      <path id="Trazado_737761" data-name="Trazado 737761" d="M144.279,21.758h-.137c0-4.046-.673-12.949-7.956-12.949V8H131.33v.809c-7.284,0-7.956,8.9-7.956,12.949H120V25h27.516V21.758Z" transform="translate(-93.479 -7.191)" fill="#e3ac34"/>
      <path id="Trazado_737762" data-name="Trazado 737762" d="M51.516,216.186V211.33H47.152a9.644,9.644,0,0,0-1.034-2.5l3.086-3.087-3.433-3.433L42.684,205.4a9.643,9.643,0,0,0-2.5-1.034V200H35.33v4.365a9.643,9.643,0,0,0-2.5,1.034l-3.087-3.086-3.433,3.433,3.086,3.087a9.643,9.643,0,0,0-1.034,2.5H24v4.856h4.365a9.645,9.645,0,0,0,1.034,2.5l-3.086,3.087,3.433,3.433,3.086-3.086a9.643,9.643,0,0,0,2.5,1.034v4.365h4.856v-4.365a9.643,9.643,0,0,0,2.5-1.034L45.77,225.2,49.2,221.77l-3.086-3.086a9.643,9.643,0,0,0,1.034-2.5Zm-13.758,3.237a5.665,5.665,0,1,1,5.665-5.665A5.665,5.665,0,0,1,37.758,219.423Z" transform="translate(-7.191 -179.768)" fill="#dbdce0"/>
      <path id="Trazado_737763" data-name="Trazado 737763" d="M326.567,208.9v-3.237h-2.71a4.982,4.982,0,0,0-.2-.471l1.916-1.916-2.289-2.289-1.917,1.916a4.7,4.7,0,0,0-.47-.2V200h-3.237v2.71a4.7,4.7,0,0,0-.47.2l-1.917-1.916-2.289,2.289,1.916,1.916a5.007,5.007,0,0,0-.2.471H312V208.9h2.71a4.9,4.9,0,0,0,.2.47l-1.916,1.917,2.289,2.289,1.916-1.916a4.8,4.8,0,0,0,.471.2v2.71H320.9v-2.71a4.8,4.8,0,0,0,.471-.2l1.916,1.916,2.289-2.289-1.916-1.917a4.889,4.889,0,0,0,.2-.47Zm-7.284.809a2.428,2.428,0,1,1,2.428-2.428A2.428,2.428,0,0,1,319.284,209.712Z" transform="translate(-266.056 -179.768)" fill="#989aa0"/>
      <path id="Trazado_737764" data-name="Trazado 737764" d="M102.474,272a6.474,6.474,0,1,0,6.474,6.474A6.474,6.474,0,0,0,102.474,272Zm0,11.33a4.856,4.856,0,1,1,4.856-4.856A4.856,4.856,0,0,1,102.474,283.33Z" transform="translate(-71.907 -244.484)"/>
      <path id="Trazado_737765" data-name="Trazado 737765" d="M44.325,209.8a.809.809,0,0,0,.809-.809v-4.856a.809.809,0,0,0-.809-.809H40.568a10.393,10.393,0,0,0-.639-1.546l2.657-2.656a.809.809,0,0,0,0-1.144l-3.435-3.434a.809.809,0,0,0-1.144,0l-2.656,2.656a10.447,10.447,0,0,0-1.546-.639v-3.758A.809.809,0,0,0,33,192H28.139a.809.809,0,0,0-.809.809v3.758a10.444,10.444,0,0,0-1.546.639l-2.656-2.656a.809.809,0,0,0-1.144,0l-3.435,3.434a.809.809,0,0,0,0,1.144l2.657,2.656a10.393,10.393,0,0,0-.639,1.546H16.809a.809.809,0,0,0-.809.809V209a.809.809,0,0,0,.809.809h3.758a10.393,10.393,0,0,0,.639,1.546l-2.657,2.656a.809.809,0,0,0,0,1.144l3.435,3.434a.809.809,0,0,0,1.144,0l2.656-2.656a10.444,10.444,0,0,0,1.546.639v3.758a.809.809,0,0,0,.809.809H33a.809.809,0,0,0,.809-.809v-3.758a10.445,10.445,0,0,0,1.546-.639l2.656,2.656a.809.809,0,0,0,1.144,0l3.435-3.434a.809.809,0,0,0,0-1.144l-2.657-2.656a10.392,10.392,0,0,0,.639-1.546Zm-5.149-1.012a8.85,8.85,0,0,1-.947,2.289.809.809,0,0,0,.125.983l2.514,2.514-2.29,2.289-2.514-2.514a.809.809,0,0,0-.984-.125,8.837,8.837,0,0,1-2.288.947.809.809,0,0,0-.607.783v3.556H28.949V215.96a.809.809,0,0,0-.607-.783,8.837,8.837,0,0,1-2.288-.947.809.809,0,0,0-.984.125l-2.514,2.514-2.29-2.289,2.514-2.514a.809.809,0,0,0,.125-.983,8.849,8.849,0,0,1-.947-2.289.809.809,0,0,0-.783-.607H17.619v-3.238h3.556a.809.809,0,0,0,.783-.607,8.849,8.849,0,0,1,.947-2.289.809.809,0,0,0-.125-.983l-2.514-2.514,2.29-2.29,2.514,2.514a.809.809,0,0,0,.984.125,8.835,8.835,0,0,1,2.288-.947.809.809,0,0,0,.607-.783v-3.555h3.237v3.556a.809.809,0,0,0,.607.783,8.835,8.835,0,0,1,2.288.947.809.809,0,0,0,.984-.125l2.514-2.514,2.29,2.29-2.514,2.514a.809.809,0,0,0-.125.983,8.849,8.849,0,0,1,.947,2.289.809.809,0,0,0,.783.607h3.555v3.237H39.96A.809.809,0,0,0,39.177,208.793Z" transform="translate(0 -172.577)"/>
      <path id="Trazado_737766" data-name="Trazado 737766" d="M141.135,17.8V14.567a.809.809,0,0,0-.809-.809h-2.582c-.189-4.694-2.031-12.264-7.939-12.9V.809A.809.809,0,0,0,129,0h-4.856a.809.809,0,0,0-.809.809V.857c-5.908.637-7.751,8.207-7.939,12.9h-2.582a.809.809,0,0,0-.809.809V17.8a.809.809,0,0,0,.809.809h27.516A.809.809,0,0,0,141.135,17.8ZM139.516,17h-25.9V15.377h6.474V13.758h-3.082c.168-4.1,1.654-10.591,6.319-11.268V9.712h1.619V1.619h3.237V9.712H129.8V2.49c4.665.677,6.151,7.166,6.319,11.268H121.712v1.619h17.8Z" transform="translate(-86.288)"/>
      <path id="Trazado_737767" data-name="Trazado 737767" d="M320.186,201.712v-3.237a.809.809,0,0,0-.809-.809h-1.422l1.005-1.006a.809.809,0,0,0,0-1.144l-2.289-2.289a.809.809,0,0,0-1.144,0l-1.006,1.005v-1.422a.809.809,0,0,0-.809-.809h-3.237a.809.809,0,0,0-.809.809v1.422l-1.006-1.005a.809.809,0,0,0-1.144,0l-2.289,2.289a.809.809,0,0,0,0,1.144l1.005,1.006h-1.422a.809.809,0,0,0-.809.809v3.237a.809.809,0,0,0,.809.809h1.422l-1.005,1.006a.809.809,0,0,0,0,1.144l2.289,2.289a.809.809,0,0,0,1.144,0l1.006-1.006v1.423a.809.809,0,0,0,.809.809h3.237a.809.809,0,0,0,.809-.809v-1.423l1.006,1.006a.833.833,0,0,0,1.144,0l2.289-2.289a.809.809,0,0,0,0-1.144l-1.005-1.006h1.422A.809.809,0,0,0,320.186,201.712Zm-1.619-.809h-1.9a.809.809,0,0,0-.762.536q-.071.2-.162.4a.809.809,0,0,0,.162.921l1.344,1.344-1.15,1.144-1.344-1.347a.809.809,0,0,0-.919-.162,4.1,4.1,0,0,1-.393.162.809.809,0,0,0-.54.763v1.908h-1.619v-1.9a.809.809,0,0,0-.54-.763,4.111,4.111,0,0,1-.393-.162.809.809,0,0,0-.919.162l-1.344,1.34-1.144-1.144,1.347-1.344a.809.809,0,0,0,.162-.921q-.091-.194-.162-.4a.809.809,0,0,0-.77-.536h-1.9v-1.619h1.9a.809.809,0,0,0,.762-.536q.071-.2.162-.4a.809.809,0,0,0-.162-.921l-1.339-1.344,1.144-1.144,1.345,1.347a.809.809,0,0,0,.921.162,3.785,3.785,0,0,1,.391-.162.809.809,0,0,0,.54-.77v-1.9H312.9v1.9a.809.809,0,0,0,.54.763,3.78,3.78,0,0,1,.391.162.809.809,0,0,0,.921-.162l1.345-1.344,1.144,1.144-1.347,1.348a.809.809,0,0,0-.162.921q.091.194.162.4a.809.809,0,0,0,.762.536h1.909Z" transform="translate(-258.865 -172.577)"/>
      <path id="Trazado_737768" data-name="Trazado 737768" d="M355.237,240a3.237,3.237,0,1,0,3.237,3.237A3.237,3.237,0,0,0,355.237,240Zm0,4.856a1.619,1.619,0,1,1,1.619-1.619A1.619,1.619,0,0,1,355.237,244.856Z" transform="translate(-302.009 -215.721)"/>
    </g>
  </g>
</svg>
