<svg xmlns="http://www.w3.org/2000/svg" width="80" height="80" viewBox="0 0 80 80">
  <g id="Grupo_972668" data-name="Grupo 972668" transform="translate(-3031 14325)">
    <g id="Elipse_6754" data-name="Elipse 6754" transform="translate(3031 -14325)" fill="#bfdb77" stroke="#fff" stroke-width="3">
      <circle cx="40" cy="40" r="40" stroke="none"/>
      <circle cx="40" cy="40" r="38.5" fill="none"/>
    </g>
    <g id="cambio-climatico" transform="translate(3032.025 -14324)">
      <circle id="Elipse_6762" data-name="Elipse 6762" cx="3.833" cy="3.833" r="3.833" transform="translate(50.476 19.833)" fill="#ecb347"/>
      <circle id="Elipse_6763" data-name="Elipse 6763" cx="22.232" cy="22.232" r="22.232" transform="translate(16.744 16.766)" fill="#af4f45"/>
      <path id="Trazado_737737" data-name="Trazado 737737" d="M25.916,49.107A22.233,22.233,0,0,1,65.639,35.382a22.234,22.234,0,1,0-36.9,24.577A22.129,22.129,0,0,1,25.916,49.107Z" transform="translate(-7.256 -7.234)" fill="#eeaaa8"/>
      <path id="Trazado_737738" data-name="Trazado 737738" d="M52.675,267.751a.766.766,0,0,0,.039-.242h1.533a.767.767,0,0,0,.613-.307l2.99-3.987-1.227-.92-2.76,3.68h-1.62l-.336-1.009a.767.767,0,0,0-.727-.524H48.432l-1.784-1.784.344-.516h2.656a.767.767,0,0,0,.638-.341l1.108-1.662,1.662,1.108a.766.766,0,0,0,.611.106l3.525-.882-.372-1.487-3.2.8-1.6-1.065.684-3.729,4.86-2.472-.7-1.367-5.2,2.645a.767.767,0,0,0-.407.545l-.815,4.443-1.218,1.827H46.991l-1.1-1.647.648-1.944a.767.767,0,0,0-.089-.668l-1.25-1.875,1.25-1.875-1.276-.851-1.1,1.652-2.115-1.459a.768.768,0,0,0-.656-.1l-1.452.436-1.112-1.353-1.185.973,1.436,1.747a.767.767,0,0,0,.813.248l1.588-.476,2.333,1.609,1.244,1.866-.474,1.42H41.447l-2.107-1.4a.767.767,0,0,0-.967.1l-1.309,1.309H35.408q.254.78.564,1.533h1.41a.767.767,0,0,0,.542-.225l1.089-1.089,1.558,1.039.473,1.419-.939.47a.767.767,0,0,0-.343.343l-1.283,2.566q.5.691,1.044,1.342l1.2-2.4,2.244,1.683,1.908,2.544-1.292,1.938q.622.447,1.275.851L46,268.608l1.976,1.482-.535,1.608q.7.314,1.423.581l.567-1.7h1.149l.6,2.414q.822.2,1.667.345l-.874-3.5ZM43.6,263.544l-1.7-1.271.424-.212a.767.767,0,0,0,.384-.928l-.43-1.291h2.359l1.022,1.533-1.137,1.706Zm7.033,5.5H49.136l-2.775-2.081-1.683-2.244.712-.356a.766.766,0,0,0,.295-.26l.095-.142,1.792,1.792a.767.767,0,0,0,.542.225h2.514l.511,1.533Z" transform="translate(-17.571 -212.411)" fill="#e97867"/>
      <path id="Trazado_737739" data-name="Trazado 737739" d="M256,24a22.232,22.232,0,0,1,0,44.465Z" transform="translate(-217.024 -7.234)" fill="#c18423"/>
      <path id="Trazado_737740" data-name="Trazado 737740" d="M266.538,39.138l.58.58a4.332,4.332,0,0,1,5.721-.139l2.336,1.956a12.735,12.735,0,0,0,1.756-1.86l.224-.292A22.24,22.24,0,0,0,256,24V40.866l1.728-1.728A6.23,6.23,0,0,1,266.538,39.138Z" transform="translate(-217.024 -7.234)" fill="#f6e597"/>
      <path id="Trazado_737741" data-name="Trazado 737741" d="M286.133,89.533v1.533H284.6V88h-1.533v1.533h-1.533V88H280v2.3a.767.767,0,0,0,.767.767h2.3v4.7H284.6V92.6h2.3a.767.767,0,0,0,.767-.767v-2.3Z" transform="translate(-238.724 -65.101)" fill="#64962f"/>
      <path id="Trazado_737742" data-name="Trazado 737742" d="M284.6,347.067h-3.833A.767.767,0,0,1,280,346.3V344h1.533v1.533H284.6Z" transform="translate(-238.724 -296.568)" fill="#64962f"/>
      <path id="Trazado_737743" data-name="Trazado 737743" d="M320,344.433v-6.9a1.533,1.533,0,0,1,3.067,0v6.9Z" transform="translate(-274.89 -289.335)" fill="#79b53f"/>
      <path id="Trazado_737744" data-name="Trazado 737744" d="M332.6,337.533v2.3h-2.3v-2.3a1.531,1.531,0,0,0-2.3-1.326,1.531,1.531,0,0,1,.767,1.326v6.9H330.3v-3.067h3.067a.767.767,0,0,0,.767-.767v-3.067Z" transform="translate(-282.124 -289.335)" fill="#64962f"/>
      <path id="Trazado_737745" data-name="Trazado 737745" d="M263.217,415.244a7.17,7.17,0,0,0-6.189,1.181L256,417.2v4.791a22.138,22.138,0,0,0,14.012-4.972l-1.745-.395Z" transform="translate(-217.024 -360.757)" fill="#ecb347"/>
      <path id="Trazado_737746" data-name="Trazado 737746" d="M278.114,254.583h-.2a2.647,2.647,0,0,1-2.01-.924,5.067,5.067,0,0,0-7.66-.039,5.067,5.067,0,0,1-3.813,1.73h-3.067a17.338,17.338,0,0,1-1.45-1.227l-.126-.119a2.914,2.914,0,0,0-3.791-.187v4.6h11.883q-.83-.195-1.632-.469H277.5A22.141,22.141,0,0,0,278.114,254.583Z" transform="translate(-217.023 -213.285)" fill="#ecb347"/>
      <path id="Trazado_737747" data-name="Trazado 737747" d="M42.885,21.366V22.9h2.3a.767.767,0,0,0,.542-.225l1.383-1.383,2.172-.543,1.309,3.926,1.454-.485-1.383-4.15.1-.1,1.85.617a.769.769,0,0,0,.242.039h2.3V19.067H52.976l-1.005-.335.656-.656a.767.767,0,0,0,.225-.542V16H51.318v1.216L49.633,18.9l-1.11-.555,1.037-1.037-1.084-1.084-1.292,1.292-.546-1.093-1.371.686.767,1.533a.767.767,0,0,0,.343.343l1.213.607-.839.21-1.917-.639-1.405-1.405-1.084,1.084,1.533,1.533a.768.768,0,0,0,.3.185l1.123.375-.431.431Z" transform="translate(-23.841 0)" fill="#c18423"/>
      <path id="Trazado_737748" data-name="Trazado 737748" d="M124.512,96.957l.864-1.3,1.351-.676-.686-1.371-.743.371-.487-1.461-1.454.485L124,94.953l-1.175,1.763-2.261.712-1.178-1.234-.612-1.836.625-1.249-1.371-.686-.767,1.533a.767.767,0,0,0-.042.585l.43,1.291h-.919l-1.309-1.309-1.084,1.084,1.533,1.533a.767.767,0,0,0,.542.225h1.972l1.142,1.2-.806,5.594,1.518.219.791-5.486,2.277-.717,2.064.688a.77.77,0,0,0,.242.039h.767V97.366h-.642Z" transform="translate(-88.941 -69.101)" fill="#c18423"/>
      <path id="Trazado_737749" data-name="Trazado 737749" d="M59.279,137.776l-1.454-.485-.634,1.9-2.329.582-1.24-.826.872-.872a.767.767,0,0,0,.224-.542V136H53.185v1.216l-.767.767-.991-.991-1.084,1.084,1.423,1.422-1.123.375.485,1.455,2.2-.733.674.449.723,5.785,1.521-.19-.682-5.459,2.191-.548,2.088.7.485-1.455-1.573-.524Z" transform="translate(-31.075 -108.501)" fill="#c18423"/>
      <g id="Grupo_972626" data-name="Grupo 972626" transform="translate(49.163 16)">
        <path id="Trazado_737750" data-name="Trazado 737750" d="M408,16h1.533v1.533H408Z" transform="translate(-403.621 -16)" fill="#f6e597"/>
        <path id="Trazado_737751" data-name="Trazado 737751" d="M480,88h1.533v1.533H480Z" transform="translate(-468.721 -81.1)" fill="#f6e597"/>
        <path id="Trazado_737752" data-name="Trazado 737752" d="M0,0H2.168V1.533H0Z" transform="translate(9.197 3.294) rotate(-45)" fill="#f6e597"/>
        <path id="Trazado_737753" data-name="Trazado 737753" d="M0,0H1.533V2.168H0Z" transform="translate(9.198 11.278) rotate(-45)" fill="#f6e597"/>
        <path id="Trazado_737754" data-name="Trazado 737754" d="M0,0H1.533V2.168H0Z" transform="translate(0 2.079) rotate(-45)" fill="#f6e597"/>
      </g>
      <path id="Trazado_737755" data-name="Trazado 737755" d="M52.851,17.533V16H51.318v1.216L49.633,18.9l-1.11-.555,1.037-1.037-1.084-1.084-1.292,1.292-.546-1.093-1.371.686.767,1.533a.767.767,0,0,0,.343.343l1.213.607-.839.21-1.917-.639-1.405-1.405-1.084,1.084,1.533,1.533a.768.768,0,0,0,.3.185l1.123.375-.431.431H42.885V22.9h2.3a.767.767,0,0,0,.542-.225l1.383-1.383,2.172-.543,1.309,3.926,1.454-.485-1.383-4.15.1-.1,1.85.617a.769.769,0,0,0,.242.039h2.3V19.067H52.976l-1.005-.335.656-.656A.767.767,0,0,0,52.851,17.533Z" transform="translate(-23.841 0)"/>
      <path id="Trazado_737756" data-name="Trazado 737756" d="M120.569,97.427l-1.178-1.234-.612-1.836.625-1.249-1.371-.686-.767,1.533a.767.767,0,0,0-.042.585l.43,1.291h-.919l-1.309-1.309-1.084,1.084,1.533,1.533a.767.767,0,0,0,.542.225h1.972l1.142,1.2-.806,5.594,1.518.219.791-5.486,2.277-.717,2.064.688a.769.769,0,0,0,.242.039h.767V97.365h-.642l-1.23-.41.864-1.3,1.351-.676-.686-1.371-.743.371-.487-1.461-1.454.485L124,94.952l-1.175,1.763Z" transform="translate(-88.941 -69.099)"/>
      <path id="Trazado_737757" data-name="Trazado 737757" d="M408,16h1.533v1.533H408Z" transform="translate(-354.457 0)"/>
      <path id="Trazado_737758" data-name="Trazado 737758" d="M480,88h1.533v1.533H480Z" transform="translate(-419.558 -65.101)"/>
      <path id="Trazado_737759" data-name="Trazado 737759" d="M0,0H2.168V1.533H0Z" transform="translate(58.361 19.293) rotate(-45)"/>
      <path id="Trazado_737760" data-name="Trazado 737760" d="M59.9,28.808l1.084-1.084L59.451,26.19l-.832.832c-.161-.263-.326-.524-.5-.781a4.6,4.6,0,0,0-6.386-6.386c-.257-.172-.518-.338-.781-.5l.832-.832-1.533-1.533-1.085,1.084.6.6a23.111,23.111,0,0,0-17.139-1.791l.422,1.474a21.46,21.46,0,0,1,5.157-.814V39.3l-4.1,2.087a.767.767,0,0,0-.407.545l-.815,4.443L31.667,48.2H29.42l-1.1-1.647.648-1.944a.767.767,0,0,0-.089-.668l-1.25-1.875,1.25-1.875-1.276-.851-1.1,1.652L24.39,39.533a.768.768,0,0,0-.656-.1l-1.452.436L21.17,38.512l-1.185.973,1.436,1.747a.767.767,0,0,0,.813.248L23.822,41l2.333,1.609L27.4,44.478l-.474,1.42H23.876l-2.107-1.4a.767.767,0,0,0-.967.1L19.493,45.9H18.64a21.544,21.544,0,0,1,.914-16.039L20.691,31l-1.123.375.485,1.455,2.2-.733.674.449.723,5.785,1.521-.19-.682-5.459,2.191-.548,2.088.7.485-1.455-1.573-.524.524-1.573L26.75,28.79l-.634,1.9-2.329.582-1.24-.826.872-.872a.767.767,0,0,0,.224-.542V27.5H22.11v1.216l-.767.767-.991-.991-.21.21a21.4,21.4,0,0,1,2.549-3.687l-1.163-1a23,23,0,0,0,33.309,31.64l-1.058-1.11A21.362,21.362,0,0,1,39.743,60.45V55.865l.46.613.215-.161a6.478,6.478,0,0,1,5.628-1.075L51.041,56.6l.4-1.479-2.483-.677-.007-2.417h2.288a.767.767,0,0,0,.767-.767V48.2H50.476v2.3H48.95l-.007-2.3a2.3,2.3,0,1,0-4.6,0v.767H42.81V47.432H41.276v2.3a.767.767,0,0,0,.767.767h2.3v2.978a7.992,7.992,0,0,0-4.6,1.438V40.945a2.133,2.133,0,0,1,2.5.33l.126.119a18.125,18.125,0,0,0,8.318,4.484l.35-1.493a16.573,16.573,0,0,1-4.09-1.554h.466A5.833,5.833,0,0,0,51.8,40.84a4.3,4.3,0,0,1,3.236-1.468h.022a4.3,4.3,0,0,1,3.243,1.5A3.409,3.409,0,0,0,60.23,42a21.454,21.454,0,0,1-4.979,11l1.162,1A23.036,23.036,0,0,0,59.3,28.206ZM25.138,48.723l-.43-1.291h2.359l1.022,1.533-1.137,1.706-.927.464-1.7-1.271.424-.212a.767.767,0,0,0,.384-.929ZM21.3,51.179a21.25,21.25,0,0,1-2.07-3.748h.585a.767.767,0,0,0,.542-.225l1.089-1.089L23,47.157l.473,1.42-.939.47a.767.767,0,0,0-.343.343Zm5.141,5.246a21.758,21.758,0,0,1-4.111-3.877l.826-1.653L25.4,52.579,27.3,55.124Zm3.677,2.135a21.251,21.251,0,0,1-2.4-1.282l.721-1.081,1.976,1.482Zm1.422.584.327-.98h1.149l.393,1.572q-.949-.253-1.868-.592Zm1.521-2.513H31.566L28.791,54.55l-1.683-2.244.712-.356a.766.766,0,0,0,.295-.26l.095-.142L30,53.34a.767.767,0,0,0,.542.225h2.514l.511,1.533ZM38.21,60.45a21.643,21.643,0,0,1-3.131-.337l-.671-2.683.7-2.088a.766.766,0,0,0,.039-.243h1.533a.767.767,0,0,0,.613-.307l.92-1.227Zm0-9.44-1.917,2.555h-1.62l-.336-1.009a.767.767,0,0,0-.727-.524H30.861l-1.784-1.784.344-.516h2.656a.767.767,0,0,0,.638-.341l1.108-1.662,1.662,1.108a.766.766,0,0,0,.611.106l2.114-.529Zm0-4.176-2.157.539-1.6-1.065.684-3.729,3.071-1.562ZM45.876,48.2a.767.767,0,0,1,1.533,0l.018,5.829-.977-.267c-.191-.052-.382-.1-.574-.134Zm8.433-27.6a3.067,3.067,0,0,1,2.82,4.271A23.46,23.46,0,0,0,53.1,20.846a3.065,3.065,0,0,1,1.2-.247ZM39.743,17.548A21.5,21.5,0,0,1,59.28,32a12.023,12.023,0,0,1-1.148,1.284l-1.823-1.527a5.1,5.1,0,0,0-6.155-.3l-.084-.084a6.981,6.981,0,0,0-4.194-2.008V27.5h2.3a.767.767,0,0,0,.767-.767v-2.3H47.409v1.533H45.876V22.9H44.343v1.533H42.81V22.9H41.276v2.3a.767.767,0,0,0,.767.767h2.3v3.4a6.98,6.98,0,0,0-4.194,2.008l-.406.406ZM59.8,33.761A21.606,21.606,0,0,1,60.442,39q0,.735-.05,1.465a1.878,1.878,0,0,1-.927-.589,5.83,5.83,0,0,0-4.4-2.037h-.03a5.831,5.831,0,0,0-4.391,1.993A4.3,4.3,0,0,1,47.41,41.3H44.6q-.613-.48-1.183-1.017l-.126-.119a3.659,3.659,0,0,0-3.552-.868V32.866l.542.542.948-.948a5.488,5.488,0,0,1,7.753,0l.023.023-.569.569A4.569,4.569,0,0,1,45.186,34.4h-.843v1.533h.843a6.093,6.093,0,0,0,4.337-1.8l.99-.99a3.547,3.547,0,0,1,4.811-.212l1.621,1.358a11.96,11.96,0,0,1-3.169,1.684l.508,1.447A13.469,13.469,0,0,0,59.8,33.761Z" transform="translate(0)"/>
    </g>
  </g>
</svg>
