<svg xmlns="http://www.w3.org/2000/svg" width="80" height="80" viewBox="0 0 80 80">
  <g id="Grupo_972628" data-name="Grupo 972628" transform="translate(-2693 14041)">
    <g id="Elipse_6756" data-name="Elipse 6756" transform="translate(2693 -14041)" fill="#bfdb77" stroke="#fff" stroke-width="3">
      <circle cx="40" cy="40" r="40" stroke="none"/>
      <circle cx="40" cy="40" r="38.5" fill="none"/>
    </g>
    <g id="layer1" transform="translate(2709.88 -14024.641)">
      <path id="path7833" d="M3.49.265A2.163,2.163,0,0,0,1.323,2.432V27A2.163,2.163,0,0,0,3.49,29.165H41.06A2.163,2.163,0,0,0,43.228,27V2.432A2.163,2.163,0,0,0,41.06.265Z" transform="translate(2.29 0.458)" fill="#549ad4"/>
      <path id="path7863" d="M38.77.265C40.992,27.8,2.4,28.442,2.4,28.442l-.446.676a2.185,2.185,0,0,0,.446.047h37.57A2.163,2.163,0,0,0,42.137,27V2.432A2.163,2.163,0,0,0,39.969.265Z" transform="translate(3.381 0.458)" fill="#3588cb"/>
      <path id="path7838" d="M4.1,1.359A1.715,1.715,0,0,0,2.381,3.078V22.561A1.715,1.715,0,0,0,4.1,24.28H36.787a1.715,1.715,0,0,0,1.719-1.719V3.078a1.715,1.715,0,0,0-1.719-1.719Z" transform="translate(4.121 2.353)" fill="#e4eff8"/>
      <path id="path7858" d="M36.254,1.36c-.805,17.316-22.879,21.19-33.788,22.049a1.709,1.709,0,0,0,1.489.871H36.642A1.715,1.715,0,0,0,38.36,22.56V3.078A1.715,1.715,0,0,0,36.642,1.36Z" transform="translate(4.267 2.353)" fill="#c4dcf0"/>
      <path id="path7816" d="M15.953,27.038l-5.33-10.677a1.843,1.843,0,0,1,.661-2.467,1.8,1.8,0,0,1,2.467.661l2.2,3.813V7.53a1.445,1.445,0,1,1,2.89,0v6.5a1.445,1.445,0,1,1,2.89,0v.722a1.445,1.445,0,0,1,2.89,0v.723a1.445,1.445,0,1,1,2.89,0v6.5c0,2.167-1.445,3.612-1.445,5.057Z" transform="translate(18.005 10.532)" fill="#ffd1b5"/>
      <path id="path7828" d="M21.476,9c.27,10.748-7.448,12.79-8.364,13h8.266c0-1.445,1.445-2.89,1.445-5.057v-6.5A1.437,1.437,0,0,0,21.476,9Z" transform="translate(22.694 15.575)" fill="#ffb98d"/>
      <path id="path7825" d="M12.314,8.86a1.8,1.8,0,0,0-1.03.238,1.844,1.844,0,0,0-.66,2.468l5.33,10.677H17.4l-5.33-10.677a1.844,1.844,0,0,1,.66-2.468,1.786,1.786,0,0,1,.188-.085,1.8,1.8,0,0,0-.6-.154Z" transform="translate(18.005 15.327)" fill="#f5f9fb"/>
      <path id="path7790" d="M3.126,5.671A3.62,3.62,0,0,0,.265,9.444v6.147c0,2.049,2.167,6.384,2.167,7.829v2.89H13.4c0-1.441,1.54-3.6,1.548-6.5H9.611c-.36-2.986-2.843-3.715-2.843-5.058v-3.1C6.69,9.089,4.908,7.988,3.877,8.334V6.567Z" transform="translate(0.458 9.815)" fill="#ffd1b5"/>
      <path id="path7820" d="M3.126,5.671A3.62,3.62,0,0,0,.265,9.444v6.147c0,2.049,2.167,6.384,2.167,7.829v2.89H3.877V23.42c0-1.445-2.167-5.78-2.167-7.829V9.444A3.811,3.811,0,0,1,3.466,6.076Z" transform="translate(0.458 9.815)" fill="#f5f9fb"/>
      <path id="path7810" d="M11.954,10.848c-2.493,5.015-10.9,6.5-10.9,6.5H12.024c0-1.441,1.54-3.6,1.548-6.5Z" transform="translate(1.832 18.775)" fill="#ffb98d"/>
      <path id="rect7783" d="M13.351,13.758H23.466A1.442,1.442,0,0,1,24.911,15.2v5.058a1.442,1.442,0,0,1-1.445,1.445H13.351a1.442,1.442,0,0,1-1.445-1.445V15.2a1.442,1.442,0,0,1,1.445-1.445Z" transform="translate(20.606 23.812)" fill="#549ad4"/>
      <path id="path7785" d="M23.973,13.8c-1.331,5.334-8.5,6.807-12.043,6.807a1.437,1.437,0,0,0,1.379,1.032H23.424a1.442,1.442,0,0,0,1.445-1.445V15.134A1.441,1.441,0,0,0,23.973,13.8Z" transform="translate(20.648 23.881)" fill="#3588cb"/>
      <path id="path7787" d="M13.351,13.841a1.442,1.442,0,0,0-1.445,1.445v4.832a1.442,1.442,0,0,0,1.445,1.445H14.8a1.442,1.442,0,0,1-1.445-1.445V15.286A1.442,1.442,0,0,1,14.8,13.841Z" transform="translate(20.606 23.955)" fill="#f5f9fb"/>
      <path id="rect7771" d="M2.239,13.229H12.354A1.442,1.442,0,0,1,13.8,14.674v6.5a1.442,1.442,0,0,1-1.445,1.445H2.239A1.442,1.442,0,0,1,.794,21.177v-6.5a1.442,1.442,0,0,1,1.445-1.445Z" transform="translate(1.374 22.896)" fill="#549ad4"/>
      <path id="path7773" d="M12.861,13.269C11.53,18.6,4.012,20.808.818,21.521A1.437,1.437,0,0,0,2.2,22.553H12.312a1.442,1.442,0,0,0,1.445-1.445v-6.5a1.441,1.441,0,0,0-.9-1.336Z" transform="translate(1.416 22.965)" fill="#3588cb"/>
      <path id="rect7780" d="M2.239,13.229A1.442,1.442,0,0,0,.794,14.674v6.5a1.442,1.442,0,0,0,1.445,1.445H3.684a1.442,1.442,0,0,1-1.445-1.445v-6.5a1.442,1.442,0,0,1,1.445-1.445Z" transform="translate(1.374 22.896)" fill="#f5f9fb"/>
      <path id="path7803" d="M6.093,10.848c-.008,2.9-1.548,5.061-1.548,6.5H5.99c0-1.441,1.54-3.6,1.548-6.5Z" transform="translate(7.866 18.775)" fill="#ffb98d"/>
      <path id="path7808" d="M3.49,10v3.821c0,1.342,2.484,2.071,2.843,5.057H7.779c-.36-2.986-2.843-4.438-2.843-5.78V10C4.858,7.441,3.077,6.34,1.323,6.685,1.632,6.34,3.413,7.441,3.49,10Z" transform="translate(2.29 11.463)" fill="#ffb98d"/>
      <path id="path7844" d="M3.44,10.4a7.225,7.225,0,1,1,14.45,0v2.89H3.44Z" transform="translate(5.953 5.495)" fill="#ff5151"/>
      <g id="Grupo_972627" data-name="Grupo 972627" transform="translate(14.45 6.503)">
        <path id="path7856" d="M5.292,8.711V7.988a2.167,2.167,0,1,1,4.335,0v.722Z" transform="translate(-5.292 3.572)" fill="#ffca28"/>
        <path id="rect7840" d="M1.445,4.335A1.442,1.442,0,0,0,2.89,2.89V1.445a1.445,1.445,0,0,0-2.89,0V2.89A1.442,1.442,0,0,0,1.445,4.335Z" transform="translate(22.397 4.335) rotate(180)" fill="#ffca28"/>
        <path id="rect7842" d="M11.764,4.233a1.442,1.442,0,0,1,1.445,1.445V7.123a1.445,1.445,0,1,1-2.89,0V5.678a1.442,1.442,0,0,1,1.445-1.445Z" transform="translate(3.409 0.824)" fill="#ffca28"/>
      </g>
      <path id="path7848" d="M7,3.175a7.258,7.258,0,0,0-1.445.145,7.227,7.227,0,0,1,5.78,7.08v2.89h2.89V10.4A7.225,7.225,0,0,0,7,3.175Z" transform="translate(9.616 5.495)" fill="#ff2929"/>
      <path id="path7853" d="M10.665,3.175A7.225,7.225,0,0,0,3.44,10.4v2.89H4.885V10.4a7.227,7.227,0,0,1,6.5-7.19q-.357-.035-.722-.035Z" transform="translate(5.953 5.495)" fill="#f5f9fb"/>
      <path id="rect820" d="M5.781,0a2.9,2.9,0,0,0-2.89,2.891V14.926A4.042,4.042,0,0,0,.7,16.656a5.03,5.03,0,0,0-.7,2.6v6.148a14.667,14.667,0,0,0,1.125,4.379c.272.764.541,1.5.737,2.122a6.171,6.171,0,0,1,.3,1.322v2.731a2.162,2.162,0,0,0-.72,1.606v6.5A2.181,2.181,0,0,0,3.611,46.24H13.729a2.18,2.18,0,0,0,2.165-2.172v-6.5a2.175,2.175,0,0,0-1.238-1.953c.123-.494.375-1.173.656-1.961a12.86,12.86,0,0,0,.785-3.306H29.541l3.381,6.766a2.173,2.173,0,0,0-1.13,1.9v5.056a2.18,2.18,0,0,0,2.165,2.172H44.068a2.186,2.186,0,0,0,2.172-2.172V39.012a2.18,2.18,0,0,0-1.35-2,12.385,12.385,0,0,1,.566-1.405,7.434,7.434,0,0,0,.785-3.093V2.891A2.9,2.9,0,0,0,43.349,0Zm0,1.445H43.349a1.427,1.427,0,0,1,1.445,1.446V23.967a2.006,2.006,0,0,0-.725-.127,1.892,1.892,0,0,0-.72.131V5.056a2.174,2.174,0,0,0-2.165-2.165H7.946A2.174,2.174,0,0,0,5.781,5.056V17.605c-.044-.019-.088-.04-.133-.058a2.329,2.329,0,0,0-1.312-.155V2.891A1.428,1.428,0,0,1,5.781,1.445ZM7.226,18.919V5.056a.7.7,0,0,1,.72-.72H41.184a.7.7,0,0,1,.72.72V23.25a1.916,1.916,0,0,0-.72-.13,2.087,2.087,0,0,0-1.071.278,2.148,2.148,0,0,0-1.82-1,2.3,2.3,0,0,0-.725.126V19.51h2.16a.723.723,0,0,0,0-1.446h-2.16a2.168,2.168,0,1,0-4.336,0h-6.5a.723.723,0,0,0,0,1.446h6.5V26.2l-.852-1.476a2.537,2.537,0,0,0-3.452-.929,2.505,2.505,0,0,0-1.236,2.213H9.068c-.333-.365-.634-.661-.833-.9-.225-.273-.289-.421-.289-.542V21.455a4.981,4.981,0,0,0-.72-2.536ZM35.4,5.781a2.18,2.18,0,0,0-2.172,2.165h-6.5a.723.723,0,0,0,0,1.446h6.5a2.168,2.168,0,0,0,4.336,0h2.17a.723.723,0,0,0,0-1.446h-2.17A2.174,2.174,0,0,0,35.4,5.781Zm0,1.445a.7.7,0,0,1,.72.72V9.392a.723.723,0,1,1-1.446,0V7.946A.707.707,0,0,1,35.4,7.226Zm-18.784.72a7.957,7.957,0,0,0-7.946,7.948v2.89a.723.723,0,0,0,.72.727H23.838a.723.723,0,0,0,.727-.727v-2.89a7.957,7.957,0,0,0-7.946-7.948Zm-.725,1.486v.686a.723.723,0,0,0,1.445,0V9.432a6.469,6.469,0,0,1,3.34,1.377l-.487.487a.724.724,0,0,0,1.024,1.024l.487-.487a6.467,6.467,0,0,1,1.376,3.34H22.4a.723.723,0,1,0,0,1.445h.718v1.445H19.51a2.877,2.877,0,0,0-.708-1.888l1.215-1.215A.72.72,0,1,0,19,13.942l-1.408,1.4a2.859,2.859,0,0,0-.971-.169,2.9,2.9,0,0,0-2.89,2.89H10.118V16.619h.72a.723.723,0,0,0,0-1.445h-.68a6.469,6.469,0,0,1,1.377-3.34l.487.487A.722.722,0,0,0,13.04,11.3l-.484-.484A6.468,6.468,0,0,1,15.894,9.432ZM29.62,10.837A2.174,2.174,0,0,0,27.455,13H26.73a.723.723,0,0,0,0,1.446h.725a2.168,2.168,0,1,0,4.336,0h7.946a.723.723,0,0,0,0-1.446H31.791a2.18,2.18,0,0,0-2.172-2.165Zm0,1.445a.707.707,0,0,1,.727.72v1.446a.723.723,0,1,1-1.446,0V13A.7.7,0,0,1,29.62,12.282Zm-26.728,4.2v8.087a.723.723,0,0,0,1.445,0V19.3c0-.347.078-.4.171-.447a.745.745,0,0,1,.6.037,2.72,2.72,0,0,1,1.4,2.6v3.078a2.316,2.316,0,0,0,.619,1.466c.315.382.673.716,1.008,1.094a4.4,4.4,0,0,1,1.264,3.222.723.723,0,0,0,1.445,0h3.809a11.7,11.7,0,0,1-.694,2.821,14.769,14.769,0,0,0-.618,2.235H3.611V33.231a5.959,5.959,0,0,0-.368-1.76c-.211-.665-.488-1.408-.758-2.165a16.123,16.123,0,0,1-1.04-3.9V19.259A3.709,3.709,0,0,1,1.93,17.4a2.439,2.439,0,0,1,.961-.921Zm13.727.137a1.434,1.434,0,0,1,1.445,1.445h-2.89a1.434,1.434,0,0,1,1.445-1.445Zm19.5,1.445v9.391a.723.723,0,0,0,1.445,0v-2.89a.723.723,0,1,1,1.445,0v2.89a.723.723,0,0,0,1.445,0v-2.17a.723.723,0,0,1,1.446,0v2.17a.723.723,0,0,0,1.445,0V26.01a.723.723,0,1,1,1.445,0v6.5a6.052,6.052,0,0,1-.66,2.506,9.38,9.38,0,0,0-.706,1.83H34.4L29.274,26.57a1.1,1.1,0,0,1,.373-1.521,1.069,1.069,0,0,1,1.483.4l2.2,3.813a.723.723,0,0,0,1.343-.357c0-3.611,0-7.229,0-10.836a.723.723,0,1,1,1.446,0Zm-26,9.391H28.1l.721,1.445H10.672a5.814,5.814,0,0,0-.549-1.445ZM3.611,36.847H13.729a.7.7,0,0,1,.72.72v6.5a.706.706,0,0,1-.72.725H3.611a.706.706,0,0,1-.72-.725v-6.5A.7.7,0,0,1,3.611,36.847Zm30.345,1.445H44.068a.706.706,0,0,1,.725.72v5.056a.71.71,0,0,1-.725.725H33.956a.71.71,0,0,1-.725-.725V39.012a.706.706,0,0,1,.725-.72Z" transform="translate(0 0)" fill="#333"/>
    </g>
  </g>
</svg>
