<svg xmlns="http://www.w3.org/2000/svg" width="67.002" height="66.995" viewBox="0 0 67.002 66.995">
  <g id="grafico-circular" transform="translate(0.004 0)">
    <path id="Trazado_738317" data-name="Trazado 738317" d="M61.2,37.536A30.149,30.149,0,1,1,28.752,5.085a2.233,2.233,0,0,1,2.4,2.233V32.906a2.233,2.233,0,0,0,2.233,2.233H58.968a2.233,2.233,0,0,1,2.235,2.4Z" transform="translate(0.117 0.592)" fill="#bfdb77"/>
    <path id="Trazado_738318" data-name="Trazado 738318" d="M59.9,31.149H34.24A2.24,2.24,0,0,1,32,28.909V3.25a2.248,2.248,0,0,1,2.412-2.243,30.237,30.237,0,0,1,27.73,27.73A2.248,2.248,0,0,1,59.9,31.149Z" transform="translate(3.733 0.117)" fill="#f6b84d"/>
    <g id="Grupo_972864" data-name="Grupo 972864" transform="translate(-0.004 0.001)">
      <path id="Trazado_738319" data-name="Trazado 738319" d="M11.912,13.614a1.117,1.117,0,1,0-1.49-1.664A31.266,31.266,0,0,0,29.275,66.46q.973.06,1.934.06A31.43,31.43,0,0,0,62.434,37.74a3.334,3.334,0,0,0-.878-2.518,3.379,3.379,0,0,0-2.471-1.082H33.5a1.117,1.117,0,0,1-1.117-1.117V7.437a3.35,3.35,0,0,0-3.6-3.35,31.292,31.292,0,0,0-13.729,4.43,1.116,1.116,0,1,0,1.159,1.909A29.045,29.045,0,0,1,28.957,6.315a1.085,1.085,0,0,1,.827.291,1.117,1.117,0,0,1,.365.831V33.023a3.35,3.35,0,0,0,3.35,3.35H59.086a1.117,1.117,0,0,1,.832.365,1.084,1.084,0,0,1,.29.826,29.032,29.032,0,1,1-48.3-23.951Z" transform="translate(0.004 0.475)" fill="#373737"/>
      <path id="Trazado_738320" data-name="Trazado 738320" d="M60.016,32.382a3.364,3.364,0,0,0,3.357-3.617A31.174,31.174,0,0,0,34.616.01,3.364,3.364,0,0,0,31,3.367V29.026a3.361,3.361,0,0,0,3.357,3.357ZM33.233,29.026V3.367a1.123,1.123,0,0,1,.366-.835,1.1,1.1,0,0,1,.75-.3h.088A28.95,28.95,0,0,1,61.149,28.942a1.093,1.093,0,0,1-.295.841,1.123,1.123,0,0,1-.835.366H34.357a1.124,1.124,0,0,1-1.123-1.123Z" transform="translate(3.62 -0.001)" fill="#373737"/>
      <path id="Trazado_738321" data-name="Trazado 738321" d="M36.117,26.633a1.116,1.116,0,0,0,.789-.327l13.4-13.4a1.117,1.117,0,1,0-1.579-1.579l-13.4,13.4a1.117,1.117,0,0,0,.789,1.906Z" transform="translate(4.087 1.282)" fill="#373737"/>
      <path id="Trazado_738322" data-name="Trazado 738322" d="M38.35,17.7A3.35,3.35,0,1,0,35,14.35,3.35,3.35,0,0,0,38.35,17.7Zm0-4.467a1.117,1.117,0,1,1-1.117,1.117A1.117,1.117,0,0,1,38.35,13.233Z" transform="translate(4.087 1.282)" fill="#373737"/>
      <path id="Trazado_738323" data-name="Trazado 738323" d="M46.35,19a3.35,3.35,0,1,0,3.35,3.35A3.35,3.35,0,0,0,46.35,19Zm0,4.467a1.117,1.117,0,1,1,1.117-1.117A1.117,1.117,0,0,1,46.35,23.467Z" transform="translate(5.02 2.215)" fill="#373737"/>
    </g>
  </g>
</svg>
