<svg xmlns="http://www.w3.org/2000/svg" width="38" height="38" viewBox="0 0 38 38">
  <g id="Grupo_972893" data-name="Grupo 972893" transform="translate(4877 17709)">
    <g id="Elipse_5981" data-name="Elipse 5981" transform="translate(-4877 -17709)" fill="#bfdb77" stroke="#fff" stroke-width="3">
      <circle cx="19" cy="19" r="19" stroke="none"/>
      <circle cx="19" cy="19" r="17.5" fill="none"/>
    </g>
    <path id="Trazado_738348" data-name="Trazado 738348" d="M1.406-4.948a3.128,3.128,0,0,1-2.145.861A3.463,3.463,0,0,1-3.5-5.265a4.64,4.64,0,0,1-1.02-3.146A4.722,4.722,0,0,1-3.946-10.7a4.287,4.287,0,0,1,1.6-1.67,4.373,4.373,0,0,1,2.281-.615,4.245,4.245,0,0,1,2.29.637,4.29,4.29,0,0,1,1.6,1.8,6.189,6.189,0,0,1,.589,2.685v1.134A7.693,7.693,0,0,1,3.582-3.05,5.734,5.734,0,0,1,1.213-.659,7.4,7.4,0,0,1-2.373.176h-.185V-2.2L-2-2.206Q1.063-2.355,1.406-4.948ZM.062-6.223A1.442,1.442,0,0,0,1.45-7.058v-1.23a3.2,3.2,0,0,0-.413-1.819A1.3,1.3,0,0,0-.079-10.7a1.225,1.225,0,0,0-1.046.668,2.968,2.968,0,0,0-.422,1.617,2.661,2.661,0,0,0,.431,1.6A1.378,1.378,0,0,0,.062-6.223Z" transform="translate(-4858 -17684)" fill="#12263f"/>
  </g>
</svg>
