<svg xmlns="http://www.w3.org/2000/svg" width="97" height="97" viewBox="0 0 97 97">
  <g id="Grupo_972885" data-name="Grupo 972885" transform="translate(-489 -895)">
    <circle id="Elipse_6829" data-name="Elipse 6829" cx="48.5" cy="48.5" r="48.5" transform="translate(489 895)" fill="#e2eacb"/>
    <g id="salvar-la-naturaleza" transform="translate(500.354 864.008)">
      <g id="Grupo_972545" data-name="Grupo 972545" transform="translate(1.171 48.201)">
        <g id="Grupo_972544" data-name="Grupo 972544">
          <g id="Grupo_972527" data-name="Grupo 972527">
            <path id="Trazado_737581" data-name="Trazado 737581" d="M54.017,111.262a30.627,30.627,0,1,1,6.617-5.44" transform="translate(-7.5 -54.53)" fill="#fff"/>
          </g>
          <g id="Grupo_972528" data-name="Grupo 972528" transform="translate(23.552 16.245)">
            <path id="Trazado_737582" data-name="Trazado 737582" d="M158.354,172.774c0,8.944,7.026,14.191,7.026,14.191a17.846,17.846,0,0,0,0-28.383S158.354,163.83,158.354,172.774Z" transform="translate(-158.354 -158.583)" fill="#8edf78"/>
          </g>
          <g id="Grupo_972529" data-name="Grupo 972529" transform="translate(23.552 16.245)">
            <path id="Trazado_737583" data-name="Trazado 737583" d="M161.633,173.711A18.676,18.676,0,0,1,167.5,160.54a15.378,15.378,0,0,0-2.119-1.957s-7.026,5.247-7.026,14.191,7.026,14.191,7.026,14.191a12.725,12.725,0,0,0,1.205-1.028A18.348,18.348,0,0,1,161.633,173.711Z" transform="translate(-158.354 -158.583)" fill="#39c17b"/>
          </g>
          <g id="Grupo_972530" data-name="Grupo 972530" transform="translate(11.323 24.646)">
            <path id="Trazado_737584" data-name="Trazado 737584" d="M85.2,227.525c6.324,6.324,15,5.067,15,5.067a17.845,17.845,0,0,0-20.07-20.07S78.871,221.2,85.2,227.525Z" transform="translate(-80.027 -212.39)" fill="#e2fc85"/>
          </g>
          <g id="Grupo_972531" data-name="Grupo 972531" transform="translate(11.323 24.646)">
            <path id="Trazado_737585" data-name="Trazado 737585" d="M87.569,225.154a18.5,18.5,0,0,1-5.165-12.76,14.339,14.339,0,0,0-2.276.131s-1.258,8.678,5.067,15,15,5.067,15,5.067a14.361,14.361,0,0,0,.131-2.276A18.5,18.5,0,0,1,87.569,225.154Z" transform="translate(-80.027 -212.392)" fill="#8edf78"/>
          </g>
          <g id="Grupo_972532" data-name="Grupo 972532" transform="translate(29.559 24.646)">
            <path id="Trazado_737586" data-name="Trazado 737586" d="M202,217.559c-6.324,6.324-5.067,15-5.067,15A17.845,17.845,0,0,0,217,212.492S208.322,211.234,202,217.559Z" transform="translate(-196.829 -212.39)" fill="#39c17b"/>
          </g>
          <g id="Grupo_972533" data-name="Grupo 972533" transform="translate(29.559 24.646)">
            <path id="Trazado_737587" data-name="Trazado 737587" d="M217,212.493a15.3,15.3,0,0,0-2.273-.1,17.744,17.744,0,0,1-17.89,17.775,15.535,15.535,0,0,0,.094,2.392A17.845,17.845,0,0,0,217,212.493Z" transform="translate(-196.83 -212.391)" fill="#31a469"/>
          </g>
          <g id="Grupo_972534" data-name="Grupo 972534" transform="translate(0 7.76)">
            <path id="Trazado_737588" data-name="Trazado 737588" d="M56.494,150.731a30.6,30.6,0,0,1-38.757-46.5,30.6,30.6,0,0,0,36.28,48.972l6.617-5.44q.671-.731,1.294-1.5Z" transform="translate(-7.5 -104.235)" fill="#cfdbfa"/>
          </g>
          <g id="Grupo_972535" data-name="Grupo 972535" transform="translate(46.983 38.588)">
            <path id="Trazado_737589" data-name="Trazado 737589" d="M338.024,302.4a2.414,2.414,0,0,0-3.414,0L318.6,318.409l-6.045-6.045a2.414,2.414,0,0,0-3.414,3.414l9.458,9.458,19.426-19.426A2.414,2.414,0,0,0,338.024,302.4Z" transform="translate(-308.432 -301.69)" fill="#8edf78"/>
          </g>
          <g id="Grupo_972538" data-name="Grupo 972538" transform="translate(46.983 39.07)">
            <g id="Grupo_972536" data-name="Grupo 972536" transform="translate(12.758)">
              <path id="Trazado_737590" data-name="Trazado 737590" d="M390.167,318.441l13.664-13.664a2.428,2.428,0,0,0-.264.225l-13.42,13.42Z" transform="translate(-390.147 -304.777)" fill="#39c17b"/>
            </g>
            <g id="Grupo_972537" data-name="Grupo 972537" transform="translate(0 9.487)">
              <path id="Trazado_737591" data-name="Trazado 737591" d="M311.751,367.087a2.4,2.4,0,0,1-.7-1.538,2.413,2.413,0,0,0-1.913,4.111l9.458,9.459,2.592-2.592Z" transform="translate(-308.432 -365.54)" fill="#39c17b"/>
            </g>
          </g>
          <g id="Grupo_972539" data-name="Grupo 972539" transform="translate(41.459 29.716)">
            <path id="Trazado_737592" data-name="Trazado 737592" d="M0,0H2.342V2.342H0Z" transform="translate(0 1.656) rotate(-45)" fill="#fff"/>
          </g>
          <g id="Grupo_972540" data-name="Grupo 972540" transform="translate(38.111 33.064)">
            <path id="Trazado_737593" data-name="Trazado 737593" d="M0,0H2.342V2.342H0Z" transform="translate(0 1.656) rotate(-45)" fill="#fff"/>
          </g>
          <g id="Grupo_972541" data-name="Grupo 972541" transform="translate(16.409 29.716)">
            <path id="Trazado_737594" data-name="Trazado 737594" d="M0,0H2.342V2.342H0Z" transform="translate(0 1.656) rotate(-45)" fill="#fff"/>
          </g>
          <g id="Grupo_972542" data-name="Grupo 972542" transform="translate(19.757 33.064)">
            <path id="Trazado_737595" data-name="Trazado 737595" d="M0,0H2.342V2.342H0Z" transform="translate(0 1.656) rotate(-45)" fill="#fff"/>
          </g>
          <g id="Grupo_972543" data-name="Grupo 972543" transform="translate(29.426 24.445)">
            <path id="Trazado_737596" data-name="Trazado 737596" d="M195.98,211.1h2.342v2.342H195.98Z" transform="translate(-195.98 -211.103)" fill="#fff"/>
          </g>
        </g>
      </g>
      <g id="Grupo_972546" data-name="Grupo 972546" transform="translate(0 47.03)">
        <path id="Trazado_737597" data-name="Trazado 737597" d="M60.059,140.284l1.952,1.294c.4-.6.871-1.157,1.32-1.721L61.5,138.4C61.007,139.015,60.5,139.625,60.059,140.284Z" transform="translate(-50.682 -124.133)"/>
        <path id="Trazado_737598" data-name="Trazado 737598" d="M83.006,118.475l-1.465-1.827c-.617.495-1.178,1.057-1.749,1.6l1.617,1.695C81.931,119.446,82.442,118.928,83.006,118.475Z" transform="translate(-67.334 -105.779)"/>
        <path id="Trazado_737599" data-name="Trazado 737599" d="M104.9,99.293a22.115,22.115,0,0,0-1.991,1.277l1.342,1.919a19.619,19.619,0,0,1,1.832-1.175Z" transform="translate(-86.844 -91.133)"/>
        <path id="Trazado_737600" data-name="Trazado 737600" d="M0,0H2.431V2.342H0Z" transform="translate(70.433 49.52) rotate(-45)"/>
        <path id="Trazado_737601" data-name="Trazado 737601" d="M78.819,86.94a3.639,3.639,0,0,0-5.315-.272C73.2,86.945,61.372,98.8,58.32,101.852l-2.408-2.408a31.713,31.713,0,1,0-7.614,6.489l-1.22-2a29.458,29.458,0,1,1,7.173-6.151l-.673-.673A4.229,4.229,0,0,0,50.74,95.6,3.612,3.612,0,0,0,47,98.826c-.2,2.062,1.479,3.326,2.779,4.626l8.539,8.539,11.936-11.935L68.6,98.4,58.32,108.68c-1.163-1.163-8.63-8.515-8.829-8.889-.714-1.342.918-2.308,1.982-1.474a43.459,43.459,0,0,1,3.595,3.595l3.252,3.252,3.243-3.243,11.4-11.4c.673-.673,1.977-2.56,3.075-2.56a1.257,1.257,0,0,1,.879,2.121c-.2.267-2.27,2.27-3.038,3.038l1.656,1.656c1.975-1.975,5.795-4.752,3.284-7.836Z" transform="translate(0 -47.03)"/>
        <path id="Trazado_737602" data-name="Trazado 737602" d="M93.164,180.585c12.143.891,22.077-10.513,20.093-22.372a20.584,20.584,0,0,0-12.569,2.12A20.482,20.482,0,0,0,93.107,149.3a19.692,19.692,0,0,0-7.636,11.045,20.574,20.574,0,0,0-12.546-2.129C70.917,170.223,80.978,181.434,93.164,180.585Zm18.008-20.246a16.927,16.927,0,0,1-16.286,17.923l5.764-5.764-1.656-1.656-5.72,5.72a16.993,16.993,0,0,1,6.313-12.751A17.919,17.919,0,0,1,111.172,160.339Zm-36.163,0A17.184,17.184,0,0,1,89.8,167.132l1.907-1.359a17.729,17.729,0,0,0-4.13-4.128,17.765,17.765,0,0,1,5.507-9.372,18.4,18.4,0,0,1,5.513,9.364,19.379,19.379,0,0,0-7.647,16.671A16.948,16.948,0,0,1,75.01,160.339Z" transform="translate(-61.323 -133.331)"/>
      </g>
    </g>
  </g>
</svg>
