<svg xmlns="http://www.w3.org/2000/svg" width="38" height="38" viewBox="0 0 38 38">
  <g id="Grupo_972892" data-name="Grupo 972892" transform="translate(5276 17180)">
    <g id="Elipse_5980" data-name="Elipse 5980" transform="translate(-5276 -17180)" fill="#bfdb77" stroke="#fff" stroke-width="3">
      <circle cx="19" cy="19" r="19" stroke="none"/>
      <circle cx="19" cy="19" r="17.5" fill="none"/>
    </g>
    <path id="Trazado_738347" data-name="Trazado 738347" d="M4.2-9.378A2.954,2.954,0,0,1,3.74-7.734,3.361,3.361,0,0,1,2.47-6.592,3.7,3.7,0,0,1,3.92-5.366a3.164,3.164,0,0,1,.536,1.841A3.349,3.349,0,0,1,3.274-.817,4.909,4.909,0,0,1,.018.176a5,5,0,0,1-3.287-1,3.325,3.325,0,0,1-1.2-2.7,3.2,3.2,0,0,1,.527-1.819A3.586,3.586,0,0,1-2.452-6.592,3.38,3.38,0,0,1-3.735-7.734,2.934,2.934,0,0,1-4.2-9.378a3.284,3.284,0,0,1,1.134-2.637,4.558,4.558,0,0,1,3.059-.967,4.586,4.586,0,0,1,3.076.967A3.284,3.284,0,0,1,4.2-9.378ZM1.485-3.762a1.69,1.69,0,0,0-.409-1.217A1.423,1.423,0,0,0,0-5.405a1.438,1.438,0,0,0-1.081.426,1.678,1.678,0,0,0-.413,1.217,1.693,1.693,0,0,0,.417,1.208,1.433,1.433,0,0,0,1.094.444,1.377,1.377,0,0,0,1.063-.439A1.723,1.723,0,0,0,1.485-3.762ZM-.009-10.7a1.1,1.1,0,0,0-.91.391A1.7,1.7,0,0,0-1.23-9.22,1.8,1.8,0,0,0-.914-8.112a1.092,1.092,0,0,0,.932.422,1.047,1.047,0,0,0,.91-.422,1.856,1.856,0,0,0,.3-1.107A1.7,1.7,0,0,0,.918-10.3,1.109,1.109,0,0,0-.009-10.7Z" transform="translate(-5257 -17155)" fill="#12263f"/>
  </g>
</svg>
