<svg xmlns="http://www.w3.org/2000/svg" width="97" height="97" viewBox="0 0 97 97">
  <g id="Grupo_972886" data-name="Grupo 972886" transform="translate(-1014 -895)">
    <circle id="Elipse_6830" data-name="Elipse 6830" cx="48.5" cy="48.5" r="48.5" transform="translate(1014 895)" fill="#faedc0"/>
    <g id="analitica" transform="translate(1029.89 911.037)">
      <g id="Grupo_972525" data-name="Grupo 972525" transform="translate(0.964 0.826)">
        <g id="Grupo_972524" data-name="Grupo 972524" transform="translate(14.946)">
          <path id="Trazado_737565" data-name="Trazado 737565" d="M131.723,47.618a24.087,24.087,0,1,1,34.064,0A24.114,24.114,0,0,1,131.723,47.618Z" transform="translate(-124.679 -6.51)" fill="#52c194"/>
        </g>
        <path id="Trazado_737566" data-name="Trazado 737566" d="M134.258,47.626A24.074,24.074,0,0,1,150.022,6.552a24.076,24.076,0,1,0,0,48.083A23.991,23.991,0,0,1,134.258,47.626Z" transform="translate(-109.733 -6.518)" fill="#338def"/>
        <path id="Trazado_737567" data-name="Trazado 737567" d="M177.854,79.746A19.848,19.848,0,1,1,197.7,59.9,19.849,19.849,0,0,1,177.854,79.746Z" transform="translate(-138.833 -35.795)" fill="#acd6fc"/>
        <path id="Trazado_737568" data-name="Trazado 737568" d="M160.542,59.9A19.849,19.849,0,0,1,179.123,40.09c-.419-.026-.842-.041-1.267-.041A19.848,19.848,0,1,0,179.123,79.7,19.849,19.849,0,0,1,160.542,59.9Z" transform="translate(-138.834 -35.795)" fill="#8ac2ff"/>
        <path id="Trazado_737569" data-name="Trazado 737569" d="M9.687,358.159l-2.037-2.037a2.75,2.75,0,0,1,0-3.877l13.983-13.983a1.527,1.527,0,0,1,2.153,0l3.652,3.652a1.527,1.527,0,0,1,0,2.152L13.343,358.159A2.593,2.593,0,0,1,9.687,358.159Z" transform="translate(-6.849 -295.796)" fill="#f6b84d"/>
        <path id="Trazado_737570" data-name="Trazado 737570" d="M9.15,354.318,23.7,339.765a1.516,1.516,0,0,1,1.144-.44l-1.068-1.068a1.525,1.525,0,0,0-2.151,0L7.641,352.242a2.748,2.748,0,0,0,0,3.875l.791.791A2.742,2.742,0,0,1,9.15,354.318Z" transform="translate(-6.842 -295.792)" fill="#ee5253"/>
        <rect id="Rect치ngulo_342984" data-name="Rect치ngulo 342984" width="8.208" height="3.811" transform="translate(11.507 45.742) rotate(45)" fill="#ee5253"/>
        <rect id="Rect치ngulo_342985" data-name="Rect치ngulo 342985" width="3.811" height="2.534" transform="translate(13.299 47.534) rotate(135)" fill="#d83941"/>
        <path id="Trazado_737571" data-name="Trazado 737571" d="M204.047,198.79V178.024h-6.321a1.024,1.024,0,0,0-1.024,1.024v14.477A19.871,19.871,0,0,0,204.047,198.79Z" transform="translate(-172.621 -156.27)" fill="#576574"/>
        <path id="Trazado_737572" data-name="Trazado 737572" d="M261.956,150.626V121.151h-6.322a1.023,1.023,0,0,0-1.023,1.024V149.13A19.754,19.754,0,0,0,261.956,150.626Z" transform="translate(-223.185 -106.611)" fill="#fdf8e4"/>
        <path id="Trazado_737573" data-name="Trazado 737573" d="M319.868,99.65V64.277h-6.321a1.024,1.024,0,0,0-1.024,1.024v7.111h0v28.554A19.7,19.7,0,0,0,319.868,99.65Z" transform="translate(-273.752 -56.95)" fill="#bfdb77"/>
        <path id="Trazado_737574" data-name="Trazado 737574" d="M377.777,45.043V8.4a1,1,0,0,0-1-1h-5.326a1.023,1.023,0,0,0-1.023,1.024V49.991A19.854,19.854,0,0,0,377.777,45.043Z" transform="translate(-324.316 -7.291)" fill="#f6b84d"/>
        <path id="Trazado_737575" data-name="Trazado 737575" d="M199.238,178.922a1.023,1.023,0,0,1,.53-.9h-2.043a1.024,1.024,0,0,0-1.024,1.024v14.477a19.9,19.9,0,0,0,2.537,2.423Z" transform="translate(-172.62 -156.271)" fill="#3e4b5a"/>
        <path id="Trazado_737576" data-name="Trazado 737576" d="M257.148,121.92a1.021,1.021,0,0,1,.35-.77h-1.864a1.023,1.023,0,0,0-1.023,1.024v26.955a19.658,19.658,0,0,0,2.537.851V121.92Z" transform="translate(-223.185 -106.61)" fill="#11aa7b"/>
        <path id="Trazado_737577" data-name="Trazado 737577" d="M315.059,72.412h0V65.047a1.02,1.02,0,0,1,.351-.77h-1.864a1.024,1.024,0,0,0-1.024,1.024v7.111h0v28.554a19.242,19.242,0,0,0,2.537-.13Z" transform="translate(-273.751 -56.95)" fill="#f4b537"/>
      </g>
      <g id="Grupo_972526" data-name="Grupo 972526" transform="translate(0.11 0)">
        <path id="Trazado_737579" data-name="Trazado 737579" d="M55.459,5.316V1.954A1.949,1.949,0,0,0,53.512.007H48.186a1.973,1.973,0,0,0-1.627.859A25.008,25.008,0,0,0,21.688,42l-1.9,1.846-1.138-1.138a2.476,2.476,0,0,0-3.5,0L1.19,56.675a3.7,3.7,0,0,0,0,5.222l2.032,2.032a3.541,3.541,0,0,0,5,0L22.3,49.852a2.476,2.476,0,0,0,0-3.5l-1.162-1.162,1.9-1.845a24.988,24.988,0,0,0,15.269,6.6l.067,0a.951.951,0,0,0,.065-1.9,23.1,23.1,0,1,1,7.779-45.31V5.189A20.782,20.782,0,1,0,55.2,39.249l0,0,.021-.024A20.775,20.775,0,0,0,55.459,11.1V7.792A23.111,23.111,0,0,1,42.7,47.956a.951.951,0,0,0,.217,1.89A25.009,25.009,0,0,0,55.459,5.316ZM6.878,62.583a1.636,1.636,0,0,1-2.311,0L2.535,60.552a1.792,1.792,0,0,1,0-2.532l7.329-7.329,4.453,4.453ZM15.662,53.8l-4.453-4.453L12.556,48l4.453,4.453Zm5.292-5.292-2.6,2.6L13.9,46.654l2.6-2.6a.575.575,0,0,1,.807,0L20.954,47.7A.575.575,0,0,1,20.954,48.507Zm10.567-6.63a18.991,18.991,0,0,1-5.443-4.152v-14.1a.072.072,0,0,1,.072-.072h5.37Zm7.345,2a18.685,18.685,0,0,1-5.442-1.16V16.409a.072.072,0,0,1,.072-.072h5.371V43.874Zm7.345-.994A18.766,18.766,0,0,1,40.769,43.9V9.2h0a.072.072,0,0,1,.072-.072h5.37Zm0-35.66h-5.37A1.977,1.977,0,0,0,38.866,9.2v5.239H33.5a1.977,1.977,0,0,0-1.974,1.975v5.239h-5.37a1.977,1.977,0,0,0-1.975,1.975v11.63A18.878,18.878,0,0,1,46.212,7.192V7.22ZM58.92,25.036A18.8,18.8,0,0,1,55.459,35.93V27.172a.951.951,0,1,0-1.9,0V38.213A19.013,19.013,0,0,1,48.114,42.1V1.982a.072.072,0,0,1,.072-.072h5.326a.045.045,0,0,1,.044.044V22.733a.951.951,0,1,0,1.9,0V14.142A18.8,18.8,0,0,1,58.92,25.036Z" transform="translate(-0.11 0)"/>
      </g>
    </g>
  </g>
</svg>
