<svg xmlns="http://www.w3.org/2000/svg" width="105" height="105" viewBox="0 0 105 105">
  <g id="Grupo_972707" data-name="Grupo 972707" transform="translate(-285 -1480)">
    <circle id="Elipse_6817" data-name="Elipse 6817" cx="52.5" cy="52.5" r="52.5" transform="translate(285 1480)" fill="#52c194"/>
    <g id="ecologia" transform="translate(250.193 1491.5)">
      <path id="Trazado_736995" data-name="Trazado 736995" d="M70.73,174.319a25.315,25.315,0,0,0,19.231,24.57c.157-1.731-3.09-4-2.908-7.519.2-3.921,3.719-4.733,2.434-9.06S81.644,179,78.2,178.931s-1.893-1.893-1.893-4.665,4.665-2.5,4.665-4.462-3.719-2.637-2.5-4.733,4.327.338,6.828-1.961-.946-5.611.474-8.586c.849-1.778.2-2.686-.46-3.129A25.308,25.308,0,0,0,70.73,174.319Z" transform="translate(-8.569 -124.24)" fill="none" stroke="#fff" stroke-linecap="round" stroke-linejoin="round" stroke-miterlimit="10" stroke-width="2"/>
      <path id="Trazado_736996" data-name="Trazado 736996" d="M258.079,175.514a25.354,25.354,0,0,0-11.511-15.339c-1.083.963-1.995,1.3-4.547,1.095-3.725-.3-4.993,1.724-4.729,3.057a2.4,2.4,0,0,1-.3,1.768l-.01.015A2.276,2.276,0,0,1,235,167.172a1.674,1.674,0,0,0-1.606.829c-1.227,1.934.074,4.5,4.091,3.161s7.339,1.488,6.4,3.57-4.314,1.884-6.546,1.141-7.215-1.667-7.289,3.989.744,7.515,4.612,7.59,6.471-.521,6.918,2.306-.818,9.149,2.529,9.521,5.579-4.091,6.4-5.876.3-6.471,2.9-7.81,2.157-5.132,1.265-6.248C253.993,178.5,254.59,175.676,258.079,175.514Z" transform="translate(-146.119 -131.821)" fill="none" stroke="#fff" stroke-linecap="round" stroke-linejoin="round" stroke-miterlimit="10" stroke-width="2"/>
      <path id="Trazado_736997" data-name="Trazado 736997" d="M256,58.1V54.83a7.452,7.452,0,0,1,5.133-7.075c3.629-1.194,8.647-2.117,13.243-.446" transform="translate(-168.531 -33.586)" fill="none" stroke="#fff" stroke-linecap="round" stroke-linejoin="round" stroke-miterlimit="10" stroke-width="2"/>
      <path id="Trazado_736998" data-name="Trazado 736998" d="M139.847,58.1V54.83a7.452,7.452,0,0,0-5.133-7.075c-3.629-1.194-8.647-2.117-13.243-.446" transform="translate(-52.38 -33.586)" fill="none" stroke="#fff" stroke-linecap="round" stroke-linejoin="round" stroke-miterlimit="10" stroke-width="2"/>
      <path id="Trazado_736999" data-name="Trazado 736999" d="M79.383,7.812c-10.476-1.6-15.87,3.338-18.271,6.729a1.643,1.643,0,0,0,1.3,2.594,15.913,15.913,0,0,1,7.154,1.988c5.775,3.08,10.4,1.278,10.4,1.278C87.846,16.721,85.02,8.676,79.383,7.812Z" transform="translate(0 0)" fill="none" stroke="#fff" stroke-linecap="round" stroke-linejoin="round" stroke-miterlimit="10" stroke-width="2"/>
      <path id="Trazado_737000" data-name="Trazado 737000" d="M291.51,18.685a15.572,15.572,0,0,1,6.274-1.55,1.643,1.643,0,0,0,1.3-2.594c-2.4-3.391-7.8-8.334-18.272-6.729-5.638.864-8.463,8.909-.575,12.589a12.173,12.173,0,0,0,6.85.1" transform="translate(-185.259 0)" fill="none" stroke="#fff" stroke-linecap="round" stroke-linejoin="round" stroke-miterlimit="10" stroke-width="2"/>
      <path id="Trazado_737001" data-name="Trazado 737001" d="M117.3,172.988a25.33,25.33,0,1,0-2.962,3.753" transform="translate(-8.568 -109.187)" fill="none" stroke="#fff" stroke-linecap="round" stroke-linejoin="round" stroke-miterlimit="10" stroke-width="2"/>
    </g>
  </g>
</svg>
