<svg xmlns="http://www.w3.org/2000/svg" width="87" height="87" viewBox="0 0 87 87">
  <g id="Grupo_972253" data-name="Grupo 972253" transform="translate(-451 -2317)">
    <g id="Elipse_5992" data-name="Elipse 5992" transform="translate(451 2317)" fill="#fff" stroke="#0e494d" stroke-width="2">
      <circle cx="43.5" cy="43.5" r="43.5" stroke="none"/>
      <circle cx="43.5" cy="43.5" r="42.5" fill="none"/>
    </g>
    <g id="ambiental_1_" data-name="ambiental (1)" transform="translate(462 2328.002)">
      <path id="Trazado_737014" data-name="Trazado 737014" d="M35.768,22.585c3.307-1.873,7.87-4.953,9.528-10.572a18.213,18.213,0,0,0,0-10H44.273a19.183,19.183,0,0,0-8.181,4,18.377,18.377,0,0,0-4.151,4.979Z" fill="#a9f76d"/>
      <path id="Trazado_737015" data-name="Trazado 737015" d="M34.909,19.919l1.43-2.678a22.14,22.14,0,0,1,5.3-6.46L40.36,9.244a24.077,24.077,0,0,0-5.782,7.049l-1.432,2.685Z" fill="#1d945e"/>
      <path id="Trazado_737016" data-name="Trazado 737016" d="M30.563,25.983l-1.387-.155a15.959,15.959,0,0,1-10.268-5.4,16.138,16.138,0,0,1-3.7-7.719L14,6.013,24.587,7.434A13.114,13.114,0,0,1,32.148,11.2,13.281,13.281,0,0,1,36,20.555v.529a4.933,4.933,0,0,1-2.707,4.409,4.873,4.873,0,0,1-2.73.49Z" fill="#c6ff7a"/>
      <path id="Trazado_737017" data-name="Trazado 737017" d="M34,39.013h2V31.126a15.731,15.731,0,0,0-2.666-8.982q-.257-.373-.545-.745a16.11,16.11,0,0,0-7.462-5.331l-.654,1.89a14.122,14.122,0,0,1,6.538,4.668c.168.217.327.435.476.652A13.743,13.743,0,0,1,34,31.126Z" fill="#1d945e"/>
      <path id="Trazado_737018" data-name="Trazado 737018" d="M41.229,4.84c-.729-.672-3.005.444-4.332,1.832-.9.939-2.032,2.708-1.472,3.465s2.681.352,4.027-.678c1.723-1.318,2.521-3.934,1.777-4.619Z" fill="#eefde2"/>
      <path id="Trazado_737019" data-name="Trazado 737019" d="M26.437,11.341c.187-1.2-2.511-2.767-4.837-3.171-1.574-.274-4.157-.222-4.548.868s1.476,2.98,3.449,3.65C23.027,13.546,26.246,12.571,26.437,11.341Z" fill="#eefde2"/>
      <circle id="Elipse_5991" data-name="Elipse 5991" cx="16" cy="16" r="16" transform="translate(18 30.013)" fill="#66c2ed"/>
      <path id="Trazado_737020" data-name="Trazado 737020" d="M34,30.013A15.91,15.91,0,0,0,27.079,31.6,15.974,15.974,0,0,0,46.921,55.421,15.979,15.979,0,0,0,34,30.013Z" fill="#76d8ff"/>
      <path id="Trazado_737021" data-name="Trazado 737021" d="M50,46.013a15.977,15.977,0,0,0-6.873-13.132l-3.066,3.071A3.622,3.622,0,0,0,39,38.513v4a3.625,3.625,0,0,0,1.061,2.561l2.878,2.878A3.622,3.622,0,0,1,44,50.513a3.625,3.625,0,0,0,1.061,2.561l2.069,2.069A15.922,15.922,0,0,0,50,46.013Z" fill="#aaf66f"/>
      <path id="Trazado_737022" data-name="Trazado 737022" d="M32.586,40.6a2,2,0,0,0-1.414-.586H24.606a2,2,0,0,1-1.11-.336l-3.1-2.065A15.956,15.956,0,0,0,30,61.488v-1.4a12.243,12.243,0,0,0-3.586-8.657,2,2,0,0,1,1.414-3.414h4.936a2,2,0,0,0,1.789-1.106l.8-1.6A2,2,0,0,0,34.979,43Z" fill="#86ee88"/>
      <path id="Trazado_737023" data-name="Trazado 737023" d="M32.586,40.6a2,2,0,0,0-1.414-.586H24.606a2.006,2.006,0,0,1-.562-.083c-.024.358-.044.718-.044,1.083a15.9,15.9,0,0,0,2.132,7.956,1.941,1.941,0,0,1,.282-.37,2,2,0,0,1,1.414-.586h4.936a2,2,0,0,0,1.789-1.106l.8-1.6A2,2,0,0,0,34.979,43Z" fill="#aaf66f"/>
      <path id="Trazado_737024" data-name="Trazado 737024" d="M35.88,29.11a16.232,16.232,0,0,0-.843-3.624,5.864,5.864,0,0,0,1.54-2.227c3.425-1.975,7.984-5.234,9.678-10.976a19.155,19.155,0,0,0,0-10.551A1,1,0,0,0,45.3,1H44.273a1.04,1.04,0,0,0-.215.023,20.217,20.217,0,0,0-8.61,4.211,19.313,19.313,0,0,0-3.731,4.228,14.181,14.181,0,0,0-7-3.032L14.133,5.009a1,1,0,0,0-1.117,1.169l1.21,6.7a17.139,17.139,0,0,0,3.927,8.2,16.923,16.923,0,0,0,10.911,5.736l1.387.154a5.759,5.759,0,0,0,2.845-.4,14.156,14.156,0,0,1,.557,2.441,16.994,16.994,0,1,0,2.027.1Zm.854-22.344A18.185,18.185,0,0,1,44.384,3h.136a17.086,17.086,0,0,1-.183,8.717c-1.274,4.317-4.361,7.037-7.337,8.946v-.121a14.4,14.4,0,0,0-.475-3.619,21.664,21.664,0,0,1,5.115-6.154L40.36,9.231a23.325,23.325,0,0,0-4.7,5.276,14.213,14.213,0,0,0-2.46-3.651,17.363,17.363,0,0,1,3.534-4.09Zm-6.06,18.21-1.387-.155a14.924,14.924,0,0,1-9.624-5.06,15.138,15.138,0,0,1-3.469-7.24l-.965-5.347,9.225,1.238A12.2,12.2,0,0,1,35,20.542v.53a3.93,3.93,0,0,1-.84,2.434,14.314,14.314,0,0,0-.826-1.376q-.257-.372-.545-.744a16.11,16.11,0,0,0-7.462-5.331l-.654,1.89a14.117,14.117,0,0,1,6.538,4.669q.252.325.476.651a12.191,12.191,0,0,1,.852,1.448,3.844,3.844,0,0,1-1.865.263ZM19,46a14.909,14.909,0,0,1,1.733-6.98l2.208,1.48a2.992,2.992,0,0,0,1.664.5h6.567a1,1,0,0,1,.707.293l2.394,2.4a1,1,0,0,1,.188,1.154l-.8,1.6a.993.993,0,0,1-.894.553H27.828a3,3,0,0,0-2.121,5.121A11.173,11.173,0,0,1,29,60.071v.054A15.012,15.012,0,0,1,19,46ZM34,61a15.058,15.058,0,0,1-3-.3v-.627a13.157,13.157,0,0,0-3.879-9.364A1,1,0,0,1,27.828,49h4.936a2.985,2.985,0,0,0,2.683-1.658l.8-1.606a3,3,0,0,0-.562-3.463l-2.4-2.394A2.978,2.978,0,0,0,31.172,39H24.6a.994.994,0,0,1-.554-.168l-2.264-1.509a14.925,14.925,0,0,1,19.748-4.272l-2.181,2.181A4.652,4.652,0,0,0,38,38.5v4a4.652,4.652,0,0,0,1.354,3.268l2.878,2.878A2.642,2.642,0,0,1,43,50.5a4.652,4.652,0,0,0,1.354,3.268l1.453,1.453A14.971,14.971,0,0,1,34,61Zm12.949-7.465-1.181-1.181A2.642,2.642,0,0,1,45,50.5a4.652,4.652,0,0,0-1.354-3.268l-2.878-2.878A2.642,2.642,0,0,1,40,42.5v-4a2.642,2.642,0,0,1,.768-1.854l2.453-2.452a14.919,14.919,0,0,1,3.728,19.341Z"/>
    </g>
  </g>
</svg>
