<svg xmlns="http://www.w3.org/2000/svg" width="38" height="38" viewBox="0 0 38 38">
  <g id="Grupo_972900" data-name="Grupo 972900" transform="translate(4495 17398)">
    <g id="Elipse_5988" data-name="Elipse 5988" transform="translate(-4495 -17398)" fill="#bfdb77" stroke="#fff" stroke-width="3">
      <circle cx="19" cy="19" r="19" stroke="none"/>
      <circle cx="19" cy="19" r="17.5" fill="none"/>
    </g>
    <path id="Trazado_738355" data-name="Trazado 738355" d="M-3.076,0H-6.047V-9.457L-8.965-8.6v-2.25L-3.349-12.8h.272ZM7.937-12.981v2.329H7.8a4.447,4.447,0,0,0-2.729.8,3.358,3.358,0,0,0-1.314,2.21,3.464,3.464,0,0,1,2.531-.984A3.231,3.231,0,0,1,8.938-7.418a4.892,4.892,0,0,1,.984,3.182A4.48,4.48,0,0,1,9.347-2,4.108,4.108,0,0,1,7.739-.4a4.622,4.622,0,0,1-2.29.576,4.777,4.777,0,0,1-2.435-.62,4.26,4.26,0,0,1-1.67-1.771A5.832,5.832,0,0,1,.729-4.869V-6.056a7.387,7.387,0,0,1,.848-3.555A6.149,6.149,0,0,1,4-12.085a6.923,6.923,0,0,1,3.489-.9ZM5.265-6.346a1.7,1.7,0,0,0-.984.271,1.725,1.725,0,0,0-.589.665v.884q0,2.416,1.679,2.416a1.363,1.363,0,0,0,1.129-.6,2.454,2.454,0,0,0,.453-1.514,2.409,2.409,0,0,0-.461-1.527A1.478,1.478,0,0,0,5.265-6.346Z" transform="translate(-4476 -17373)" fill="#12263f"/>
  </g>
</svg>
