<svg xmlns="http://www.w3.org/2000/svg" xmlns:xlink="http://www.w3.org/1999/xlink" width="120" height="120" viewBox="0 0 120 120">
  <defs>
    <clipPath id="clip-path">
      <path id="path7203" d="M0-682.665H91.915v91.915H0Z" transform="translate(0 682.665)"/>
    </clipPath>
  </defs>
  <g id="Grupo_972845" data-name="Grupo 972845" transform="translate(-355 -4121)">
    <rect id="Rectángulo_343217" data-name="Rectángulo 343217" width="120" height="120" rx="10" transform="translate(355 4121)" fill="#edf2f7"/>
    <g id="g7197" transform="translate(371 4815.165)">
      <g id="g7199" transform="translate(0 -682.665)">
        <g id="g7201" clip-path="url(#clip-path)">
          <g id="g7207" transform="translate(68.173 67.5)">
            <path id="path7209" d="M-17.157,0h5.2a30.7,30.7,0,0,1-1.994,5.386h-4.856l-1.021-2.693Z" transform="translate(19.827)" fill="#7aa3ff"/>
          </g>
          <g id="g7211" transform="translate(65.48 67.5)">
            <path id="path7213" d="M-17.307,0h2.669a35.126,35.126,0,0,1-1.648,5.386h-1.021A2.694,2.694,0,0,1-20,2.693,2.694,2.694,0,0,1-17.307,0" transform="translate(20)" fill="#8ebaff"/>
          </g>
          <g id="g7215" transform="translate(45.958 30.043)">
            <path id="path7217" d="M-171.179-84.978h-4.6l-22.029-7.172s10.364-6.052,10.364-6.05a31.229,31.229,0,0,1,16.27,13.222" transform="translate(197.813 98.2)" fill="#7aa3ff"/>
          </g>
          <g id="g7219" transform="translate(17.503 30.043)">
            <path id="path7221" d="M-324.462-84.978A27.986,27.986,0,0,0-336.5-97.536l-20.356-.664a31.125,31.125,0,0,0-12.13,7.836l-5.96,18.85,9.6,27.488a31,31,0,0,0,18.85,6.351c.111,0,.223,0,.332,0,.341-.005.679-.02,1.014-.041l20.683-28.411Z" transform="translate(374.946 98.2)" fill="#8ebaff"/>
          </g>
          <g id="g7223" transform="translate(14.811 37.879)">
            <path id="path7225" d="M-113.65-187.413a7.616,7.616,0,0,1-2.231,5.386l-3.154,3.154v8.639a31.088,31.088,0,0,1-12.3-24.8,31.035,31.035,0,0,1,8.653-21.543h.188a5.385,5.385,0,0,1,5.386,5.386v10.771h-5.969a2.694,2.694,0,0,0-2.693,2.693,2.694,2.694,0,0,0,2.693,2.693h1.808a7.616,7.616,0,0,1,7.617,7.617" transform="translate(131.333 216.573)" fill="#54ab72"/>
          </g>
          <g id="g7227" transform="translate(67.987 43.265)">
            <path id="path7229" d="M-29.6,0h-4.6l2.856,24.235h5.2a31.14,31.14,0,0,0,1.059-8.078A31.007,31.007,0,0,0-29.6,0" transform="translate(34.2)" fill="#47965c"/>
          </g>
          <g id="g7231" transform="translate(47.304 72.886)">
            <path id="path7233" d="M-140.7,0h4.856a31.148,31.148,0,0,1-26.747,17.652V17.64C-162.586,17.652-140.7,0-140.7,0" transform="translate(162.586)" fill="#47965c"/>
          </g>
          <g id="g7235" transform="translate(37.879 43.265)">
            <path id="path7237" d="M-217.493-103.843a37.348,37.348,0,0,1-.876,8.078h-2.669a2.694,2.694,0,0,0-2.693,2.693,2.694,2.694,0,0,0,2.693,2.693h1.021c-3.971,10-12.227,17.038-21.891,17.64v-6.868a9.426,9.426,0,0,1-9.425-9.425,9.426,9.426,0,0,1,9.425-9.425h13.644a2.694,2.694,0,0,0,2.693-2.693,2.694,2.694,0,0,0-2.693-2.693h-14.99a2.694,2.694,0,0,1-2.693-2.693,2.694,2.694,0,0,1,2.693-2.693h9.6v-5.386A5.385,5.385,0,0,1-228.264-120h7.039a36.005,36.005,0,0,1,3.732,16.157" transform="translate(251.333 120)" fill="#54ab72"/>
          </g>
          <g id="g7239" transform="translate(46.29 28.276)">
            <path id="path7241" d="M0,0,9.66,2.431c.131-.217.255-.438.372-.664A30.98,30.98,0,0,0,0,0" fill="#ffe7ad"/>
          </g>
          <g id="g7243" transform="translate(35.594 28.275)">
            <path id="path7245" d="M-130.83-15.634a11.655,11.655,0,0,1-9.992,5.646,11.661,11.661,0,0,1-10.364-6.31,31.055,31.055,0,0,1,10.364-1.768c.111,0,.223,0,.332,0a21.908,21.908,0,0,1,9.66,2.431" transform="translate(151.186 18.067)" fill="#fff5de"/>
          </g>
          <g id="g7247" transform="translate(45.957 1.346)">
            <path id="path7249" d="M-32.642,0a6.57,6.57,0,0,0-1.531.181l-3.548,21.351S-26.091,14.8-26.089,6.554A6.554,6.554,0,0,0-32.642,0" transform="translate(37.721 0)" fill="#f33"/>
          </g>
          <g id="g7251" transform="translate(34.326 1.346)">
            <path id="path7253" d="M-97.561-1.163a6.555,6.555,0,0,0-3.548,2.231,6.54,6.54,0,0,0-5.079-2.412,6.554,6.554,0,0,0-6.553,6.554c0,8.247,11.632,14.978,11.632,14.978s6.245-6.731,6.246-14.978c0-3.093-1.151-5.684-2.7-6.373" transform="translate(112.741 1.344)" fill="#ff5f43"/>
          </g>
          <g id="g7255" transform="translate(43.265 43.265)">
            <path id="path7257" d="M-34.614-17.307a2.693,2.693,0,0,1-2.693,2.693A2.693,2.693,0,0,1-40-17.307,2.693,2.693,0,0,1-37.307-20a2.693,2.693,0,0,1,2.693,2.693" transform="translate(40 20)" fill="#54ab72"/>
          </g>
          <g id="g7259" transform="translate(33.077 52.69)">
            <path id="path7261" d="M-17.307-8.654a1.346,1.346,0,0,1-1.346,1.346A1.346,1.346,0,0,1-20-8.654,1.346,1.346,0,0,1-18.654-10a1.346,1.346,0,0,1,1.346,1.346" transform="translate(20 10)"/>
          </g>
          <g id="g7263" transform="translate(35.77 58.075)">
            <path id="path7265" d="M-17.307-8.654a1.346,1.346,0,0,1-1.346,1.346A1.346,1.346,0,0,1-20-8.654,1.346,1.346,0,0,1-18.654-10a1.346,1.346,0,0,1,1.346,1.346" transform="translate(20 10)"/>
          </g>
          <g id="g7267" transform="translate(34.326 1.346)">
            <path id="path7269" d="M-107.4,0a6.54,6.54,0,0,0-5.079,2.412A6.539,6.539,0,0,0-117.56,0a6.554,6.554,0,0,0-6.553,6.554c0,8.247,11.632,14.978,11.632,14.978s11.63-6.731,11.632-14.978A6.554,6.554,0,0,0-107.4,0Z" transform="translate(124.113 0)" fill="none" stroke="#000" stroke-linecap="round" stroke-linejoin="round" stroke-miterlimit="10" stroke-width="2"/>
          </g>
          <g id="g7271" transform="translate(14.811 28.275)">
            <path id="path7273" d="M-400.372-200.186a31.147,31.147,0,0,1-31.147,31.147,31.147,31.147,0,0,1-31.147-31.147,31.147,31.147,0,0,1,31.147-31.147A31.147,31.147,0,0,1-400.372-200.186Z" transform="translate(462.666 231.333)" fill="none" stroke="#000" stroke-linecap="round" stroke-linejoin="round" stroke-miterlimit="10" stroke-width="2"/>
          </g>
          <g id="g7275" transform="translate(43.265 43.265)">
            <path id="path7277" d="M-96.343-138.457h2.693a2.693,2.693,0,0,0,2.693-2.693,2.693,2.693,0,0,0-2.693-2.693h-14.99a2.693,2.693,0,0,1-2.693-2.693,2.693,2.693,0,0,1,2.693-2.693h9.6v-5.386A5.386,5.386,0,0,1-93.65-160h11.644" transform="translate(111.333 160)" fill="none" stroke="#000" stroke-linecap="round" stroke-linejoin="round" stroke-miterlimit="10" stroke-width="2"/>
          </g>
          <g id="g7279" transform="translate(37.879 64.807)">
            <path id="path7281" d="M-60.575-165.378v-6.881A9.425,9.425,0,0,1-70-181.684a9.425,9.425,0,0,1,9.425-9.425h5.565" transform="translate(70 191.109)" fill="none" stroke="#000" stroke-linecap="round" stroke-linejoin="round" stroke-miterlimit="10" stroke-width="2"/>
          </g>
          <g id="g7283" transform="translate(65.481 67.5)">
            <path id="path7285" d="M-67.895,0h-7.871a2.693,2.693,0,0,0-2.693,2.693,2.693,2.693,0,0,0,2.693,2.693h5.878" transform="translate(78.458)" fill="none" stroke="#000" stroke-linecap="round" stroke-linejoin="round" stroke-miterlimit="10" stroke-width="2"/>
          </g>
          <g id="g7287" transform="translate(20.376 37.879)">
            <path id="path7289" d="M-43.268-295.375v-8.258l3.155-3.155a7.617,7.617,0,0,0,2.231-5.386A7.616,7.616,0,0,0-45.5-319.79h-1.808A2.693,2.693,0,0,1-50-322.483a2.693,2.693,0,0,1,2.693-2.693h5.969v-10.771a5.386,5.386,0,0,0-5.386-5.386" transform="translate(50 341.332)" fill="none" stroke="#000" stroke-linecap="round" stroke-linejoin="round" stroke-miterlimit="10" stroke-width="2"/>
          </g>
          <g id="g7291" transform="translate(35.593 30.043)">
            <path id="path7293" d="M0,0A11.665,11.665,0,0,0,10.364,6.31,11.665,11.665,0,0,0,20.729,0" fill="none" stroke="#000" stroke-linecap="round" stroke-linejoin="round" stroke-miterlimit="10" stroke-width="2"/>
          </g>
          <g id="g7295" transform="translate(43.265 43.265)">
            <path id="path7297" d="M-34.614-17.307a2.693,2.693,0,0,1-2.693,2.693A2.693,2.693,0,0,1-40-17.307,2.693,2.693,0,0,1-37.307-20,2.693,2.693,0,0,1-34.614-17.307Z" transform="translate(40 20)" fill="none" stroke="#000" stroke-linecap="round" stroke-linejoin="round" stroke-miterlimit="10" stroke-width="2"/>
          </g>
        </g>
      </g>
    </g>
  </g>
</svg>
