<svg xmlns="http://www.w3.org/2000/svg" width="81" height="81" viewBox="0 0 81 81">
  <g id="Grupo_972830" data-name="Grupo 972830" transform="translate(5235 18368)">
    <g id="montana" transform="translate(-5228 -18394.59)">
      <path id="Trazado_738100" data-name="Trazado 738100" d="M338.056,166.158a10.183,10.183,0,1,1-10.179-10.179A10.149,10.149,0,0,1,338.056,166.158Z" transform="translate(-276.034 -101.994)" fill="#f4dc64"/>
      <path id="Trazado_738101" data-name="Trazado 738101" d="M335.222,181.4a10.18,10.18,0,1,1-12.213-15.991,113.294,113.294,0,0,1,3.948,11.12c.12.395.237.788.354,1.182.215-.018.429-.03.647-.03a7.829,7.829,0,0,1,1.136.084A10.364,10.364,0,0,1,335.222,181.4Z" transform="translate(-276.034 -110.187)" fill="#e5c74c"/>
      <path id="Trazado_738102" data-name="Trazado 738102" d="M107.381,107.17H61.013s3.669-23,10.694-37.977c3.391-7.234,7.566-12.6,12.49-12.6a6.538,6.538,0,0,1,.991.074c3.551.522,6.7,3.829,9.419,8.521a85.672,85.672,0,0,1,7.09,17.474A210,210,0,0,1,107.381,107.17Z" transform="translate(-53.012 -15.642)" fill="#8ccddd"/>
      <path id="Trazado_738103" data-name="Trazado 738103" d="M280.525,279.876H260.291l.284-.963a86.782,86.782,0,0,1,4.445-12.113c2.946-6.285,6.181-10.062,9.82-11.433A209.983,209.983,0,0,1,280.525,279.876Z" transform="translate(-226.156 -188.348)" fill="#71c3d1"/>
      <path id="Trazado_738104" data-name="Trazado 738104" d="M165.45,65.191c-5.814.672-2.538,9.038-7.26,9.038-4.92,0-2.5-8.02-6.294-8.02s-2.8,7.048-6.061,7.048c-2.487,0-3.123-2.756-3.286-4.061,3.392-7.235,7.568-12.6,12.491-12.6C159,56.6,162.477,60.067,165.45,65.191Z" transform="translate(-123.856 -15.645)" fill="#edf6f9"/>
      <path id="Trazado_738105" data-name="Trazado 738105" d="M315.825,298.508a70.693,70.693,0,0,0-5.924-14.831c-2.176-3.749-4.687-6.39-7.524-6.808a5.348,5.348,0,0,0-.792-.059c-3.933,0-7.269,4.286-9.978,10.065a84.049,84.049,0,0,0-4.261,11.632Z" transform="translate(-249.663 -206.98)" fill="#a9d9e9"/>
      <path id="Trazado_738106" data-name="Trazado 738106" d="M338.132,283.678c-4.645.537-2.027,7.22-5.8,7.22-3.93,0-2-6.407-5.028-6.407s-2.239,5.63-4.842,5.63c-1.986,0-2.495-2.2-2.625-3.244,2.71-5.78,6.045-10.066,9.978-10.066C332.98,276.812,335.757,279.585,338.132,283.678Z" transform="translate(-277.894 -206.981)" fill="#edf6f9"/>
      <rect id="Rectángulo_343201" data-name="Rectángulo 343201" width="4.064" height="9.865" transform="translate(24.168 84.766)" fill="#f9653d"/>
      <path id="Trazado_738107" data-name="Trazado 738107" d="M143.854,274.705l-6.117-6.117h5.251l-6.532-6.532H140.6l-6.688-6.688-6.688,6.688h4.145l-6.532,6.532h5.251l-6.117,6.117Z" transform="translate(-107.712 -188.348)" fill="#36cc8f"/>
      <rect id="Rectángulo_343202" data-name="Rectángulo 343202" width="3.048" height="7.399" transform="translate(6.916 87.232)" fill="#f9653d"/>
      <path id="Trazado_738108" data-name="Trazado 738108" d="M22.413,322.508l-4.588-4.588h3.938l-4.9-4.9h3.109L14.957,308,9.94,313.02h3.109l-4.9,4.9h3.938L7.5,322.508Z" transform="translate(-6.517 -234.082)" fill="#36cc8f"/>
      <g id="Grupo_972715" data-name="Grupo 972715" transform="translate(10.872 39.574)">
        <circle id="Elipse_6821" data-name="Elipse 6821" cx="2.107" cy="2.107" r="2.107" transform="translate(45.152 0)" fill="#edf6f9"/>
        <circle id="Elipse_6822" data-name="Elipse 6822" cx="2.107" cy="2.107" r="2.107" transform="translate(41.39 49.25)" fill="#edf6f9"/>
        <circle id="Elipse_6823" data-name="Elipse 6823" cx="2.107" cy="2.107" r="2.107" transform="translate(1.671 20.966)" fill="#edf6f9"/>
        <circle id="Elipse_6824" data-name="Elipse 6824" cx="2.107" cy="2.107" r="2.107" transform="translate(23.345 23.867)" fill="#edf6f9"/>
        <circle id="Elipse_6825" data-name="Elipse 6825" cx="2.107" cy="2.107" r="2.107" transform="translate(0 2.107)" fill="#edf6f9"/>
      </g>
      <path id="Trazado_738109" data-name="Trazado 738109" d="M67.105,100.373a70.55,70.55,0,0,0-6.016-15.046A25.41,25.41,0,0,0,58.821,82a11.173,11.173,0,0,0,3.454-12.688.984.984,0,1,0-1.838.7,9.205,9.205,0,0,1-2.95,10.533,8.053,8.053,0,0,0-5.565-2.574,6.415,6.415,0,0,0-1.613.209A123.38,123.38,0,0,0,46.2,66.027a9.191,9.191,0,0,1,12.274.894A.984.984,0,1,0,59.9,65.56a11.157,11.157,0,0,0-14.475-1.4,57.51,57.51,0,0,0-2.978-5.983c-3.5-6.029-7.286-9.085-11.26-9.085-4.782,0-9.285,4.43-13.382,13.166C16.893,64.2,16,66.371,15.13,68.717a3.091,3.091,0,0,0-1.96,5.767c-.254.808-.508,1.644-.771,2.533a.984.984,0,1,0,1.887.557c.286-.969.562-1.874.839-2.748a3.089,3.089,0,0,0,1.763-5.184c.532-1.454,1.076-2.84,1.628-4.143A3.823,3.823,0,0,0,21.98,67.72c2.26,0,3.051-2.2,3.686-3.977.685-1.911,1.187-3.071,2.375-3.071.85,0,1.163.715,1.672,2.862.516,2.177,1.224,5.158,4.621,5.158,3.04,0,3.635-2.627,4.113-4.738.509-2.25.934-3.727,2.638-4.189A60.355,60.355,0,0,1,44.1,66.081c.009.023.018.047.029.069A119.541,119.541,0,0,1,48.48,78.936c-2.623,1.5-5.11,4.728-7.426,9.667-.7,1.488-1.39,3.15-2.057,4.942a.984.984,0,0,0,1.843.687q.488-1.309.99-2.515a3.167,3.167,0,0,0,2.739,1.531c1.945,0,2.6-1.834,3.131-3.308.566-1.579.92-2.322,1.711-2.322.512,0,.737.419,1.143,2.134s1.014,4.273,3.884,4.273c2.586,0,3.1-2.277,3.478-3.939s.685-2.755,1.822-3.151a68.329,68.329,0,0,1,5.1,12.734h-7.4a3.09,3.09,0,0,0-6.132,0h-12.3c.191-.622.383-1.228.573-1.813a.984.984,0,0,0-1.87-.611c-.253.775-.507,1.588-.759,2.423H29.216v-3.2h6.926a.984.984,0,0,0,.7-1.679L32.4,90.347h2.876a.984.984,0,0,0,.7-1.679l-4.854-4.853h1.771a.984.984,0,0,0,.7-1.679L26.9,75.448a.984.984,0,0,0-1.391,0l-6.688,6.688a.984.984,0,0,0,.7,1.679h1.771l-4.854,4.853a.984.984,0,0,0,.7,1.679H20l-4.438,4.438a.982.982,0,0,0-.284.754l-1.595-1.595h1.564a.984.984,0,0,0,.7-1.679l-3.22-3.22h.735a.984.984,0,0,0,.7-1.679L12.18,85.4c.35-1.419.692-2.747,1.041-4.042a.983.983,0,1,0-1.9-.513c-.257.953-.51,1.923-.765,2.932L9.135,82.351a.984.984,0,0,0-1.391,0L2.728,87.367a.984.984,0,0,0,.7,1.679h.734L.938,92.266a.984.984,0,0,0,.7,1.679H3.2L.288,96.854a.984.984,0,0,0,.7,1.679H5.933v5.222a.984.984,0,0,0,.984.984H9.964a.984.984,0,0,0,.984-.984v-2.119H23.185v2.119a.984.984,0,0,0,.984.984h4.064a.984.984,0,0,0,.984-.984v-2.119h22.5a3.089,3.089,0,0,0,5.311,0h9.137a.983.983,0,0,0,.943-1.262ZM14.65,72.895a1.124,1.124,0,1,1,1.124-1.124A1.125,1.125,0,0,1,14.65,72.895Zm21.879-9.376c-.527,2.326-.852,3.205-2.194,3.205-1.661,0-2.12-1.167-2.707-3.645-.462-1.949-1.038-4.375-3.586-4.375-2.657,0-3.527,2.426-4.226,4.374-.6,1.664-1.018,2.674-1.835,2.674-1.54,0-2.081-1.719-2.27-2.922,3.707-7.811,7.568-11.773,11.476-11.773,2.987,0,5.969,2.346,8.875,6.975C37.554,59,36.97,61.567,36.528,63.519ZM56,89.651c-.429,1.893-.671,2.406-1.56,2.406-1.191,0-1.515-.841-1.97-2.76-.365-1.539-.865-3.647-3.057-3.647-2.262,0-3.014,2.1-3.562,3.625-.507,1.414-.8,2-1.279,2-1.061,0-1.459-1.215-1.608-2.106,2.878-6.043,5.973-9.236,8.961-9.236,1.567,0,3.139.844,4.7,2.516.016.02.033.038.051.056a19.43,19.43,0,0,1,2.048,2.707C56.809,86.077,56.349,88.1,56,89.651Zm-32.927.408a.984.984,0,0,0-.7-1.679H19.5l4.854-4.853a.984.984,0,0,0-.7-1.679H21.886L26.2,77.534l4.314,4.314H28.743a.984.984,0,0,0-.7,1.679L32.9,88.38H30.024a.984.984,0,0,0-.7,1.679L33.767,94.5H18.633ZM6.48,92.585a.983.983,0,0,0-.909-.607H4.008l3.22-3.22a.984.984,0,0,0-.7-1.679H5.8L8.44,84.437l2.642,2.642h-.735a.984.984,0,0,0-.7,1.679l3.22,3.22H11.308a.984.984,0,0,0-.7,1.679l2.909,2.909H3.358l2.909-2.909A.984.984,0,0,0,6.48,92.585Zm2.5,10.186H7.9V98.533H8.981Zm1.967-3.1V98.533H15.9a.984.984,0,0,0,.7-1.679L16.2,96.46c.02,0,.039,0,.06,0h6.927v3.2Zm16.3,3.1h-2.1V96.465h2.1Zm27.12-1.592a1.124,1.124,0,1,1,1.124-1.124A1.125,1.125,0,0,1,54.369,101.179Z" transform="translate(0 -9.124)"/>
      <path id="Trazado_738110" data-name="Trazado 738110" d="M422.775,44.773a3.091,3.091,0,1,0-3.091-3.091A3.095,3.095,0,0,0,422.775,44.773Zm0-4.215a1.124,1.124,0,1,1-1.124,1.124A1.125,1.125,0,0,1,422.775,40.557Z" transform="translate(-364.645 0)"/>
      <path id="Trazado_738111" data-name="Trazado 738111" d="M256.5,226.763a3.091,3.091,0,1,0-3.091-3.091A3.095,3.095,0,0,0,256.5,226.763Zm0-4.216a1.124,1.124,0,1,1-1.124,1.124A1.125,1.125,0,0,1,256.5,222.547Z" transform="translate(-220.172 -158.123)"/>
      <path id="Trazado_738112" data-name="Trazado 738112" d="M78.5,60.845A3.091,3.091,0,1,0,75.4,57.753,3.095,3.095,0,0,0,78.5,60.845Zm0-4.215a1.124,1.124,0,1,1-1.124,1.124A1.125,1.125,0,0,1,78.5,56.629Z" transform="translate(-65.516 -13.964)"/>
    </g>
    <rect id="Rectángulo_343205" data-name="Rectángulo 343205" width="81" height="81" transform="translate(-5235 -18368)" fill="none"/>
  </g>
</svg>
