<svg xmlns="http://www.w3.org/2000/svg" width="120" height="120" viewBox="0 0 120 120">
  <g id="Grupo_972863" data-name="Grupo 972863" transform="translate(-3632 15248)">
    <rect id="Rectángulo_343217" data-name="Rectángulo 343217" width="120" height="120" rx="10" transform="translate(3632 -15248)" fill="#edf2f7"/>
    <g id="hecho" transform="translate(3651.5 -15235.828)">
      <path id="Trazado_738263" data-name="Trazado 738263" d="M55.442,118.452H9.225A1.725,1.725,0,0,1,7.5,116.727V45.418a1.725,1.725,0,0,1,1.725-1.725H55.442a1.725,1.725,0,0,1,1.725,1.725v71.309A1.725,1.725,0,0,1,55.442,118.452Z" transform="translate(0 -30.309)" fill="#e7e2e6"/>
      <path id="Trazado_738264" data-name="Trazado 738264" d="M7.5,55.963v60.763a1.725,1.725,0,0,0,1.725,1.725H55.442a1.725,1.725,0,0,0,1.725-1.725V45.418a1.725,1.725,0,0,0-1.725-1.725H9.225A1.725,1.725,0,0,0,7.5,45.418v5.84" transform="translate(0 -30.309)" fill="none" stroke="#000" stroke-linecap="round" stroke-linejoin="round" stroke-miterlimit="10" stroke-width="2.5"/>
      <path id="Trazado_738265" data-name="Trazado 738265" d="M101.632,82.274H55.415a1.725,1.725,0,0,1-1.725-1.725V9.24a1.725,1.725,0,0,1,1.725-1.725h46.217a1.725,1.725,0,0,1,1.725,1.725V80.549A1.725,1.725,0,0,1,101.632,82.274Z" transform="translate(-38.697 0)" fill="#faf7f8"/>
      <path id="Trazado_738266" data-name="Trazado 738266" d="M330.694,7.516h-3.585a1.725,1.725,0,0,1,1.725,1.725V80.55a1.725,1.725,0,0,1-1.725,1.725h3.585a1.725,1.725,0,0,0,1.725-1.725V9.241A1.725,1.725,0,0,0,330.694,7.516Z" transform="translate(-267.759 -0.001)" fill="#f0eef0"/>
      <path id="Trazado_738267" data-name="Trazado 738267" d="M76.924,82.274h24.707a1.725,1.725,0,0,0,1.725-1.725V9.24a1.725,1.725,0,0,0-1.725-1.725H55.415A1.725,1.725,0,0,0,53.69,9.24V80.549a1.725,1.725,0,0,0,1.725,1.725h16.8" transform="translate(-38.697 0)" fill="none" stroke="#000" stroke-linecap="round" stroke-linejoin="round" stroke-miterlimit="10" stroke-width="2.5"/>
      <path id="Trazado_738268" data-name="Trazado 738268" d="M144.727,47.773H119.04a1.657,1.657,0,0,1-1.657-1.657V42.084a1.657,1.657,0,0,1,1.657-1.657h25.687a1.657,1.657,0,0,1,1.657,1.657v4.031A1.657,1.657,0,0,1,144.727,47.773Z" transform="translate(-92.057 -27.573)" fill="#6ce79a"/>
      <path id="Trazado_738269" data-name="Trazado 738269" d="M269.6,40.426h-3.163a1.657,1.657,0,0,1,1.657,1.657v4.031a1.657,1.657,0,0,1-1.657,1.657H269.6a1.657,1.657,0,0,0,1.657-1.657V42.083A1.657,1.657,0,0,0,269.6,40.426Z" transform="translate(-216.932 -27.572)" fill="#00d8a2"/>
      <path id="Trazado_738270" data-name="Trazado 738270" d="M144.727,47.773H119.04a1.657,1.657,0,0,1-1.657-1.657V42.084a1.657,1.657,0,0,1,1.657-1.657h25.687a1.657,1.657,0,0,1,1.657,1.657v4.031A1.657,1.657,0,0,1,144.727,47.773Z" transform="translate(-92.057 -27.573)" fill="none" stroke="#000" stroke-linecap="round" stroke-linejoin="round" stroke-miterlimit="10" stroke-width="2.5"/>
      <g id="Grupo_972847" data-name="Grupo 972847" transform="translate(21.903 26.31)">
        <line id="Línea_2882" data-name="Línea 2882" x2="35.847" transform="translate(0 46.524)" fill="none" stroke="#000" stroke-linecap="round" stroke-linejoin="round" stroke-miterlimit="10" stroke-width="2.5"/>
        <line id="Línea_2883" data-name="Línea 2883" x2="35.847" transform="translate(0 40.709)" fill="none" stroke="#000" stroke-linecap="round" stroke-linejoin="round" stroke-miterlimit="10" stroke-width="2.5"/>
        <line id="Línea_2884" data-name="Línea 2884" x2="35.847" transform="translate(0 34.893)" fill="none" stroke="#000" stroke-linecap="round" stroke-linejoin="round" stroke-miterlimit="10" stroke-width="2.5"/>
        <line id="Línea_2885" data-name="Línea 2885" x2="35.847" transform="translate(0 29.078)" fill="none" stroke="#000" stroke-linecap="round" stroke-linejoin="round" stroke-miterlimit="10" stroke-width="2.5"/>
        <line id="Línea_2886" data-name="Línea 2886" x2="35.847" transform="translate(0 23.262)" fill="none" stroke="#000" stroke-linecap="round" stroke-linejoin="round" stroke-miterlimit="10" stroke-width="2.5"/>
        <line id="Línea_2887" data-name="Línea 2887" x2="35.847" transform="translate(0 17.447)" fill="none" stroke="#000" stroke-linecap="round" stroke-linejoin="round" stroke-miterlimit="10" stroke-width="2.5"/>
        <line id="Línea_2888" data-name="Línea 2888" x2="35.847" transform="translate(0 11.631)" fill="none" stroke="#000" stroke-linecap="round" stroke-linejoin="round" stroke-miterlimit="10" stroke-width="2.5"/>
        <line id="Línea_2889" data-name="Línea 2889" x2="35.847" transform="translate(0 5.815)" fill="none" stroke="#000" stroke-linecap="round" stroke-linejoin="round" stroke-miterlimit="10" stroke-width="2.5"/>
        <line id="Línea_2890" data-name="Línea 2890" x2="35.847" fill="none" stroke="#000" stroke-linecap="round" stroke-linejoin="round" stroke-miterlimit="10" stroke-width="2.5"/>
      </g>
      <circle id="Elipse_6858" data-name="Elipse 6858" cx="19.304" cy="19.304" r="19.304" transform="translate(49.524 37.941)" fill="#f6b84d"/>
      <path id="Trazado_738271" data-name="Trazado 738271" d="M374.121,195.063a19.5,19.5,0,0,0-2.211.127,19.3,19.3,0,0,1,0,38.355,19.5,19.5,0,0,0,2.211.127,19.3,19.3,0,1,0,0-38.609Z" transform="translate(-305.292 -157.122)" fill="#f6b84d"/>
      <g id="Grupo_972848" data-name="Grupo 972848" transform="translate(57.207 48.551)">
        <path id="Trazado_738272" data-name="Trazado 738272" d="M322.467,277.854a2.7,2.7,0,0,1-1.919-.795l-5.854-5.854a2.714,2.714,0,0,1,3.838-3.838l3.935,3.935L332.51,261.26a2.714,2.714,0,0,1,3.838,3.838l-11.962,11.961A2.7,2.7,0,0,1,322.467,277.854Z" transform="translate(-313.899 -260.465)" fill="#faf7f8"/>
      </g>
      <g id="Grupo_972849" data-name="Grupo 972849" transform="translate(57.207 48.551)">
        <path id="Trazado_738273" data-name="Trazado 738273" d="M322.467,277.854a2.7,2.7,0,0,1-1.919-.795l-5.854-5.854a2.714,2.714,0,0,1,3.838-3.838l3.935,3.935L332.51,261.26a2.714,2.714,0,0,1,3.838,3.838l-11.962,11.961A2.7,2.7,0,0,1,322.467,277.854Z" transform="translate(-313.899 -260.465)" fill="none" stroke="#000" stroke-linecap="round" stroke-linejoin="round" stroke-miterlimit="10" stroke-width="2.5"/>
      </g>
      <path id="Trazado_738274" data-name="Trazado 738274" d="M298.289,199.61a19.3,19.3,0,1,0,3.2,3.45" transform="translate(-217.016 -157.122)" fill="none" stroke="#000" stroke-linecap="round" stroke-linejoin="round" stroke-miterlimit="10" stroke-width="2.5"/>
    </g>
  </g>
</svg>
