<svg xmlns="http://www.w3.org/2000/svg" width="105" height="105" viewBox="0 0 105 105">
  <g id="Grupo_972710" data-name="Grupo 972710" transform="translate(-1230 -1480)">
    <circle id="Elipse_6820" data-name="Elipse 6820" cx="52.5" cy="52.5" r="52.5" transform="translate(1230 1480)" fill="#52c194"/>
    <g id="Outline" transform="translate(1248 1498)">
      <path id="Trazado_737013" data-name="Trazado 737013" d="M54.175,41.131a13.043,13.043,0,0,0-2.374.227,39.081,39.081,0,0,0,1.247-8.923h3.3a1.087,1.087,0,1,0,0-2.174H53.064a10.884,10.884,0,0,0,4.16-6.564,8.587,8.587,0,0,0,1.153-.2,25.879,25.879,0,0,1,.254,14.926,1.087,1.087,0,0,0,.751,1.341,1.072,1.072,0,0,0,.3.041,1.087,1.087,0,0,0,1.046-.792,28.051,28.051,0,0,0-.313-16.284A8.7,8.7,0,1,0,50.4,8.713a27.866,27.866,0,0,0-15.8-5.582c-.354-.027-.711-.045-1.07-.045a28.082,28.082,0,0,0-10.18,1.9A13.019,13.019,0,0,0,7.652,4.3,1.087,1.087,0,0,0,8.886,6.09,10.856,10.856,0,0,1,23.74,21.54a6.532,6.532,0,0,0-4.611-6.209,5.435,5.435,0,1,0-8.168,0A6.532,6.532,0,0,0,6.348,21.54,10.819,10.819,0,0,1,6.09,8.886,1.087,1.087,0,0,0,4.3,7.652,13,13,0,0,0,6.113,24.524a27.935,27.935,0,0,0-.066,13.427,1.087,1.087,0,0,0,2.114-.507,26.3,26.3,0,0,1-.693-5.01h6.522A37.967,37.967,0,0,0,16.58,45.5c-.153-.007-.3-.023-.449-.023a10.814,10.814,0,0,0-4.006.774,26.129,26.129,0,0,1-2.669-4.841,1.087,1.087,0,1,0-2.005.839,28.4,28.4,0,0,0,2.728,5.013,10.863,10.863,0,1,0,16.542,11.5,27.706,27.706,0,0,0,15.109-.423,13.058,13.058,0,0,0,12.345,8.881c.143,0,.284-.009.424-.018l.172-.01a1.087,1.087,0,0,0,1.035-1.137,1.105,1.105,0,0,0-1.136-1.035l-.217.013c-.092.007-.184.013-.277.013a10.8,10.8,0,0,1-6.522-2.195V60.7A4.348,4.348,0,0,1,52,56.349h4.348A4.348,4.348,0,0,1,60.7,60.7v2.135a10.82,10.82,0,0,1-2.174,1.3,1.088,1.088,0,0,0,.87,2,13.044,13.044,0,0,0-5.217-25Zm-4.822.935A13.074,13.074,0,0,0,44.917,45c-1.173-.359-2.367-.652-3.579-.9.392-2.684.652-5.523.783-8.358a1.087,1.087,0,0,0-1.037-1.138,1.114,1.114,0,0,0-1.135,1.037A80.7,80.7,0,0,1,39.2,43.72a39.566,39.566,0,0,0-11.351-.014,84.716,84.716,0,0,1-.827-11.271H50.874A36.617,36.617,0,0,1,49.353,42.066ZM33.631,57.414h-.217c-1.751-.167-3.9-4.338-5.217-11.557a37.345,37.345,0,0,1,10.652.013C37.491,53.287,35.275,57.248,33.631,57.414Zm6.44-27.153H27.017a84.775,84.775,0,0,1,.829-11.292,40.081,40.081,0,0,0,5.676.422c.761,0,1.56-.03,2.414-.088a10.819,10.819,0,0,0,4.135,10.958Zm4.321-10.87a2.174,2.174,0,1,1,2.174,2.174A2.174,2.174,0,0,1,44.392,19.392Zm0,4.348H48.74a2.174,2.174,0,0,1,2.174,2.174v3.172a8.625,8.625,0,0,1-8.7,0V25.914A2.174,2.174,0,0,1,44.392,23.74Zm8.7,3.559V25.914a4.34,4.34,0,0,0-2.922-4.088,4.348,4.348,0,1,0-7.2,0,4.34,4.34,0,0,0-2.922,4.088V27.3a8.7,8.7,0,1,1,13.044,0Zm-8.78-16.363A10.81,10.81,0,0,0,40.2,12.776a25.3,25.3,0,0,0-2.6-6.754,16.013,16.013,0,0,1,6.708,4.913ZM59.61,20.7a6.406,6.406,0,0,1-.846.413.087.087,0,0,0-.04.007c-.013.007-.025.017-.039.023a6.385,6.385,0,0,1-1.249.337,10.87,10.87,0,0,0-.5-3.171h.5a2.174,2.174,0,0,1,2.174,2.174Zm-3.261-4.565a1.579,1.579,0,0,1-.421-.06,10.856,10.856,0,0,0-1.2-1.661,1.63,1.63,0,1,1,1.616,1.721Zm0-7.609a6.514,6.514,0,0,1,5.164,10.495,4.34,4.34,0,0,0-2.04-2.355A3.795,3.795,0,1,0,52.965,12.8a10.87,10.87,0,0,0-2.125-1.224A6.484,6.484,0,0,1,56.349,8.522Zm-7.332,1.873c-.109.167-.2.341-.3.517a10.829,10.829,0,0,0-1.823-.2,22.609,22.609,0,0,0-2.92-3.269,26.109,26.109,0,0,1,5.038,2.95ZM38.365,14.457a10.89,10.89,0,0,0-1.678,2.609c-1.167.1-2.186.152-3.164.152a37.851,37.851,0,0,1-5.326-.392c1.342-7.36,3.558-11.564,5.326-11.564,1.385,0,3.395,2.857,4.839,9.2ZM25.044,6.681a25.777,25.777,0,0,1,4.783-1.155A20.033,20.033,0,0,0,27.409,10.9a13.014,13.014,0,0,0-2.365-4.222Zm.142,16.551c-.2,2.3-.326,4.674-.349,7.029H16.161q.03-1.118.127-2.237a13.03,13.03,0,0,0,8.895-4.792ZM15.044,8.522a3.261,3.261,0,1,1-3.261,3.261,3.261,3.261,0,0,1,3.261-3.261Zm-2.174,8.7h4.348a4.348,4.348,0,0,1,4.348,4.348v2.153a10.788,10.788,0,0,1-13.044,0V21.566a4.348,4.348,0,0,1,4.348-4.348ZM14.107,28.04q-.089,1.112-.12,2.222H7.472A26.037,26.037,0,0,1,7.995,26a12.929,12.929,0,0,0,6.112,2.038Zm2.052,4.4h8.675a88.18,88.18,0,0,0,.887,11.64,36.03,36.03,0,0,0-6.377,1.889c-.073-.023-.149-.037-.217-.058a35.189,35.189,0,0,1-2.967-13.472ZM11.783,63.869V60.7a2.174,2.174,0,0,1,2.174-2.174H18.3A2.174,2.174,0,0,1,20.479,60.7v3.172A8.625,8.625,0,0,1,11.783,63.869Zm2.174-9.694a2.174,2.174,0,1,1,2.174,2.174A2.174,2.174,0,0,1,13.957,54.175Zm8.7,7.907V60.7a4.34,4.34,0,0,0-2.922-4.088,4.348,4.348,0,1,0-7.2,0A4.34,4.34,0,0,0,9.609,60.7v1.385a8.7,8.7,0,1,1,13.044,0ZM22.1,47.275a34.783,34.783,0,0,1,3.974-1.052c.838,4.628,2.09,8.551,3.733,10.932a25.813,25.813,0,0,1-2.817-.571c0-.079.012-.155.012-.235A10.863,10.863,0,0,0,22.1,47.275Zm15.179,9.867c1.652-2.391,2.888-6.326,3.71-10.894q1.225.249,2.417.582a12.761,12.761,0,0,0-2.1,9.4,26.062,26.062,0,0,1-4.032.914Zm16.9-2.966a3.261,3.261,0,1,1,3.261-3.261,3.261,3.261,0,0,1-3.261,3.261Zm8.7,6.475a6.532,6.532,0,0,0-4.61-6.188,5.435,5.435,0,1,0-8.168,0,6.532,6.532,0,0,0-4.614,6.209,10.878,10.878,0,1,1,17.392-.021Z" transform="translate(0)" fill="#fff"/>
    </g>
  </g>
</svg>
