<svg xmlns="http://www.w3.org/2000/svg" width="120" height="120" viewBox="0 0 120 120">
  <g id="Grupo_972860" data-name="Grupo 972860" transform="translate(-3632 13780)">
    <rect id="Rectángulo_343220" data-name="Rectángulo 343220" width="120" height="120" rx="10" transform="translate(3632 -13780)" fill="#edf2f7"/>
    <g id="ecologia" transform="translate(3650.461 -13794.044)">
      <path id="Trazado_738300" data-name="Trazado 738300" d="M23.859,144.72a8.172,8.172,0,1,0-8.172,8.172H86.513V95.687H23.859Z" transform="translate(-6.238 -46.16)" fill="#fdf8e4"/>
      <path id="Trazado_738301" data-name="Trazado 738301" d="M11.6,342.589v14.158a8.175,8.175,0,0,1,0-14.158Z" transform="translate(-6.238 -251.108)" fill="#7fdcc7"/>
      <g id="Grupo_972854" data-name="Grupo 972854" transform="translate(33.966 76.853)">
        <path id="Trazado_738302" data-name="Trazado 738302" d="M199.89,256.5h2.724v2.554H199.89Z" transform="translate(-199.89 -256.501)" fill="#fff"/>
      </g>
      <path id="Trazado_738303" data-name="Trazado 738303" d="M448.376,95.687h4.086v57.206h-4.086Z" transform="translate(-372.187 -46.16)" fill="#7fdcc7"/>
      <path id="Trazado_738304" data-name="Trazado 738304" d="M15.687,96.626a8.172,8.172,0,0,1,8.172,8.172V55.765a8.172,8.172,0,1,0-16.344,0V104.8A8.172,8.172,0,0,1,15.687,96.626Z" transform="translate(-6.238 -6.238)" fill="#cad8ea"/>
      <path id="Trazado_738305" data-name="Trazado 738305" d="M11.6,54.026v49.033a8.171,8.171,0,0,0-4.086,7.079V61.105a8.14,8.14,0,0,1,2.394-5.778A8.225,8.225,0,0,1,11.6,54.026Z" transform="translate(-6.238 -11.578)" fill="#96b1d6"/>
      <g id="Grupo_972858" data-name="Grupo 972858" transform="translate(31.241 41.355)">
        <path id="Trazado_738306" data-name="Trazado 738306" d="M281.722,376.235h-8.172l-9.534,9.534h27.241Z" transform="translate(-250.395 -320.392)" fill="#dfa357"/>
        <path id="Trazado_738307" data-name="Trazado 738307" d="M341.6,376.235h-5.448l9.534,9.534h5.448Z" transform="translate(-310.277 -320.392)" fill="#e07f66"/>
        <g id="Grupo_972857" data-name="Grupo 972857">
          <path id="Trazado_738308" data-name="Trazado 738308" d="M202.216,53.052c4.217,4.217,4.554,10.33.992,13.892s-9.675,3.225-13.892-.992c-5.458-5.458-5.458-18.358-5.458-18.358s12.9,0,18.358,5.458Z" transform="translate(-183.858 -47.594)" fill="#e2fc85"/>
          <path id="Trazado_738309" data-name="Trazado 738309" d="M202.217,53.051c-5.458-5.458-18.358-5.458-18.358-5.458s0,.561.05,1.5c4.1.327,11.714,1.453,15.584,5.323,4.217,4.217,4.554,10.33.992,13.892a8.213,8.213,0,0,1-.846.734,8.228,8.228,0,0,0,3.57-2.1C206.771,63.381,206.434,57.268,202.217,53.051Z" transform="translate(-183.859 -47.593)" fill="#7bdaa9"/>
          <g id="Grupo_972855" data-name="Grupo 972855" transform="translate(6.81 6.895)">
            <path id="Trazado_738310" data-name="Trazado 738310" d="M223.937,88.172h2.724v2.554h-2.724Z" transform="translate(-223.937 -88.172)" fill="#fff"/>
          </g>
          <path id="Trazado_738311" data-name="Trazado 738311" d="M379.669,133.208c-4.217,4.217-4.554,10.33-.992,13.892s9.675,3.225,13.892-.992c5.458-5.458,5.458-18.358,5.458-18.358S385.127,127.75,379.669,133.208Z" transform="translate(-343.546 -114.13)" fill="#e2fc85"/>
          <path id="Trazado_738312" data-name="Trazado 738312" d="M394.262,146.108c5.458-5.458,5.458-18.358,5.458-18.358s-.561,0-1.5.05c-.327,4.1-1.453,11.714-5.323,15.584-4.217,4.217-10.33,4.554-13.892.992a8.213,8.213,0,0,1-.734-.846,8.229,8.229,0,0,0,2.1,3.57C383.932,150.662,390.045,150.325,394.262,146.108Z" transform="translate(-345.238 -114.13)" fill="#7bdaa9"/>
          <g id="Grupo_972856" data-name="Grupo 972856" transform="translate(44.947 20.516)">
            <path id="Trazado_738313" data-name="Trazado 738313" d="M448.376,168.329H451.1v2.554h-2.724Z" transform="translate(-448.376 -168.329)" fill="#fff"/>
          </g>
        </g>
      </g>
      <g id="Grupo_972859" data-name="Grupo 972859" transform="translate(0 40.078)">
        <path id="Trazado_738314" data-name="Trazado 738314" d="M167.828,256.5h2.724v2.554h-2.724Z" transform="translate(-139.31 -219.726)"/>
        <path id="Trazado_738315" data-name="Trazado 738315" d="M231.953,256.5h2.724v2.554h-2.724Z" transform="translate(-192.539 -219.726)"/>
        <path id="Trazado_738316" data-name="Trazado 738316" d="M79.363,72.43c-2.711,2.711-6.458,3.735-9.547,2.61l-.875,2.4a10.115,10.115,0,0,0,3.473.6,12.546,12.546,0,0,0,8.754-3.806C86.934,68.471,87,55.524,87,54.975V53.7H85.723c-.189,0-1.845.008-4.171.253v-5.7H55.758V50.8H79V54.29c-4.218.677-9.423,2.128-12.536,5.24-4.332,4.332-5.024,10.56-1.833,14.733l-4.87,4.87v-22.8H57.206v9.175l-4.87-4.87c3.191-4.173,2.5-10.4-1.833-14.733-5.765-5.765-18.712-5.832-19.261-5.832H29.965v1.277c0,.548.066,13.5,5.832,19.261a12.6,12.6,0,0,0,8.01,3.785q.37.025.735.025a9.772,9.772,0,0,0,5.988-1.976l6.676,6.676v26.8H53.868l-9.534,9.534H9.449a6.9,6.9,0,1,1,6.9-6.9H18.9V50.8h9.619V48.25H18.809A9.448,9.448,0,0,0,0,49.527V98.561a9.46,9.46,0,0,0,9.449,9.449h72.1V78.13H79v27.326H72.632L63.1,95.921H59.759V82.745l15.97-15.97-1.806-1.806-7.467,7.467c-2.172-3.161-1.492-7.8,1.812-11.1,4.038-4.038,12.8-4.869,16.135-5.04a47.088,47.088,0,0,1-.627,5.632c-.849,4.832-2.375,8.463-4.414,10.5ZM43.976,61.852A10.055,10.055,0,0,1,37.6,58.81c-4.038-4.038-4.869-12.8-5.04-16.135a47.05,47.05,0,0,1,5.592.621c4.852.847,8.5,2.376,10.542,4.421,3.3,3.3,3.983,7.939,1.812,11.1l-7.467-7.467-1.806,1.806L48.7,60.62a7.405,7.405,0,0,1-4.725,1.232ZM2.554,49.527a6.9,6.9,0,0,1,13.791,0V92.109a9.428,9.428,0,0,0-13.791,0V49.527ZM69.02,105.456H47.945l6.98-6.98H62.04Z" transform="translate(0 -40.078)"/>
      </g>
    </g>
  </g>
</svg>
