<svg xmlns="http://www.w3.org/2000/svg" xmlns:xlink="http://www.w3.org/1999/xlink" width="80" height="80" viewBox="0 0 80 80">
  <defs>
    <clipPath id="clip-path">
      <path id="path1821" d="M0-682.665H47.049v47.049H0Z" transform="translate(0 682.665)"/>
    </clipPath>
  </defs>
  <g id="Grupo_972671" data-name="Grupo 972671" transform="translate(-429.25 -4460)">
    <g id="Elipse_6749" data-name="Elipse 6749" transform="translate(429.25 4460)" fill="#bfdb77" stroke="#fff" stroke-width="3">
      <circle cx="40" cy="40" r="40" stroke="none"/>
      <circle cx="40" cy="40" r="38.5" fill="none"/>
    </g>
    <g id="g1815" transform="translate(447.951 5158.141)">
      <g id="g1817" transform="translate(0 -682.665)">
        <g id="g1819" transform="translate(0 0)" clip-path="url(#clip-path)">
          <g id="g1825" transform="translate(1.007 6.146)">
            <path id="path1827" d="M-270.1-540.168a20.015,20.015,0,0,1-19.993-19.992A20.015,20.015,0,0,1-270.1-580.152a20.015,20.015,0,0,1,19.993,19.992A20.015,20.015,0,0,1-270.1-540.168" transform="translate(290.091 580.152)" fill="#e5ecec"/>
          </g>
          <g id="g1829" transform="translate(1.007 6.146)">
            <path id="path1831" d="M-270.1-540.168a20.015,20.015,0,0,1-19.993-19.992A20.015,20.015,0,0,1-270.1-580.152a20.015,20.015,0,0,1,19.993,19.992A20.015,20.015,0,0,1-270.1-540.168Z" transform="translate(290.091 580.152)" fill="none" stroke="#000" stroke-linecap="round" stroke-linejoin="round" stroke-miterlimit="10" stroke-width="2"/>
          </g>
          <g id="g1833" transform="translate(5.851 10.99)">
            <path id="path1835" d="M-204.656-409.292A15.166,15.166,0,0,1-219.8-424.44a15.132,15.132,0,0,1,5.94-12.02q.153-.117.309-.231a15.132,15.132,0,0,1,3.767-2,15.081,15.081,0,0,1,5.134-.9,15.166,15.166,0,0,1,15.149,15.148,15.166,15.166,0,0,1-15.149,15.148" transform="translate(219.805 439.588)" fill="#f5737f"/>
          </g>
          <g id="g1837" transform="translate(5.851 10.99)">
            <path id="path1839" d="M-135.3-12.094a15.082,15.082,0,0,1,5.134-.9A15.166,15.166,0,0,1-115.022,2.159a15.166,15.166,0,0,1-15.149,15.148A15.166,15.166,0,0,1-145.32,2.159a15.068,15.068,0,0,1,2.908-8.915" transform="translate(145.32 12.989)" fill="#f5737f" stroke="#000" stroke-linecap="round" stroke-linejoin="round" stroke-miterlimit="10" stroke-width="2"/>
          </g>
          <g id="g1841" transform="translate(12.099 13.887)">
            <path id="path1843" d="M0,0Z" fill="#f5737f"/>
          </g>
          <g id="g1845" transform="translate(12.099 13.887)">
            <path id="path1847" d="M0,0H0" fill="none" stroke="#000" stroke-linecap="round" stroke-linejoin="round" stroke-miterlimit="10" stroke-width="2"/>
          </g>
          <g id="g1849" transform="translate(10.695 15.834)">
            <path id="path1851" d="M-139.216-278.417a10.316,10.316,0,0,1-10.3-10.3,10.316,10.316,0,0,1,10.3-10.3,10.316,10.316,0,0,1,10.3,10.3,10.316,10.316,0,0,1-10.3,10.3" transform="translate(149.521 299.026)" fill="#e5ecec"/>
          </g>
          <g id="g1853" transform="translate(10.695 15.834)">
            <path id="path1855" d="M-202.454-263.208a10.243,10.243,0,0,1-4.681,1.126,10.316,10.316,0,0,1-10.3-10.3,10.316,10.316,0,0,1,10.3-10.3,10.316,10.316,0,0,1,10.3,10.3,10.267,10.267,0,0,1-.522,3.242" transform="translate(217.439 282.691)" fill="none" stroke="#000" stroke-linecap="round" stroke-linejoin="round" stroke-miterlimit="10" stroke-width="2"/>
          </g>
          <g id="g1857" transform="translate(28.893 32.756)">
            <path id="path1859" d="M0,0H0" fill="none" stroke="#000" stroke-linecap="round" stroke-linejoin="round" stroke-miterlimit="10" stroke-width="2"/>
          </g>
          <g id="g1861" transform="translate(15.539 20.678)">
            <path id="path1863" d="M-147.548-73.77a5.461,5.461,0,0,1-5.461,5.461,5.461,5.461,0,0,1-5.461-5.461,5.461,5.461,0,0,1,5.461-5.461,5.461,5.461,0,0,1,5.461,5.461" transform="translate(158.47 79.23)" fill="#f5737f"/>
          </g>
          <g id="g1865" transform="translate(15.539 20.678)">
            <path id="path1867" d="M-147.548-73.77a5.461,5.461,0,0,1-5.461,5.461,5.461,5.461,0,0,1-5.461-5.461,5.461,5.461,0,0,1,5.461-5.461A5.461,5.461,0,0,1-147.548-73.77Z" transform="translate(158.47 79.23)" fill="none" stroke="#000" stroke-linecap="round" stroke-linejoin="round" stroke-miterlimit="10" stroke-width="2"/>
          </g>
          <g id="g1869" transform="translate(21.109 8.587)">
            <path id="path1871" d="M-233.352,0l-17.273,17.272" transform="translate(250.625)" fill="none" stroke="#000" stroke-linecap="round" stroke-linejoin="round" stroke-miterlimit="10" stroke-width="2"/>
          </g>
          <g id="g1873" transform="translate(34.993 0.919)">
            <path id="path1875" d="M-65.084,0l-4,4A2.782,2.782,0,0,0-69.9,5.87l.091,5.1L-64.65,5.8Z" transform="translate(69.901)" fill="#ffcb7c"/>
          </g>
          <g id="g1877" transform="translate(34.993 0.919)">
            <path id="path1879" d="M-65.084,0l-4,4A2.782,2.782,0,0,0-69.9,5.87l.091,5.1L-64.65,5.8Z" transform="translate(69.901)" fill="none" stroke="#000" stroke-linecap="round" stroke-linejoin="round" stroke-miterlimit="10" stroke-width="2"/>
          </g>
          <g id="g1881" transform="translate(35.083 6.717)">
            <path id="path1883" d="M-148.054-5.86l-5.8-.434-5.161,5.169,5.089.082a2.783,2.783,0,0,0,1.866-.813Z" transform="translate(159.013 6.293)" fill="#ffd89e"/>
          </g>
          <g id="g1885" transform="translate(35.083 6.717)">
            <path id="path1887" d="M-148.054-5.86l-5.8-.434-5.161,5.169,5.089.082a2.783,2.783,0,0,0,1.866-.813Z" transform="translate(159.013 6.293)" fill="none" stroke="#000" stroke-linecap="round" stroke-linejoin="round" stroke-miterlimit="10" stroke-width="2"/>
          </g>
        </g>
      </g>
    </g>
  </g>
</svg>
