<svg xmlns="http://www.w3.org/2000/svg" width="38" height="38" viewBox="0 0 38 38">
  <g id="Grupo_972887" data-name="Grupo 972887" transform="translate(-798.375 -1845.5)">
    <g id="Elipse_5975" data-name="Elipse 5975" transform="translate(798.375 1845.5)" fill="#bfdb77" stroke="#fff" stroke-width="3">
      <circle cx="19" cy="19" r="19" stroke="none"/>
      <circle cx="19" cy="19" r="17.5" fill="none"/>
    </g>
    <path id="Trazado_738342" data-name="Trazado 738342" d="M-1.723-7.638h1.4A1.453,1.453,0,0,0,1.336-9.264,1.406,1.406,0,0,0,.94-10.3a1.5,1.5,0,0,0-1.116-.4,1.606,1.606,0,0,0-1.024.343,1.046,1.046,0,0,0-.435.853H-4.6a3.032,3.032,0,0,1,.563-1.8,3.715,3.715,0,0,1,1.56-1.235,5.334,5.334,0,0,1,2.193-.444,5.241,5.241,0,0,1,3.357.976A3.243,3.243,0,0,1,4.3-9.325a2.7,2.7,0,0,1-.505,1.56A3.6,3.6,0,0,1,2.32-6.574a3.441,3.441,0,0,1,1.6,1.121A2.951,2.951,0,0,1,4.5-3.595,3.3,3.3,0,0,1,3.182-.853,5.472,5.472,0,0,1-.281.176,5.675,5.675,0,0,1-2.615-.3,3.656,3.656,0,0,1-4.245-1.63,3.45,3.45,0,0,1-4.8-3.56h2.979a1.334,1.334,0,0,0,.475,1.02,1.676,1.676,0,0,0,1.169.431,1.755,1.755,0,0,0,1.248-.435,1.454,1.454,0,0,0,.466-1.112,1.7,1.7,0,0,0-.483-1.371,2.021,2.021,0,0,0-1.336-.4H-1.723Z" transform="translate(817.375 1870.5)" fill="#12263f"/>
  </g>
</svg>
