<svg xmlns="http://www.w3.org/2000/svg" width="80" height="80" viewBox="0 0 80 80">
  <g id="Grupo_972670" data-name="Grupo 972670" transform="translate(-760 -4460)">
    <g id="Elipse_6750" data-name="Elipse 6750" transform="translate(760 4460)" fill="#bfdb77" stroke="#fff" stroke-width="3">
      <circle cx="40" cy="40" r="40" stroke="none"/>
      <circle cx="40" cy="40" r="38.5" fill="none"/>
    </g>
    <g id="objetivo_1_" data-name="objetivo (1)" transform="translate(776.816 4473.252)">
      <path id="Trazado_737655" data-name="Trazado 737655" d="M41.814,456.734h-8.79v-3.1A1.633,1.633,0,0,1,34.657,452H40.18a1.633,1.633,0,0,1,1.633,1.634Zm0,0" transform="translate(-30.045 -411.238)" fill="#a7c7d3"/>
      <path id="Trazado_737656" data-name="Trazado 737656" d="M139.287,415.824H130.5v-7.156a1.633,1.633,0,0,1,1.633-1.633h5.524a1.633,1.633,0,0,1,1.633,1.633Zm0,0" transform="translate(-118.728 -370.328)" fill="#336367"/>
      <path id="Trazado_737657" data-name="Trazado 737657" d="M236.763,371.876h-8.79V360.364a1.633,1.633,0,0,1,1.633-1.634h5.524a1.634,1.634,0,0,1,1.633,1.634Zm0,0" transform="translate(-207.414 -326.38)" fill="#52c194"/>
      <path id="Trazado_737658" data-name="Trazado 737658" d="M334.239,305.214h-8.79V287.094a1.633,1.633,0,0,1,1.633-1.633h5.523a1.633,1.633,0,0,1,1.633,1.633Zm0,0" transform="translate(-296.1 -259.718)" fill="#f6b84d"/>
      <path id="Trazado_737659" data-name="Trazado 737659" d="M351.906,24.433h8.842a.3.3,0,0,0,.2-.52l-2.3-2.022a.3.3,0,0,1,0-.446l2.3-2.022a.3.3,0,0,0-.2-.52h-8.842Zm0,0" transform="translate(-320.171 -17.198)" fill="#fdb659"/>
      <path id="Trazado_737660" data-name="Trazado 737660" d="M229.881,108.93l-9.578,5.2c-.855.464-1.088,1.28-1.387,2.331l-1.9,6.735,4.668-1.912,1.812-5.476,4.82-2.928A3.527,3.527,0,0,0,229.881,108.93Zm0,0" transform="translate(-197.441 -99.106)" fill="#83d9ff"/>
      <path id="Trazado_737661" data-name="Trazado 737661" d="M229.881,108.93l-1.105.6a3.526,3.526,0,0,1-1.63,2.338l-4.392,2.668a1.363,1.363,0,0,0-.586.736l-.627,1.9a7.108,7.108,0,0,1-4.053,4.345l-.476,1.685,4.668-1.913,1.812-5.476,4.82-2.928A3.528,3.528,0,0,0,229.881,108.93Zm0,0" transform="translate(-197.441 -99.106)" fill="#5fc9ed"/>
      <path id="Trazado_737662" data-name="Trazado 737662" d="M221.679,245.926l2.759,3.26c.457.605.855,1.031.772,1.7l-.645,5.214h-1.683l-.44-4.483a.749.749,0,0,0-.449-.614l-4.981-3.161Zm0,0" transform="translate(-197.441 -223.748)" fill="#38627c"/>
      <path id="Trazado_737663" data-name="Trazado 737663" d="M181.038,247.839l-.269,4.942a2.171,2.171,0,0,1-.12.992l-3.176,6.683h1.786l4.776-6.344a2.582,2.582,0,0,0,.405-1.172l1.266-7.013Zm0,0" transform="translate(-161.468 -223.748)" fill="#4f7693"/>
      <path id="Trazado_737664" data-name="Trazado 737664" d="M230.985,112.729l.783,1.529a1.462,1.462,0,0,1-.635,1.968l-.606.31a1.462,1.462,0,0,1-1.967-.635l-.783-1.529a1.462,1.462,0,0,1,.635-1.968l.606-.31A1.462,1.462,0,0,1,230.985,112.729Zm0,0" transform="translate(-207.09 -101.839)" fill="#fecbaa"/>
      <path id="Trazado_737665" data-name="Trazado 737665" d="M41.22,6.207,39.247,4.47,41.22,2.733a.974.974,0,0,0-.644-1.7H32.412V.677a.677.677,0,0,0-1.353,0V9.8L25.5,12.821a2.141,2.141,0,0,0-.22-.711L24.5,10.581a2.141,2.141,0,0,0-2.878-.929l-.606.31a2.138,2.138,0,0,0-.929,2.878l.783,1.529a2.125,2.125,0,0,0,.771.837,5.928,5.928,0,0,0-.816,1.963l-.146.516a.676.676,0,0,0,.467.835.666.666,0,0,0,.184.026.677.677,0,0,0,.651-.493l.146-.515c.3-1.046.479-1.606,1.059-1.921l1.04-.565.128-.066c.043-.022.082-.046.123-.071l7.409-4.023a2.864,2.864,0,0,1-1.366,2.3L25.7,16.122l-.017.01-1.5.911a.677.677,0,0,0,.647,1.187l-1.138,3.44-.832.341-2.262.927.652-2.3a.677.677,0,1,0-1.3-.368l-1.03,3.641a.65.65,0,0,0-.024.147L18.625,29a2.265,2.265,0,0,1-.055.73l-2.993,6.3H13.4a2.313,2.313,0,0,0-2.311,2.31v1.953a2.292,2.292,0,0,0-.957-.208H4.612A2.313,2.313,0,0,0,2.3,42.4v2.424H.677a.677.677,0,0,0,0,1.353h39.9a.677.677,0,0,0,0-1.353h-1.76V27.377a2.313,2.313,0,0,0-2.31-2.31H32.412V13.261a4.22,4.22,0,0,0,.68-3.617.677.677,0,0,0-.68-.5V7.912h8.165a.974.974,0,0,0,.644-1.7ZM21.242,11.626a.78.78,0,0,1,.389-.458l.606-.31a.785.785,0,0,1,1.056.341l.783,1.529a.786.786,0,0,1-.261,1.009l-.221.119-.465.238a.786.786,0,0,1-1.056-.341l-.783-1.529A.78.78,0,0,1,21.242,11.626Zm-1.36,24.613a2.3,2.3,0,0,0-.743-.2l.743-.987ZM23.1,30.785a2.55,2.55,0,0,0,.488-1.213c.018-.087.352-1.911.352-1.911s.316.2.349.211a.072.072,0,0,1,.042.059l.368,3.742H22.426Zm4-3.735-.571,4.62h-.472L25.673,27.8a1.426,1.426,0,0,0-.8-1.144l-.681-.432.453-2.513s1.91,2.269,1.954,2.327C27,26.552,27.133,26.757,27.1,27.05Zm-7.31,3.275a3.669,3.669,0,0,0,.19-1.256l.246-4.515,3.13-1.283-.569,3.151c0,.008,0,.017,0,.026l-.471,2.606a2.578,2.578,0,0,1-.283.9L17.452,36.03h-.377ZM3.655,42.4a.958.958,0,0,1,.957-.956h5.523a.958.958,0,0,1,.957.956v2.424H3.655Zm8.79,0V38.34a.958.958,0,0,1,.957-.957h5.523a.958.958,0,0,1,.957.957v6.479H12.445V42.4ZM37.463,27.377V44.819H30.026V40.762a.677.677,0,0,0-1.354,0v4.057H21.235V33.984a.958.958,0,0,1,.957-.956h5.523a.958.958,0,0,1,.957.956v3.392a.677.677,0,1,0,1.353,0v-10a.958.958,0,0,1,.957-.957h5.523A.958.958,0,0,1,37.463,27.377Zm-6.48-2.31a2.313,2.313,0,0,0-2.31,2.31v4.506a2.291,2.291,0,0,0-.785-.2l.552-4.464a2.613,2.613,0,0,0-.764-2C27.63,25.153,25,22.03,25,22.03l1.614-4.879,4.445-2.7V25.066ZM32.412,6.558V2.381h7.159L38.029,3.739a.974.974,0,0,0,0,1.462l1.542,1.358H32.412Zm0,0"/>
    </g>
  </g>
</svg>
