<svg xmlns="http://www.w3.org/2000/svg" width="21" height="21" viewBox="0 0 21 21">
  <g id="Grupo_972890" data-name="Grupo 972890" transform="translate(-594 -1677)">
    <g id="Elipse_6717" data-name="Elipse 6717" transform="translate(594 1677)" fill="#f6b84d" stroke="#0e494d" stroke-width="1">
      <circle cx="10.5" cy="10.5" r="10.5" stroke="none"/>
      <circle cx="10.5" cy="10.5" r="10" fill="none"/>
    </g>
    <path id="Trazado_738342" data-name="Trazado 738342" d="M-6.047-6.555h1.156A2.069,2.069,0,0,0-3.5-7.008,1.617,1.617,0,0,0-2.992-8.3a1.762,1.762,0,0,0-.426-1.262,1.714,1.714,0,0,0-1.3-.449,1.813,1.813,0,0,0-1.258.441,1.475,1.475,0,0,0-.492,1.152h-1.9A2.874,2.874,0,0,1-7.9-10.008a3.123,3.123,0,0,1,1.3-1.121,4.225,4.225,0,0,1,1.863-.4,3.912,3.912,0,0,1,2.676.855A3,3,0,0,1-1.094-8.3a2.417,2.417,0,0,1-.488,1.441,3.062,3.062,0,0,1-1.262,1.02A2.791,2.791,0,0,1-1.418-4.828,2.759,2.759,0,0,1-.93-3.187,3.055,3.055,0,0,1-1.98-.75,4.08,4.08,0,0,1-4.742.156,4.049,4.049,0,0,1-7.43-.719,2.882,2.882,0,0,1-8.477-3.047h1.9a1.588,1.588,0,0,0,.5,1.219,1.911,1.911,0,0,0,1.355.469,1.971,1.971,0,0,0,1.391-.469A1.758,1.758,0,0,0-2.82-3.187,1.776,1.776,0,0,0-3.352-4.57,2.271,2.271,0,0,0-4.93-5.055H-6.047Z" transform="translate(609 1693)" fill="#12263f"/>
  </g>
</svg>
